M48
; DRILL file {KiCad (7.0.0)} date Mon Apr 29 17:20:02 2024
; FORMAT={-:-/ absolute / inch / decimal}
; #@! TF.CreationDate,2024-04-29T17:20:02+02:00
; #@! TF.GenerationSoftware,Kicad,Pcbnew,(7.0.0)
; #@! TF.FileFunction,NonPlated,1,2,NPTH
FMAT,2
INCH
; #@! TA.AperFunction,NonPlated,NPTH,ComponentDrill
T1C0.0670
; #@! TA.AperFunction,NonPlated,NPTH,ComponentDrill
T2C0.1570
%
G90
G05
T1
X1.1125Y-1.3125
X1.1125Y-2.0625
X1.1125Y-2.8125
X1.1125Y-3.5625
X1.5125Y-1.3125
X1.5125Y-2.0625
X1.5125Y-2.8125
X1.5125Y-3.5625
X1.8625Y-1.3125
X1.8625Y-2.0625
X1.8625Y-2.8125
X1.8625Y-3.5625
X2.2625Y-1.3125
X2.2625Y-2.0625
X2.2625Y-2.8125
X2.2625Y-3.5625
X2.6125Y-1.3125
X2.6125Y-2.0625
X2.6125Y-2.8125
X2.6125Y-3.5625
X3.0125Y-1.3125
X3.0125Y-2.0625
X3.0125Y-2.8125
X3.0125Y-3.5625
X3.3625Y-1.3125
X3.3625Y-2.0625
X3.3625Y-2.8125
X3.3625Y-3.5625
X3.7375Y-3.5625
X3.7625Y-1.3125
X3.7625Y-2.0625
X3.7625Y-2.8125
X3.7625Y-3.5625
X4.1125Y-1.3125
X4.1125Y-2.0625
X4.1125Y-2.8125
X4.1125Y-3.5625
X4.1375Y-3.5625
X4.5125Y-1.3125
X4.5125Y-2.0625
X4.5125Y-2.8125
X4.5125Y-3.5625
X6.925Y-1.3125
X6.925Y-2.0625
X6.925Y-2.8125
X6.925Y-3.5625
X7.3Y-3.5625
X7.325Y-1.3125
X7.325Y-2.0625
X7.325Y-2.8125
X7.325Y-3.5625
X7.675Y-1.3125
X7.675Y-2.0625
X7.675Y-2.8125
X7.7Y-3.5625
X7.875Y-3.3625
X7.875Y-3.7625
X8.075Y-1.3125
X8.075Y-2.0625
X8.075Y-2.8125
X8.425Y-1.3125
X8.425Y-2.0625
X8.425Y-2.8125
X8.425Y-3.5625
X8.825Y-1.3125
X8.825Y-2.0625
X8.825Y-2.8125
X8.825Y-3.5625
X9.175Y-1.3125
X9.175Y-2.0625
X9.175Y-2.8125
X9.175Y-3.5625
X9.575Y-1.3125
X9.575Y-2.0625
X9.575Y-2.8125
X9.575Y-3.5625
X9.925Y-1.3125
X9.925Y-2.0625
X9.925Y-2.8125
X9.925Y-3.5625
X10.325Y-1.3125
X10.325Y-2.0625
X10.325Y-2.8125
X10.325Y-3.5625
T2
X1.3125Y-1.3125
X1.3125Y-2.0625
X1.3125Y-2.8125
X1.3125Y-3.5625
X2.0625Y-1.3125
X2.0625Y-2.0625
X2.0625Y-2.8125
X2.0625Y-3.5625
X2.8125Y-1.3125
X2.8125Y-2.0625
X2.8125Y-2.8125
X2.8125Y-3.2375
X2.8125Y-3.5625
X3.4688Y-3.2375
X3.5625Y-1.3125
X3.5625Y-2.0625
X3.5625Y-2.8125
X3.5625Y-3.5625
X3.9375Y-3.5625
X4.3125Y-1.3125
X4.3125Y-2.0625
X4.3125Y-2.8125
X4.3125Y-3.2375
X4.3125Y-3.5625
X4.4062Y-3.2375
X7.0312Y-3.2375
X7.125Y-1.3125
X7.125Y-2.0625
X7.125Y-2.8125
X7.125Y-3.2375
X7.125Y-3.5625
X7.5Y-3.5625
X7.875Y-1.3125
X7.875Y-2.0625
X7.875Y-2.8125
X7.875Y-3.5625
X7.9688Y-3.2375
X8.625Y-1.3125
X8.625Y-2.0625
X8.625Y-2.8125
X8.625Y-3.2375
X8.625Y-3.5625
X9.375Y-1.3125
X9.375Y-2.0625
X9.375Y-2.8125
X9.375Y-3.5625
X10.125Y-1.3125
X10.125Y-2.0625
X10.125Y-2.8125
X10.125Y-3.5625
T0
M30
