%TF.GenerationSoftware,KiCad,Pcbnew,(7.0.0)*%
%TF.CreationDate,2024-04-29T17:19:58+02:00*%
%TF.ProjectId,LeSTMovoz revision,4c655354-4d6f-4766-9f7a-207265766973,rev?*%
%TF.SameCoordinates,Original*%
%TF.FileFunction,Legend,Bot*%
%TF.FilePolarity,Positive*%
%FSLAX46Y46*%
G04 Gerber Fmt 4.6, Leading zero omitted, Abs format (unit mm)*
G04 Created by KiCad (PCBNEW (7.0.0)) date 2024-04-29 17:19:58*
%MOMM*%
%LPD*%
G01*
G04 APERTURE LIST*
%ADD10C,0.300000*%
%ADD11C,0.150000*%
%ADD12C,0.125000*%
%ADD13C,0.120000*%
G04 APERTURE END LIST*
D10*
X214312500Y-64293750D02*
X234950000Y-64293750D01*
D11*
X91344642Y-86679880D02*
X90725595Y-86679880D01*
X90725595Y-86679880D02*
X91058928Y-87060833D01*
X91058928Y-87060833D02*
X90916071Y-87060833D01*
X90916071Y-87060833D02*
X90820833Y-87108452D01*
X90820833Y-87108452D02*
X90773214Y-87156071D01*
X90773214Y-87156071D02*
X90725595Y-87251309D01*
X90725595Y-87251309D02*
X90725595Y-87489404D01*
X90725595Y-87489404D02*
X90773214Y-87584642D01*
X90773214Y-87584642D02*
X90820833Y-87632261D01*
X90820833Y-87632261D02*
X90916071Y-87679880D01*
X90916071Y-87679880D02*
X91201785Y-87679880D01*
X91201785Y-87679880D02*
X91297023Y-87632261D01*
X91297023Y-87632261D02*
X91344642Y-87584642D01*
X90297023Y-86679880D02*
X90297023Y-87489404D01*
X90297023Y-87489404D02*
X90249404Y-87584642D01*
X90249404Y-87584642D02*
X90201785Y-87632261D01*
X90201785Y-87632261D02*
X90106547Y-87679880D01*
X90106547Y-87679880D02*
X89916071Y-87679880D01*
X89916071Y-87679880D02*
X89820833Y-87632261D01*
X89820833Y-87632261D02*
X89773214Y-87584642D01*
X89773214Y-87584642D02*
X89725595Y-87489404D01*
X89725595Y-87489404D02*
X89725595Y-86679880D01*
X100822023Y-93125119D02*
X100774404Y-93077500D01*
X100774404Y-93077500D02*
X100679166Y-93029880D01*
X100679166Y-93029880D02*
X100441071Y-93029880D01*
X100441071Y-93029880D02*
X100345833Y-93077500D01*
X100345833Y-93077500D02*
X100298214Y-93125119D01*
X100298214Y-93125119D02*
X100250595Y-93220357D01*
X100250595Y-93220357D02*
X100250595Y-93315595D01*
X100250595Y-93315595D02*
X100298214Y-93458452D01*
X100298214Y-93458452D02*
X100869642Y-94029880D01*
X100869642Y-94029880D02*
X100250595Y-94029880D01*
X99822023Y-93029880D02*
X99822023Y-93839404D01*
X99822023Y-93839404D02*
X99774404Y-93934642D01*
X99774404Y-93934642D02*
X99726785Y-93982261D01*
X99726785Y-93982261D02*
X99631547Y-94029880D01*
X99631547Y-94029880D02*
X99441071Y-94029880D01*
X99441071Y-94029880D02*
X99345833Y-93982261D01*
X99345833Y-93982261D02*
X99298214Y-93934642D01*
X99298214Y-93934642D02*
X99250595Y-93839404D01*
X99250595Y-93839404D02*
X99250595Y-93029880D01*
X109775595Y-94029880D02*
X110347023Y-94029880D01*
X110061309Y-94029880D02*
X110061309Y-93029880D01*
X110061309Y-93029880D02*
X110156547Y-93172738D01*
X110156547Y-93172738D02*
X110251785Y-93267976D01*
X110251785Y-93267976D02*
X110347023Y-93315595D01*
X109347023Y-93029880D02*
X109347023Y-93839404D01*
X109347023Y-93839404D02*
X109299404Y-93934642D01*
X109299404Y-93934642D02*
X109251785Y-93982261D01*
X109251785Y-93982261D02*
X109156547Y-94029880D01*
X109156547Y-94029880D02*
X108966071Y-94029880D01*
X108966071Y-94029880D02*
X108870833Y-93982261D01*
X108870833Y-93982261D02*
X108823214Y-93934642D01*
X108823214Y-93934642D02*
X108775595Y-93839404D01*
X108775595Y-93839404D02*
X108775595Y-93029880D01*
X181213095Y-94029880D02*
X181784523Y-94029880D01*
X181498809Y-94029880D02*
X181498809Y-93029880D01*
X181498809Y-93029880D02*
X181594047Y-93172738D01*
X181594047Y-93172738D02*
X181689285Y-93267976D01*
X181689285Y-93267976D02*
X181784523Y-93315595D01*
X180784523Y-93029880D02*
X180784523Y-93839404D01*
X180784523Y-93839404D02*
X180736904Y-93934642D01*
X180736904Y-93934642D02*
X180689285Y-93982261D01*
X180689285Y-93982261D02*
X180594047Y-94029880D01*
X180594047Y-94029880D02*
X180403571Y-94029880D01*
X180403571Y-94029880D02*
X180308333Y-93982261D01*
X180308333Y-93982261D02*
X180260714Y-93934642D01*
X180260714Y-93934642D02*
X180213095Y-93839404D01*
X180213095Y-93839404D02*
X180213095Y-93029880D01*
X40953572Y-95617380D02*
X41048810Y-95569761D01*
X41048810Y-95569761D02*
X41096429Y-95474523D01*
X41096429Y-95474523D02*
X41096429Y-94617380D01*
X40144048Y-95617380D02*
X40144048Y-95093571D01*
X40144048Y-95093571D02*
X40191667Y-94998333D01*
X40191667Y-94998333D02*
X40286905Y-94950714D01*
X40286905Y-94950714D02*
X40477381Y-94950714D01*
X40477381Y-94950714D02*
X40572619Y-94998333D01*
X40144048Y-95569761D02*
X40239286Y-95617380D01*
X40239286Y-95617380D02*
X40477381Y-95617380D01*
X40477381Y-95617380D02*
X40572619Y-95569761D01*
X40572619Y-95569761D02*
X40620238Y-95474523D01*
X40620238Y-95474523D02*
X40620238Y-95379285D01*
X40620238Y-95379285D02*
X40572619Y-95284047D01*
X40572619Y-95284047D02*
X40477381Y-95236428D01*
X40477381Y-95236428D02*
X40239286Y-95236428D01*
X40239286Y-95236428D02*
X40144048Y-95188809D01*
X39763095Y-94950714D02*
X39525000Y-95617380D01*
X39286905Y-94950714D02*
X39525000Y-95617380D01*
X39525000Y-95617380D02*
X39620238Y-95855476D01*
X39620238Y-95855476D02*
X39667857Y-95903095D01*
X39667857Y-95903095D02*
X39763095Y-95950714D01*
X38763095Y-95617380D02*
X38858333Y-95569761D01*
X38858333Y-95569761D02*
X38905952Y-95522142D01*
X38905952Y-95522142D02*
X38953571Y-95426904D01*
X38953571Y-95426904D02*
X38953571Y-95141190D01*
X38953571Y-95141190D02*
X38905952Y-95045952D01*
X38905952Y-95045952D02*
X38858333Y-94998333D01*
X38858333Y-94998333D02*
X38763095Y-94950714D01*
X38763095Y-94950714D02*
X38620238Y-94950714D01*
X38620238Y-94950714D02*
X38525000Y-94998333D01*
X38525000Y-94998333D02*
X38477381Y-95045952D01*
X38477381Y-95045952D02*
X38429762Y-95141190D01*
X38429762Y-95141190D02*
X38429762Y-95426904D01*
X38429762Y-95426904D02*
X38477381Y-95522142D01*
X38477381Y-95522142D02*
X38525000Y-95569761D01*
X38525000Y-95569761D02*
X38620238Y-95617380D01*
X38620238Y-95617380D02*
X38763095Y-95617380D01*
X37572619Y-94950714D02*
X37572619Y-95617380D01*
X38001190Y-94950714D02*
X38001190Y-95474523D01*
X38001190Y-95474523D02*
X37953571Y-95569761D01*
X37953571Y-95569761D02*
X37858333Y-95617380D01*
X37858333Y-95617380D02*
X37715476Y-95617380D01*
X37715476Y-95617380D02*
X37620238Y-95569761D01*
X37620238Y-95569761D02*
X37572619Y-95522142D01*
X37239285Y-94950714D02*
X36858333Y-94950714D01*
X37096428Y-94617380D02*
X37096428Y-95474523D01*
X37096428Y-95474523D02*
X37048809Y-95569761D01*
X37048809Y-95569761D02*
X36953571Y-95617380D01*
X36953571Y-95617380D02*
X36858333Y-95617380D01*
X35924999Y-95617380D02*
X35924999Y-94617380D01*
X35924999Y-94998333D02*
X35829761Y-94950714D01*
X35829761Y-94950714D02*
X35639285Y-94950714D01*
X35639285Y-94950714D02*
X35544047Y-94998333D01*
X35544047Y-94998333D02*
X35496428Y-95045952D01*
X35496428Y-95045952D02*
X35448809Y-95141190D01*
X35448809Y-95141190D02*
X35448809Y-95426904D01*
X35448809Y-95426904D02*
X35496428Y-95522142D01*
X35496428Y-95522142D02*
X35544047Y-95569761D01*
X35544047Y-95569761D02*
X35639285Y-95617380D01*
X35639285Y-95617380D02*
X35829761Y-95617380D01*
X35829761Y-95617380D02*
X35924999Y-95569761D01*
X35115475Y-94950714D02*
X34877380Y-95617380D01*
X34639285Y-94950714D02*
X34877380Y-95617380D01*
X34877380Y-95617380D02*
X34972618Y-95855476D01*
X34972618Y-95855476D02*
X35020237Y-95903095D01*
X35020237Y-95903095D02*
X35115475Y-95950714D01*
X33705951Y-95569761D02*
X33563094Y-95617380D01*
X33563094Y-95617380D02*
X33324999Y-95617380D01*
X33324999Y-95617380D02*
X33229761Y-95569761D01*
X33229761Y-95569761D02*
X33182142Y-95522142D01*
X33182142Y-95522142D02*
X33134523Y-95426904D01*
X33134523Y-95426904D02*
X33134523Y-95331666D01*
X33134523Y-95331666D02*
X33182142Y-95236428D01*
X33182142Y-95236428D02*
X33229761Y-95188809D01*
X33229761Y-95188809D02*
X33324999Y-95141190D01*
X33324999Y-95141190D02*
X33515475Y-95093571D01*
X33515475Y-95093571D02*
X33610713Y-95045952D01*
X33610713Y-95045952D02*
X33658332Y-94998333D01*
X33658332Y-94998333D02*
X33705951Y-94903095D01*
X33705951Y-94903095D02*
X33705951Y-94807857D01*
X33705951Y-94807857D02*
X33658332Y-94712619D01*
X33658332Y-94712619D02*
X33610713Y-94665000D01*
X33610713Y-94665000D02*
X33515475Y-94617380D01*
X33515475Y-94617380D02*
X33277380Y-94617380D01*
X33277380Y-94617380D02*
X33134523Y-94665000D01*
X32277380Y-94950714D02*
X32277380Y-95950714D01*
X32277380Y-95569761D02*
X32372618Y-95617380D01*
X32372618Y-95617380D02*
X32563094Y-95617380D01*
X32563094Y-95617380D02*
X32658332Y-95569761D01*
X32658332Y-95569761D02*
X32705951Y-95522142D01*
X32705951Y-95522142D02*
X32753570Y-95426904D01*
X32753570Y-95426904D02*
X32753570Y-95141190D01*
X32753570Y-95141190D02*
X32705951Y-95045952D01*
X32705951Y-95045952D02*
X32658332Y-94998333D01*
X32658332Y-94998333D02*
X32563094Y-94950714D01*
X32563094Y-94950714D02*
X32372618Y-94950714D01*
X32372618Y-94950714D02*
X32277380Y-94998333D01*
X31372618Y-94950714D02*
X31372618Y-95617380D01*
X31801189Y-94950714D02*
X31801189Y-95474523D01*
X31801189Y-95474523D02*
X31753570Y-95569761D01*
X31753570Y-95569761D02*
X31658332Y-95617380D01*
X31658332Y-95617380D02*
X31515475Y-95617380D01*
X31515475Y-95617380D02*
X31420237Y-95569761D01*
X31420237Y-95569761D02*
X31372618Y-95522142D01*
X30467856Y-95617380D02*
X30467856Y-95093571D01*
X30467856Y-95093571D02*
X30515475Y-94998333D01*
X30515475Y-94998333D02*
X30610713Y-94950714D01*
X30610713Y-94950714D02*
X30801189Y-94950714D01*
X30801189Y-94950714D02*
X30896427Y-94998333D01*
X30467856Y-95569761D02*
X30563094Y-95617380D01*
X30563094Y-95617380D02*
X30801189Y-95617380D01*
X30801189Y-95617380D02*
X30896427Y-95569761D01*
X30896427Y-95569761D02*
X30944046Y-95474523D01*
X30944046Y-95474523D02*
X30944046Y-95379285D01*
X30944046Y-95379285D02*
X30896427Y-95284047D01*
X30896427Y-95284047D02*
X30801189Y-95236428D01*
X30801189Y-95236428D02*
X30563094Y-95236428D01*
X30563094Y-95236428D02*
X30467856Y-95188809D01*
X30039284Y-95569761D02*
X29944046Y-95617380D01*
X29944046Y-95617380D02*
X29753570Y-95617380D01*
X29753570Y-95617380D02*
X29658332Y-95569761D01*
X29658332Y-95569761D02*
X29610713Y-95474523D01*
X29610713Y-95474523D02*
X29610713Y-95426904D01*
X29610713Y-95426904D02*
X29658332Y-95331666D01*
X29658332Y-95331666D02*
X29753570Y-95284047D01*
X29753570Y-95284047D02*
X29896427Y-95284047D01*
X29896427Y-95284047D02*
X29991665Y-95236428D01*
X29991665Y-95236428D02*
X30039284Y-95141190D01*
X30039284Y-95141190D02*
X30039284Y-95093571D01*
X30039284Y-95093571D02*
X29991665Y-94998333D01*
X29991665Y-94998333D02*
X29896427Y-94950714D01*
X29896427Y-94950714D02*
X29753570Y-94950714D01*
X29753570Y-94950714D02*
X29658332Y-94998333D01*
X29182141Y-95617380D02*
X29182141Y-94617380D01*
X28753570Y-95617380D02*
X28753570Y-95093571D01*
X28753570Y-95093571D02*
X28801189Y-94998333D01*
X28801189Y-94998333D02*
X28896427Y-94950714D01*
X28896427Y-94950714D02*
X29039284Y-94950714D01*
X29039284Y-94950714D02*
X29134522Y-94998333D01*
X29134522Y-94998333D02*
X29182141Y-95045952D01*
D12*
X237483928Y-24318035D02*
X237483928Y-24925178D01*
X237483928Y-24925178D02*
X237448214Y-24996607D01*
X237448214Y-24996607D02*
X237412500Y-25032321D01*
X237412500Y-25032321D02*
X237341071Y-25068035D01*
X237341071Y-25068035D02*
X237198214Y-25068035D01*
X237198214Y-25068035D02*
X237126785Y-25032321D01*
X237126785Y-25032321D02*
X237091071Y-24996607D01*
X237091071Y-24996607D02*
X237055357Y-24925178D01*
X237055357Y-24925178D02*
X237055357Y-24318035D01*
X236733928Y-25032321D02*
X236626786Y-25068035D01*
X236626786Y-25068035D02*
X236448214Y-25068035D01*
X236448214Y-25068035D02*
X236376786Y-25032321D01*
X236376786Y-25032321D02*
X236341071Y-24996607D01*
X236341071Y-24996607D02*
X236305357Y-24925178D01*
X236305357Y-24925178D02*
X236305357Y-24853750D01*
X236305357Y-24853750D02*
X236341071Y-24782321D01*
X236341071Y-24782321D02*
X236376786Y-24746607D01*
X236376786Y-24746607D02*
X236448214Y-24710892D01*
X236448214Y-24710892D02*
X236591071Y-24675178D01*
X236591071Y-24675178D02*
X236662500Y-24639464D01*
X236662500Y-24639464D02*
X236698214Y-24603750D01*
X236698214Y-24603750D02*
X236733928Y-24532321D01*
X236733928Y-24532321D02*
X236733928Y-24460892D01*
X236733928Y-24460892D02*
X236698214Y-24389464D01*
X236698214Y-24389464D02*
X236662500Y-24353750D01*
X236662500Y-24353750D02*
X236591071Y-24318035D01*
X236591071Y-24318035D02*
X236412500Y-24318035D01*
X236412500Y-24318035D02*
X236305357Y-24353750D01*
X235733928Y-24675178D02*
X235626785Y-24710892D01*
X235626785Y-24710892D02*
X235591071Y-24746607D01*
X235591071Y-24746607D02*
X235555357Y-24818035D01*
X235555357Y-24818035D02*
X235555357Y-24925178D01*
X235555357Y-24925178D02*
X235591071Y-24996607D01*
X235591071Y-24996607D02*
X235626785Y-25032321D01*
X235626785Y-25032321D02*
X235698214Y-25068035D01*
X235698214Y-25068035D02*
X235983928Y-25068035D01*
X235983928Y-25068035D02*
X235983928Y-24318035D01*
X235983928Y-24318035D02*
X235733928Y-24318035D01*
X235733928Y-24318035D02*
X235662500Y-24353750D01*
X235662500Y-24353750D02*
X235626785Y-24389464D01*
X235626785Y-24389464D02*
X235591071Y-24460892D01*
X235591071Y-24460892D02*
X235591071Y-24532321D01*
X235591071Y-24532321D02*
X235626785Y-24603750D01*
X235626785Y-24603750D02*
X235662500Y-24639464D01*
X235662500Y-24639464D02*
X235733928Y-24675178D01*
X235733928Y-24675178D02*
X235983928Y-24675178D01*
X237573213Y-26283035D02*
X237573213Y-25533035D01*
X237251785Y-26283035D02*
X237251785Y-25890178D01*
X237251785Y-25890178D02*
X237287499Y-25818750D01*
X237287499Y-25818750D02*
X237358927Y-25783035D01*
X237358927Y-25783035D02*
X237466070Y-25783035D01*
X237466070Y-25783035D02*
X237537499Y-25818750D01*
X237537499Y-25818750D02*
X237573213Y-25854464D01*
X236608928Y-26247321D02*
X236680356Y-26283035D01*
X236680356Y-26283035D02*
X236823214Y-26283035D01*
X236823214Y-26283035D02*
X236894642Y-26247321D01*
X236894642Y-26247321D02*
X236930356Y-26175892D01*
X236930356Y-26175892D02*
X236930356Y-25890178D01*
X236930356Y-25890178D02*
X236894642Y-25818750D01*
X236894642Y-25818750D02*
X236823214Y-25783035D01*
X236823214Y-25783035D02*
X236680356Y-25783035D01*
X236680356Y-25783035D02*
X236608928Y-25818750D01*
X236608928Y-25818750D02*
X236573214Y-25890178D01*
X236573214Y-25890178D02*
X236573214Y-25961607D01*
X236573214Y-25961607D02*
X236930356Y-26033035D01*
X236251785Y-26283035D02*
X236251785Y-25783035D01*
X236251785Y-25925892D02*
X236216071Y-25854464D01*
X236216071Y-25854464D02*
X236180357Y-25818750D01*
X236180357Y-25818750D02*
X236108928Y-25783035D01*
X236108928Y-25783035D02*
X236037499Y-25783035D01*
X235501785Y-26247321D02*
X235573213Y-26283035D01*
X235573213Y-26283035D02*
X235716071Y-26283035D01*
X235716071Y-26283035D02*
X235787499Y-26247321D01*
X235787499Y-26247321D02*
X235823213Y-26175892D01*
X235823213Y-26175892D02*
X235823213Y-25890178D01*
X235823213Y-25890178D02*
X235787499Y-25818750D01*
X235787499Y-25818750D02*
X235716071Y-25783035D01*
X235716071Y-25783035D02*
X235573213Y-25783035D01*
X235573213Y-25783035D02*
X235501785Y-25818750D01*
X235501785Y-25818750D02*
X235466071Y-25890178D01*
X235466071Y-25890178D02*
X235466071Y-25961607D01*
X235466071Y-25961607D02*
X235823213Y-26033035D01*
D11*
X191309523Y-93125119D02*
X191261904Y-93077500D01*
X191261904Y-93077500D02*
X191166666Y-93029880D01*
X191166666Y-93029880D02*
X190928571Y-93029880D01*
X190928571Y-93029880D02*
X190833333Y-93077500D01*
X190833333Y-93077500D02*
X190785714Y-93125119D01*
X190785714Y-93125119D02*
X190738095Y-93220357D01*
X190738095Y-93220357D02*
X190738095Y-93315595D01*
X190738095Y-93315595D02*
X190785714Y-93458452D01*
X190785714Y-93458452D02*
X191357142Y-94029880D01*
X191357142Y-94029880D02*
X190738095Y-94029880D01*
X190309523Y-93029880D02*
X190309523Y-93839404D01*
X190309523Y-93839404D02*
X190261904Y-93934642D01*
X190261904Y-93934642D02*
X190214285Y-93982261D01*
X190214285Y-93982261D02*
X190119047Y-94029880D01*
X190119047Y-94029880D02*
X189928571Y-94029880D01*
X189928571Y-94029880D02*
X189833333Y-93982261D01*
X189833333Y-93982261D02*
X189785714Y-93934642D01*
X189785714Y-93934642D02*
X189738095Y-93839404D01*
X189738095Y-93839404D02*
X189738095Y-93029880D01*
X90725595Y-94029880D02*
X91297023Y-94029880D01*
X91011309Y-94029880D02*
X91011309Y-93029880D01*
X91011309Y-93029880D02*
X91106547Y-93172738D01*
X91106547Y-93172738D02*
X91201785Y-93267976D01*
X91201785Y-93267976D02*
X91297023Y-93315595D01*
X90297023Y-93029880D02*
X90297023Y-93839404D01*
X90297023Y-93839404D02*
X90249404Y-93934642D01*
X90249404Y-93934642D02*
X90201785Y-93982261D01*
X90201785Y-93982261D02*
X90106547Y-94029880D01*
X90106547Y-94029880D02*
X89916071Y-94029880D01*
X89916071Y-94029880D02*
X89820833Y-93982261D01*
X89820833Y-93982261D02*
X89773214Y-93934642D01*
X89773214Y-93934642D02*
X89725595Y-93839404D01*
X89725595Y-93839404D02*
X89725595Y-93029880D01*
X41572619Y-97331964D02*
X41572619Y-98331964D01*
X41572619Y-97379583D02*
X41477381Y-97331964D01*
X41477381Y-97331964D02*
X41286905Y-97331964D01*
X41286905Y-97331964D02*
X41191667Y-97379583D01*
X41191667Y-97379583D02*
X41144048Y-97427202D01*
X41144048Y-97427202D02*
X41096429Y-97522440D01*
X41096429Y-97522440D02*
X41096429Y-97808154D01*
X41096429Y-97808154D02*
X41144048Y-97903392D01*
X41144048Y-97903392D02*
X41191667Y-97951011D01*
X41191667Y-97951011D02*
X41286905Y-97998630D01*
X41286905Y-97998630D02*
X41477381Y-97998630D01*
X41477381Y-97998630D02*
X41572619Y-97951011D01*
X40239286Y-97951011D02*
X40334524Y-97998630D01*
X40334524Y-97998630D02*
X40525000Y-97998630D01*
X40525000Y-97998630D02*
X40620238Y-97951011D01*
X40620238Y-97951011D02*
X40667857Y-97903392D01*
X40667857Y-97903392D02*
X40715476Y-97808154D01*
X40715476Y-97808154D02*
X40715476Y-97522440D01*
X40715476Y-97522440D02*
X40667857Y-97427202D01*
X40667857Y-97427202D02*
X40620238Y-97379583D01*
X40620238Y-97379583D02*
X40525000Y-97331964D01*
X40525000Y-97331964D02*
X40334524Y-97331964D01*
X40334524Y-97331964D02*
X40239286Y-97379583D01*
X39810714Y-97998630D02*
X39810714Y-96998630D01*
X39810714Y-97379583D02*
X39715476Y-97331964D01*
X39715476Y-97331964D02*
X39525000Y-97331964D01*
X39525000Y-97331964D02*
X39429762Y-97379583D01*
X39429762Y-97379583D02*
X39382143Y-97427202D01*
X39382143Y-97427202D02*
X39334524Y-97522440D01*
X39334524Y-97522440D02*
X39334524Y-97808154D01*
X39334524Y-97808154D02*
X39382143Y-97903392D01*
X39382143Y-97903392D02*
X39429762Y-97951011D01*
X39429762Y-97951011D02*
X39525000Y-97998630D01*
X39525000Y-97998630D02*
X39715476Y-97998630D01*
X39715476Y-97998630D02*
X39810714Y-97951011D01*
X38305952Y-97998630D02*
X38305952Y-96998630D01*
X38305952Y-97379583D02*
X38210714Y-97331964D01*
X38210714Y-97331964D02*
X38020238Y-97331964D01*
X38020238Y-97331964D02*
X37925000Y-97379583D01*
X37925000Y-97379583D02*
X37877381Y-97427202D01*
X37877381Y-97427202D02*
X37829762Y-97522440D01*
X37829762Y-97522440D02*
X37829762Y-97808154D01*
X37829762Y-97808154D02*
X37877381Y-97903392D01*
X37877381Y-97903392D02*
X37925000Y-97951011D01*
X37925000Y-97951011D02*
X38020238Y-97998630D01*
X38020238Y-97998630D02*
X38210714Y-97998630D01*
X38210714Y-97998630D02*
X38305952Y-97951011D01*
X37496428Y-97331964D02*
X37258333Y-97998630D01*
X37020238Y-97331964D02*
X37258333Y-97998630D01*
X37258333Y-97998630D02*
X37353571Y-98236726D01*
X37353571Y-98236726D02*
X37401190Y-98284345D01*
X37401190Y-98284345D02*
X37496428Y-98331964D01*
X35610714Y-97951011D02*
X35705952Y-97998630D01*
X35705952Y-97998630D02*
X35896428Y-97998630D01*
X35896428Y-97998630D02*
X35991666Y-97951011D01*
X35991666Y-97951011D02*
X36039285Y-97903392D01*
X36039285Y-97903392D02*
X36086904Y-97808154D01*
X36086904Y-97808154D02*
X36086904Y-97522440D01*
X36086904Y-97522440D02*
X36039285Y-97427202D01*
X36039285Y-97427202D02*
X35991666Y-97379583D01*
X35991666Y-97379583D02*
X35896428Y-97331964D01*
X35896428Y-97331964D02*
X35705952Y-97331964D01*
X35705952Y-97331964D02*
X35610714Y-97379583D01*
X34753571Y-97998630D02*
X34753571Y-97474821D01*
X34753571Y-97474821D02*
X34801190Y-97379583D01*
X34801190Y-97379583D02*
X34896428Y-97331964D01*
X34896428Y-97331964D02*
X35086904Y-97331964D01*
X35086904Y-97331964D02*
X35182142Y-97379583D01*
X34753571Y-97951011D02*
X34848809Y-97998630D01*
X34848809Y-97998630D02*
X35086904Y-97998630D01*
X35086904Y-97998630D02*
X35182142Y-97951011D01*
X35182142Y-97951011D02*
X35229761Y-97855773D01*
X35229761Y-97855773D02*
X35229761Y-97760535D01*
X35229761Y-97760535D02*
X35182142Y-97665297D01*
X35182142Y-97665297D02*
X35086904Y-97617678D01*
X35086904Y-97617678D02*
X34848809Y-97617678D01*
X34848809Y-97617678D02*
X34753571Y-97570059D01*
X34134523Y-97998630D02*
X34229761Y-97951011D01*
X34229761Y-97951011D02*
X34277380Y-97855773D01*
X34277380Y-97855773D02*
X34277380Y-96998630D01*
X33848808Y-97331964D02*
X33610713Y-97998630D01*
X33610713Y-97998630D02*
X33372618Y-97331964D01*
X32991665Y-97998630D02*
X32991665Y-97331964D01*
X32991665Y-96998630D02*
X33039284Y-97046250D01*
X33039284Y-97046250D02*
X32991665Y-97093869D01*
X32991665Y-97093869D02*
X32944046Y-97046250D01*
X32944046Y-97046250D02*
X32991665Y-96998630D01*
X32991665Y-96998630D02*
X32991665Y-97093869D01*
X32515475Y-97331964D02*
X32515475Y-97998630D01*
X32515475Y-97427202D02*
X32467856Y-97379583D01*
X32467856Y-97379583D02*
X32372618Y-97331964D01*
X32372618Y-97331964D02*
X32229761Y-97331964D01*
X32229761Y-97331964D02*
X32134523Y-97379583D01*
X32134523Y-97379583D02*
X32086904Y-97474821D01*
X32086904Y-97474821D02*
X32086904Y-97998630D01*
X31420237Y-96998630D02*
X31324999Y-96998630D01*
X31324999Y-96998630D02*
X31229761Y-97046250D01*
X31229761Y-97046250D02*
X31182142Y-97093869D01*
X31182142Y-97093869D02*
X31134523Y-97189107D01*
X31134523Y-97189107D02*
X31086904Y-97379583D01*
X31086904Y-97379583D02*
X31086904Y-97617678D01*
X31086904Y-97617678D02*
X31134523Y-97808154D01*
X31134523Y-97808154D02*
X31182142Y-97903392D01*
X31182142Y-97903392D02*
X31229761Y-97951011D01*
X31229761Y-97951011D02*
X31324999Y-97998630D01*
X31324999Y-97998630D02*
X31420237Y-97998630D01*
X31420237Y-97998630D02*
X31515475Y-97951011D01*
X31515475Y-97951011D02*
X31563094Y-97903392D01*
X31563094Y-97903392D02*
X31610713Y-97808154D01*
X31610713Y-97808154D02*
X31658332Y-97617678D01*
X31658332Y-97617678D02*
X31658332Y-97379583D01*
X31658332Y-97379583D02*
X31610713Y-97189107D01*
X31610713Y-97189107D02*
X31563094Y-97093869D01*
X31563094Y-97093869D02*
X31515475Y-97046250D01*
X31515475Y-97046250D02*
X31420237Y-96998630D01*
X30182142Y-96998630D02*
X30658332Y-96998630D01*
X30658332Y-96998630D02*
X30705951Y-97474821D01*
X30705951Y-97474821D02*
X30658332Y-97427202D01*
X30658332Y-97427202D02*
X30563094Y-97379583D01*
X30563094Y-97379583D02*
X30324999Y-97379583D01*
X30324999Y-97379583D02*
X30229761Y-97427202D01*
X30229761Y-97427202D02*
X30182142Y-97474821D01*
X30182142Y-97474821D02*
X30134523Y-97570059D01*
X30134523Y-97570059D02*
X30134523Y-97808154D01*
X30134523Y-97808154D02*
X30182142Y-97903392D01*
X30182142Y-97903392D02*
X30229761Y-97951011D01*
X30229761Y-97951011D02*
X30324999Y-97998630D01*
X30324999Y-97998630D02*
X30563094Y-97998630D01*
X30563094Y-97998630D02*
X30658332Y-97951011D01*
X30658332Y-97951011D02*
X30705951Y-97903392D01*
X29277380Y-96998630D02*
X29467856Y-96998630D01*
X29467856Y-96998630D02*
X29563094Y-97046250D01*
X29563094Y-97046250D02*
X29610713Y-97093869D01*
X29610713Y-97093869D02*
X29705951Y-97236726D01*
X29705951Y-97236726D02*
X29753570Y-97427202D01*
X29753570Y-97427202D02*
X29753570Y-97808154D01*
X29753570Y-97808154D02*
X29705951Y-97903392D01*
X29705951Y-97903392D02*
X29658332Y-97951011D01*
X29658332Y-97951011D02*
X29563094Y-97998630D01*
X29563094Y-97998630D02*
X29372618Y-97998630D01*
X29372618Y-97998630D02*
X29277380Y-97951011D01*
X29277380Y-97951011D02*
X29229761Y-97903392D01*
X29229761Y-97903392D02*
X29182142Y-97808154D01*
X29182142Y-97808154D02*
X29182142Y-97570059D01*
X29182142Y-97570059D02*
X29229761Y-97474821D01*
X29229761Y-97474821D02*
X29277380Y-97427202D01*
X29277380Y-97427202D02*
X29372618Y-97379583D01*
X29372618Y-97379583D02*
X29563094Y-97379583D01*
X29563094Y-97379583D02*
X29658332Y-97427202D01*
X29658332Y-97427202D02*
X29705951Y-97474821D01*
X29705951Y-97474821D02*
X29753570Y-97570059D01*
X28848808Y-96998630D02*
X28229761Y-96998630D01*
X28229761Y-96998630D02*
X28563094Y-97379583D01*
X28563094Y-97379583D02*
X28420237Y-97379583D01*
X28420237Y-97379583D02*
X28324999Y-97427202D01*
X28324999Y-97427202D02*
X28277380Y-97474821D01*
X28277380Y-97474821D02*
X28229761Y-97570059D01*
X28229761Y-97570059D02*
X28229761Y-97808154D01*
X28229761Y-97808154D02*
X28277380Y-97903392D01*
X28277380Y-97903392D02*
X28324999Y-97951011D01*
X28324999Y-97951011D02*
X28420237Y-97998630D01*
X28420237Y-97998630D02*
X28705951Y-97998630D01*
X28705951Y-97998630D02*
X28801189Y-97951011D01*
X28801189Y-97951011D02*
X28848808Y-97903392D01*
X219313095Y-94029880D02*
X219884523Y-94029880D01*
X219598809Y-94029880D02*
X219598809Y-93029880D01*
X219598809Y-93029880D02*
X219694047Y-93172738D01*
X219694047Y-93172738D02*
X219789285Y-93267976D01*
X219789285Y-93267976D02*
X219884523Y-93315595D01*
X218884523Y-93029880D02*
X218884523Y-93839404D01*
X218884523Y-93839404D02*
X218836904Y-93934642D01*
X218836904Y-93934642D02*
X218789285Y-93982261D01*
X218789285Y-93982261D02*
X218694047Y-94029880D01*
X218694047Y-94029880D02*
X218503571Y-94029880D01*
X218503571Y-94029880D02*
X218408333Y-93982261D01*
X218408333Y-93982261D02*
X218360714Y-93934642D01*
X218360714Y-93934642D02*
X218313095Y-93839404D01*
X218313095Y-93839404D02*
X218313095Y-93029880D01*
X200263095Y-94029880D02*
X200834523Y-94029880D01*
X200548809Y-94029880D02*
X200548809Y-93029880D01*
X200548809Y-93029880D02*
X200644047Y-93172738D01*
X200644047Y-93172738D02*
X200739285Y-93267976D01*
X200739285Y-93267976D02*
X200834523Y-93315595D01*
X199834523Y-93029880D02*
X199834523Y-93839404D01*
X199834523Y-93839404D02*
X199786904Y-93934642D01*
X199786904Y-93934642D02*
X199739285Y-93982261D01*
X199739285Y-93982261D02*
X199644047Y-94029880D01*
X199644047Y-94029880D02*
X199453571Y-94029880D01*
X199453571Y-94029880D02*
X199358333Y-93982261D01*
X199358333Y-93982261D02*
X199310714Y-93934642D01*
X199310714Y-93934642D02*
X199263095Y-93839404D01*
X199263095Y-93839404D02*
X199263095Y-93029880D01*
X200882141Y-86822203D02*
X200263094Y-86822203D01*
X200263094Y-86822203D02*
X200596427Y-87203156D01*
X200596427Y-87203156D02*
X200453570Y-87203156D01*
X200453570Y-87203156D02*
X200358332Y-87250775D01*
X200358332Y-87250775D02*
X200310713Y-87298394D01*
X200310713Y-87298394D02*
X200263094Y-87393632D01*
X200263094Y-87393632D02*
X200263094Y-87631727D01*
X200263094Y-87631727D02*
X200310713Y-87726965D01*
X200310713Y-87726965D02*
X200358332Y-87774584D01*
X200358332Y-87774584D02*
X200453570Y-87822203D01*
X200453570Y-87822203D02*
X200739284Y-87822203D01*
X200739284Y-87822203D02*
X200834522Y-87774584D01*
X200834522Y-87774584D02*
X200882141Y-87726965D01*
X199834522Y-86822203D02*
X199834522Y-87631727D01*
X199834522Y-87631727D02*
X199786903Y-87726965D01*
X199786903Y-87726965D02*
X199739284Y-87774584D01*
X199739284Y-87774584D02*
X199644046Y-87822203D01*
X199644046Y-87822203D02*
X199453570Y-87822203D01*
X199453570Y-87822203D02*
X199358332Y-87774584D01*
X199358332Y-87774584D02*
X199310713Y-87726965D01*
X199310713Y-87726965D02*
X199263094Y-87631727D01*
X199263094Y-87631727D02*
X199263094Y-86822203D01*
X254937201Y-96998630D02*
X254937201Y-97712916D01*
X254937201Y-97712916D02*
X254889582Y-97855773D01*
X254889582Y-97855773D02*
X254794344Y-97951011D01*
X254794344Y-97951011D02*
X254651487Y-97998630D01*
X254651487Y-97998630D02*
X254556249Y-97998630D01*
X255889582Y-97998630D02*
X255413392Y-97998630D01*
X255413392Y-97998630D02*
X255413392Y-96998630D01*
X256794344Y-97903392D02*
X256746725Y-97951011D01*
X256746725Y-97951011D02*
X256603868Y-97998630D01*
X256603868Y-97998630D02*
X256508630Y-97998630D01*
X256508630Y-97998630D02*
X256365773Y-97951011D01*
X256365773Y-97951011D02*
X256270535Y-97855773D01*
X256270535Y-97855773D02*
X256222916Y-97760535D01*
X256222916Y-97760535D02*
X256175297Y-97570059D01*
X256175297Y-97570059D02*
X256175297Y-97427202D01*
X256175297Y-97427202D02*
X256222916Y-97236726D01*
X256222916Y-97236726D02*
X256270535Y-97141488D01*
X256270535Y-97141488D02*
X256365773Y-97046250D01*
X256365773Y-97046250D02*
X256508630Y-96998630D01*
X256508630Y-96998630D02*
X256603868Y-96998630D01*
X256603868Y-96998630D02*
X256746725Y-97046250D01*
X256746725Y-97046250D02*
X256794344Y-97093869D01*
X257508630Y-96998630D02*
X257508630Y-97712916D01*
X257508630Y-97712916D02*
X257461011Y-97855773D01*
X257461011Y-97855773D02*
X257365773Y-97951011D01*
X257365773Y-97951011D02*
X257222916Y-97998630D01*
X257222916Y-97998630D02*
X257127678Y-97998630D01*
X258461011Y-97998630D02*
X257984821Y-97998630D01*
X257984821Y-97998630D02*
X257984821Y-96998630D01*
X259365773Y-97903392D02*
X259318154Y-97951011D01*
X259318154Y-97951011D02*
X259175297Y-97998630D01*
X259175297Y-97998630D02*
X259080059Y-97998630D01*
X259080059Y-97998630D02*
X258937202Y-97951011D01*
X258937202Y-97951011D02*
X258841964Y-97855773D01*
X258841964Y-97855773D02*
X258794345Y-97760535D01*
X258794345Y-97760535D02*
X258746726Y-97570059D01*
X258746726Y-97570059D02*
X258746726Y-97427202D01*
X258746726Y-97427202D02*
X258794345Y-97236726D01*
X258794345Y-97236726D02*
X258841964Y-97141488D01*
X258841964Y-97141488D02*
X258937202Y-97046250D01*
X258937202Y-97046250D02*
X259080059Y-96998630D01*
X259080059Y-96998630D02*
X259175297Y-96998630D01*
X259175297Y-96998630D02*
X259318154Y-97046250D01*
X259318154Y-97046250D02*
X259365773Y-97093869D01*
X260080059Y-96998630D02*
X260080059Y-97712916D01*
X260080059Y-97712916D02*
X260032440Y-97855773D01*
X260032440Y-97855773D02*
X259937202Y-97951011D01*
X259937202Y-97951011D02*
X259794345Y-97998630D01*
X259794345Y-97998630D02*
X259699107Y-97998630D01*
X261032440Y-97998630D02*
X260556250Y-97998630D01*
X260556250Y-97998630D02*
X260556250Y-96998630D01*
X261937202Y-97903392D02*
X261889583Y-97951011D01*
X261889583Y-97951011D02*
X261746726Y-97998630D01*
X261746726Y-97998630D02*
X261651488Y-97998630D01*
X261651488Y-97998630D02*
X261508631Y-97951011D01*
X261508631Y-97951011D02*
X261413393Y-97855773D01*
X261413393Y-97855773D02*
X261365774Y-97760535D01*
X261365774Y-97760535D02*
X261318155Y-97570059D01*
X261318155Y-97570059D02*
X261318155Y-97427202D01*
X261318155Y-97427202D02*
X261365774Y-97236726D01*
X261365774Y-97236726D02*
X261413393Y-97141488D01*
X261413393Y-97141488D02*
X261508631Y-97046250D01*
X261508631Y-97046250D02*
X261651488Y-96998630D01*
X261651488Y-96998630D02*
X261746726Y-96998630D01*
X261746726Y-96998630D02*
X261889583Y-97046250D01*
X261889583Y-97046250D02*
X261937202Y-97093869D01*
X262651488Y-96998630D02*
X262651488Y-97712916D01*
X262651488Y-97712916D02*
X262603869Y-97855773D01*
X262603869Y-97855773D02*
X262508631Y-97951011D01*
X262508631Y-97951011D02*
X262365774Y-97998630D01*
X262365774Y-97998630D02*
X262270536Y-97998630D01*
X263603869Y-97998630D02*
X263127679Y-97998630D01*
X263127679Y-97998630D02*
X263127679Y-96998630D01*
X264508631Y-97903392D02*
X264461012Y-97951011D01*
X264461012Y-97951011D02*
X264318155Y-97998630D01*
X264318155Y-97998630D02*
X264222917Y-97998630D01*
X264222917Y-97998630D02*
X264080060Y-97951011D01*
X264080060Y-97951011D02*
X263984822Y-97855773D01*
X263984822Y-97855773D02*
X263937203Y-97760535D01*
X263937203Y-97760535D02*
X263889584Y-97570059D01*
X263889584Y-97570059D02*
X263889584Y-97427202D01*
X263889584Y-97427202D02*
X263937203Y-97236726D01*
X263937203Y-97236726D02*
X263984822Y-97141488D01*
X263984822Y-97141488D02*
X264080060Y-97046250D01*
X264080060Y-97046250D02*
X264222917Y-96998630D01*
X264222917Y-96998630D02*
X264318155Y-96998630D01*
X264318155Y-96998630D02*
X264461012Y-97046250D01*
X264461012Y-97046250D02*
X264508631Y-97093869D01*
X71675595Y-94029880D02*
X72247023Y-94029880D01*
X71961309Y-94029880D02*
X71961309Y-93029880D01*
X71961309Y-93029880D02*
X72056547Y-93172738D01*
X72056547Y-93172738D02*
X72151785Y-93267976D01*
X72151785Y-93267976D02*
X72247023Y-93315595D01*
X71247023Y-93029880D02*
X71247023Y-93839404D01*
X71247023Y-93839404D02*
X71199404Y-93934642D01*
X71199404Y-93934642D02*
X71151785Y-93982261D01*
X71151785Y-93982261D02*
X71056547Y-94029880D01*
X71056547Y-94029880D02*
X70866071Y-94029880D01*
X70866071Y-94029880D02*
X70770833Y-93982261D01*
X70770833Y-93982261D02*
X70723214Y-93934642D01*
X70723214Y-93934642D02*
X70675595Y-93839404D01*
X70675595Y-93839404D02*
X70675595Y-93029880D01*
%TO.C,G\u002A\u002A\u002A*%
G36*
X247076850Y-59481770D02*
G01*
X247076850Y-63753588D01*
X244982175Y-63753588D01*
X242887500Y-63753588D01*
X242887500Y-63011380D01*
X242887500Y-62269173D01*
X244190487Y-62269173D01*
X245493474Y-62269173D01*
X245493474Y-58739562D01*
X245493474Y-55209952D01*
X246285162Y-55209952D01*
X247076850Y-55209952D01*
X247076850Y-59481770D01*
G37*
G36*
X229362824Y-55951562D02*
G01*
X229362824Y-56693173D01*
X228579383Y-56702017D01*
X227795941Y-56710861D01*
X227787545Y-60232224D01*
X227779149Y-63753588D01*
X226987610Y-63753588D01*
X226196071Y-63753588D01*
X226196071Y-60223978D01*
X226196071Y-56694367D01*
X225404383Y-56694367D01*
X224612694Y-56694367D01*
X224612694Y-55952160D01*
X224612694Y-55209952D01*
X226987759Y-55209952D01*
X229362824Y-55209952D01*
X229362824Y-55951562D01*
G37*
G36*
X192417370Y-58046835D02*
G01*
X192417370Y-58739562D01*
X191163863Y-58739562D01*
X191117161Y-58739574D01*
X190839973Y-58740134D01*
X190585775Y-58741465D01*
X190361729Y-58743472D01*
X190175000Y-58746059D01*
X190032752Y-58749129D01*
X189942150Y-58752588D01*
X189910357Y-58756339D01*
X189917838Y-58767542D01*
X189961097Y-58825029D01*
X190039972Y-58927423D01*
X190151151Y-59070492D01*
X190291318Y-59249999D01*
X190457159Y-59461709D01*
X190645358Y-59701388D01*
X190852602Y-59964800D01*
X191075576Y-60247711D01*
X191310965Y-60545884D01*
X192711573Y-62318653D01*
X192712913Y-63036121D01*
X192714253Y-63753588D01*
X190289707Y-63753588D01*
X187865162Y-63753588D01*
X187865162Y-63060861D01*
X187865162Y-62368134D01*
X189366071Y-62368134D01*
X189624902Y-62367865D01*
X189915150Y-62366882D01*
X190178707Y-62365255D01*
X190409026Y-62363061D01*
X190599560Y-62360378D01*
X190743762Y-62357285D01*
X190835085Y-62353860D01*
X190866980Y-62350182D01*
X190857827Y-62336539D01*
X190812159Y-62275745D01*
X190731086Y-62170249D01*
X190617899Y-62024265D01*
X190475885Y-61842002D01*
X190308334Y-61627672D01*
X190118535Y-61385488D01*
X189909776Y-61119660D01*
X189685348Y-60834400D01*
X189448539Y-60533919D01*
X188030097Y-58735608D01*
X188030097Y-58044858D01*
X188030097Y-57354108D01*
X190223733Y-57354108D01*
X192417370Y-57354108D01*
X192417370Y-58046835D01*
G37*
G36*
X206104126Y-57354792D02*
G01*
X206333756Y-57356179D01*
X206507071Y-57359316D01*
X206630107Y-57364501D01*
X206708898Y-57372035D01*
X206749482Y-57382215D01*
X206757893Y-57395341D01*
X206751305Y-57411842D01*
X206721861Y-57485085D01*
X206670492Y-57612662D01*
X206598875Y-57790422D01*
X206508681Y-58014214D01*
X206401586Y-58279884D01*
X206279262Y-58583281D01*
X206143385Y-58920253D01*
X205995627Y-59286650D01*
X205837662Y-59678317D01*
X205671165Y-60091105D01*
X205497809Y-60520861D01*
X205386763Y-60796145D01*
X205217092Y-61216792D01*
X205055131Y-61618365D01*
X204902576Y-61996651D01*
X204761126Y-62347441D01*
X204632477Y-62666523D01*
X204518329Y-62949688D01*
X204420377Y-63192724D01*
X204340319Y-63391421D01*
X204279854Y-63541567D01*
X204240678Y-63638953D01*
X204224489Y-63679367D01*
X204220772Y-63688593D01*
X204207323Y-63712370D01*
X204183817Y-63729502D01*
X204140936Y-63741077D01*
X204069360Y-63748184D01*
X203959769Y-63751912D01*
X203802843Y-63753351D01*
X203589263Y-63753588D01*
X202983160Y-63753588D01*
X201704212Y-60595082D01*
X201564258Y-60249440D01*
X201393475Y-59827633D01*
X201230868Y-59425988D01*
X201078094Y-59048603D01*
X200936814Y-58699579D01*
X200808685Y-58383013D01*
X200695368Y-58103004D01*
X200598519Y-57863651D01*
X200519800Y-57669053D01*
X200460867Y-57523309D01*
X200423381Y-57430517D01*
X200409000Y-57394777D01*
X200412172Y-57384470D01*
X200442215Y-57373933D01*
X200507279Y-57366425D01*
X200613548Y-57361701D01*
X200767209Y-57359518D01*
X200974448Y-57359629D01*
X201241450Y-57361790D01*
X202090164Y-57370601D01*
X202810767Y-59477709D01*
X202877227Y-59671938D01*
X202996316Y-60019420D01*
X203108312Y-60345504D01*
X203211438Y-60645058D01*
X203303920Y-60912953D01*
X203383983Y-61144059D01*
X203449850Y-61333243D01*
X203499746Y-61475377D01*
X203531896Y-61565330D01*
X203544524Y-61597971D01*
X203550285Y-61587340D01*
X203576548Y-61522939D01*
X203622193Y-61404581D01*
X203685372Y-61237240D01*
X203764239Y-61025892D01*
X203856948Y-60775513D01*
X203961652Y-60491077D01*
X204076506Y-60177560D01*
X204199663Y-59839937D01*
X204329277Y-59483184D01*
X205100876Y-57355243D01*
X205937328Y-57354675D01*
X206104126Y-57354792D01*
G37*
G36*
X223853993Y-59481325D02*
G01*
X223853993Y-63753588D01*
X223062469Y-63753588D01*
X222270945Y-63753588D01*
X222262534Y-60563241D01*
X222254123Y-57372894D01*
X221165267Y-60554994D01*
X220076410Y-63737095D01*
X219398001Y-63745993D01*
X218719592Y-63754891D01*
X217635628Y-60569170D01*
X217526117Y-60247638D01*
X217379885Y-59819308D01*
X217240353Y-59411753D01*
X217108967Y-59029142D01*
X216987175Y-58675649D01*
X216876422Y-58355443D01*
X216778157Y-58072695D01*
X216693825Y-57831578D01*
X216624874Y-57636262D01*
X216572751Y-57490918D01*
X216538903Y-57399717D01*
X216524777Y-57366831D01*
X216523034Y-57372459D01*
X216519296Y-57430757D01*
X216515736Y-57548560D01*
X216512391Y-57721414D01*
X216509299Y-57944868D01*
X216506498Y-58214470D01*
X216504024Y-58525769D01*
X216501916Y-58874313D01*
X216500211Y-59255650D01*
X216498946Y-59665328D01*
X216498160Y-60098896D01*
X216497889Y-60551901D01*
X216497889Y-63753588D01*
X215706201Y-63753588D01*
X214914513Y-63753588D01*
X214914513Y-59481770D01*
X214914513Y-55209952D01*
X216016048Y-55209952D01*
X216086222Y-55209959D01*
X216372518Y-55210282D01*
X216600950Y-55211327D01*
X216778187Y-55213439D01*
X216910896Y-55216960D01*
X217005745Y-55222231D01*
X217069403Y-55229596D01*
X217108537Y-55239398D01*
X217129815Y-55251978D01*
X217139905Y-55267679D01*
X217144700Y-55280966D01*
X217169497Y-55351321D01*
X217213670Y-55477383D01*
X217275722Y-55654854D01*
X217354152Y-55879438D01*
X217447462Y-56146837D01*
X217554154Y-56452753D01*
X217672727Y-56792890D01*
X217801684Y-57162950D01*
X217939525Y-57558635D01*
X218084751Y-57975648D01*
X218235864Y-58409692D01*
X218315175Y-58637493D01*
X218463963Y-59064620D01*
X218606371Y-59473144D01*
X218740869Y-59858692D01*
X218865930Y-60216894D01*
X218980025Y-60543379D01*
X219081624Y-60833776D01*
X219169200Y-61083713D01*
X219241222Y-61288820D01*
X219296163Y-61444725D01*
X219332494Y-61547059D01*
X219348686Y-61591449D01*
X219358628Y-61613837D01*
X219372571Y-61630360D01*
X219389372Y-61623689D01*
X219412165Y-61587302D01*
X219444079Y-61514679D01*
X219488245Y-61399298D01*
X219547796Y-61234637D01*
X219625862Y-61014176D01*
X219634753Y-60988965D01*
X219688232Y-60837232D01*
X219760879Y-60631010D01*
X219850455Y-60376661D01*
X219954720Y-60080544D01*
X220071435Y-59749022D01*
X220198362Y-59388454D01*
X220333260Y-59005201D01*
X220473890Y-58605624D01*
X220618014Y-58196083D01*
X220763391Y-57782939D01*
X221662930Y-55226445D01*
X222758462Y-55217754D01*
X223853993Y-55209062D01*
X223853993Y-59481325D01*
G37*
G36*
X213903772Y-60478884D02*
G01*
X213909364Y-60578803D01*
X213876360Y-61022761D01*
X213785306Y-61461337D01*
X213635978Y-61888678D01*
X213428151Y-62298933D01*
X213161600Y-62686249D01*
X212894807Y-62983191D01*
X212554156Y-63277431D01*
X212177908Y-63526447D01*
X211775231Y-63725053D01*
X211355289Y-63868064D01*
X210927249Y-63950296D01*
X210528056Y-63974912D01*
X210064681Y-63947620D01*
X209618083Y-63861829D01*
X209192905Y-63720668D01*
X208793793Y-63527263D01*
X208425391Y-63284742D01*
X208092344Y-62996234D01*
X207799298Y-62664865D01*
X207550895Y-62293764D01*
X207351782Y-61886059D01*
X207206604Y-61444876D01*
X207157488Y-61220224D01*
X207104684Y-60767868D01*
X207106395Y-60578080D01*
X208652344Y-60578080D01*
X208665104Y-60818980D01*
X208695130Y-61041468D01*
X208741462Y-61222669D01*
X208834084Y-61448677D01*
X209011633Y-61761129D01*
X209228226Y-62028279D01*
X209479486Y-62245861D01*
X209761034Y-62409610D01*
X210068492Y-62515263D01*
X210177037Y-62537469D01*
X210515986Y-62564117D01*
X210848736Y-62527279D01*
X211168590Y-62428798D01*
X211468845Y-62270520D01*
X211742802Y-62054290D01*
X211790926Y-62007609D01*
X211988998Y-61780487D01*
X212143238Y-61532100D01*
X212267408Y-61241119D01*
X212303970Y-61130634D01*
X212329679Y-61025927D01*
X212345144Y-60913278D01*
X212352976Y-60773357D01*
X212355787Y-60586835D01*
X212355798Y-60478884D01*
X212351482Y-60310006D01*
X212339649Y-60177462D01*
X212318155Y-60061805D01*
X212284857Y-59943588D01*
X212188373Y-59695214D01*
X212020876Y-59399955D01*
X211812565Y-59141381D01*
X211570185Y-58923632D01*
X211300480Y-58750848D01*
X211010194Y-58627167D01*
X210706070Y-58556731D01*
X210394853Y-58543678D01*
X210083286Y-58592149D01*
X209951941Y-58632826D01*
X209663804Y-58768542D01*
X209396659Y-58957521D01*
X209158281Y-59191440D01*
X208956444Y-59461981D01*
X208798923Y-59760820D01*
X208693492Y-60079638D01*
X208682463Y-60132551D01*
X208657810Y-60341645D01*
X208652344Y-60578080D01*
X207106395Y-60578080D01*
X207108810Y-60310332D01*
X207168722Y-59858947D01*
X207283276Y-59425043D01*
X207451330Y-59019952D01*
X207683090Y-58624186D01*
X207961516Y-58265946D01*
X208276628Y-57955342D01*
X208623126Y-57693138D01*
X208995709Y-57480098D01*
X209389078Y-57316987D01*
X209797933Y-57204566D01*
X210216973Y-57143601D01*
X210640900Y-57134856D01*
X211064412Y-57179092D01*
X211482211Y-57277076D01*
X211888995Y-57429570D01*
X212279465Y-57637338D01*
X212648321Y-57901144D01*
X212990263Y-58221752D01*
X213211497Y-58483069D01*
X213465374Y-58866169D01*
X213662323Y-59273144D01*
X213802121Y-59698143D01*
X213884543Y-60135313D01*
X213903772Y-60478884D01*
G37*
G36*
X200049227Y-60478884D02*
G01*
X200054819Y-60578803D01*
X200021815Y-61022761D01*
X199930761Y-61461337D01*
X199781432Y-61888678D01*
X199573605Y-62298933D01*
X199307054Y-62686249D01*
X199040262Y-62983191D01*
X198699610Y-63277431D01*
X198323363Y-63526447D01*
X197920686Y-63725053D01*
X197500744Y-63868064D01*
X197072703Y-63950296D01*
X196673510Y-63974912D01*
X196210136Y-63947620D01*
X195763537Y-63861829D01*
X195338360Y-63720668D01*
X194939248Y-63527263D01*
X194570846Y-63284742D01*
X194237799Y-62996234D01*
X193944752Y-62664865D01*
X193696350Y-62293764D01*
X193497237Y-61886059D01*
X193352058Y-61444876D01*
X193302942Y-61220224D01*
X193250139Y-60767868D01*
X193251850Y-60578080D01*
X194797799Y-60578080D01*
X194810559Y-60818980D01*
X194840585Y-61041468D01*
X194886917Y-61222669D01*
X194979538Y-61448677D01*
X195157087Y-61761129D01*
X195373681Y-62028279D01*
X195624941Y-62245861D01*
X195906489Y-62409610D01*
X196213946Y-62515263D01*
X196322491Y-62537469D01*
X196661440Y-62564117D01*
X196994191Y-62527279D01*
X197314044Y-62428798D01*
X197614299Y-62270520D01*
X197888257Y-62054290D01*
X197936381Y-62007609D01*
X198134453Y-61780487D01*
X198288693Y-61532100D01*
X198412863Y-61241119D01*
X198449425Y-61130634D01*
X198475133Y-61025927D01*
X198490598Y-60913278D01*
X198498431Y-60773357D01*
X198501242Y-60586835D01*
X198501252Y-60478884D01*
X198496936Y-60310006D01*
X198485103Y-60177462D01*
X198463610Y-60061805D01*
X198430311Y-59943588D01*
X198333827Y-59695214D01*
X198166330Y-59399955D01*
X197958020Y-59141381D01*
X197715640Y-58923632D01*
X197445935Y-58750848D01*
X197155649Y-58627167D01*
X196851525Y-58556731D01*
X196540307Y-58543678D01*
X196228741Y-58592149D01*
X196097395Y-58632826D01*
X195809258Y-58768542D01*
X195542113Y-58957521D01*
X195303735Y-59191440D01*
X195101898Y-59461981D01*
X194944377Y-59760820D01*
X194838947Y-60079638D01*
X194827917Y-60132551D01*
X194803265Y-60341645D01*
X194797799Y-60578080D01*
X193251850Y-60578080D01*
X193254264Y-60310332D01*
X193314176Y-59858947D01*
X193428731Y-59425043D01*
X193596785Y-59019952D01*
X193828545Y-58624186D01*
X194106971Y-58265946D01*
X194422083Y-57955342D01*
X194768580Y-57693138D01*
X195141163Y-57480098D01*
X195534532Y-57316987D01*
X195943387Y-57204566D01*
X196362428Y-57143601D01*
X196786355Y-57134856D01*
X197209867Y-57179092D01*
X197627665Y-57277076D01*
X198034449Y-57429570D01*
X198424920Y-57637338D01*
X198793776Y-57901144D01*
X199135718Y-58221752D01*
X199356952Y-58483069D01*
X199610828Y-58866169D01*
X199807778Y-59273144D01*
X199947576Y-59698143D01*
X200029998Y-60135313D01*
X200049227Y-60478884D01*
G37*
G36*
X242424349Y-59993069D02*
G01*
X242442743Y-60085812D01*
X242474481Y-60535165D01*
X242450249Y-60983216D01*
X242370480Y-61423721D01*
X242235604Y-61850434D01*
X242046054Y-62257111D01*
X241802261Y-62637505D01*
X241504658Y-62985373D01*
X241226758Y-63235663D01*
X240853023Y-63493986D01*
X240443503Y-63701883D01*
X240005656Y-63855673D01*
X239546939Y-63951676D01*
X239317648Y-63971936D01*
X238984010Y-63969018D01*
X238637867Y-63934746D01*
X238303558Y-63871788D01*
X238005422Y-63782809D01*
X237674119Y-63636627D01*
X237312825Y-63422969D01*
X236976381Y-63166703D01*
X236673001Y-62875815D01*
X236410897Y-62558289D01*
X236198286Y-62222113D01*
X236043380Y-61875271D01*
X235996141Y-61741380D01*
X236811851Y-61741380D01*
X237627562Y-61741380D01*
X237689878Y-61857095D01*
X237724072Y-61911815D01*
X237830501Y-62040250D01*
X237968324Y-62172775D01*
X238118794Y-62292244D01*
X238263166Y-62381510D01*
X238519667Y-62482534D01*
X238824782Y-62547023D01*
X239144609Y-62564720D01*
X239460595Y-62533274D01*
X239508988Y-62523129D01*
X239740917Y-62446933D01*
X239981160Y-62329372D01*
X240207959Y-62182389D01*
X240399554Y-62017927D01*
X240491542Y-61914067D01*
X240593848Y-61778063D01*
X240689065Y-61633097D01*
X240768206Y-61493910D01*
X240822282Y-61375241D01*
X240842305Y-61291832D01*
X240841777Y-61289589D01*
X240828012Y-61281270D01*
X240792576Y-61273979D01*
X240731443Y-61267629D01*
X240640584Y-61262133D01*
X240515973Y-61257405D01*
X240353580Y-61253358D01*
X240149380Y-61249905D01*
X239899343Y-61246961D01*
X239599444Y-61244438D01*
X239245653Y-61242251D01*
X238833943Y-61240313D01*
X238360287Y-61238537D01*
X235878269Y-61230082D01*
X235838320Y-61015666D01*
X235809971Y-60814623D01*
X235795593Y-60451218D01*
X235820856Y-60072272D01*
X235842023Y-59947063D01*
X237378669Y-59947063D01*
X237380522Y-59952222D01*
X237397927Y-59961692D01*
X237437645Y-59969628D01*
X237504529Y-59976156D01*
X237603429Y-59981403D01*
X237739195Y-59985495D01*
X237916679Y-59988559D01*
X238140732Y-59990722D01*
X238416205Y-59992110D01*
X238747949Y-59992850D01*
X239140815Y-59993069D01*
X240902961Y-59993069D01*
X240869814Y-59869367D01*
X240813723Y-59700148D01*
X240676678Y-59423589D01*
X240495179Y-59167868D01*
X240280387Y-58947722D01*
X240043461Y-58777892D01*
X239904124Y-58709034D01*
X239644690Y-58619934D01*
X239361747Y-58562188D01*
X239079154Y-58541640D01*
X239014217Y-58542580D01*
X238670593Y-58581576D01*
X238357725Y-58676603D01*
X238078868Y-58825994D01*
X237837277Y-59028081D01*
X237636206Y-59281194D01*
X237626762Y-59296137D01*
X237557824Y-59422523D01*
X237490905Y-59570564D01*
X237433645Y-59720505D01*
X237393686Y-59852589D01*
X237378669Y-59947063D01*
X235842023Y-59947063D01*
X235883868Y-59699541D01*
X235982735Y-59354784D01*
X236163061Y-58934736D01*
X236399794Y-58533931D01*
X236680649Y-58178055D01*
X237001584Y-57869607D01*
X237358558Y-57611083D01*
X237747528Y-57404983D01*
X238164453Y-57253803D01*
X238605292Y-57160043D01*
X239066001Y-57126198D01*
X239542540Y-57154769D01*
X239738094Y-57184492D01*
X240166052Y-57290590D01*
X240573820Y-57453061D01*
X240974253Y-57676589D01*
X241036289Y-57718977D01*
X241194058Y-57844111D01*
X241367073Y-57999733D01*
X241539106Y-58170105D01*
X241693928Y-58339493D01*
X241815314Y-58492160D01*
X242007393Y-58792396D01*
X242209631Y-59208183D01*
X242354604Y-59641403D01*
X242424349Y-59993069D01*
G37*
G36*
X232775975Y-55063557D02*
G01*
X232912969Y-55068086D01*
X233019372Y-55077678D01*
X233110157Y-55094068D01*
X233200299Y-55118992D01*
X233304772Y-55154187D01*
X233510275Y-55235466D01*
X233866895Y-55426704D01*
X234179515Y-55663005D01*
X234445564Y-55939559D01*
X234662473Y-56251561D01*
X234827670Y-56594202D01*
X234938585Y-56962676D01*
X234992649Y-57352175D01*
X234987291Y-57757893D01*
X234919940Y-58175021D01*
X234904653Y-58234529D01*
X234791893Y-58532246D01*
X234625246Y-58822713D01*
X234414368Y-59093184D01*
X234168913Y-59330917D01*
X233898539Y-59523165D01*
X233825177Y-59562333D01*
X233688608Y-59627550D01*
X233510855Y-59707316D01*
X233303165Y-59796713D01*
X233076783Y-59890825D01*
X232842954Y-59984733D01*
X232645221Y-60063973D01*
X232422404Y-60156314D01*
X232218824Y-60243839D01*
X232045085Y-60321878D01*
X231911790Y-60385764D01*
X231829542Y-60430829D01*
X231783442Y-60461804D01*
X231589547Y-60635004D01*
X231451697Y-60842414D01*
X231369371Y-61085036D01*
X231342045Y-61363869D01*
X231363801Y-61585535D01*
X231442409Y-61823770D01*
X231572818Y-62030917D01*
X231749224Y-62201564D01*
X231965825Y-62330300D01*
X232216818Y-62411715D01*
X232496402Y-62440396D01*
X232742494Y-62419302D01*
X232994378Y-62342964D01*
X233209108Y-62213364D01*
X233383576Y-62033066D01*
X233514674Y-61804635D01*
X233599291Y-61530635D01*
X233640397Y-61329043D01*
X234475056Y-61320220D01*
X235309715Y-61311397D01*
X235287102Y-61534635D01*
X235223551Y-61900138D01*
X235097394Y-62278886D01*
X234916382Y-62630080D01*
X234684827Y-62949382D01*
X234407043Y-63232454D01*
X234087344Y-63474957D01*
X233730041Y-63672553D01*
X233339449Y-63820904D01*
X232919882Y-63915671D01*
X232858562Y-63923779D01*
X232605139Y-63937154D01*
X232322184Y-63926515D01*
X232034064Y-63893466D01*
X231765149Y-63839614D01*
X231537770Y-63772518D01*
X231151675Y-63609967D01*
X230805519Y-63398579D01*
X230502643Y-63141921D01*
X230246390Y-62843557D01*
X230040104Y-62507052D01*
X229887127Y-62135971D01*
X229790802Y-61733881D01*
X229770920Y-61559772D01*
X229761098Y-61318919D01*
X229765778Y-61063009D01*
X229783966Y-60812089D01*
X229814663Y-60586205D01*
X229856873Y-60405406D01*
X229944703Y-60171711D01*
X230128619Y-59830203D01*
X230365911Y-59517832D01*
X230650113Y-59242655D01*
X230974759Y-59012725D01*
X231085838Y-58951740D01*
X231293062Y-58853345D01*
X231550864Y-58744309D01*
X231851389Y-58627908D01*
X232186782Y-58507416D01*
X232262758Y-58480768D01*
X232444436Y-58414782D01*
X232611070Y-58351326D01*
X232746817Y-58296524D01*
X232835833Y-58256501D01*
X232952584Y-58188833D01*
X233122014Y-58057046D01*
X233256783Y-57909256D01*
X233341918Y-57760146D01*
X233378790Y-57620142D01*
X233397634Y-57430462D01*
X233390675Y-57239379D01*
X233357221Y-57077653D01*
X233325326Y-57003960D01*
X233218686Y-56848703D01*
X233073832Y-56710042D01*
X232908928Y-56607046D01*
X232777670Y-56560243D01*
X232556278Y-56529310D01*
X232326811Y-56545312D01*
X232109274Y-56606163D01*
X231923673Y-56709776D01*
X231911516Y-56719656D01*
X231832725Y-56805817D01*
X231751100Y-56924221D01*
X231678268Y-57054445D01*
X231625856Y-57176066D01*
X231605491Y-57268662D01*
X231601868Y-57319545D01*
X231585150Y-57411835D01*
X231565260Y-57486056D01*
X230760925Y-57486056D01*
X229956591Y-57486056D01*
X229957741Y-57411835D01*
X229957869Y-57407462D01*
X229965286Y-57334016D01*
X229981635Y-57220725D01*
X230003686Y-57090211D01*
X230099946Y-56716378D01*
X230256359Y-56357575D01*
X230471023Y-56029120D01*
X230745159Y-55728773D01*
X230827298Y-55654009D01*
X231084487Y-55456181D01*
X231363973Y-55297931D01*
X231686793Y-55166701D01*
X231752513Y-55144155D01*
X231856155Y-55111322D01*
X231948418Y-55088776D01*
X232044773Y-55074564D01*
X232160688Y-55066732D01*
X232311635Y-55063329D01*
X232513084Y-55062401D01*
X232593415Y-55062353D01*
X232775975Y-55063557D01*
G37*
D13*
%TO.C,J1*%
X232318179Y-21188750D02*
X241508179Y-21188750D01*
X232318179Y-23918750D02*
X232318179Y-21188750D01*
X232318179Y-27518750D02*
X232318179Y-26618750D01*
X232438179Y-30598750D02*
X241388179Y-30598750D01*
X241508179Y-23918750D02*
X241508179Y-21188750D01*
X241508179Y-27518750D02*
X241508179Y-26618750D01*
%TO.C,G\u002A\u002A\u002A*%
G36*
X25860750Y-96809500D02*
G01*
X25746764Y-96923500D01*
X25591764Y-96923500D01*
X25436764Y-96923500D01*
X25550750Y-96809500D01*
X25664737Y-96695500D01*
X25819737Y-96695500D01*
X25974737Y-96695500D01*
X25860750Y-96809500D01*
G37*
G36*
X26252750Y-96923500D02*
G01*
X26024757Y-97151500D01*
X25871254Y-97151500D01*
X25866811Y-97151499D01*
X25842615Y-97151473D01*
X25819669Y-97151412D01*
X25798278Y-97151318D01*
X25778747Y-97151195D01*
X25761383Y-97151045D01*
X25746490Y-97150872D01*
X25734375Y-97150678D01*
X25725343Y-97150467D01*
X25719700Y-97150241D01*
X25717750Y-97150003D01*
X25718433Y-97149204D01*
X25721713Y-97145762D01*
X25727568Y-97139750D01*
X25735850Y-97131318D01*
X25746408Y-97120618D01*
X25759093Y-97107799D01*
X25773755Y-97093014D01*
X25790244Y-97076412D01*
X25808411Y-97058144D01*
X25828105Y-97038362D01*
X25849177Y-97017215D01*
X25871476Y-96994855D01*
X25894855Y-96971433D01*
X25919162Y-96947098D01*
X25944247Y-96922003D01*
X26170744Y-96695500D01*
X26325744Y-96695500D01*
X26480744Y-96695500D01*
X26252750Y-96923500D01*
G37*
G36*
X27176249Y-96138998D02*
G01*
X27567751Y-96530496D01*
X27567751Y-96923496D01*
X27567750Y-97316496D01*
X27176252Y-97707998D01*
X26784754Y-98099500D01*
X26293750Y-98099500D01*
X25802747Y-98099500D01*
X25410750Y-97707500D01*
X25018754Y-97315500D01*
X25802756Y-97315500D01*
X26586758Y-97315500D01*
X26782750Y-97119500D01*
X26978743Y-96923500D01*
X26782750Y-96727500D01*
X26586758Y-96531499D01*
X26003254Y-96531500D01*
X25962545Y-96531496D01*
X25915377Y-96531485D01*
X25869388Y-96531466D01*
X25824734Y-96531440D01*
X25781572Y-96531406D01*
X25740058Y-96531365D01*
X25700349Y-96531318D01*
X25662603Y-96531265D01*
X25626975Y-96531205D01*
X25593623Y-96531140D01*
X25562704Y-96531070D01*
X25534373Y-96530995D01*
X25508789Y-96530916D01*
X25486107Y-96530832D01*
X25466485Y-96530744D01*
X25450078Y-96530653D01*
X25437045Y-96530558D01*
X25427541Y-96530461D01*
X25421724Y-96530361D01*
X25419750Y-96530259D01*
X25421138Y-96527498D01*
X25425080Y-96522318D01*
X25431238Y-96515067D01*
X25439275Y-96506092D01*
X25448854Y-96495738D01*
X25459636Y-96484353D01*
X25471285Y-96472283D01*
X25483463Y-96459875D01*
X25495833Y-96447475D01*
X25508058Y-96435431D01*
X25519799Y-96424088D01*
X25530720Y-96413794D01*
X25540483Y-96404895D01*
X25548750Y-96397737D01*
X25580099Y-96372554D01*
X25630242Y-96336032D01*
X25681861Y-96302976D01*
X25735194Y-96273267D01*
X25790480Y-96246782D01*
X25847960Y-96223403D01*
X25907872Y-96203008D01*
X25970455Y-96185478D01*
X25976380Y-96183955D01*
X25985575Y-96181461D01*
X25992730Y-96179347D01*
X25997229Y-96177800D01*
X25998455Y-96177007D01*
X25996820Y-96176398D01*
X25992094Y-96175075D01*
X25985750Y-96173545D01*
X25979883Y-96172172D01*
X25964958Y-96168392D01*
X25947806Y-96163744D01*
X25929484Y-96158532D01*
X25911054Y-96153062D01*
X25893572Y-96147638D01*
X25878100Y-96142564D01*
X25870024Y-96139783D01*
X25811046Y-96117209D01*
X25753903Y-96091304D01*
X25698851Y-96062203D01*
X25646148Y-96030041D01*
X25596053Y-95994953D01*
X25594256Y-95993605D01*
X25586524Y-95987796D01*
X25580128Y-95982972D01*
X25575692Y-95979604D01*
X25573837Y-95978163D01*
X25574083Y-95977788D01*
X25576592Y-95975017D01*
X25581626Y-95969734D01*
X25588977Y-95962150D01*
X25598438Y-95952477D01*
X25609800Y-95940927D01*
X25622854Y-95927711D01*
X25637393Y-95913041D01*
X25653207Y-95897128D01*
X25670089Y-95880184D01*
X25687831Y-95862419D01*
X25802737Y-95747500D01*
X26293742Y-95747500D01*
X26784747Y-95747500D01*
X27176249Y-96138998D01*
G37*
G36*
X25106856Y-95544521D02*
G01*
X25116026Y-95580058D01*
X25133553Y-95635976D01*
X25154372Y-95689701D01*
X25178538Y-95741358D01*
X25206109Y-95791076D01*
X25237139Y-95838981D01*
X25255093Y-95863732D01*
X25290527Y-95907473D01*
X25328847Y-95948700D01*
X25369833Y-95987259D01*
X25413261Y-96022996D01*
X25458912Y-96055758D01*
X25506564Y-96085390D01*
X25555995Y-96111738D01*
X25606984Y-96134649D01*
X25659310Y-96153970D01*
X25712750Y-96169545D01*
X25715003Y-96170118D01*
X25724460Y-96172604D01*
X25732332Y-96174796D01*
X25737853Y-96176474D01*
X25740256Y-96177418D01*
X25739805Y-96178020D01*
X25736347Y-96179438D01*
X25730248Y-96181294D01*
X25722256Y-96183345D01*
X25704198Y-96187932D01*
X25668578Y-96198512D01*
X25631983Y-96211235D01*
X25595633Y-96225662D01*
X25560750Y-96241354D01*
X25523575Y-96260350D01*
X25474520Y-96289223D01*
X25427706Y-96321270D01*
X25383279Y-96356326D01*
X25341384Y-96394228D01*
X25302165Y-96434813D01*
X25265768Y-96477917D01*
X25232339Y-96523377D01*
X25202021Y-96571029D01*
X25174961Y-96620709D01*
X25151303Y-96672253D01*
X25131192Y-96725500D01*
X25128539Y-96733446D01*
X25125487Y-96742942D01*
X25122524Y-96752670D01*
X25119440Y-96763359D01*
X25116026Y-96775740D01*
X25112070Y-96790544D01*
X25107365Y-96808500D01*
X25106975Y-96809977D01*
X25106189Y-96812425D01*
X25105418Y-96813106D01*
X25104466Y-96811597D01*
X25103133Y-96807476D01*
X25101221Y-96800320D01*
X25098531Y-96789707D01*
X25097502Y-96785722D01*
X25093984Y-96772952D01*
X25089746Y-96758457D01*
X25085231Y-96743735D01*
X25080885Y-96730279D01*
X25066049Y-96689401D01*
X25043392Y-96636999D01*
X25017400Y-96586597D01*
X24988215Y-96538323D01*
X24955978Y-96492311D01*
X24920830Y-96448692D01*
X24882912Y-96407597D01*
X24842364Y-96369157D01*
X24799328Y-96333505D01*
X24753944Y-96300771D01*
X24706354Y-96271087D01*
X24656699Y-96244585D01*
X24605119Y-96221396D01*
X24551756Y-96201652D01*
X24496750Y-96185483D01*
X24490399Y-96183810D01*
X24481425Y-96181279D01*
X24474609Y-96179141D01*
X24470525Y-96177581D01*
X24469750Y-96176784D01*
X24469903Y-96176736D01*
X24473277Y-96175800D01*
X24479594Y-96174139D01*
X24488009Y-96171973D01*
X24497676Y-96169522D01*
X24519599Y-96163634D01*
X24569303Y-96147608D01*
X24618701Y-96128068D01*
X24667168Y-96105319D01*
X24714082Y-96079668D01*
X24758817Y-96051420D01*
X24800750Y-96020882D01*
X24820170Y-96005082D01*
X24844145Y-95984138D01*
X24868126Y-95961753D01*
X24891236Y-95938775D01*
X24912602Y-95916049D01*
X24931348Y-95894424D01*
X24946664Y-95875298D01*
X24980738Y-95828237D01*
X25011411Y-95779111D01*
X25038617Y-95728051D01*
X25062289Y-95675187D01*
X25082361Y-95620648D01*
X25098768Y-95564565D01*
X25099936Y-95560036D01*
X25102335Y-95551106D01*
X25104060Y-95545501D01*
X25105278Y-95542809D01*
X25106155Y-95542619D01*
X25106856Y-95544521D01*
G37*
%TD*%
M02*
