M48
; DRILL file {KiCad (7.0.0)} date Mon Apr 29 17:20:02 2024
; FORMAT={-:-/ absolute / inch / decimal}
; #@! TF.CreationDate,2024-04-29T17:20:02+02:00
; #@! TF.GenerationSoftware,Kicad,Pcbnew,(7.0.0)
; #@! TF.FileFunction,Plated,1,2,PTH
FMAT,2
INCH
; #@! TA.AperFunction,Plated,PTH,ViaDrill
T1C0.0157
; #@! TA.AperFunction,Plated,PTH,ComponentDrill
T2C0.0157
; #@! TA.AperFunction,Plated,PTH,ComponentDrill
T3C0.0236
; #@! TA.AperFunction,Plated,PTH,ComponentDrill
T4C0.0276
; #@! TA.AperFunction,Plated,PTH,ComponentDrill
T5C0.0280
; #@! TA.AperFunction,Plated,PTH,ComponentDrill
T6C0.0295
; #@! TA.AperFunction,Plated,PTH,ComponentDrill
T7C0.0315
; #@! TA.AperFunction,Plated,PTH,ComponentDrill
T8C0.0320
; #@! TA.AperFunction,Plated,PTH,ComponentDrill
T9C0.0433
; #@! TA.AperFunction,Plated,PTH,ComponentDrill
T10C0.0472
; #@! TA.AperFunction,Plated,PTH,ComponentDrill
T11C0.0600
; #@! TA.AperFunction,Plated,PTH,ComponentDrill
T12C0.0866
; #@! TA.AperFunction,Plated,PTH,ComponentDrill
T13C0.1200
%
G90
G05
T1
X5.1875Y-3.125
X5.2805Y-3.3273
X5.2889Y-1.6985
X5.3008Y-1.8969
X5.3731Y-2.2028
X5.383Y-1.6981
X5.4687Y-2.005
X5.4691Y-2.2028
X5.5Y-1.0938
X5.5676Y-2.812
X5.5685Y-1.5013
X5.5938Y-1.625
X5.6399Y-1.8985
X5.6875Y-2.5816
X5.6894Y-2.9061
X5.7188Y-2.7116
X5.7188Y-3.8037
X5.7188Y-3.8431
X5.7188Y-3.8824
X5.7188Y-3.9218
X5.75Y-1.6562
X5.8073Y-2.8991
X5.8499Y-2.1729
X5.8501Y-1.9256
X5.875Y-2.8511
X5.9535Y-3.7136
X5.9688Y-1.0938
X5.9981Y-1.7867
X5.9996Y-2.2048
X6.0938Y-3.375
X6.24Y-3.1168
T2
X9.2102Y-1.1248
X9.2102Y-1.1779
X9.2436Y-1.1248
X9.2436Y-1.1779
X9.2771Y-1.1248
X9.2771Y-1.1779
X9.3106Y-1.1248
X9.3106Y-1.1779
X9.344Y-1.1248
X9.344Y-1.1779
X9.3775Y-1.1248
X9.3775Y-1.1779
X9.411Y-1.1248
X9.411Y-1.1779
X9.4444Y-1.1248
X9.4444Y-1.1779
T4
X5.2891Y-1.35
X5.2891Y-1.65
X5.3338Y-3.3275
X5.3338Y-3.4212
X5.3829Y-1.35
X5.3829Y-1.65
X5.6338Y-3.3275
X5.6338Y-3.4212
T5
X5.9309Y-1.3754
X6.1316Y-1.3754
T6
X5.4188Y-2.0509
X5.4272Y-1.1562
X5.4688Y-2.0509
X5.4754Y-1.1562
X5.5187Y-2.0509
X5.5246Y-1.1562
X5.5728Y-1.1562
X5.8959Y-1.1562
X5.9441Y-1.1562
X5.9934Y-1.1562
X6.0416Y-1.1562
T7
X5.2451Y-3.029
X5.2451Y-3.1247
X5.3002Y-1.9489
X5.3002Y-2.1458
X5.373Y-2.2597
X5.373Y-2.4566
X5.4419Y-3.029
X5.4419Y-3.1247
X5.4688Y-2.2597
X5.4688Y-2.4566
X5.6398Y-1.9528
X5.6398Y-2.1496
X5.75Y-1.4016
X5.75Y-1.5984
X5.85Y-1.9823
X5.85Y-2.122
X5.8548Y-3.375
X5.9948Y-3.0212
X5.9948Y-3.1169
X6.0Y-2.2597
X6.0Y-2.4566
X6.0517Y-3.375
X6.15Y-1.9823
X6.15Y-2.122
X6.1917Y-3.0212
X6.1917Y-3.1169
T8
X4.8194Y-1.375
X4.8194Y-1.625
X4.8194Y-1.875
X4.8194Y-2.125
X4.8194Y-2.3671
X4.8194Y-2.625
X4.8194Y-2.875
X4.8194Y-3.125
X4.8194Y-3.375
X4.8194Y-3.625
X4.9131Y-1.25
X4.9131Y-1.5
X4.9131Y-1.75
X4.9131Y-2.0
X4.9131Y-2.25
X4.9131Y-2.5079
X4.9131Y-2.75
X4.9131Y-3.0
X4.9131Y-3.25
X4.9131Y-3.5
X5.0556Y-1.375
X5.0556Y-1.625
X5.0556Y-1.875
X5.0556Y-2.125
X5.0556Y-2.3671
X5.0556Y-2.625
X5.0556Y-2.875
X5.0556Y-3.125
X5.0556Y-3.375
X5.0556Y-3.625
X5.1494Y-1.25
X5.1494Y-1.5
X5.1494Y-1.75
X5.1494Y-2.0
X5.1494Y-2.25
X5.1494Y-2.5079
X5.1494Y-2.75
X5.1494Y-3.0
X5.1494Y-3.25
X5.1494Y-3.5
X6.2812Y-1.25
X6.2812Y-1.5
X6.2812Y-2.25
X6.2881Y-1.75
X6.2881Y-2.0
X6.2881Y-2.5079
X6.2881Y-2.75
X6.2881Y-3.0
X6.2881Y-3.25
X6.2881Y-3.5
X6.3819Y-1.375
X6.3819Y-1.625
X6.3819Y-1.875
X6.3819Y-2.125
X6.3819Y-2.3671
X6.3819Y-2.625
X6.3819Y-2.875
X6.3819Y-3.125
X6.3819Y-3.375
X6.3819Y-3.625
X6.5175Y-1.25
X6.5175Y-1.5
X6.5175Y-2.25
X6.5244Y-1.75
X6.5244Y-2.0
X6.5244Y-2.5079
X6.5244Y-2.75
X6.5244Y-3.0
X6.5244Y-3.25
X6.5244Y-3.5
X6.6181Y-1.375
X6.6181Y-1.625
X6.6181Y-1.875
X6.6181Y-2.125
X6.6181Y-2.3671
X6.6181Y-2.625
X6.6181Y-2.875
X6.6181Y-3.125
X6.6181Y-3.375
X6.6181Y-3.625
T9
X5.3563Y-3.5364
X5.3563Y-3.7136
X5.6122Y-3.5364
X5.6122Y-3.7136
X5.8253Y-3.5364
X5.8253Y-3.7136
X6.0812Y-3.5364
X6.0812Y-3.7136
T10
X5.5113Y-1.7861
X5.9113Y-1.7861
T11
X1.1625Y-1.2125
X1.1625Y-1.9625
X1.1625Y-2.7125
X1.1625Y-3.4625
X1.2141Y-1.155
X1.2141Y-1.905
X1.2141Y-2.655
X1.2141Y-3.405
X1.4109Y-1.1353
X1.4109Y-1.8853
X1.4109Y-2.6353
X1.4109Y-3.3853
X1.4125Y-1.1125
X1.4125Y-1.8625
X1.4125Y-2.6125
X1.4125Y-3.3625
X1.9125Y-1.2125
X1.9125Y-1.9625
X1.9125Y-2.7125
X1.9125Y-3.4625
X1.9641Y-1.155
X1.9641Y-1.905
X1.9641Y-2.655
X1.9641Y-3.405
X2.1609Y-1.1353
X2.1609Y-1.8853
X2.1609Y-2.6353
X2.1609Y-3.3853
X2.1625Y-1.1125
X2.1625Y-1.8625
X2.1625Y-2.6125
X2.1625Y-3.3625
X2.6625Y-1.2125
X2.6625Y-1.9625
X2.6625Y-2.7125
X2.6625Y-3.4625
X2.7141Y-1.155
X2.7141Y-1.905
X2.7141Y-2.655
X2.7141Y-3.405
X2.9109Y-1.1353
X2.9109Y-1.8853
X2.9109Y-2.6353
X2.9109Y-3.3853
X2.9125Y-1.1125
X2.9125Y-1.8625
X2.9125Y-2.6125
X2.9125Y-3.3625
X3.4125Y-1.2125
X3.4125Y-1.9625
X3.4125Y-2.7125
X3.4125Y-3.4625
X3.4641Y-1.155
X3.4641Y-1.905
X3.4641Y-2.655
X3.4641Y-3.405
X3.6609Y-1.1353
X3.6609Y-1.8853
X3.6609Y-2.6353
X3.6609Y-3.3853
X3.6625Y-1.1125
X3.6625Y-1.8625
X3.6625Y-2.6125
X3.6625Y-3.3625
X3.7875Y-3.4625
X3.8391Y-3.405
X4.0359Y-3.3853
X4.0375Y-3.3625
X4.1625Y-1.2125
X4.1625Y-1.9625
X4.1625Y-2.7125
X4.1625Y-3.4625
X4.2141Y-1.155
X4.2141Y-1.905
X4.2141Y-2.655
X4.2141Y-3.405
X4.4109Y-1.1353
X4.4109Y-1.8853
X4.4109Y-2.6353
X4.4109Y-3.3853
X4.4125Y-1.1125
X4.4125Y-1.8625
X4.4125Y-2.6125
X4.4125Y-3.3625
X6.975Y-1.2125
X6.975Y-1.9625
X6.975Y-2.7125
X6.975Y-3.4625
X7.0266Y-1.155
X7.0266Y-1.905
X7.0266Y-2.655
X7.0266Y-3.405
X7.2234Y-1.1353
X7.2234Y-1.8853
X7.2234Y-2.6353
X7.2234Y-3.3853
X7.225Y-1.1125
X7.225Y-1.8625
X7.225Y-2.6125
X7.225Y-3.3625
X7.35Y-3.4625
X7.4016Y-3.405
X7.5984Y-3.3853
X7.6Y-3.3625
X7.675Y-3.4625
X7.6978Y-3.4641
X7.7175Y-3.6609
X7.725Y-1.2125
X7.725Y-1.9625
X7.725Y-2.7125
X7.775Y-3.7125
X7.7766Y-1.155
X7.7766Y-1.905
X7.7766Y-2.655
X7.9734Y-1.1353
X7.9734Y-1.8853
X7.9734Y-2.6353
X7.975Y-1.1125
X7.975Y-1.8625
X7.975Y-2.6125
X8.475Y-1.2125
X8.475Y-1.9625
X8.475Y-2.7125
X8.475Y-3.4625
X8.5266Y-1.155
X8.5266Y-1.905
X8.5266Y-2.655
X8.5266Y-3.405
X8.7234Y-1.1353
X8.7234Y-1.8853
X8.7234Y-2.6353
X8.7234Y-3.3853
X8.725Y-1.1125
X8.725Y-1.8625
X8.725Y-2.6125
X8.725Y-3.3625
X9.225Y-1.9625
X9.225Y-2.7125
X9.225Y-3.4625
X9.275Y-1.5125
X9.2766Y-1.4897
X9.2766Y-1.905
X9.2766Y-2.655
X9.2766Y-3.405
X9.4734Y-1.47
X9.4734Y-1.8853
X9.4734Y-2.6353
X9.4734Y-3.3853
X9.475Y-1.8625
X9.475Y-2.6125
X9.475Y-3.3625
X9.525Y-1.4125
X9.975Y-1.2125
X9.975Y-1.9625
X9.975Y-2.7125
X9.975Y-3.4625
X10.0266Y-1.155
X10.0266Y-1.905
X10.0266Y-2.655
X10.0266Y-3.405
X10.2234Y-1.1353
X10.2234Y-1.8853
X10.2234Y-2.6353
X10.2234Y-3.3853
X10.225Y-1.1125
X10.225Y-1.8625
X10.225Y-2.6125
X10.225Y-3.3625
T12
X2.1078Y-3.0566
X2.1708Y-1.6875
X8.1156Y-3.5186
X9.2279Y-1.6038
T13
X2.8125Y-3.8375
X3.4688Y-3.8375
X4.3125Y-3.8375
X4.4062Y-3.8375
X7.0312Y-3.8375
X7.125Y-3.8375
X7.9688Y-3.8375
X8.625Y-3.8375
T3
G00X9.157Y-0.9905
M15
G01X9.157Y-1.022
M16
G05
G00X9.157Y-1.1098
M15
G01X9.157Y-1.1688
M16
G05
G00X9.4976Y-0.9905
M15
G01X9.4976Y-1.022
M16
G05
G00X9.4976Y-1.1098
M15
G01X9.4976Y-1.1688
M16
G05
T0
M30
