%TF.GenerationSoftware,KiCad,Pcbnew,(7.0.0)*%
%TF.CreationDate,2024-04-29T17:19:58+02:00*%
%TF.ProjectId,LeSTMovoz revision,4c655354-4d6f-4766-9f7a-207265766973,rev?*%
%TF.SameCoordinates,Original*%
%TF.FileFunction,Soldermask,Bot*%
%TF.FilePolarity,Negative*%
%FSLAX46Y46*%
G04 Gerber Fmt 4.6, Leading zero omitted, Abs format (unit mm)*
G04 Created by KiCad (PCBNEW (7.0.0)) date 2024-04-29 17:19:58*
%MOMM*%
%LPD*%
G01*
G04 APERTURE LIST*
G04 Aperture macros list*
%AMHorizOval*
0 Thick line with rounded ends*
0 $1 width*
0 $2 $3 position (X,Y) of the first rounded end (center of the circle)*
0 $4 $5 position (X,Y) of the second rounded end (center of the circle)*
0 Add line between two ends*
20,1,$1,$2,$3,$4,$5,0*
0 Add two circle primitives to create the rounded ends*
1,1,$1,$2,$3*
1,1,$1,$4,$5*%
G04 Aperture macros list end*
%ADD10C,4.400000*%
%ADD11R,1.778000X1.300000*%
%ADD12O,1.778000X1.300000*%
%ADD13C,2.000000*%
%ADD14C,1.400000*%
%ADD15O,1.400000X1.400000*%
%ADD16C,1.710000*%
%ADD17C,1.600000*%
%ADD18C,1.701800*%
%ADD19C,3.987800*%
%ADD20HorizOval,2.300000X0.655008X0.729993X-0.655008X-0.729993X0*%
%ADD21C,2.300000*%
%ADD22HorizOval,2.300000X0.020004X0.290000X-0.020004X-0.290000X0*%
%ADD23C,4.000000*%
%ADD24R,1.600000X1.600000*%
%ADD25O,1.600000X1.600000*%
%ADD26R,2.400000X2.400000*%
%ADD27O,2.400000X2.400000*%
%ADD28R,1.050000X1.500000*%
%ADD29O,1.050000X1.500000*%
%ADD30HorizOval,2.300000X-0.729993X0.655008X0.729993X-0.655008X0*%
%ADD31HorizOval,2.300000X-0.290000X0.020004X0.290000X-0.020004X0*%
%ADD32HorizOval,2.300000X-0.655008X-0.729993X0.655008X0.729993X0*%
%ADD33HorizOval,2.300000X-0.020004X-0.290000X0.020004X0.290000X0*%
%ADD34O,1.000000X1.500000*%
%ADD35C,0.700000*%
%ADD36O,0.900000X1.700000*%
%ADD37O,0.900000X2.400000*%
G04 APERTURE END LIST*
D10*
%TO.C,*%
X55137500Y-42862500D03*
%TD*%
D11*
%TO.C,D6*%
X159543749Y-31749999D03*
D12*
X165543749Y-31749999D03*
%TD*%
D13*
%TO.C,SW2*%
X147962500Y-89825000D03*
X154462500Y-89825000D03*
X147962500Y-94325000D03*
X154462500Y-94325000D03*
%TD*%
D14*
%TO.C,R4*%
X135478264Y-84517916D03*
D15*
X143098263Y-84517915D03*
%TD*%
D16*
%TO.C,F1*%
X155743750Y-34934000D03*
X150643750Y-34934000D03*
%TD*%
D17*
%TO.C,C9*%
X152400000Y-62396757D03*
X152400000Y-57396757D03*
%TD*%
D18*
%TO.C,MX24*%
X85407500Y-71437500D03*
D19*
X90487500Y-71437500D03*
D18*
X95567500Y-71437500D03*
D20*
X87332507Y-68167506D03*
D21*
X87987500Y-67437500D03*
D22*
X93007503Y-66647499D03*
D21*
X93027500Y-66357500D03*
%TD*%
D18*
%TO.C,MX10*%
X252095000Y-33337500D03*
D19*
X257175000Y-33337500D03*
D18*
X262255000Y-33337500D03*
D20*
X254020007Y-30067506D03*
D21*
X254675000Y-29337500D03*
D22*
X259695003Y-28547499D03*
D21*
X259715000Y-28257500D03*
%TD*%
D14*
%TO.C,R1*%
X136725000Y-34290000D03*
D15*
X136724999Y-41909999D03*
%TD*%
D18*
%TO.C,MX19*%
X233045000Y-52387500D03*
D19*
X238125000Y-52387500D03*
D18*
X243205000Y-52387500D03*
D20*
X234970007Y-49117506D03*
D21*
X235625000Y-48387500D03*
D22*
X240645003Y-47597499D03*
D21*
X240665000Y-47307500D03*
%TD*%
D18*
%TO.C,MX5*%
X104457500Y-33337500D03*
D19*
X109537500Y-33337500D03*
D18*
X114617500Y-33337500D03*
D20*
X106382507Y-30067506D03*
D21*
X107037500Y-29337500D03*
D22*
X112057503Y-28547499D03*
D21*
X112077500Y-28257500D03*
%TD*%
D18*
%TO.C,MX6*%
X175895000Y-33337500D03*
D19*
X180975000Y-33337500D03*
D18*
X186055000Y-33337500D03*
D20*
X177820007Y-30067506D03*
D21*
X178475000Y-29337500D03*
D22*
X183495003Y-28547499D03*
D21*
X183515000Y-28257500D03*
%TD*%
D11*
%TO.C,D4*%
X128412499Y-34924999D03*
D12*
X122412499Y-34924999D03*
%TD*%
D18*
%TO.C,MX21*%
X28257500Y-71437500D03*
D19*
X33337500Y-71437500D03*
D18*
X38417500Y-71437500D03*
D20*
X30182507Y-68167506D03*
D21*
X30837500Y-67437500D03*
D22*
X35857503Y-66647499D03*
D21*
X35877500Y-66357500D03*
%TD*%
D10*
%TO.C,H6*%
X234387500Y-40736500D03*
%TD*%
D23*
%TO.C,S1*%
X202406250Y-97472500D03*
D19*
X202406250Y-82232500D03*
D23*
X178593750Y-97472500D03*
D19*
X178593750Y-82232500D03*
%TD*%
D17*
%TO.C,C6*%
X136475000Y-62396757D03*
X136475000Y-57396757D03*
%TD*%
D18*
%TO.C,MX4*%
X85407500Y-33337500D03*
D19*
X90487500Y-33337500D03*
D18*
X95567500Y-33337500D03*
D20*
X87332507Y-30067506D03*
D21*
X87987500Y-29337500D03*
D22*
X93007503Y-28547499D03*
D21*
X93027500Y-28257500D03*
%TD*%
D17*
%TO.C,C7*%
X138224728Y-79368071D03*
X133224728Y-79368071D03*
%TD*%
D18*
%TO.C,MX37*%
X175895000Y-90487500D03*
D19*
X180975000Y-90487500D03*
D18*
X186055000Y-90487500D03*
D20*
X177820007Y-87217506D03*
D21*
X178475000Y-86487500D03*
D22*
X183495003Y-85697499D03*
D21*
X183515000Y-85407500D03*
%TD*%
D18*
%TO.C,MX20*%
X252095000Y-52387500D03*
D19*
X257175000Y-52387500D03*
D18*
X262255000Y-52387500D03*
D20*
X254020007Y-49117506D03*
D21*
X254675000Y-48387500D03*
D22*
X259695003Y-47597499D03*
D21*
X259715000Y-47307500D03*
%TD*%
D23*
%TO.C,S2*%
X219075000Y-97472500D03*
D19*
X219075000Y-82232500D03*
D23*
X180975000Y-97472500D03*
D19*
X180975000Y-82232500D03*
%TD*%
D11*
%TO.C,D12*%
X130793749Y-50799999D03*
D12*
X124793749Y-50799999D03*
%TD*%
D18*
%TO.C,MX27*%
X194945000Y-71437500D03*
D19*
X200025000Y-71437500D03*
D18*
X205105000Y-71437500D03*
D20*
X196870007Y-68167506D03*
D21*
X197525000Y-67437500D03*
D22*
X202545003Y-66647499D03*
D21*
X202565000Y-66357500D03*
%TD*%
D18*
%TO.C,MX1*%
X28257500Y-33337500D03*
D19*
X33337500Y-33337500D03*
D18*
X38417500Y-33337500D03*
D20*
X30182507Y-30067506D03*
D21*
X30837500Y-29337500D03*
D22*
X35857503Y-28547499D03*
D21*
X35877500Y-28257500D03*
%TD*%
D18*
%TO.C,MX38*%
X185420000Y-90487500D03*
D19*
X190500000Y-90487500D03*
D18*
X195580000Y-90487500D03*
D20*
X187345007Y-87217506D03*
D21*
X188000000Y-86487500D03*
D22*
X193020003Y-85697499D03*
D21*
X193040000Y-85407500D03*
%TD*%
D24*
%TO.C,D45*%
X156209999Y-53899999D03*
D25*
X148589999Y-53899999D03*
%TD*%
D18*
%TO.C,MX12*%
X47307500Y-52387500D03*
D19*
X52387500Y-52387500D03*
D18*
X57467500Y-52387500D03*
D20*
X49232507Y-49117506D03*
D21*
X49887500Y-48387500D03*
D22*
X54907503Y-47597499D03*
D21*
X54927500Y-47307500D03*
%TD*%
D11*
%TO.C,D3*%
X130793749Y-38099999D03*
D12*
X124793749Y-38099999D03*
%TD*%
D11*
%TO.C,D8*%
X159543749Y-38099999D03*
D12*
X165543749Y-38099999D03*
%TD*%
D11*
%TO.C,D16*%
X162099999Y-60124999D03*
D12*
X168099999Y-60124999D03*
%TD*%
D18*
%TO.C,MX34*%
X85407500Y-90487500D03*
D19*
X90487500Y-90487500D03*
D18*
X95567500Y-90487500D03*
D20*
X87332507Y-87217506D03*
D21*
X87987500Y-86487500D03*
D22*
X93007503Y-85697499D03*
D21*
X93027500Y-85407500D03*
%TD*%
D17*
%TO.C,C1*%
X134625429Y-49502571D03*
X134625429Y-54502571D03*
%TD*%
D11*
%TO.C,D9*%
X162099999Y-41274999D03*
D12*
X168099999Y-41274999D03*
%TD*%
D11*
%TO.C,D24*%
X128412499Y-66674999D03*
D12*
X122412499Y-66674999D03*
%TD*%
D18*
%TO.C,MX41*%
X233045000Y-90487500D03*
D19*
X238125000Y-90487500D03*
D18*
X243205000Y-90487500D03*
D20*
X234970007Y-87217506D03*
D21*
X235625000Y-86487500D03*
D22*
X240645003Y-85697499D03*
D21*
X240665000Y-85407500D03*
%TD*%
D11*
%TO.C,D38*%
X162099999Y-85724999D03*
D12*
X168099999Y-85724999D03*
%TD*%
D11*
%TO.C,D29*%
X162099999Y-73024999D03*
D12*
X168099999Y-73024999D03*
%TD*%
D14*
%TO.C,R2*%
X134343750Y-34290000D03*
D15*
X134343749Y-41909999D03*
%TD*%
D18*
%TO.C,MX28*%
X213995000Y-71437500D03*
D19*
X219075000Y-71437500D03*
D18*
X224155000Y-71437500D03*
D20*
X215920007Y-68167506D03*
D21*
X216575000Y-67437500D03*
D22*
X221595003Y-66647499D03*
D21*
X221615000Y-66357500D03*
%TD*%
D18*
%TO.C,MX8*%
X213995000Y-33337500D03*
D19*
X219075000Y-33337500D03*
D18*
X224155000Y-33337500D03*
D20*
X215920007Y-30067506D03*
D21*
X216575000Y-29337500D03*
D22*
X221595003Y-28547499D03*
D21*
X221615000Y-28257500D03*
%TD*%
D11*
%TO.C,D18*%
X162099999Y-53974999D03*
D12*
X168099999Y-53974999D03*
%TD*%
D18*
%TO.C,MX18*%
X213995000Y-52387500D03*
D19*
X219075000Y-52387500D03*
D18*
X224155000Y-52387500D03*
D20*
X215920007Y-49117506D03*
D21*
X216575000Y-48387500D03*
D22*
X221595003Y-47597499D03*
D21*
X221615000Y-47307500D03*
%TD*%
D11*
%TO.C,D7*%
X162099999Y-34924999D03*
D12*
X168099999Y-34924999D03*
%TD*%
D11*
%TO.C,D34*%
X130793749Y-88899999D03*
D12*
X124793749Y-88899999D03*
%TD*%
D11*
%TO.C,D20*%
X162099999Y-47624999D03*
D12*
X168099999Y-47624999D03*
%TD*%
D18*
%TO.C,MX33*%
X66357500Y-90487500D03*
D19*
X71437500Y-90487500D03*
D18*
X76517500Y-90487500D03*
D20*
X68282507Y-87217506D03*
D21*
X68937500Y-86487500D03*
D22*
X73957503Y-85697499D03*
D21*
X73977500Y-85407500D03*
%TD*%
D11*
%TO.C,D13*%
X128412499Y-53974999D03*
D12*
X122412499Y-53974999D03*
%TD*%
D26*
%TO.C,D43*%
X139987677Y-45367783D03*
D27*
X150147677Y-45367783D03*
%TD*%
D11*
%TO.C,D15*%
X128412499Y-60124999D03*
D12*
X122412499Y-60124999D03*
%TD*%
D18*
%TO.C,MX23*%
X66357500Y-71437500D03*
D19*
X71437500Y-71437500D03*
D18*
X76517500Y-71437500D03*
D20*
X68282507Y-68167506D03*
D21*
X68937500Y-67437500D03*
D22*
X73957503Y-66647499D03*
D21*
X73977500Y-66357500D03*
%TD*%
D11*
%TO.C,D33*%
X128412499Y-85724999D03*
D12*
X122412499Y-85724999D03*
%TD*%
D11*
%TO.C,D10*%
X159718749Y-44449999D03*
D12*
X165718749Y-44449999D03*
%TD*%
D11*
%TO.C,D36*%
X162099999Y-92074999D03*
D12*
X168099999Y-92074999D03*
%TD*%
D18*
%TO.C,MX14*%
X85407500Y-52387500D03*
D19*
X90487500Y-52387500D03*
D18*
X95567500Y-52387500D03*
D20*
X87332507Y-49117506D03*
D21*
X87987500Y-48387500D03*
D22*
X93007503Y-47597499D03*
D21*
X93027500Y-47307500D03*
%TD*%
D11*
%TO.C,D19*%
X159718749Y-50799999D03*
D12*
X165718749Y-50799999D03*
%TD*%
D11*
%TO.C,D5*%
X130793749Y-31749999D03*
D12*
X124793749Y-31749999D03*
%TD*%
D28*
%TO.C,U2*%
X140176249Y-52091987D03*
D29*
X138906249Y-52091987D03*
X137636249Y-52091987D03*
%TD*%
D17*
%TO.C,C11*%
X138906250Y-62396757D03*
X138906250Y-57396757D03*
%TD*%
D23*
%TO.C,S3*%
X109537500Y-97472500D03*
D19*
X109537500Y-82232500D03*
D23*
X71437500Y-97472500D03*
D19*
X71437500Y-82232500D03*
%TD*%
D11*
%TO.C,D23*%
X130793749Y-69849999D03*
D12*
X124793749Y-69849999D03*
%TD*%
D18*
%TO.C,MX17*%
X194945000Y-52387500D03*
D19*
X200025000Y-52387500D03*
D18*
X205105000Y-52387500D03*
D20*
X196870007Y-49117506D03*
D21*
X197525000Y-48387500D03*
D22*
X202545003Y-47597499D03*
D21*
X202565000Y-47307500D03*
%TD*%
D11*
%TO.C,D27*%
X162099999Y-66674999D03*
D12*
X168099999Y-66674999D03*
%TD*%
D11*
%TO.C,D2*%
X128412499Y-41274999D03*
D12*
X122412499Y-41274999D03*
%TD*%
D17*
%TO.C,C10*%
X152268053Y-76738522D03*
X157268053Y-76738522D03*
%TD*%
D18*
%TO.C,MX16*%
X175895000Y-52387500D03*
D19*
X180975000Y-52387500D03*
D18*
X186055000Y-52387500D03*
D20*
X177820007Y-49117506D03*
D21*
X178475000Y-48387500D03*
D22*
X183495003Y-47597499D03*
D21*
X183515000Y-47307500D03*
%TD*%
D11*
%TO.C,D39*%
X159718749Y-82549999D03*
D12*
X165718749Y-82549999D03*
%TD*%
D11*
%TO.C,D17*%
X159543749Y-57149999D03*
D12*
X165543749Y-57149999D03*
%TD*%
D18*
%TO.C,MX31*%
X28257500Y-90487500D03*
D19*
X33337500Y-90487500D03*
D18*
X38417500Y-90487500D03*
D20*
X30182507Y-87217506D03*
D21*
X30837500Y-86487500D03*
D22*
X35857503Y-85697499D03*
D21*
X35877500Y-85407500D03*
%TD*%
D23*
%TO.C,S4*%
X111918750Y-97472500D03*
D19*
X111918750Y-82232500D03*
D23*
X88106250Y-97472500D03*
D19*
X88106250Y-82232500D03*
%TD*%
D11*
%TO.C,D40*%
X162099999Y-79374999D03*
D12*
X168099999Y-79374999D03*
%TD*%
D18*
%TO.C,MX26*%
X175895000Y-71437500D03*
D19*
X180975000Y-71437500D03*
D18*
X186055000Y-71437500D03*
D20*
X177820007Y-68167506D03*
D21*
X178475000Y-67437500D03*
D22*
X183495003Y-66647499D03*
D21*
X183515000Y-66357500D03*
%TD*%
D11*
%TO.C,D1*%
X130793749Y-44449999D03*
D12*
X124793749Y-44449999D03*
%TD*%
D14*
%TO.C,R3*%
X135478264Y-86899166D03*
D15*
X143098263Y-86899165D03*
%TD*%
D11*
%TO.C,D30*%
X159718749Y-76199999D03*
D12*
X165718749Y-76199999D03*
%TD*%
D17*
%TO.C,C8*%
X138224728Y-76936821D03*
X133224728Y-76936821D03*
%TD*%
D18*
%TO.C,MX32*%
X47307500Y-90487500D03*
D19*
X52387500Y-90487500D03*
D18*
X57467500Y-90487500D03*
D20*
X49232507Y-87217506D03*
D21*
X49887500Y-86487500D03*
D22*
X54907503Y-85697499D03*
D21*
X54927500Y-85407500D03*
%TD*%
D11*
%TO.C,D31*%
X128412499Y-79374999D03*
D12*
X122412499Y-79374999D03*
%TD*%
D18*
%TO.C,MX3*%
X66357500Y-33337500D03*
D19*
X71437500Y-33337500D03*
D18*
X76517500Y-33337500D03*
D20*
X68282507Y-30067506D03*
D21*
X68937500Y-29337500D03*
D22*
X73957503Y-28547499D03*
D21*
X73977500Y-28257500D03*
%TD*%
D11*
%TO.C,D28*%
X159718749Y-69849999D03*
D12*
X165718749Y-69849999D03*
%TD*%
D18*
%TO.C,MX29*%
X233045000Y-71437500D03*
D19*
X238125000Y-71437500D03*
D18*
X243205000Y-71437500D03*
D20*
X234970007Y-68167506D03*
D21*
X235625000Y-67437500D03*
D22*
X240645003Y-66647499D03*
D21*
X240665000Y-66357500D03*
%TD*%
D18*
%TO.C,MX39*%
X200025000Y-95567500D03*
D19*
X200025000Y-90487500D03*
D18*
X200025000Y-85407500D03*
D30*
X196755006Y-93642491D03*
D21*
X196025000Y-92987500D03*
D31*
X195234999Y-87967495D03*
D21*
X194945000Y-87947500D03*
%TD*%
D11*
%TO.C,D11*%
X128412499Y-47624999D03*
D12*
X122412499Y-47624999D03*
%TD*%
D18*
%TO.C,MX7*%
X194945000Y-33337500D03*
D19*
X200025000Y-33337500D03*
D18*
X205105000Y-33337500D03*
D20*
X196870007Y-30067506D03*
D21*
X197525000Y-29337500D03*
D22*
X202545003Y-28547499D03*
D21*
X202565000Y-28257500D03*
%TD*%
D18*
%TO.C,MX22*%
X47307500Y-71437500D03*
D19*
X52387500Y-71437500D03*
D18*
X57467500Y-71437500D03*
D20*
X49232507Y-68167506D03*
D21*
X49887500Y-67437500D03*
D22*
X54907503Y-66647499D03*
D21*
X54927500Y-66357500D03*
%TD*%
D18*
%TO.C,MX9*%
X243205000Y-33337500D03*
D19*
X238125000Y-33337500D03*
D18*
X233045000Y-33337500D03*
D32*
X241279991Y-36607492D03*
D21*
X240625000Y-37337500D03*
D33*
X235604995Y-38127499D03*
D21*
X235585000Y-38417500D03*
%TD*%
D17*
%TO.C,C4*%
X148712500Y-85725000D03*
X153712500Y-85725000D03*
%TD*%
D11*
%TO.C,D37*%
X159718749Y-88899999D03*
D12*
X165718749Y-88899999D03*
%TD*%
D11*
%TO.C,D21*%
X130793749Y-76199999D03*
D12*
X124793749Y-76199999D03*
%TD*%
D17*
%TO.C,C5*%
X152268053Y-79169772D03*
X157268053Y-79169772D03*
%TD*%
D18*
%TO.C,MX15*%
X104457500Y-52387500D03*
D19*
X109537500Y-52387500D03*
D18*
X114617500Y-52387500D03*
D20*
X106382507Y-49117506D03*
D21*
X107037500Y-48387500D03*
D22*
X112057503Y-47597499D03*
D21*
X112077500Y-47307500D03*
%TD*%
D10*
%TO.C,*%
X206137500Y-89371500D03*
%TD*%
%TO.C,*%
X53537500Y-77636500D03*
%TD*%
D18*
%TO.C,MX25*%
X104457500Y-71437500D03*
D19*
X109537500Y-71437500D03*
D18*
X114617500Y-71437500D03*
D20*
X106382507Y-68167506D03*
D21*
X107037500Y-67437500D03*
D22*
X112057503Y-66647499D03*
D21*
X112077500Y-66357500D03*
%TD*%
D18*
%TO.C,MX36*%
X94932500Y-90487500D03*
D19*
X100012500Y-90487500D03*
D18*
X105092500Y-90487500D03*
D20*
X96857507Y-87217506D03*
D21*
X97512500Y-86487500D03*
D22*
X102532503Y-85697499D03*
D21*
X102552500Y-85407500D03*
%TD*%
D18*
%TO.C,MX13*%
X66357500Y-52387500D03*
D19*
X71437500Y-52387500D03*
D18*
X76517500Y-52387500D03*
D20*
X68282507Y-49117506D03*
D21*
X68937500Y-48387500D03*
D22*
X73957503Y-47597499D03*
D21*
X73977500Y-47307500D03*
%TD*%
D18*
%TO.C,MX40*%
X213995000Y-90487500D03*
D19*
X219075000Y-90487500D03*
D18*
X224155000Y-90487500D03*
D20*
X215920007Y-87217506D03*
D21*
X216575000Y-86487500D03*
D22*
X221595003Y-85697499D03*
D21*
X221615000Y-85407500D03*
%TD*%
D11*
%TO.C,D25*%
X130793749Y-63699999D03*
D12*
X124793749Y-63699999D03*
%TD*%
D11*
%TO.C,D22*%
X128412499Y-73024999D03*
D12*
X122412499Y-73024999D03*
%TD*%
D17*
%TO.C,C3*%
X146050000Y-35600000D03*
X146050000Y-40600000D03*
%TD*%
D18*
%TO.C,MX2*%
X47307500Y-33337500D03*
D19*
X52387500Y-33337500D03*
D18*
X57467500Y-33337500D03*
D20*
X49232507Y-30067506D03*
D21*
X49887500Y-29337500D03*
D22*
X54907503Y-28547499D03*
D21*
X54927500Y-28257500D03*
%TD*%
D11*
%TO.C,D32*%
X130793749Y-82549999D03*
D12*
X124793749Y-82549999D03*
%TD*%
D18*
%TO.C,MX11*%
X28257500Y-52387500D03*
D19*
X33337500Y-52387500D03*
D18*
X38417500Y-52387500D03*
D20*
X30182507Y-49117506D03*
D21*
X30837500Y-48387500D03*
D22*
X35857503Y-47597499D03*
D21*
X35877500Y-47307500D03*
%TD*%
D18*
%TO.C,MX42*%
X252095000Y-90487500D03*
D19*
X257175000Y-90487500D03*
D18*
X262255000Y-90487500D03*
D20*
X254020007Y-87217506D03*
D21*
X254675000Y-86487500D03*
D22*
X259695003Y-85697499D03*
D21*
X259715000Y-85407500D03*
%TD*%
D18*
%TO.C,MX30*%
X252095000Y-71437500D03*
D19*
X257175000Y-71437500D03*
D18*
X262255000Y-71437500D03*
D20*
X254020007Y-68167506D03*
D21*
X254675000Y-67437500D03*
D22*
X259695003Y-66647499D03*
D21*
X259715000Y-66357500D03*
%TD*%
D18*
%TO.C,MX35*%
X104457500Y-90487500D03*
D19*
X109537500Y-90487500D03*
D18*
X114617500Y-90487500D03*
D20*
X106382507Y-87217506D03*
D21*
X107037500Y-86487500D03*
D22*
X112057503Y-85697499D03*
D21*
X112077500Y-85407500D03*
%TD*%
D17*
%TO.C,C2*%
X143250429Y-49600098D03*
X143250429Y-54600098D03*
%TD*%
D11*
%TO.C,D14*%
X130793749Y-57149999D03*
D12*
X124793749Y-57149999D03*
%TD*%
D13*
%TO.C,SW1*%
X142550000Y-94325000D03*
X136050000Y-94325000D03*
X142550000Y-89825000D03*
X136050000Y-89825000D03*
%TD*%
D11*
%TO.C,D35*%
X128412499Y-92074999D03*
D12*
X122412499Y-92074999D03*
%TD*%
D24*
%TO.C,D44*%
X156209999Y-50349999D03*
D25*
X148589999Y-50349999D03*
%TD*%
D11*
%TO.C,D26*%
X159718749Y-63699999D03*
D12*
X165718749Y-63699999D03*
%TD*%
D34*
%TO.C,D41*%
X139074999Y-29368749D03*
X141549999Y-29368749D03*
X140324999Y-29368749D03*
X137849999Y-29368749D03*
%TD*%
%TO.C,D42*%
X150981249Y-29368749D03*
X153456249Y-29368749D03*
X152231249Y-29368749D03*
X149756249Y-29368749D03*
%TD*%
D35*
%TO.C,J1*%
X233938179Y-29918750D03*
X234788179Y-29918750D03*
X235638179Y-29918750D03*
X236488179Y-29918750D03*
X237338179Y-29918750D03*
X238188179Y-29918750D03*
X239038179Y-29918750D03*
X239888179Y-29918750D03*
X239888179Y-28568750D03*
X239038179Y-28568750D03*
X238188179Y-28568750D03*
X237338179Y-28568750D03*
X236488179Y-28568750D03*
X235638179Y-28568750D03*
X234788179Y-28568750D03*
X233938179Y-28568750D03*
D36*
X232588178Y-25558749D03*
D37*
X232588178Y-28938749D03*
D36*
X241238178Y-25558749D03*
D37*
X241238178Y-28938749D03*
%TD*%
M02*
