M48
; DRILL file {KiCad (7.0.0)} date Fri Feb 23 12:31:40 2024
; FORMAT={-:-/ absolute / inch / decimal}
; #@! TF.CreationDate,2024-02-23T12:31:40+01:00
; #@! TF.GenerationSoftware,Kicad,Pcbnew,(7.0.0)
; #@! TF.FileFunction,Plated,1,2,PTH
FMAT,2
INCH
; #@! TA.AperFunction,Plated,PTH,ViaDrill
T1C0.0157
; #@! TA.AperFunction,Plated,PTH,ComponentDrill
T2C0.0157
; #@! TA.AperFunction,Plated,PTH,ComponentDrill
T3C0.0236
; #@! TA.AperFunction,Plated,PTH,ComponentDrill
T4C0.0276
; #@! TA.AperFunction,Plated,PTH,ComponentDrill
T5C0.0280
; #@! TA.AperFunction,Plated,PTH,ComponentDrill
T6C0.0295
; #@! TA.AperFunction,Plated,PTH,ComponentDrill
T7C0.0315
; #@! TA.AperFunction,Plated,PTH,ComponentDrill
T8C0.0320
; #@! TA.AperFunction,Plated,PTH,ComponentDrill
T9C0.0472
; #@! TA.AperFunction,Plated,PTH,ComponentDrill
T10C0.0600
; #@! TA.AperFunction,Plated,PTH,ComponentDrill
T11C0.0866
; #@! TA.AperFunction,Plated,PTH,ComponentDrill
T12C0.1200
%
G90
G05
T1
X5.1875Y-3.0938
X5.1882Y-3.189
X5.281Y-1.6985
X5.3003Y-1.9735
X5.314Y-1.8627
X5.375Y-2.375
X5.3751Y-1.6981
X5.4688Y-2.0938
X5.4688Y-2.375
X5.4837Y-3.6666
X5.5312Y-1.0938
X5.5312Y-1.6562
X5.5676Y-2.9492
X5.5938Y-3.375
X5.6394Y-1.9735
X5.6875Y-1.6562
X5.6875Y-2.7188
X5.6894Y-3.0433
X5.714Y-1.7972
X5.7188Y-1.9375
X5.7188Y-2.8488
X5.7188Y-3.6824
X5.7188Y-3.7217
X5.7188Y-3.832
X5.7188Y-3.875
X5.8073Y-3.0363
X5.875Y-2.9883
X5.9539Y-3.6666
X6.0Y-1.0938
X6.0Y-2.375
X6.0938Y-3.375
X6.2496Y-3.0962
X6.2496Y-3.1914
T2
X9.2102Y-1.1248
X9.2102Y-1.1779
X9.2436Y-1.1248
X9.2436Y-1.1779
X9.2771Y-1.1248
X9.2771Y-1.1779
X9.3106Y-1.1248
X9.3106Y-1.1779
X9.344Y-1.1248
X9.344Y-1.1779
X9.3775Y-1.1248
X9.3775Y-1.1779
X9.411Y-1.1248
X9.411Y-1.1779
X9.4444Y-1.1248
X9.4444Y-1.1779
T4
X5.2812Y-1.35
X5.2812Y-1.65
X5.3343Y-3.375
X5.375Y-1.35
X5.375Y-1.65
X5.6343Y-3.375
X5.7523Y-2.0694
X5.7562Y-2.204
X5.7562Y-2.329
X6.0523Y-2.0694
X6.0562Y-2.204
X6.0562Y-2.329
T5
X5.8684Y-1.3754
X6.0691Y-1.3754
T6
X5.4188Y-2.1562
X5.4272Y-1.1562
X5.4688Y-2.1562
X5.4754Y-1.1562
X5.5187Y-2.1562
X5.5246Y-1.1562
X5.5728Y-1.1562
X5.8959Y-1.1562
X5.9441Y-1.1562
X5.9934Y-1.1562
X6.0416Y-1.1562
T7
X5.2445Y-3.0936
X5.2445Y-3.1894
X5.3002Y-2.0531
X5.3002Y-2.25
X5.373Y-2.4328
X5.373Y-2.6297
X5.4414Y-3.0936
X5.4414Y-3.1894
X5.4688Y-2.4328
X5.4688Y-2.6297
X5.6398Y-2.0581
X5.6398Y-2.255
X5.6875Y-1.4016
X5.6875Y-1.5984
X5.7562Y-1.7977
X5.7562Y-1.9375
X5.8548Y-3.375
X5.9948Y-3.0959
X5.9948Y-3.1916
X6.0Y-2.4328
X6.0Y-2.6297
X6.0517Y-3.375
X6.0562Y-1.7977
X6.0562Y-1.9375
X6.1917Y-3.0959
X6.1917Y-3.1916
T8
X4.8194Y-1.375
X4.8194Y-1.625
X4.8194Y-1.875
X4.8194Y-2.125
X4.8194Y-2.3671
X4.8194Y-2.625
X4.8194Y-2.875
X4.8194Y-3.125
X4.8194Y-3.375
X4.8194Y-3.625
X4.9131Y-1.25
X4.9131Y-1.5
X4.9131Y-1.75
X4.9131Y-2.0
X4.9131Y-2.25
X4.9131Y-2.5079
X4.9131Y-2.75
X4.9131Y-3.0
X4.9131Y-3.25
X4.9131Y-3.5
X5.0556Y-1.375
X5.0556Y-1.625
X5.0556Y-1.875
X5.0556Y-2.125
X5.0556Y-2.3671
X5.0556Y-2.625
X5.0556Y-2.875
X5.0556Y-3.125
X5.0556Y-3.375
X5.0556Y-3.625
X5.1494Y-1.25
X5.1494Y-1.5
X5.1494Y-1.75
X5.1494Y-2.0
X5.1494Y-2.25
X5.1494Y-2.5079
X5.1494Y-2.75
X5.1494Y-3.0
X5.1494Y-3.25
X5.1494Y-3.5
X6.2812Y-1.25
X6.2812Y-1.5
X6.2812Y-2.25
X6.2881Y-1.75
X6.2881Y-2.0
X6.2881Y-2.5079
X6.2881Y-2.75
X6.2881Y-3.0
X6.2881Y-3.25
X6.2881Y-3.5
X6.3819Y-1.375
X6.3819Y-1.625
X6.3819Y-1.875
X6.3819Y-2.125
X6.3819Y-2.3671
X6.3819Y-2.625
X6.3819Y-2.875
X6.3819Y-3.125
X6.3819Y-3.375
X6.3819Y-3.625
X6.5175Y-1.25
X6.5175Y-1.5
X6.5175Y-2.25
X6.5244Y-1.75
X6.5244Y-2.0
X6.5244Y-2.5079
X6.5244Y-2.75
X6.5244Y-3.0
X6.5244Y-3.25
X6.5244Y-3.5
X6.6181Y-1.375
X6.6181Y-1.625
X6.6181Y-1.875
X6.6181Y-2.125
X6.6181Y-2.3671
X6.6181Y-2.625
X6.6181Y-2.875
X6.6181Y-3.125
X6.6181Y-3.375
X6.6181Y-3.625
T9
X5.2375Y-1.8622
X5.6375Y-1.8622
T10
X1.1625Y-1.2125
X1.1625Y-1.9625
X1.1625Y-2.7125
X1.1625Y-3.4625
X1.4125Y-1.1125
X1.4125Y-1.8625
X1.4125Y-2.6125
X1.4125Y-3.3625
X1.9125Y-1.2125
X1.9125Y-1.9625
X1.9125Y-2.7125
X1.9125Y-3.4625
X2.1625Y-1.1125
X2.1625Y-1.8625
X2.1625Y-2.6125
X2.1625Y-3.3625
X2.6625Y-1.2125
X2.6625Y-1.9625
X2.6625Y-2.7125
X2.6625Y-3.4625
X2.9125Y-1.1125
X2.9125Y-1.8625
X2.9125Y-2.6125
X2.9125Y-3.3625
X3.4125Y-1.2125
X3.4125Y-1.9625
X3.4125Y-2.7125
X3.4125Y-3.4625
X3.6625Y-1.1125
X3.6625Y-1.8625
X3.6625Y-2.6125
X3.6625Y-3.3625
X3.7875Y-3.4625
X4.0375Y-3.3625
X4.1625Y-1.2125
X4.1625Y-1.9625
X4.1625Y-2.7125
X4.1625Y-3.4625
X4.4125Y-1.1125
X4.4125Y-1.8625
X4.4125Y-2.6125
X4.4125Y-3.3625
X6.975Y-1.2125
X6.975Y-1.9625
X6.975Y-2.7125
X6.975Y-3.4625
X7.225Y-1.1125
X7.225Y-1.8625
X7.225Y-2.6125
X7.225Y-3.3625
X7.35Y-3.4625
X7.6Y-3.3625
X7.675Y-3.4625
X7.725Y-1.2125
X7.725Y-1.9625
X7.725Y-2.7125
X7.775Y-3.7125
X7.975Y-1.1125
X7.975Y-1.8625
X7.975Y-2.6125
X8.475Y-1.2125
X8.475Y-1.9625
X8.475Y-2.7125
X8.475Y-3.4625
X8.725Y-1.1125
X8.725Y-1.8625
X8.725Y-2.6125
X8.725Y-3.3625
X9.225Y-1.9625
X9.225Y-2.7125
X9.225Y-3.4625
X9.275Y-1.5125
X9.475Y-1.8625
X9.475Y-2.6125
X9.475Y-3.3625
X9.525Y-1.4125
X9.975Y-1.2125
X9.975Y-1.9625
X9.975Y-2.7125
X9.975Y-3.4625
X10.225Y-1.1125
X10.225Y-1.8625
X10.225Y-2.6125
X10.225Y-3.3625
T11
X2.1078Y-3.0566
X2.1708Y-1.6875
X8.1156Y-3.5186
X9.2279Y-1.6038
T12
X2.8125Y-3.8375
X3.4688Y-3.8375
X4.3125Y-3.8375
X4.4062Y-3.8375
X7.0312Y-3.8375
X7.125Y-3.8375
X7.9688Y-3.8375
X8.625Y-3.8375
T3
G00X9.157Y-0.9905
M15
G01X9.157Y-1.022
M16
G05
G00X9.157Y-1.1098
M15
G01X9.157Y-1.1688
M16
G05
G00X9.4976Y-0.9905
M15
G01X9.4976Y-1.022
M16
G05
G00X9.4976Y-1.1098
M15
G01X9.4976Y-1.1688
M16
G05
T0
M30
