%TF.GenerationSoftware,KiCad,Pcbnew,(7.0.0)*%
%TF.CreationDate,2024-02-13T17:17:53+01:00*%
%TF.ProjectId,LeSTMovoz,4c655354-4d6f-4766-9f7a-2e6b69636164,rev?*%
%TF.SameCoordinates,Original*%
%TF.FileFunction,Other,Comment*%
%FSLAX46Y46*%
G04 Gerber Fmt 4.6, Leading zero omitted, Abs format (unit mm)*
G04 Created by KiCad (PCBNEW (7.0.0)) date 2024-02-13 17:17:53*
%MOMM*%
%LPD*%
G01*
G04 APERTURE LIST*
%ADD10C,0.030000*%
%ADD11C,0.150000*%
G04 APERTURE END LIST*
D10*
%TO.C,RST1*%
X147663928Y-91554726D02*
X147663928Y-91354726D01*
X147663928Y-91354726D02*
X147778213Y-91554726D01*
X147778213Y-91554726D02*
X147778213Y-91354726D01*
X147902023Y-91554726D02*
X147882975Y-91545202D01*
X147882975Y-91545202D02*
X147873452Y-91535678D01*
X147873452Y-91535678D02*
X147863928Y-91516630D01*
X147863928Y-91516630D02*
X147863928Y-91459488D01*
X147863928Y-91459488D02*
X147873452Y-91440440D01*
X147873452Y-91440440D02*
X147882975Y-91430916D01*
X147882975Y-91430916D02*
X147902023Y-91421392D01*
X147902023Y-91421392D02*
X147930594Y-91421392D01*
X147930594Y-91421392D02*
X147949642Y-91430916D01*
X147949642Y-91430916D02*
X147959166Y-91440440D01*
X147959166Y-91440440D02*
X147968690Y-91459488D01*
X147968690Y-91459488D02*
X147968690Y-91516630D01*
X147968690Y-91516630D02*
X147959166Y-91535678D01*
X147959166Y-91535678D02*
X147949642Y-91545202D01*
X147949642Y-91545202D02*
X147930594Y-91554726D01*
X147930594Y-91554726D02*
X147902023Y-91554726D01*
X148241070Y-91449964D02*
X148174404Y-91449964D01*
X148174404Y-91554726D02*
X148174404Y-91354726D01*
X148174404Y-91354726D02*
X148269642Y-91354726D01*
X148345833Y-91535678D02*
X148355356Y-91545202D01*
X148355356Y-91545202D02*
X148345833Y-91554726D01*
X148345833Y-91554726D02*
X148336309Y-91545202D01*
X148336309Y-91545202D02*
X148345833Y-91535678D01*
X148345833Y-91535678D02*
X148345833Y-91554726D01*
X148555356Y-91535678D02*
X148545832Y-91545202D01*
X148545832Y-91545202D02*
X148517261Y-91554726D01*
X148517261Y-91554726D02*
X148498213Y-91554726D01*
X148498213Y-91554726D02*
X148469642Y-91545202D01*
X148469642Y-91545202D02*
X148450594Y-91526154D01*
X148450594Y-91526154D02*
X148441071Y-91507107D01*
X148441071Y-91507107D02*
X148431547Y-91469011D01*
X148431547Y-91469011D02*
X148431547Y-91440440D01*
X148431547Y-91440440D02*
X148441071Y-91402345D01*
X148441071Y-91402345D02*
X148450594Y-91383297D01*
X148450594Y-91383297D02*
X148469642Y-91364250D01*
X148469642Y-91364250D02*
X148498213Y-91354726D01*
X148498213Y-91354726D02*
X148517261Y-91354726D01*
X148517261Y-91354726D02*
X148545832Y-91364250D01*
X148545832Y-91364250D02*
X148555356Y-91373773D01*
X148726785Y-91421392D02*
X148726785Y-91554726D01*
X148641071Y-91421392D02*
X148641071Y-91526154D01*
X148641071Y-91526154D02*
X148650594Y-91545202D01*
X148650594Y-91545202D02*
X148669642Y-91554726D01*
X148669642Y-91554726D02*
X148698213Y-91554726D01*
X148698213Y-91554726D02*
X148717261Y-91545202D01*
X148717261Y-91545202D02*
X148726785Y-91535678D01*
X148913451Y-91421392D02*
X148989642Y-91421392D01*
X148942023Y-91354726D02*
X148942023Y-91526154D01*
X148942023Y-91526154D02*
X148951546Y-91545202D01*
X148951546Y-91545202D02*
X148970594Y-91554726D01*
X148970594Y-91554726D02*
X148989642Y-91554726D01*
X149056309Y-91554726D02*
X149056309Y-91421392D01*
X149056309Y-91459488D02*
X149065832Y-91440440D01*
X149065832Y-91440440D02*
X149075356Y-91430916D01*
X149075356Y-91430916D02*
X149094404Y-91421392D01*
X149094404Y-91421392D02*
X149113451Y-91421392D01*
X149265833Y-91554726D02*
X149265833Y-91449964D01*
X149265833Y-91449964D02*
X149256309Y-91430916D01*
X149256309Y-91430916D02*
X149237261Y-91421392D01*
X149237261Y-91421392D02*
X149199166Y-91421392D01*
X149199166Y-91421392D02*
X149180119Y-91430916D01*
X149265833Y-91545202D02*
X149246785Y-91554726D01*
X149246785Y-91554726D02*
X149199166Y-91554726D01*
X149199166Y-91554726D02*
X149180119Y-91545202D01*
X149180119Y-91545202D02*
X149170595Y-91526154D01*
X149170595Y-91526154D02*
X149170595Y-91507107D01*
X149170595Y-91507107D02*
X149180119Y-91488059D01*
X149180119Y-91488059D02*
X149199166Y-91478535D01*
X149199166Y-91478535D02*
X149246785Y-91478535D01*
X149246785Y-91478535D02*
X149265833Y-91469011D01*
X149446785Y-91545202D02*
X149427737Y-91554726D01*
X149427737Y-91554726D02*
X149389642Y-91554726D01*
X149389642Y-91554726D02*
X149370594Y-91545202D01*
X149370594Y-91545202D02*
X149361071Y-91535678D01*
X149361071Y-91535678D02*
X149351547Y-91516630D01*
X149351547Y-91516630D02*
X149351547Y-91459488D01*
X149351547Y-91459488D02*
X149361071Y-91440440D01*
X149361071Y-91440440D02*
X149370594Y-91430916D01*
X149370594Y-91430916D02*
X149389642Y-91421392D01*
X149389642Y-91421392D02*
X149427737Y-91421392D01*
X149427737Y-91421392D02*
X149446785Y-91430916D01*
X149532500Y-91554726D02*
X149532500Y-91354726D01*
X149551547Y-91478535D02*
X149608690Y-91554726D01*
X149608690Y-91421392D02*
X149532500Y-91497583D01*
X149684881Y-91545202D02*
X149703928Y-91554726D01*
X149703928Y-91554726D02*
X149742024Y-91554726D01*
X149742024Y-91554726D02*
X149761071Y-91545202D01*
X149761071Y-91545202D02*
X149770595Y-91526154D01*
X149770595Y-91526154D02*
X149770595Y-91516630D01*
X149770595Y-91516630D02*
X149761071Y-91497583D01*
X149761071Y-91497583D02*
X149742024Y-91488059D01*
X149742024Y-91488059D02*
X149713452Y-91488059D01*
X149713452Y-91488059D02*
X149694405Y-91478535D01*
X149694405Y-91478535D02*
X149684881Y-91459488D01*
X149684881Y-91459488D02*
X149684881Y-91449964D01*
X149684881Y-91449964D02*
X149694405Y-91430916D01*
X149694405Y-91430916D02*
X149713452Y-91421392D01*
X149713452Y-91421392D02*
X149742024Y-91421392D01*
X149742024Y-91421392D02*
X149761071Y-91430916D01*
X152514405Y-91154726D02*
X152514405Y-90954726D01*
X152628690Y-91154726D02*
X152542976Y-91040440D01*
X152628690Y-90954726D02*
X152514405Y-91069011D01*
X152714405Y-91049964D02*
X152781071Y-91049964D01*
X152809643Y-91154726D02*
X152714405Y-91154726D01*
X152714405Y-91154726D02*
X152714405Y-90954726D01*
X152714405Y-90954726D02*
X152809643Y-90954726D01*
X152895357Y-91049964D02*
X152962023Y-91049964D01*
X152990595Y-91154726D02*
X152895357Y-91154726D01*
X152895357Y-91154726D02*
X152895357Y-90954726D01*
X152895357Y-90954726D02*
X152990595Y-90954726D01*
X153076309Y-91154726D02*
X153076309Y-90954726D01*
X153076309Y-90954726D02*
X153152499Y-90954726D01*
X153152499Y-90954726D02*
X153171547Y-90964250D01*
X153171547Y-90964250D02*
X153181070Y-90973773D01*
X153181070Y-90973773D02*
X153190594Y-90992821D01*
X153190594Y-90992821D02*
X153190594Y-91021392D01*
X153190594Y-91021392D02*
X153181070Y-91040440D01*
X153181070Y-91040440D02*
X153171547Y-91049964D01*
X153171547Y-91049964D02*
X153152499Y-91059488D01*
X153152499Y-91059488D02*
X153076309Y-91059488D01*
X153276309Y-91078535D02*
X153428690Y-91078535D01*
X153562023Y-90954726D02*
X153600118Y-90954726D01*
X153600118Y-90954726D02*
X153619166Y-90964250D01*
X153619166Y-90964250D02*
X153638213Y-90983297D01*
X153638213Y-90983297D02*
X153647737Y-91021392D01*
X153647737Y-91021392D02*
X153647737Y-91088059D01*
X153647737Y-91088059D02*
X153638213Y-91126154D01*
X153638213Y-91126154D02*
X153619166Y-91145202D01*
X153619166Y-91145202D02*
X153600118Y-91154726D01*
X153600118Y-91154726D02*
X153562023Y-91154726D01*
X153562023Y-91154726D02*
X153542975Y-91145202D01*
X153542975Y-91145202D02*
X153523928Y-91126154D01*
X153523928Y-91126154D02*
X153514404Y-91088059D01*
X153514404Y-91088059D02*
X153514404Y-91021392D01*
X153514404Y-91021392D02*
X153523928Y-90983297D01*
X153523928Y-90983297D02*
X153542975Y-90964250D01*
X153542975Y-90964250D02*
X153562023Y-90954726D01*
X153733452Y-90954726D02*
X153733452Y-91116630D01*
X153733452Y-91116630D02*
X153742975Y-91135678D01*
X153742975Y-91135678D02*
X153752499Y-91145202D01*
X153752499Y-91145202D02*
X153771547Y-91154726D01*
X153771547Y-91154726D02*
X153809642Y-91154726D01*
X153809642Y-91154726D02*
X153828690Y-91145202D01*
X153828690Y-91145202D02*
X153838213Y-91135678D01*
X153838213Y-91135678D02*
X153847737Y-91116630D01*
X153847737Y-91116630D02*
X153847737Y-90954726D01*
X153914404Y-90954726D02*
X154028690Y-90954726D01*
X153971547Y-91154726D02*
X153971547Y-90954726D01*
X154196309Y-90954726D02*
X154329642Y-90954726D01*
X154329642Y-90954726D02*
X154196309Y-91154726D01*
X154196309Y-91154726D02*
X154329642Y-91154726D01*
X154443928Y-90954726D02*
X154482023Y-90954726D01*
X154482023Y-90954726D02*
X154501071Y-90964250D01*
X154501071Y-90964250D02*
X154520118Y-90983297D01*
X154520118Y-90983297D02*
X154529642Y-91021392D01*
X154529642Y-91021392D02*
X154529642Y-91088059D01*
X154529642Y-91088059D02*
X154520118Y-91126154D01*
X154520118Y-91126154D02*
X154501071Y-91145202D01*
X154501071Y-91145202D02*
X154482023Y-91154726D01*
X154482023Y-91154726D02*
X154443928Y-91154726D01*
X154443928Y-91154726D02*
X154424880Y-91145202D01*
X154424880Y-91145202D02*
X154405833Y-91126154D01*
X154405833Y-91126154D02*
X154396309Y-91088059D01*
X154396309Y-91088059D02*
X154396309Y-91021392D01*
X154396309Y-91021392D02*
X154405833Y-90983297D01*
X154405833Y-90983297D02*
X154424880Y-90964250D01*
X154424880Y-90964250D02*
X154443928Y-90954726D01*
X154615357Y-91154726D02*
X154615357Y-90954726D01*
X154615357Y-90954726D02*
X154729642Y-91154726D01*
X154729642Y-91154726D02*
X154729642Y-90954726D01*
X154824881Y-91049964D02*
X154891547Y-91049964D01*
X154920119Y-91154726D02*
X154824881Y-91154726D01*
X154824881Y-91154726D02*
X154824881Y-90954726D01*
X154824881Y-90954726D02*
X154920119Y-90954726D01*
X152663928Y-91554726D02*
X152663928Y-91354726D01*
X152663928Y-91354726D02*
X152778213Y-91554726D01*
X152778213Y-91554726D02*
X152778213Y-91354726D01*
X152902023Y-91554726D02*
X152882975Y-91545202D01*
X152882975Y-91545202D02*
X152873452Y-91535678D01*
X152873452Y-91535678D02*
X152863928Y-91516630D01*
X152863928Y-91516630D02*
X152863928Y-91459488D01*
X152863928Y-91459488D02*
X152873452Y-91440440D01*
X152873452Y-91440440D02*
X152882975Y-91430916D01*
X152882975Y-91430916D02*
X152902023Y-91421392D01*
X152902023Y-91421392D02*
X152930594Y-91421392D01*
X152930594Y-91421392D02*
X152949642Y-91430916D01*
X152949642Y-91430916D02*
X152959166Y-91440440D01*
X152959166Y-91440440D02*
X152968690Y-91459488D01*
X152968690Y-91459488D02*
X152968690Y-91516630D01*
X152968690Y-91516630D02*
X152959166Y-91535678D01*
X152959166Y-91535678D02*
X152949642Y-91545202D01*
X152949642Y-91545202D02*
X152930594Y-91554726D01*
X152930594Y-91554726D02*
X152902023Y-91554726D01*
X153241070Y-91449964D02*
X153174404Y-91449964D01*
X153174404Y-91554726D02*
X153174404Y-91354726D01*
X153174404Y-91354726D02*
X153269642Y-91354726D01*
X153345833Y-91535678D02*
X153355356Y-91545202D01*
X153355356Y-91545202D02*
X153345833Y-91554726D01*
X153345833Y-91554726D02*
X153336309Y-91545202D01*
X153336309Y-91545202D02*
X153345833Y-91535678D01*
X153345833Y-91535678D02*
X153345833Y-91554726D01*
X153555356Y-91535678D02*
X153545832Y-91545202D01*
X153545832Y-91545202D02*
X153517261Y-91554726D01*
X153517261Y-91554726D02*
X153498213Y-91554726D01*
X153498213Y-91554726D02*
X153469642Y-91545202D01*
X153469642Y-91545202D02*
X153450594Y-91526154D01*
X153450594Y-91526154D02*
X153441071Y-91507107D01*
X153441071Y-91507107D02*
X153431547Y-91469011D01*
X153431547Y-91469011D02*
X153431547Y-91440440D01*
X153431547Y-91440440D02*
X153441071Y-91402345D01*
X153441071Y-91402345D02*
X153450594Y-91383297D01*
X153450594Y-91383297D02*
X153469642Y-91364250D01*
X153469642Y-91364250D02*
X153498213Y-91354726D01*
X153498213Y-91354726D02*
X153517261Y-91354726D01*
X153517261Y-91354726D02*
X153545832Y-91364250D01*
X153545832Y-91364250D02*
X153555356Y-91373773D01*
X153726785Y-91421392D02*
X153726785Y-91554726D01*
X153641071Y-91421392D02*
X153641071Y-91526154D01*
X153641071Y-91526154D02*
X153650594Y-91545202D01*
X153650594Y-91545202D02*
X153669642Y-91554726D01*
X153669642Y-91554726D02*
X153698213Y-91554726D01*
X153698213Y-91554726D02*
X153717261Y-91545202D01*
X153717261Y-91545202D02*
X153726785Y-91535678D01*
X153913451Y-91421392D02*
X153989642Y-91421392D01*
X153942023Y-91354726D02*
X153942023Y-91526154D01*
X153942023Y-91526154D02*
X153951546Y-91545202D01*
X153951546Y-91545202D02*
X153970594Y-91554726D01*
X153970594Y-91554726D02*
X153989642Y-91554726D01*
X154056309Y-91554726D02*
X154056309Y-91421392D01*
X154056309Y-91459488D02*
X154065832Y-91440440D01*
X154065832Y-91440440D02*
X154075356Y-91430916D01*
X154075356Y-91430916D02*
X154094404Y-91421392D01*
X154094404Y-91421392D02*
X154113451Y-91421392D01*
X154265833Y-91554726D02*
X154265833Y-91449964D01*
X154265833Y-91449964D02*
X154256309Y-91430916D01*
X154256309Y-91430916D02*
X154237261Y-91421392D01*
X154237261Y-91421392D02*
X154199166Y-91421392D01*
X154199166Y-91421392D02*
X154180119Y-91430916D01*
X154265833Y-91545202D02*
X154246785Y-91554726D01*
X154246785Y-91554726D02*
X154199166Y-91554726D01*
X154199166Y-91554726D02*
X154180119Y-91545202D01*
X154180119Y-91545202D02*
X154170595Y-91526154D01*
X154170595Y-91526154D02*
X154170595Y-91507107D01*
X154170595Y-91507107D02*
X154180119Y-91488059D01*
X154180119Y-91488059D02*
X154199166Y-91478535D01*
X154199166Y-91478535D02*
X154246785Y-91478535D01*
X154246785Y-91478535D02*
X154265833Y-91469011D01*
X154446785Y-91545202D02*
X154427737Y-91554726D01*
X154427737Y-91554726D02*
X154389642Y-91554726D01*
X154389642Y-91554726D02*
X154370594Y-91545202D01*
X154370594Y-91545202D02*
X154361071Y-91535678D01*
X154361071Y-91535678D02*
X154351547Y-91516630D01*
X154351547Y-91516630D02*
X154351547Y-91459488D01*
X154351547Y-91459488D02*
X154361071Y-91440440D01*
X154361071Y-91440440D02*
X154370594Y-91430916D01*
X154370594Y-91430916D02*
X154389642Y-91421392D01*
X154389642Y-91421392D02*
X154427737Y-91421392D01*
X154427737Y-91421392D02*
X154446785Y-91430916D01*
X154532500Y-91554726D02*
X154532500Y-91354726D01*
X154551547Y-91478535D02*
X154608690Y-91554726D01*
X154608690Y-91421392D02*
X154532500Y-91497583D01*
X154684881Y-91545202D02*
X154703928Y-91554726D01*
X154703928Y-91554726D02*
X154742024Y-91554726D01*
X154742024Y-91554726D02*
X154761071Y-91545202D01*
X154761071Y-91545202D02*
X154770595Y-91526154D01*
X154770595Y-91526154D02*
X154770595Y-91516630D01*
X154770595Y-91516630D02*
X154761071Y-91497583D01*
X154761071Y-91497583D02*
X154742024Y-91488059D01*
X154742024Y-91488059D02*
X154713452Y-91488059D01*
X154713452Y-91488059D02*
X154694405Y-91478535D01*
X154694405Y-91478535D02*
X154684881Y-91459488D01*
X154684881Y-91459488D02*
X154684881Y-91449964D01*
X154684881Y-91449964D02*
X154694405Y-91430916D01*
X154694405Y-91430916D02*
X154713452Y-91421392D01*
X154713452Y-91421392D02*
X154742024Y-91421392D01*
X154742024Y-91421392D02*
X154761071Y-91430916D01*
X147514405Y-91154726D02*
X147514405Y-90954726D01*
X147628690Y-91154726D02*
X147542976Y-91040440D01*
X147628690Y-90954726D02*
X147514405Y-91069011D01*
X147714405Y-91049964D02*
X147781071Y-91049964D01*
X147809643Y-91154726D02*
X147714405Y-91154726D01*
X147714405Y-91154726D02*
X147714405Y-90954726D01*
X147714405Y-90954726D02*
X147809643Y-90954726D01*
X147895357Y-91049964D02*
X147962023Y-91049964D01*
X147990595Y-91154726D02*
X147895357Y-91154726D01*
X147895357Y-91154726D02*
X147895357Y-90954726D01*
X147895357Y-90954726D02*
X147990595Y-90954726D01*
X148076309Y-91154726D02*
X148076309Y-90954726D01*
X148076309Y-90954726D02*
X148152499Y-90954726D01*
X148152499Y-90954726D02*
X148171547Y-90964250D01*
X148171547Y-90964250D02*
X148181070Y-90973773D01*
X148181070Y-90973773D02*
X148190594Y-90992821D01*
X148190594Y-90992821D02*
X148190594Y-91021392D01*
X148190594Y-91021392D02*
X148181070Y-91040440D01*
X148181070Y-91040440D02*
X148171547Y-91049964D01*
X148171547Y-91049964D02*
X148152499Y-91059488D01*
X148152499Y-91059488D02*
X148076309Y-91059488D01*
X148276309Y-91078535D02*
X148428690Y-91078535D01*
X148562023Y-90954726D02*
X148600118Y-90954726D01*
X148600118Y-90954726D02*
X148619166Y-90964250D01*
X148619166Y-90964250D02*
X148638213Y-90983297D01*
X148638213Y-90983297D02*
X148647737Y-91021392D01*
X148647737Y-91021392D02*
X148647737Y-91088059D01*
X148647737Y-91088059D02*
X148638213Y-91126154D01*
X148638213Y-91126154D02*
X148619166Y-91145202D01*
X148619166Y-91145202D02*
X148600118Y-91154726D01*
X148600118Y-91154726D02*
X148562023Y-91154726D01*
X148562023Y-91154726D02*
X148542975Y-91145202D01*
X148542975Y-91145202D02*
X148523928Y-91126154D01*
X148523928Y-91126154D02*
X148514404Y-91088059D01*
X148514404Y-91088059D02*
X148514404Y-91021392D01*
X148514404Y-91021392D02*
X148523928Y-90983297D01*
X148523928Y-90983297D02*
X148542975Y-90964250D01*
X148542975Y-90964250D02*
X148562023Y-90954726D01*
X148733452Y-90954726D02*
X148733452Y-91116630D01*
X148733452Y-91116630D02*
X148742975Y-91135678D01*
X148742975Y-91135678D02*
X148752499Y-91145202D01*
X148752499Y-91145202D02*
X148771547Y-91154726D01*
X148771547Y-91154726D02*
X148809642Y-91154726D01*
X148809642Y-91154726D02*
X148828690Y-91145202D01*
X148828690Y-91145202D02*
X148838213Y-91135678D01*
X148838213Y-91135678D02*
X148847737Y-91116630D01*
X148847737Y-91116630D02*
X148847737Y-90954726D01*
X148914404Y-90954726D02*
X149028690Y-90954726D01*
X148971547Y-91154726D02*
X148971547Y-90954726D01*
X149196309Y-90954726D02*
X149329642Y-90954726D01*
X149329642Y-90954726D02*
X149196309Y-91154726D01*
X149196309Y-91154726D02*
X149329642Y-91154726D01*
X149443928Y-90954726D02*
X149482023Y-90954726D01*
X149482023Y-90954726D02*
X149501071Y-90964250D01*
X149501071Y-90964250D02*
X149520118Y-90983297D01*
X149520118Y-90983297D02*
X149529642Y-91021392D01*
X149529642Y-91021392D02*
X149529642Y-91088059D01*
X149529642Y-91088059D02*
X149520118Y-91126154D01*
X149520118Y-91126154D02*
X149501071Y-91145202D01*
X149501071Y-91145202D02*
X149482023Y-91154726D01*
X149482023Y-91154726D02*
X149443928Y-91154726D01*
X149443928Y-91154726D02*
X149424880Y-91145202D01*
X149424880Y-91145202D02*
X149405833Y-91126154D01*
X149405833Y-91126154D02*
X149396309Y-91088059D01*
X149396309Y-91088059D02*
X149396309Y-91021392D01*
X149396309Y-91021392D02*
X149405833Y-90983297D01*
X149405833Y-90983297D02*
X149424880Y-90964250D01*
X149424880Y-90964250D02*
X149443928Y-90954726D01*
X149615357Y-91154726D02*
X149615357Y-90954726D01*
X149615357Y-90954726D02*
X149729642Y-91154726D01*
X149729642Y-91154726D02*
X149729642Y-90954726D01*
X149824881Y-91049964D02*
X149891547Y-91049964D01*
X149920119Y-91154726D02*
X149824881Y-91154726D01*
X149824881Y-91154726D02*
X149824881Y-90954726D01*
X149824881Y-90954726D02*
X149920119Y-90954726D01*
D11*
%TO.C,S1*%
X190214286Y-81822119D02*
X190261905Y-81774500D01*
X190261905Y-81774500D02*
X190357143Y-81726880D01*
X190357143Y-81726880D02*
X190595238Y-81726880D01*
X190595238Y-81726880D02*
X190690476Y-81774500D01*
X190690476Y-81774500D02*
X190738095Y-81822119D01*
X190738095Y-81822119D02*
X190785714Y-81917357D01*
X190785714Y-81917357D02*
X190785714Y-82012595D01*
X190785714Y-82012595D02*
X190738095Y-82155452D01*
X190738095Y-82155452D02*
X190166667Y-82726880D01*
X190166667Y-82726880D02*
X190785714Y-82726880D01*
%TO.C,S2*%
X199691667Y-81726880D02*
X200310714Y-81726880D01*
X200310714Y-81726880D02*
X199977381Y-82107833D01*
X199977381Y-82107833D02*
X200120238Y-82107833D01*
X200120238Y-82107833D02*
X200215476Y-82155452D01*
X200215476Y-82155452D02*
X200263095Y-82203071D01*
X200263095Y-82203071D02*
X200310714Y-82298309D01*
X200310714Y-82298309D02*
X200310714Y-82536404D01*
X200310714Y-82536404D02*
X200263095Y-82631642D01*
X200263095Y-82631642D02*
X200215476Y-82679261D01*
X200215476Y-82679261D02*
X200120238Y-82726880D01*
X200120238Y-82726880D02*
X199834524Y-82726880D01*
X199834524Y-82726880D02*
X199739286Y-82679261D01*
X199739286Y-82679261D02*
X199691667Y-82631642D01*
%TO.C,S3*%
X90154167Y-81726880D02*
X90773214Y-81726880D01*
X90773214Y-81726880D02*
X90439881Y-82107833D01*
X90439881Y-82107833D02*
X90582738Y-82107833D01*
X90582738Y-82107833D02*
X90677976Y-82155452D01*
X90677976Y-82155452D02*
X90725595Y-82203071D01*
X90725595Y-82203071D02*
X90773214Y-82298309D01*
X90773214Y-82298309D02*
X90773214Y-82536404D01*
X90773214Y-82536404D02*
X90725595Y-82631642D01*
X90725595Y-82631642D02*
X90677976Y-82679261D01*
X90677976Y-82679261D02*
X90582738Y-82726880D01*
X90582738Y-82726880D02*
X90297024Y-82726880D01*
X90297024Y-82726880D02*
X90201786Y-82679261D01*
X90201786Y-82679261D02*
X90154167Y-82631642D01*
%TO.C,S4*%
X99726786Y-81822119D02*
X99774405Y-81774500D01*
X99774405Y-81774500D02*
X99869643Y-81726880D01*
X99869643Y-81726880D02*
X100107738Y-81726880D01*
X100107738Y-81726880D02*
X100202976Y-81774500D01*
X100202976Y-81774500D02*
X100250595Y-81822119D01*
X100250595Y-81822119D02*
X100298214Y-81917357D01*
X100298214Y-81917357D02*
X100298214Y-82012595D01*
X100298214Y-82012595D02*
X100250595Y-82155452D01*
X100250595Y-82155452D02*
X99679167Y-82726880D01*
X99679167Y-82726880D02*
X100298214Y-82726880D01*
D10*
%TO.C,SW1*%
X140751428Y-91154726D02*
X140751428Y-90954726D01*
X140751428Y-90954726D02*
X140865713Y-91154726D01*
X140865713Y-91154726D02*
X140865713Y-90954726D01*
X140989523Y-91154726D02*
X140970475Y-91145202D01*
X140970475Y-91145202D02*
X140960952Y-91135678D01*
X140960952Y-91135678D02*
X140951428Y-91116630D01*
X140951428Y-91116630D02*
X140951428Y-91059488D01*
X140951428Y-91059488D02*
X140960952Y-91040440D01*
X140960952Y-91040440D02*
X140970475Y-91030916D01*
X140970475Y-91030916D02*
X140989523Y-91021392D01*
X140989523Y-91021392D02*
X141018094Y-91021392D01*
X141018094Y-91021392D02*
X141037142Y-91030916D01*
X141037142Y-91030916D02*
X141046666Y-91040440D01*
X141046666Y-91040440D02*
X141056190Y-91059488D01*
X141056190Y-91059488D02*
X141056190Y-91116630D01*
X141056190Y-91116630D02*
X141046666Y-91135678D01*
X141046666Y-91135678D02*
X141037142Y-91145202D01*
X141037142Y-91145202D02*
X141018094Y-91154726D01*
X141018094Y-91154726D02*
X140989523Y-91154726D01*
X141328570Y-91049964D02*
X141261904Y-91049964D01*
X141261904Y-91154726D02*
X141261904Y-90954726D01*
X141261904Y-90954726D02*
X141357142Y-90954726D01*
X141433333Y-91135678D02*
X141442856Y-91145202D01*
X141442856Y-91145202D02*
X141433333Y-91154726D01*
X141433333Y-91154726D02*
X141423809Y-91145202D01*
X141423809Y-91145202D02*
X141433333Y-91135678D01*
X141433333Y-91135678D02*
X141433333Y-91154726D01*
X141642856Y-91135678D02*
X141633332Y-91145202D01*
X141633332Y-91145202D02*
X141604761Y-91154726D01*
X141604761Y-91154726D02*
X141585713Y-91154726D01*
X141585713Y-91154726D02*
X141557142Y-91145202D01*
X141557142Y-91145202D02*
X141538094Y-91126154D01*
X141538094Y-91126154D02*
X141528571Y-91107107D01*
X141528571Y-91107107D02*
X141519047Y-91069011D01*
X141519047Y-91069011D02*
X141519047Y-91040440D01*
X141519047Y-91040440D02*
X141528571Y-91002345D01*
X141528571Y-91002345D02*
X141538094Y-90983297D01*
X141538094Y-90983297D02*
X141557142Y-90964250D01*
X141557142Y-90964250D02*
X141585713Y-90954726D01*
X141585713Y-90954726D02*
X141604761Y-90954726D01*
X141604761Y-90954726D02*
X141633332Y-90964250D01*
X141633332Y-90964250D02*
X141642856Y-90973773D01*
X141814285Y-91021392D02*
X141814285Y-91154726D01*
X141728571Y-91021392D02*
X141728571Y-91126154D01*
X141728571Y-91126154D02*
X141738094Y-91145202D01*
X141738094Y-91145202D02*
X141757142Y-91154726D01*
X141757142Y-91154726D02*
X141785713Y-91154726D01*
X141785713Y-91154726D02*
X141804761Y-91145202D01*
X141804761Y-91145202D02*
X141814285Y-91135678D01*
X142000951Y-91021392D02*
X142077142Y-91021392D01*
X142029523Y-90954726D02*
X142029523Y-91126154D01*
X142029523Y-91126154D02*
X142039046Y-91145202D01*
X142039046Y-91145202D02*
X142058094Y-91154726D01*
X142058094Y-91154726D02*
X142077142Y-91154726D01*
X142143809Y-91154726D02*
X142143809Y-91021392D01*
X142143809Y-91059488D02*
X142153332Y-91040440D01*
X142153332Y-91040440D02*
X142162856Y-91030916D01*
X142162856Y-91030916D02*
X142181904Y-91021392D01*
X142181904Y-91021392D02*
X142200951Y-91021392D01*
X142353333Y-91154726D02*
X142353333Y-91049964D01*
X142353333Y-91049964D02*
X142343809Y-91030916D01*
X142343809Y-91030916D02*
X142324761Y-91021392D01*
X142324761Y-91021392D02*
X142286666Y-91021392D01*
X142286666Y-91021392D02*
X142267619Y-91030916D01*
X142353333Y-91145202D02*
X142334285Y-91154726D01*
X142334285Y-91154726D02*
X142286666Y-91154726D01*
X142286666Y-91154726D02*
X142267619Y-91145202D01*
X142267619Y-91145202D02*
X142258095Y-91126154D01*
X142258095Y-91126154D02*
X142258095Y-91107107D01*
X142258095Y-91107107D02*
X142267619Y-91088059D01*
X142267619Y-91088059D02*
X142286666Y-91078535D01*
X142286666Y-91078535D02*
X142334285Y-91078535D01*
X142334285Y-91078535D02*
X142353333Y-91069011D01*
X142534285Y-91145202D02*
X142515237Y-91154726D01*
X142515237Y-91154726D02*
X142477142Y-91154726D01*
X142477142Y-91154726D02*
X142458094Y-91145202D01*
X142458094Y-91145202D02*
X142448571Y-91135678D01*
X142448571Y-91135678D02*
X142439047Y-91116630D01*
X142439047Y-91116630D02*
X142439047Y-91059488D01*
X142439047Y-91059488D02*
X142448571Y-91040440D01*
X142448571Y-91040440D02*
X142458094Y-91030916D01*
X142458094Y-91030916D02*
X142477142Y-91021392D01*
X142477142Y-91021392D02*
X142515237Y-91021392D01*
X142515237Y-91021392D02*
X142534285Y-91030916D01*
X142620000Y-91154726D02*
X142620000Y-90954726D01*
X142639047Y-91078535D02*
X142696190Y-91154726D01*
X142696190Y-91021392D02*
X142620000Y-91097583D01*
X142772381Y-91145202D02*
X142791428Y-91154726D01*
X142791428Y-91154726D02*
X142829524Y-91154726D01*
X142829524Y-91154726D02*
X142848571Y-91145202D01*
X142848571Y-91145202D02*
X142858095Y-91126154D01*
X142858095Y-91126154D02*
X142858095Y-91116630D01*
X142858095Y-91116630D02*
X142848571Y-91097583D01*
X142848571Y-91097583D02*
X142829524Y-91088059D01*
X142829524Y-91088059D02*
X142800952Y-91088059D01*
X142800952Y-91088059D02*
X142781905Y-91078535D01*
X142781905Y-91078535D02*
X142772381Y-91059488D01*
X142772381Y-91059488D02*
X142772381Y-91049964D01*
X142772381Y-91049964D02*
X142781905Y-91030916D01*
X142781905Y-91030916D02*
X142800952Y-91021392D01*
X142800952Y-91021392D02*
X142829524Y-91021392D01*
X142829524Y-91021392D02*
X142848571Y-91030916D01*
X135751428Y-91154726D02*
X135751428Y-90954726D01*
X135751428Y-90954726D02*
X135865713Y-91154726D01*
X135865713Y-91154726D02*
X135865713Y-90954726D01*
X135989523Y-91154726D02*
X135970475Y-91145202D01*
X135970475Y-91145202D02*
X135960952Y-91135678D01*
X135960952Y-91135678D02*
X135951428Y-91116630D01*
X135951428Y-91116630D02*
X135951428Y-91059488D01*
X135951428Y-91059488D02*
X135960952Y-91040440D01*
X135960952Y-91040440D02*
X135970475Y-91030916D01*
X135970475Y-91030916D02*
X135989523Y-91021392D01*
X135989523Y-91021392D02*
X136018094Y-91021392D01*
X136018094Y-91021392D02*
X136037142Y-91030916D01*
X136037142Y-91030916D02*
X136046666Y-91040440D01*
X136046666Y-91040440D02*
X136056190Y-91059488D01*
X136056190Y-91059488D02*
X136056190Y-91116630D01*
X136056190Y-91116630D02*
X136046666Y-91135678D01*
X136046666Y-91135678D02*
X136037142Y-91145202D01*
X136037142Y-91145202D02*
X136018094Y-91154726D01*
X136018094Y-91154726D02*
X135989523Y-91154726D01*
X136328570Y-91049964D02*
X136261904Y-91049964D01*
X136261904Y-91154726D02*
X136261904Y-90954726D01*
X136261904Y-90954726D02*
X136357142Y-90954726D01*
X136433333Y-91135678D02*
X136442856Y-91145202D01*
X136442856Y-91145202D02*
X136433333Y-91154726D01*
X136433333Y-91154726D02*
X136423809Y-91145202D01*
X136423809Y-91145202D02*
X136433333Y-91135678D01*
X136433333Y-91135678D02*
X136433333Y-91154726D01*
X136642856Y-91135678D02*
X136633332Y-91145202D01*
X136633332Y-91145202D02*
X136604761Y-91154726D01*
X136604761Y-91154726D02*
X136585713Y-91154726D01*
X136585713Y-91154726D02*
X136557142Y-91145202D01*
X136557142Y-91145202D02*
X136538094Y-91126154D01*
X136538094Y-91126154D02*
X136528571Y-91107107D01*
X136528571Y-91107107D02*
X136519047Y-91069011D01*
X136519047Y-91069011D02*
X136519047Y-91040440D01*
X136519047Y-91040440D02*
X136528571Y-91002345D01*
X136528571Y-91002345D02*
X136538094Y-90983297D01*
X136538094Y-90983297D02*
X136557142Y-90964250D01*
X136557142Y-90964250D02*
X136585713Y-90954726D01*
X136585713Y-90954726D02*
X136604761Y-90954726D01*
X136604761Y-90954726D02*
X136633332Y-90964250D01*
X136633332Y-90964250D02*
X136642856Y-90973773D01*
X136814285Y-91021392D02*
X136814285Y-91154726D01*
X136728571Y-91021392D02*
X136728571Y-91126154D01*
X136728571Y-91126154D02*
X136738094Y-91145202D01*
X136738094Y-91145202D02*
X136757142Y-91154726D01*
X136757142Y-91154726D02*
X136785713Y-91154726D01*
X136785713Y-91154726D02*
X136804761Y-91145202D01*
X136804761Y-91145202D02*
X136814285Y-91135678D01*
X137000951Y-91021392D02*
X137077142Y-91021392D01*
X137029523Y-90954726D02*
X137029523Y-91126154D01*
X137029523Y-91126154D02*
X137039046Y-91145202D01*
X137039046Y-91145202D02*
X137058094Y-91154726D01*
X137058094Y-91154726D02*
X137077142Y-91154726D01*
X137143809Y-91154726D02*
X137143809Y-91021392D01*
X137143809Y-91059488D02*
X137153332Y-91040440D01*
X137153332Y-91040440D02*
X137162856Y-91030916D01*
X137162856Y-91030916D02*
X137181904Y-91021392D01*
X137181904Y-91021392D02*
X137200951Y-91021392D01*
X137353333Y-91154726D02*
X137353333Y-91049964D01*
X137353333Y-91049964D02*
X137343809Y-91030916D01*
X137343809Y-91030916D02*
X137324761Y-91021392D01*
X137324761Y-91021392D02*
X137286666Y-91021392D01*
X137286666Y-91021392D02*
X137267619Y-91030916D01*
X137353333Y-91145202D02*
X137334285Y-91154726D01*
X137334285Y-91154726D02*
X137286666Y-91154726D01*
X137286666Y-91154726D02*
X137267619Y-91145202D01*
X137267619Y-91145202D02*
X137258095Y-91126154D01*
X137258095Y-91126154D02*
X137258095Y-91107107D01*
X137258095Y-91107107D02*
X137267619Y-91088059D01*
X137267619Y-91088059D02*
X137286666Y-91078535D01*
X137286666Y-91078535D02*
X137334285Y-91078535D01*
X137334285Y-91078535D02*
X137353333Y-91069011D01*
X137534285Y-91145202D02*
X137515237Y-91154726D01*
X137515237Y-91154726D02*
X137477142Y-91154726D01*
X137477142Y-91154726D02*
X137458094Y-91145202D01*
X137458094Y-91145202D02*
X137448571Y-91135678D01*
X137448571Y-91135678D02*
X137439047Y-91116630D01*
X137439047Y-91116630D02*
X137439047Y-91059488D01*
X137439047Y-91059488D02*
X137448571Y-91040440D01*
X137448571Y-91040440D02*
X137458094Y-91030916D01*
X137458094Y-91030916D02*
X137477142Y-91021392D01*
X137477142Y-91021392D02*
X137515237Y-91021392D01*
X137515237Y-91021392D02*
X137534285Y-91030916D01*
X137620000Y-91154726D02*
X137620000Y-90954726D01*
X137639047Y-91078535D02*
X137696190Y-91154726D01*
X137696190Y-91021392D02*
X137620000Y-91097583D01*
X137772381Y-91145202D02*
X137791428Y-91154726D01*
X137791428Y-91154726D02*
X137829524Y-91154726D01*
X137829524Y-91154726D02*
X137848571Y-91145202D01*
X137848571Y-91145202D02*
X137858095Y-91126154D01*
X137858095Y-91126154D02*
X137858095Y-91116630D01*
X137858095Y-91116630D02*
X137848571Y-91097583D01*
X137848571Y-91097583D02*
X137829524Y-91088059D01*
X137829524Y-91088059D02*
X137800952Y-91088059D01*
X137800952Y-91088059D02*
X137781905Y-91078535D01*
X137781905Y-91078535D02*
X137772381Y-91059488D01*
X137772381Y-91059488D02*
X137772381Y-91049964D01*
X137772381Y-91049964D02*
X137781905Y-91030916D01*
X137781905Y-91030916D02*
X137800952Y-91021392D01*
X137800952Y-91021392D02*
X137829524Y-91021392D01*
X137829524Y-91021392D02*
X137848571Y-91030916D01*
X135601905Y-91554726D02*
X135601905Y-91354726D01*
X135716190Y-91554726D02*
X135630476Y-91440440D01*
X135716190Y-91354726D02*
X135601905Y-91469011D01*
X135801905Y-91449964D02*
X135868571Y-91449964D01*
X135897143Y-91554726D02*
X135801905Y-91554726D01*
X135801905Y-91554726D02*
X135801905Y-91354726D01*
X135801905Y-91354726D02*
X135897143Y-91354726D01*
X135982857Y-91449964D02*
X136049523Y-91449964D01*
X136078095Y-91554726D02*
X135982857Y-91554726D01*
X135982857Y-91554726D02*
X135982857Y-91354726D01*
X135982857Y-91354726D02*
X136078095Y-91354726D01*
X136163809Y-91554726D02*
X136163809Y-91354726D01*
X136163809Y-91354726D02*
X136239999Y-91354726D01*
X136239999Y-91354726D02*
X136259047Y-91364250D01*
X136259047Y-91364250D02*
X136268570Y-91373773D01*
X136268570Y-91373773D02*
X136278094Y-91392821D01*
X136278094Y-91392821D02*
X136278094Y-91421392D01*
X136278094Y-91421392D02*
X136268570Y-91440440D01*
X136268570Y-91440440D02*
X136259047Y-91449964D01*
X136259047Y-91449964D02*
X136239999Y-91459488D01*
X136239999Y-91459488D02*
X136163809Y-91459488D01*
X136363809Y-91478535D02*
X136516190Y-91478535D01*
X136649523Y-91354726D02*
X136687618Y-91354726D01*
X136687618Y-91354726D02*
X136706666Y-91364250D01*
X136706666Y-91364250D02*
X136725713Y-91383297D01*
X136725713Y-91383297D02*
X136735237Y-91421392D01*
X136735237Y-91421392D02*
X136735237Y-91488059D01*
X136735237Y-91488059D02*
X136725713Y-91526154D01*
X136725713Y-91526154D02*
X136706666Y-91545202D01*
X136706666Y-91545202D02*
X136687618Y-91554726D01*
X136687618Y-91554726D02*
X136649523Y-91554726D01*
X136649523Y-91554726D02*
X136630475Y-91545202D01*
X136630475Y-91545202D02*
X136611428Y-91526154D01*
X136611428Y-91526154D02*
X136601904Y-91488059D01*
X136601904Y-91488059D02*
X136601904Y-91421392D01*
X136601904Y-91421392D02*
X136611428Y-91383297D01*
X136611428Y-91383297D02*
X136630475Y-91364250D01*
X136630475Y-91364250D02*
X136649523Y-91354726D01*
X136820952Y-91354726D02*
X136820952Y-91516630D01*
X136820952Y-91516630D02*
X136830475Y-91535678D01*
X136830475Y-91535678D02*
X136839999Y-91545202D01*
X136839999Y-91545202D02*
X136859047Y-91554726D01*
X136859047Y-91554726D02*
X136897142Y-91554726D01*
X136897142Y-91554726D02*
X136916190Y-91545202D01*
X136916190Y-91545202D02*
X136925713Y-91535678D01*
X136925713Y-91535678D02*
X136935237Y-91516630D01*
X136935237Y-91516630D02*
X136935237Y-91354726D01*
X137001904Y-91354726D02*
X137116190Y-91354726D01*
X137059047Y-91554726D02*
X137059047Y-91354726D01*
X137283809Y-91354726D02*
X137417142Y-91354726D01*
X137417142Y-91354726D02*
X137283809Y-91554726D01*
X137283809Y-91554726D02*
X137417142Y-91554726D01*
X137531428Y-91354726D02*
X137569523Y-91354726D01*
X137569523Y-91354726D02*
X137588571Y-91364250D01*
X137588571Y-91364250D02*
X137607618Y-91383297D01*
X137607618Y-91383297D02*
X137617142Y-91421392D01*
X137617142Y-91421392D02*
X137617142Y-91488059D01*
X137617142Y-91488059D02*
X137607618Y-91526154D01*
X137607618Y-91526154D02*
X137588571Y-91545202D01*
X137588571Y-91545202D02*
X137569523Y-91554726D01*
X137569523Y-91554726D02*
X137531428Y-91554726D01*
X137531428Y-91554726D02*
X137512380Y-91545202D01*
X137512380Y-91545202D02*
X137493333Y-91526154D01*
X137493333Y-91526154D02*
X137483809Y-91488059D01*
X137483809Y-91488059D02*
X137483809Y-91421392D01*
X137483809Y-91421392D02*
X137493333Y-91383297D01*
X137493333Y-91383297D02*
X137512380Y-91364250D01*
X137512380Y-91364250D02*
X137531428Y-91354726D01*
X137702857Y-91554726D02*
X137702857Y-91354726D01*
X137702857Y-91354726D02*
X137817142Y-91554726D01*
X137817142Y-91554726D02*
X137817142Y-91354726D01*
X137912381Y-91449964D02*
X137979047Y-91449964D01*
X138007619Y-91554726D02*
X137912381Y-91554726D01*
X137912381Y-91554726D02*
X137912381Y-91354726D01*
X137912381Y-91354726D02*
X138007619Y-91354726D01*
X140601905Y-91554726D02*
X140601905Y-91354726D01*
X140716190Y-91554726D02*
X140630476Y-91440440D01*
X140716190Y-91354726D02*
X140601905Y-91469011D01*
X140801905Y-91449964D02*
X140868571Y-91449964D01*
X140897143Y-91554726D02*
X140801905Y-91554726D01*
X140801905Y-91554726D02*
X140801905Y-91354726D01*
X140801905Y-91354726D02*
X140897143Y-91354726D01*
X140982857Y-91449964D02*
X141049523Y-91449964D01*
X141078095Y-91554726D02*
X140982857Y-91554726D01*
X140982857Y-91554726D02*
X140982857Y-91354726D01*
X140982857Y-91354726D02*
X141078095Y-91354726D01*
X141163809Y-91554726D02*
X141163809Y-91354726D01*
X141163809Y-91354726D02*
X141239999Y-91354726D01*
X141239999Y-91354726D02*
X141259047Y-91364250D01*
X141259047Y-91364250D02*
X141268570Y-91373773D01*
X141268570Y-91373773D02*
X141278094Y-91392821D01*
X141278094Y-91392821D02*
X141278094Y-91421392D01*
X141278094Y-91421392D02*
X141268570Y-91440440D01*
X141268570Y-91440440D02*
X141259047Y-91449964D01*
X141259047Y-91449964D02*
X141239999Y-91459488D01*
X141239999Y-91459488D02*
X141163809Y-91459488D01*
X141363809Y-91478535D02*
X141516190Y-91478535D01*
X141649523Y-91354726D02*
X141687618Y-91354726D01*
X141687618Y-91354726D02*
X141706666Y-91364250D01*
X141706666Y-91364250D02*
X141725713Y-91383297D01*
X141725713Y-91383297D02*
X141735237Y-91421392D01*
X141735237Y-91421392D02*
X141735237Y-91488059D01*
X141735237Y-91488059D02*
X141725713Y-91526154D01*
X141725713Y-91526154D02*
X141706666Y-91545202D01*
X141706666Y-91545202D02*
X141687618Y-91554726D01*
X141687618Y-91554726D02*
X141649523Y-91554726D01*
X141649523Y-91554726D02*
X141630475Y-91545202D01*
X141630475Y-91545202D02*
X141611428Y-91526154D01*
X141611428Y-91526154D02*
X141601904Y-91488059D01*
X141601904Y-91488059D02*
X141601904Y-91421392D01*
X141601904Y-91421392D02*
X141611428Y-91383297D01*
X141611428Y-91383297D02*
X141630475Y-91364250D01*
X141630475Y-91364250D02*
X141649523Y-91354726D01*
X141820952Y-91354726D02*
X141820952Y-91516630D01*
X141820952Y-91516630D02*
X141830475Y-91535678D01*
X141830475Y-91535678D02*
X141839999Y-91545202D01*
X141839999Y-91545202D02*
X141859047Y-91554726D01*
X141859047Y-91554726D02*
X141897142Y-91554726D01*
X141897142Y-91554726D02*
X141916190Y-91545202D01*
X141916190Y-91545202D02*
X141925713Y-91535678D01*
X141925713Y-91535678D02*
X141935237Y-91516630D01*
X141935237Y-91516630D02*
X141935237Y-91354726D01*
X142001904Y-91354726D02*
X142116190Y-91354726D01*
X142059047Y-91554726D02*
X142059047Y-91354726D01*
X142283809Y-91354726D02*
X142417142Y-91354726D01*
X142417142Y-91354726D02*
X142283809Y-91554726D01*
X142283809Y-91554726D02*
X142417142Y-91554726D01*
X142531428Y-91354726D02*
X142569523Y-91354726D01*
X142569523Y-91354726D02*
X142588571Y-91364250D01*
X142588571Y-91364250D02*
X142607618Y-91383297D01*
X142607618Y-91383297D02*
X142617142Y-91421392D01*
X142617142Y-91421392D02*
X142617142Y-91488059D01*
X142617142Y-91488059D02*
X142607618Y-91526154D01*
X142607618Y-91526154D02*
X142588571Y-91545202D01*
X142588571Y-91545202D02*
X142569523Y-91554726D01*
X142569523Y-91554726D02*
X142531428Y-91554726D01*
X142531428Y-91554726D02*
X142512380Y-91545202D01*
X142512380Y-91545202D02*
X142493333Y-91526154D01*
X142493333Y-91526154D02*
X142483809Y-91488059D01*
X142483809Y-91488059D02*
X142483809Y-91421392D01*
X142483809Y-91421392D02*
X142493333Y-91383297D01*
X142493333Y-91383297D02*
X142512380Y-91364250D01*
X142512380Y-91364250D02*
X142531428Y-91354726D01*
X142702857Y-91554726D02*
X142702857Y-91354726D01*
X142702857Y-91354726D02*
X142817142Y-91554726D01*
X142817142Y-91554726D02*
X142817142Y-91354726D01*
X142912381Y-91449964D02*
X142979047Y-91449964D01*
X143007619Y-91554726D02*
X142912381Y-91554726D01*
X142912381Y-91554726D02*
X142912381Y-91354726D01*
X142912381Y-91354726D02*
X143007619Y-91354726D01*
D11*
%TO.C,H6*%
X236587500Y-40736500D02*
G75*
G03*
X236587500Y-40736500I-2200000J0D01*
G01*
%TD*%
M02*
