%TF.GenerationSoftware,KiCad,Pcbnew,(7.0.0)*%
%TF.CreationDate,2024-03-09T23:40:33+01:00*%
%TF.ProjectId,LeSTMovoz,4c655354-4d6f-4766-9f7a-2e6b69636164,rev?*%
%TF.SameCoordinates,Original*%
%TF.FileFunction,Soldermask,Top*%
%TF.FilePolarity,Negative*%
%FSLAX46Y46*%
G04 Gerber Fmt 4.6, Leading zero omitted, Abs format (unit mm)*
G04 Created by KiCad (PCBNEW (7.0.0)) date 2024-03-09 23:40:33*
%MOMM*%
%LPD*%
G01*
G04 APERTURE LIST*
G04 Aperture macros list*
%AMRoundRect*
0 Rectangle with rounded corners*
0 $1 Rounding radius*
0 $2 $3 $4 $5 $6 $7 $8 $9 X,Y pos of 4 corners*
0 Add a 4 corners polygon primitive as box body*
4,1,4,$2,$3,$4,$5,$6,$7,$8,$9,$2,$3,0*
0 Add four circle primitives for the rounded corners*
1,1,$1+$1,$2,$3*
1,1,$1+$1,$4,$5*
1,1,$1+$1,$6,$7*
1,1,$1+$1,$8,$9*
0 Add four rect primitives between the rounded corners*
20,1,$1+$1,$2,$3,$4,$5,0*
20,1,$1+$1,$4,$5,$6,$7,0*
20,1,$1+$1,$6,$7,$8,$9,0*
20,1,$1+$1,$8,$9,$2,$3,0*%
G04 Aperture macros list end*
%ADD10C,1.400000*%
%ADD11O,1.400000X1.400000*%
%ADD12C,4.400000*%
%ADD13R,1.400000X1.300000*%
%ADD14RoundRect,0.275000X-0.625000X-0.275000X0.625000X-0.275000X0.625000X0.275000X-0.625000X0.275000X0*%
%ADD15C,1.710000*%
%ADD16C,1.600000*%
%ADD17C,1.750000*%
%ADD18C,3.987800*%
%ADD19R,2.400000X2.400000*%
%ADD20O,2.400000X2.400000*%
%ADD21R,1.600000X1.600000*%
%ADD22O,1.600000X1.600000*%
%ADD23R,1.050000X1.500000*%
%ADD24O,1.050000X1.500000*%
%ADD25R,0.650000X2.000000*%
%ADD26RoundRect,0.075000X0.075000X-0.700000X0.075000X0.700000X-0.075000X0.700000X-0.075000X-0.700000X0*%
%ADD27RoundRect,0.075000X0.700000X-0.075000X0.700000X0.075000X-0.700000X0.075000X-0.700000X-0.075000X0*%
%ADD28RoundRect,0.275000X0.625000X0.275000X-0.625000X0.275000X-0.625000X-0.275000X0.625000X-0.275000X0*%
%ADD29O,1.000000X1.500000*%
%ADD30C,0.700000*%
%ADD31O,0.900000X1.700000*%
%ADD32O,0.900000X2.400000*%
G04 APERTURE END LIST*
D10*
%TO.C,R7*%
X135478264Y-84517916D03*
D11*
X143098263Y-84517915D03*
%TD*%
D12*
%TO.C,*%
X55137500Y-42862500D03*
%TD*%
D13*
%TO.C,D6*%
X160768749Y-31749999D03*
X164318749Y-31749999D03*
%TD*%
D14*
%TO.C,RST1*%
X148112500Y-89431250D03*
X154312500Y-89431250D03*
X148112500Y-93131250D03*
X154312500Y-93131250D03*
%TD*%
D15*
%TO.C,F1*%
X154156250Y-34934000D03*
X149056250Y-34934000D03*
%TD*%
D16*
%TO.C,C8*%
X152400000Y-66793750D03*
X152400000Y-61793750D03*
%TD*%
D17*
%TO.C,MX24*%
X85407500Y-71437500D03*
D18*
X90487500Y-71437500D03*
D17*
X95567500Y-71437500D03*
%TD*%
%TO.C,MX10*%
X252095000Y-33337500D03*
D18*
X257175000Y-33337500D03*
D17*
X262255000Y-33337500D03*
%TD*%
D10*
%TO.C,R4*%
X136525000Y-34290000D03*
D11*
X136524999Y-41909999D03*
%TD*%
D17*
%TO.C,MX19*%
X233045000Y-52387500D03*
D18*
X238125000Y-52387500D03*
D17*
X243205000Y-52387500D03*
%TD*%
%TO.C,MX5*%
X104457500Y-33337500D03*
D18*
X109537500Y-33337500D03*
D17*
X114617500Y-33337500D03*
%TD*%
%TO.C,MX6*%
X175895000Y-33337500D03*
D18*
X180975000Y-33337500D03*
D17*
X186055000Y-33337500D03*
%TD*%
D13*
%TO.C,D4*%
X127187499Y-34924999D03*
X123637499Y-34924999D03*
%TD*%
D17*
%TO.C,MX21*%
X28257500Y-71437500D03*
D18*
X33337500Y-71437500D03*
D17*
X38417500Y-71437500D03*
%TD*%
D12*
%TO.C,H6*%
X234387500Y-40736500D03*
%TD*%
D18*
%TO.C,S1*%
X202406250Y-82232500D03*
X178593750Y-82232500D03*
%TD*%
D16*
%TO.C,C5*%
X136475000Y-66793750D03*
X136475000Y-61793750D03*
%TD*%
D17*
%TO.C,MX4*%
X85407500Y-33337500D03*
D18*
X90487500Y-33337500D03*
D17*
X95567500Y-33337500D03*
%TD*%
D16*
%TO.C,C6*%
X138211531Y-81009836D03*
X133211531Y-81009836D03*
%TD*%
D17*
%TO.C,MX37*%
X175895000Y-90487500D03*
D18*
X180975000Y-90487500D03*
D17*
X186055000Y-90487500D03*
%TD*%
%TO.C,MX20*%
X252095000Y-52387500D03*
D18*
X257175000Y-52387500D03*
D17*
X262255000Y-52387500D03*
%TD*%
D18*
%TO.C,S2*%
X219075000Y-82232500D03*
X180975000Y-82232500D03*
%TD*%
D13*
%TO.C,D12*%
X129568749Y-50799999D03*
X126018749Y-50799999D03*
%TD*%
D17*
%TO.C,MX27*%
X194945000Y-71437500D03*
D18*
X200025000Y-71437500D03*
D17*
X205105000Y-71437500D03*
%TD*%
%TO.C,MX1*%
X28257500Y-33337500D03*
D18*
X33337500Y-33337500D03*
D17*
X38417500Y-33337500D03*
%TD*%
%TO.C,MX38*%
X185420000Y-90487500D03*
D18*
X190500000Y-90487500D03*
D17*
X195580000Y-90487500D03*
%TD*%
%TO.C,MX12*%
X47307500Y-52387500D03*
D18*
X52387500Y-52387500D03*
D17*
X57467500Y-52387500D03*
%TD*%
D13*
%TO.C,D3*%
X129568749Y-38099999D03*
X126018749Y-38099999D03*
%TD*%
%TO.C,D8*%
X160768749Y-38099999D03*
X164318749Y-38099999D03*
%TD*%
D10*
%TO.C,R3*%
X153828750Y-55981250D03*
D11*
X146208749Y-55981249D03*
%TD*%
D13*
%TO.C,D16*%
X163324999Y-60124999D03*
X166874999Y-60124999D03*
%TD*%
D17*
%TO.C,MX34*%
X85407500Y-90487500D03*
D18*
X90487500Y-90487500D03*
D17*
X95567500Y-90487500D03*
%TD*%
D16*
%TO.C,C1*%
X134625429Y-52150000D03*
X134625429Y-57150000D03*
%TD*%
D13*
%TO.C,D9*%
X163324999Y-41274999D03*
X166874999Y-41274999D03*
%TD*%
%TO.C,D24*%
X127187499Y-66674999D03*
X123637499Y-66674999D03*
%TD*%
D17*
%TO.C,MX41*%
X233045000Y-90487500D03*
D18*
X238125000Y-90487500D03*
D17*
X243205000Y-90487500D03*
%TD*%
D13*
%TO.C,D38*%
X163324999Y-85724999D03*
X166874999Y-85724999D03*
%TD*%
%TO.C,D29*%
X163324999Y-73024999D03*
X166874999Y-73024999D03*
%TD*%
D10*
%TO.C,R5*%
X134143750Y-34290000D03*
D11*
X134143749Y-41909999D03*
%TD*%
D17*
%TO.C,MX28*%
X213995000Y-71437500D03*
D18*
X219075000Y-71437500D03*
D17*
X224155000Y-71437500D03*
%TD*%
%TO.C,MX8*%
X213995000Y-33337500D03*
D18*
X219075000Y-33337500D03*
D17*
X224155000Y-33337500D03*
%TD*%
D13*
%TO.C,D18*%
X163324999Y-53974999D03*
X166874999Y-53974999D03*
%TD*%
D17*
%TO.C,MX18*%
X213995000Y-52387500D03*
D18*
X219075000Y-52387500D03*
D17*
X224155000Y-52387500D03*
%TD*%
D13*
%TO.C,D7*%
X163324999Y-34924999D03*
X166874999Y-34924999D03*
%TD*%
%TO.C,D34*%
X129568749Y-88899999D03*
X126018749Y-88899999D03*
%TD*%
%TO.C,D20*%
X163324999Y-47624999D03*
X166874999Y-47624999D03*
%TD*%
D17*
%TO.C,MX33*%
X66357500Y-90487500D03*
D18*
X71437500Y-90487500D03*
D17*
X76517500Y-90487500D03*
%TD*%
D13*
%TO.C,D13*%
X127187499Y-53974999D03*
X123637499Y-53974999D03*
%TD*%
D19*
%TO.C,D41*%
X143192499Y-47300965D03*
D20*
X133032499Y-47300965D03*
%TD*%
D10*
%TO.C,R2*%
X153828750Y-59156250D03*
D11*
X146208749Y-59156249D03*
%TD*%
D13*
%TO.C,D15*%
X127187499Y-60124999D03*
X123637499Y-60124999D03*
%TD*%
D17*
%TO.C,MX23*%
X66357500Y-71437500D03*
D18*
X71437500Y-71437500D03*
D17*
X76517500Y-71437500D03*
%TD*%
D13*
%TO.C,D33*%
X127187499Y-85724999D03*
X123637499Y-85724999D03*
%TD*%
D10*
%TO.C,R1*%
X153728750Y-52562500D03*
D11*
X146108749Y-52562499D03*
%TD*%
D13*
%TO.C,D10*%
X160943749Y-44449999D03*
X164493749Y-44449999D03*
%TD*%
%TO.C,D36*%
X163324999Y-92074999D03*
X166874999Y-92074999D03*
%TD*%
D17*
%TO.C,MX14*%
X85407500Y-52387500D03*
D18*
X90487500Y-52387500D03*
D17*
X95567500Y-52387500D03*
%TD*%
D13*
%TO.C,D19*%
X160943749Y-50799999D03*
X164493749Y-50799999D03*
%TD*%
D21*
%TO.C,D43*%
X153828749Y-49212499D03*
D22*
X146208749Y-49212499D03*
%TD*%
D13*
%TO.C,D5*%
X129568749Y-31749999D03*
X126018749Y-31749999D03*
%TD*%
D23*
%TO.C,U2*%
X140176249Y-54768749D03*
D24*
X138906249Y-54768749D03*
X137636249Y-54768749D03*
%TD*%
D16*
%TO.C,C10*%
X138906250Y-66793750D03*
X138906250Y-61793750D03*
%TD*%
D18*
%TO.C,S3*%
X109537500Y-82232500D03*
X71437500Y-82232500D03*
%TD*%
D13*
%TO.C,D23*%
X129568749Y-69849999D03*
X126018749Y-69849999D03*
%TD*%
D17*
%TO.C,MX17*%
X194945000Y-52387500D03*
D18*
X200025000Y-52387500D03*
D17*
X205105000Y-52387500D03*
%TD*%
D13*
%TO.C,D27*%
X163324999Y-66674999D03*
X166874999Y-66674999D03*
%TD*%
%TO.C,D2*%
X127187499Y-41274999D03*
X123637499Y-41274999D03*
%TD*%
D16*
%TO.C,C9*%
X152268053Y-78635515D03*
X157268053Y-78635515D03*
%TD*%
D17*
%TO.C,MX16*%
X175895000Y-52387500D03*
D18*
X180975000Y-52387500D03*
D17*
X186055000Y-52387500D03*
%TD*%
D13*
%TO.C,D39*%
X160943749Y-82549999D03*
X164493749Y-82549999D03*
%TD*%
%TO.C,D17*%
X160768749Y-57149999D03*
X164318749Y-57149999D03*
%TD*%
D17*
%TO.C,MX31*%
X28257500Y-90487500D03*
D18*
X33337500Y-90487500D03*
D17*
X38417500Y-90487500D03*
%TD*%
D18*
%TO.C,S4*%
X111918750Y-82232500D03*
X88106250Y-82232500D03*
%TD*%
D13*
%TO.C,D40*%
X163324999Y-79374999D03*
X166874999Y-79374999D03*
%TD*%
D17*
%TO.C,MX26*%
X175895000Y-71437500D03*
D18*
X180975000Y-71437500D03*
D17*
X186055000Y-71437500D03*
%TD*%
D13*
%TO.C,D1*%
X129568749Y-44449999D03*
X126018749Y-44449999D03*
%TD*%
D10*
%TO.C,R6*%
X135478264Y-86899166D03*
D11*
X143098263Y-86899165D03*
%TD*%
D13*
%TO.C,D30*%
X160943749Y-76199999D03*
X164493749Y-76199999D03*
%TD*%
D16*
%TO.C,C7*%
X138211531Y-78578586D03*
X133211531Y-78578586D03*
%TD*%
D17*
%TO.C,MX32*%
X47307500Y-90487500D03*
D18*
X52387500Y-90487500D03*
D17*
X57467500Y-90487500D03*
%TD*%
D25*
%TO.C,U3*%
X139543749Y-39809999D03*
X140493749Y-39809999D03*
X141443749Y-39809999D03*
X141443749Y-36389999D03*
X139543749Y-36389999D03*
%TD*%
D13*
%TO.C,D31*%
X127187499Y-79374999D03*
X123637499Y-79374999D03*
%TD*%
D17*
%TO.C,MX3*%
X66357500Y-33337500D03*
D18*
X71437500Y-33337500D03*
D17*
X76517500Y-33337500D03*
%TD*%
D13*
%TO.C,D28*%
X160943749Y-69849999D03*
X164493749Y-69849999D03*
%TD*%
D17*
%TO.C,MX29*%
X233045000Y-71437500D03*
D18*
X238125000Y-71437500D03*
D17*
X243205000Y-71437500D03*
%TD*%
%TO.C,MX39*%
X200025000Y-95567500D03*
D18*
X200025000Y-90487500D03*
D17*
X200025000Y-85407500D03*
%TD*%
D13*
%TO.C,D11*%
X127187499Y-47624999D03*
X123637499Y-47624999D03*
%TD*%
D17*
%TO.C,MX7*%
X194945000Y-33337500D03*
D18*
X200025000Y-33337500D03*
D17*
X205105000Y-33337500D03*
%TD*%
%TO.C,MX22*%
X47307500Y-71437500D03*
D18*
X52387500Y-71437500D03*
D17*
X57467500Y-71437500D03*
%TD*%
%TO.C,MX9*%
X243205000Y-33337500D03*
D18*
X238125000Y-33337500D03*
D17*
X233045000Y-33337500D03*
%TD*%
D21*
%TO.C,D42*%
X153828749Y-45662499D03*
D22*
X146208749Y-45662499D03*
%TD*%
D16*
%TO.C,C3*%
X148712500Y-85725000D03*
X153712500Y-85725000D03*
%TD*%
D13*
%TO.C,D37*%
X160943749Y-88899999D03*
X164493749Y-88899999D03*
%TD*%
%TO.C,D21*%
X129568749Y-76199999D03*
X126018749Y-76199999D03*
%TD*%
D16*
%TO.C,C4*%
X152268053Y-81066765D03*
X157268053Y-81066765D03*
%TD*%
D17*
%TO.C,MX15*%
X104457500Y-52387500D03*
D18*
X109537500Y-52387500D03*
D17*
X114617500Y-52387500D03*
%TD*%
D12*
%TO.C,*%
X206137500Y-89371500D03*
%TD*%
%TO.C,*%
X53537500Y-77636500D03*
%TD*%
D17*
%TO.C,MX25*%
X104457500Y-71437500D03*
D18*
X109537500Y-71437500D03*
D17*
X114617500Y-71437500D03*
%TD*%
%TO.C,MX36*%
X94932500Y-90487500D03*
D18*
X100012500Y-90487500D03*
D17*
X105092500Y-90487500D03*
%TD*%
%TO.C,MX13*%
X66357500Y-52387500D03*
D18*
X71437500Y-52387500D03*
D17*
X76517500Y-52387500D03*
%TD*%
D26*
%TO.C,U1*%
X141506250Y-78828090D03*
X142006250Y-78828090D03*
X142506250Y-78828090D03*
X143006250Y-78828090D03*
X143506250Y-78828090D03*
X144006250Y-78828090D03*
X144506250Y-78828090D03*
X145006250Y-78828090D03*
X145506250Y-78828090D03*
X146006250Y-78828090D03*
X146506250Y-78828090D03*
X147006250Y-78828090D03*
X147506250Y-78828090D03*
X148006250Y-78828090D03*
X148506250Y-78828090D03*
X149006250Y-78828090D03*
D27*
X150931250Y-76903090D03*
X150931250Y-76403090D03*
X150931250Y-75903090D03*
X150931250Y-75403090D03*
X150931250Y-74903090D03*
X150931250Y-74403090D03*
X150931250Y-73903090D03*
X150931250Y-73403090D03*
X150931250Y-72903090D03*
X150931250Y-72403090D03*
X150931250Y-71903090D03*
X150931250Y-71403090D03*
X150931250Y-70903090D03*
X150931250Y-70403090D03*
X150931250Y-69903090D03*
X150931250Y-69403090D03*
D26*
X149006250Y-67478090D03*
X148506250Y-67478090D03*
X148006250Y-67478090D03*
X147506250Y-67478090D03*
X147006250Y-67478090D03*
X146506250Y-67478090D03*
X146006250Y-67478090D03*
X145506250Y-67478090D03*
X145006250Y-67478090D03*
X144506250Y-67478090D03*
X144006250Y-67478090D03*
X143506250Y-67478090D03*
X143006250Y-67478090D03*
X142506250Y-67478090D03*
X142006250Y-67478090D03*
X141506250Y-67478090D03*
D27*
X139581250Y-69403090D03*
X139581250Y-69903090D03*
X139581250Y-70403090D03*
X139581250Y-70903090D03*
X139581250Y-71403090D03*
X139581250Y-71903090D03*
X139581250Y-72403090D03*
X139581250Y-72903090D03*
X139581250Y-73403090D03*
X139581250Y-73903090D03*
X139581250Y-74403090D03*
X139581250Y-74903090D03*
X139581250Y-75403090D03*
X139581250Y-75903090D03*
X139581250Y-76403090D03*
X139581250Y-76903090D03*
%TD*%
D17*
%TO.C,MX40*%
X213995000Y-90487500D03*
D18*
X219075000Y-90487500D03*
D17*
X224155000Y-90487500D03*
%TD*%
D13*
%TO.C,D25*%
X129568749Y-63699999D03*
X126018749Y-63699999D03*
%TD*%
%TO.C,D22*%
X127187499Y-73024999D03*
X123637499Y-73024999D03*
%TD*%
D16*
%TO.C,C12*%
X144462500Y-35600000D03*
X144462500Y-40600000D03*
%TD*%
D17*
%TO.C,MX2*%
X47307500Y-33337500D03*
D18*
X52387500Y-33337500D03*
D17*
X57467500Y-33337500D03*
%TD*%
D13*
%TO.C,D32*%
X129568749Y-82549999D03*
X126018749Y-82549999D03*
%TD*%
D17*
%TO.C,MX11*%
X28257500Y-52387500D03*
D18*
X33337500Y-52387500D03*
D17*
X38417500Y-52387500D03*
%TD*%
%TO.C,MX42*%
X252095000Y-90487500D03*
D18*
X257175000Y-90487500D03*
D17*
X262255000Y-90487500D03*
%TD*%
%TO.C,MX30*%
X252095000Y-71437500D03*
D18*
X257175000Y-71437500D03*
D17*
X262255000Y-71437500D03*
%TD*%
%TO.C,MX35*%
X104457500Y-90487500D03*
D18*
X109537500Y-90487500D03*
D17*
X114617500Y-90487500D03*
%TD*%
D16*
%TO.C,C2*%
X143250429Y-52276860D03*
X143250429Y-57276860D03*
%TD*%
D13*
%TO.C,D14*%
X129568749Y-57149999D03*
X126018749Y-57149999D03*
%TD*%
D28*
%TO.C,SW1*%
X142400000Y-93131250D03*
X136200000Y-93131250D03*
X142400000Y-89431250D03*
X136200000Y-89431250D03*
%TD*%
D13*
%TO.C,D35*%
X127187499Y-92074999D03*
X123637499Y-92074999D03*
%TD*%
%TO.C,D26*%
X160943749Y-63699999D03*
X164493749Y-63699999D03*
%TD*%
D29*
%TO.C,D44*%
X137849999Y-29368749D03*
X140324999Y-29368749D03*
X141549999Y-29368749D03*
X139074999Y-29368749D03*
%TD*%
%TO.C,D45*%
X149756249Y-29368749D03*
X152231249Y-29368749D03*
X153456249Y-29368749D03*
X150981249Y-29368749D03*
%TD*%
D30*
%TO.C,J1*%
X233938179Y-29918750D03*
X234788179Y-29918750D03*
X235638179Y-29918750D03*
X236488179Y-29918750D03*
X237338179Y-29918750D03*
X238188179Y-29918750D03*
X239038179Y-29918750D03*
X239888179Y-29918750D03*
X239888179Y-28568750D03*
X239038179Y-28568750D03*
X238188179Y-28568750D03*
X237338179Y-28568750D03*
X236488179Y-28568750D03*
X235638179Y-28568750D03*
X234788179Y-28568750D03*
X233938179Y-28568750D03*
D31*
X232588178Y-25558749D03*
D32*
X232588178Y-28938749D03*
D31*
X241238178Y-25558749D03*
D32*
X241238178Y-28938749D03*
%TD*%
M02*
