%TF.GenerationSoftware,KiCad,Pcbnew,(7.0.0)*%
%TF.CreationDate,2024-04-29T17:21:40+02:00*%
%TF.ProjectId,LeSTMovoz revision,4c655354-4d6f-4766-9f7a-207265766973,rev?*%
%TF.SameCoordinates,Original*%
%TF.FileFunction,Other,Comment*%
%FSLAX46Y46*%
G04 Gerber Fmt 4.6, Leading zero omitted, Abs format (unit mm)*
G04 Created by KiCad (PCBNEW (7.0.0)) date 2024-04-29 17:21:40*
%MOMM*%
%LPD*%
G01*
G04 APERTURE LIST*
%ADD10C,0.150000*%
G04 APERTURE END LIST*
D10*
%TO.C,S1*%
X190214286Y-81822119D02*
X190261905Y-81774500D01*
X190261905Y-81774500D02*
X190357143Y-81726880D01*
X190357143Y-81726880D02*
X190595238Y-81726880D01*
X190595238Y-81726880D02*
X190690476Y-81774500D01*
X190690476Y-81774500D02*
X190738095Y-81822119D01*
X190738095Y-81822119D02*
X190785714Y-81917357D01*
X190785714Y-81917357D02*
X190785714Y-82012595D01*
X190785714Y-82012595D02*
X190738095Y-82155452D01*
X190738095Y-82155452D02*
X190166667Y-82726880D01*
X190166667Y-82726880D02*
X190785714Y-82726880D01*
%TO.C,S2*%
X199691667Y-81726880D02*
X200310714Y-81726880D01*
X200310714Y-81726880D02*
X199977381Y-82107833D01*
X199977381Y-82107833D02*
X200120238Y-82107833D01*
X200120238Y-82107833D02*
X200215476Y-82155452D01*
X200215476Y-82155452D02*
X200263095Y-82203071D01*
X200263095Y-82203071D02*
X200310714Y-82298309D01*
X200310714Y-82298309D02*
X200310714Y-82536404D01*
X200310714Y-82536404D02*
X200263095Y-82631642D01*
X200263095Y-82631642D02*
X200215476Y-82679261D01*
X200215476Y-82679261D02*
X200120238Y-82726880D01*
X200120238Y-82726880D02*
X199834524Y-82726880D01*
X199834524Y-82726880D02*
X199739286Y-82679261D01*
X199739286Y-82679261D02*
X199691667Y-82631642D01*
%TO.C,S3*%
X90154167Y-81726880D02*
X90773214Y-81726880D01*
X90773214Y-81726880D02*
X90439881Y-82107833D01*
X90439881Y-82107833D02*
X90582738Y-82107833D01*
X90582738Y-82107833D02*
X90677976Y-82155452D01*
X90677976Y-82155452D02*
X90725595Y-82203071D01*
X90725595Y-82203071D02*
X90773214Y-82298309D01*
X90773214Y-82298309D02*
X90773214Y-82536404D01*
X90773214Y-82536404D02*
X90725595Y-82631642D01*
X90725595Y-82631642D02*
X90677976Y-82679261D01*
X90677976Y-82679261D02*
X90582738Y-82726880D01*
X90582738Y-82726880D02*
X90297024Y-82726880D01*
X90297024Y-82726880D02*
X90201786Y-82679261D01*
X90201786Y-82679261D02*
X90154167Y-82631642D01*
%TO.C,S4*%
X99726786Y-81822119D02*
X99774405Y-81774500D01*
X99774405Y-81774500D02*
X99869643Y-81726880D01*
X99869643Y-81726880D02*
X100107738Y-81726880D01*
X100107738Y-81726880D02*
X100202976Y-81774500D01*
X100202976Y-81774500D02*
X100250595Y-81822119D01*
X100250595Y-81822119D02*
X100298214Y-81917357D01*
X100298214Y-81917357D02*
X100298214Y-82012595D01*
X100298214Y-82012595D02*
X100250595Y-82155452D01*
X100250595Y-82155452D02*
X99679167Y-82726880D01*
X99679167Y-82726880D02*
X100298214Y-82726880D01*
%TO.C,H6*%
X236587500Y-40736500D02*
G75*
G03*
X236587500Y-40736500I-2200000J0D01*
G01*
%TD*%
M02*
