%TF.GenerationSoftware,KiCad,Pcbnew,(7.0.0)*%
%TF.CreationDate,2024-02-11T13:38:05+01:00*%
%TF.ProjectId,LeSTMovoz,4c655354-4d6f-4766-9f7a-2e6b69636164,rev?*%
%TF.SameCoordinates,Original*%
%TF.FileFunction,Legend,Top*%
%TF.FilePolarity,Positive*%
%FSLAX46Y46*%
G04 Gerber Fmt 4.6, Leading zero omitted, Abs format (unit mm)*
G04 Created by KiCad (PCBNEW (7.0.0)) date 2024-02-11 13:38:05*
%MOMM*%
%LPD*%
G01*
G04 APERTURE LIST*
G04 Aperture macros list*
%AMRoundRect*
0 Rectangle with rounded corners*
0 $1 Rounding radius*
0 $2 $3 $4 $5 $6 $7 $8 $9 X,Y pos of 4 corners*
0 Add a 4 corners polygon primitive as box body*
4,1,4,$2,$3,$4,$5,$6,$7,$8,$9,$2,$3,0*
0 Add four circle primitives for the rounded corners*
1,1,$1+$1,$2,$3*
1,1,$1+$1,$4,$5*
1,1,$1+$1,$6,$7*
1,1,$1+$1,$8,$9*
0 Add four rect primitives between the rounded corners*
20,1,$1+$1,$2,$3,$4,$5,0*
20,1,$1+$1,$4,$5,$6,$7,0*
20,1,$1+$1,$6,$7,$8,$9,0*
20,1,$1+$1,$8,$9,$2,$3,0*%
G04 Aperture macros list end*
%ADD10C,0.150000*%
%ADD11C,0.125000*%
%ADD12C,0.120000*%
%ADD13C,4.400000*%
%ADD14R,1.400000X1.300000*%
%ADD15RoundRect,0.275000X-0.625000X-0.275000X0.625000X-0.275000X0.625000X0.275000X-0.625000X0.275000X0*%
%ADD16C,1.710000*%
%ADD17C,1.600000*%
%ADD18C,1.750000*%
%ADD19C,3.987800*%
%ADD20C,1.400000*%
%ADD21O,1.400000X1.400000*%
%ADD22R,2.400000X2.400000*%
%ADD23O,2.400000X2.400000*%
%ADD24R,1.600000X1.600000*%
%ADD25O,1.600000X1.600000*%
%ADD26R,1.050000X1.500000*%
%ADD27O,1.050000X1.500000*%
%ADD28R,0.650000X2.000000*%
%ADD29RoundRect,0.075000X0.075000X-0.700000X0.075000X0.700000X-0.075000X0.700000X-0.075000X-0.700000X0*%
%ADD30RoundRect,0.075000X0.700000X-0.075000X0.700000X0.075000X-0.700000X0.075000X-0.700000X-0.075000X0*%
%ADD31RoundRect,0.275000X0.625000X0.275000X-0.625000X0.275000X-0.625000X-0.275000X0.625000X-0.275000X0*%
%ADD32O,1.000000X1.500000*%
%ADD33C,0.700000*%
%ADD34O,0.900000X1.700000*%
%ADD35O,0.900000X2.400000*%
G04 APERTURE END LIST*
D10*
G36*
X141096250Y-78263090D02*
G01*
X140146250Y-78263090D01*
X140146250Y-77313090D01*
X141096250Y-78263090D01*
G37*
X141096250Y-78263090D02*
X140146250Y-78263090D01*
X140146250Y-77313090D01*
X141096250Y-78263090D01*
X151175000Y-37946193D02*
X151175000Y-36487500D01*
X142500000Y-83043750D02*
X145700000Y-83043750D01*
X153685058Y-40456250D02*
G75*
G03*
X153685058Y-40456250I-2510058J0D01*
G01*
D11*
X149817857Y-39981785D02*
X149460714Y-39981785D01*
X149460714Y-39981785D02*
X149425000Y-40338928D01*
X149425000Y-40338928D02*
X149460714Y-40303214D01*
X149460714Y-40303214D02*
X149532143Y-40267500D01*
X149532143Y-40267500D02*
X149710714Y-40267500D01*
X149710714Y-40267500D02*
X149782143Y-40303214D01*
X149782143Y-40303214D02*
X149817857Y-40338928D01*
X149817857Y-40338928D02*
X149853571Y-40410357D01*
X149853571Y-40410357D02*
X149853571Y-40588928D01*
X149853571Y-40588928D02*
X149817857Y-40660357D01*
X149817857Y-40660357D02*
X149782143Y-40696071D01*
X149782143Y-40696071D02*
X149710714Y-40731785D01*
X149710714Y-40731785D02*
X149532143Y-40731785D01*
X149532143Y-40731785D02*
X149460714Y-40696071D01*
X149460714Y-40696071D02*
X149425000Y-40660357D01*
X150317857Y-39981785D02*
X150389286Y-39981785D01*
X150389286Y-39981785D02*
X150460714Y-40017500D01*
X150460714Y-40017500D02*
X150496429Y-40053214D01*
X150496429Y-40053214D02*
X150532143Y-40124642D01*
X150532143Y-40124642D02*
X150567857Y-40267500D01*
X150567857Y-40267500D02*
X150567857Y-40446071D01*
X150567857Y-40446071D02*
X150532143Y-40588928D01*
X150532143Y-40588928D02*
X150496429Y-40660357D01*
X150496429Y-40660357D02*
X150460714Y-40696071D01*
X150460714Y-40696071D02*
X150389286Y-40731785D01*
X150389286Y-40731785D02*
X150317857Y-40731785D01*
X150317857Y-40731785D02*
X150246429Y-40696071D01*
X150246429Y-40696071D02*
X150210714Y-40660357D01*
X150210714Y-40660357D02*
X150175000Y-40588928D01*
X150175000Y-40588928D02*
X150139286Y-40446071D01*
X150139286Y-40446071D02*
X150139286Y-40267500D01*
X150139286Y-40267500D02*
X150175000Y-40124642D01*
X150175000Y-40124642D02*
X150210714Y-40053214D01*
X150210714Y-40053214D02*
X150246429Y-40017500D01*
X150246429Y-40017500D02*
X150317857Y-39981785D01*
X151032143Y-39981785D02*
X151103572Y-39981785D01*
X151103572Y-39981785D02*
X151175000Y-40017500D01*
X151175000Y-40017500D02*
X151210715Y-40053214D01*
X151210715Y-40053214D02*
X151246429Y-40124642D01*
X151246429Y-40124642D02*
X151282143Y-40267500D01*
X151282143Y-40267500D02*
X151282143Y-40446071D01*
X151282143Y-40446071D02*
X151246429Y-40588928D01*
X151246429Y-40588928D02*
X151210715Y-40660357D01*
X151210715Y-40660357D02*
X151175000Y-40696071D01*
X151175000Y-40696071D02*
X151103572Y-40731785D01*
X151103572Y-40731785D02*
X151032143Y-40731785D01*
X151032143Y-40731785D02*
X150960715Y-40696071D01*
X150960715Y-40696071D02*
X150925000Y-40660357D01*
X150925000Y-40660357D02*
X150889286Y-40588928D01*
X150889286Y-40588928D02*
X150853572Y-40446071D01*
X150853572Y-40446071D02*
X150853572Y-40267500D01*
X150853572Y-40267500D02*
X150889286Y-40124642D01*
X150889286Y-40124642D02*
X150925000Y-40053214D01*
X150925000Y-40053214D02*
X150960715Y-40017500D01*
X150960715Y-40017500D02*
X151032143Y-39981785D01*
X151603572Y-40731785D02*
X151603572Y-40231785D01*
X151603572Y-40303214D02*
X151639286Y-40267500D01*
X151639286Y-40267500D02*
X151710715Y-40231785D01*
X151710715Y-40231785D02*
X151817858Y-40231785D01*
X151817858Y-40231785D02*
X151889286Y-40267500D01*
X151889286Y-40267500D02*
X151925001Y-40338928D01*
X151925001Y-40338928D02*
X151925001Y-40731785D01*
X151925001Y-40338928D02*
X151960715Y-40267500D01*
X151960715Y-40267500D02*
X152032143Y-40231785D01*
X152032143Y-40231785D02*
X152139286Y-40231785D01*
X152139286Y-40231785D02*
X152210715Y-40267500D01*
X152210715Y-40267500D02*
X152246429Y-40338928D01*
X152246429Y-40338928D02*
X152246429Y-40731785D01*
X152567858Y-40517500D02*
X152925001Y-40517500D01*
X152496429Y-40731785D02*
X152746429Y-39981785D01*
X152746429Y-39981785D02*
X152996429Y-40731785D01*
X149367348Y-52881566D02*
X148938777Y-52881566D01*
X149153062Y-52881566D02*
X149153062Y-52131566D01*
X149153062Y-52131566D02*
X149081634Y-52238709D01*
X149081634Y-52238709D02*
X149010205Y-52310138D01*
X149010205Y-52310138D02*
X148938777Y-52345852D01*
X149688777Y-52810138D02*
X149724491Y-52845852D01*
X149724491Y-52845852D02*
X149688777Y-52881566D01*
X149688777Y-52881566D02*
X149653063Y-52845852D01*
X149653063Y-52845852D02*
X149688777Y-52810138D01*
X149688777Y-52810138D02*
X149688777Y-52881566D01*
X150403063Y-52131566D02*
X150045920Y-52131566D01*
X150045920Y-52131566D02*
X150010206Y-52488709D01*
X150010206Y-52488709D02*
X150045920Y-52452995D01*
X150045920Y-52452995D02*
X150117349Y-52417281D01*
X150117349Y-52417281D02*
X150295920Y-52417281D01*
X150295920Y-52417281D02*
X150367349Y-52452995D01*
X150367349Y-52452995D02*
X150403063Y-52488709D01*
X150403063Y-52488709D02*
X150438777Y-52560138D01*
X150438777Y-52560138D02*
X150438777Y-52738709D01*
X150438777Y-52738709D02*
X150403063Y-52810138D01*
X150403063Y-52810138D02*
X150367349Y-52845852D01*
X150367349Y-52845852D02*
X150295920Y-52881566D01*
X150295920Y-52881566D02*
X150117349Y-52881566D01*
X150117349Y-52881566D02*
X150045920Y-52845852D01*
X150045920Y-52845852D02*
X150010206Y-52810138D01*
X150760206Y-52881566D02*
X150760206Y-52131566D01*
X150831635Y-52595852D02*
X151045920Y-52881566D01*
X151045920Y-52381566D02*
X150760206Y-52667281D01*
X136018904Y-38614285D02*
X136018904Y-38995237D01*
X136018904Y-38995237D02*
X136399857Y-39033333D01*
X136399857Y-39033333D02*
X136361761Y-38995237D01*
X136361761Y-38995237D02*
X136323666Y-38919047D01*
X136323666Y-38919047D02*
X136323666Y-38728571D01*
X136323666Y-38728571D02*
X136361761Y-38652380D01*
X136361761Y-38652380D02*
X136399857Y-38614285D01*
X136399857Y-38614285D02*
X136476047Y-38576190D01*
X136476047Y-38576190D02*
X136666523Y-38576190D01*
X136666523Y-38576190D02*
X136742714Y-38614285D01*
X136742714Y-38614285D02*
X136780809Y-38652380D01*
X136780809Y-38652380D02*
X136818904Y-38728571D01*
X136818904Y-38728571D02*
X136818904Y-38919047D01*
X136818904Y-38919047D02*
X136780809Y-38995237D01*
X136780809Y-38995237D02*
X136742714Y-39033333D01*
X136818904Y-38233332D02*
X136018904Y-38233332D01*
X136514142Y-38157142D02*
X136818904Y-37928570D01*
X136285571Y-37928570D02*
X136590333Y-38233332D01*
X136818904Y-37166666D02*
X136818904Y-37623809D01*
X136818904Y-37395237D02*
X136018904Y-37395237D01*
X136018904Y-37395237D02*
X136133190Y-37471428D01*
X136133190Y-37471428D02*
X136209380Y-37547618D01*
X136209380Y-37547618D02*
X136247476Y-37623809D01*
X150003835Y-95055868D02*
X150003835Y-94555868D01*
X150003835Y-94698725D02*
X150039549Y-94627297D01*
X150039549Y-94627297D02*
X150075264Y-94591583D01*
X150075264Y-94591583D02*
X150146692Y-94555868D01*
X150146692Y-94555868D02*
X150218121Y-94555868D01*
X150753835Y-95020154D02*
X150682407Y-95055868D01*
X150682407Y-95055868D02*
X150539550Y-95055868D01*
X150539550Y-95055868D02*
X150468121Y-95020154D01*
X150468121Y-95020154D02*
X150432407Y-94948725D01*
X150432407Y-94948725D02*
X150432407Y-94663011D01*
X150432407Y-94663011D02*
X150468121Y-94591583D01*
X150468121Y-94591583D02*
X150539550Y-94555868D01*
X150539550Y-94555868D02*
X150682407Y-94555868D01*
X150682407Y-94555868D02*
X150753835Y-94591583D01*
X150753835Y-94591583D02*
X150789550Y-94663011D01*
X150789550Y-94663011D02*
X150789550Y-94734440D01*
X150789550Y-94734440D02*
X150432407Y-94805868D01*
X151075264Y-95020154D02*
X151146692Y-95055868D01*
X151146692Y-95055868D02*
X151289549Y-95055868D01*
X151289549Y-95055868D02*
X151360978Y-95020154D01*
X151360978Y-95020154D02*
X151396692Y-94948725D01*
X151396692Y-94948725D02*
X151396692Y-94913011D01*
X151396692Y-94913011D02*
X151360978Y-94841583D01*
X151360978Y-94841583D02*
X151289549Y-94805868D01*
X151289549Y-94805868D02*
X151182407Y-94805868D01*
X151182407Y-94805868D02*
X151110978Y-94770154D01*
X151110978Y-94770154D02*
X151075264Y-94698725D01*
X151075264Y-94698725D02*
X151075264Y-94663011D01*
X151075264Y-94663011D02*
X151110978Y-94591583D01*
X151110978Y-94591583D02*
X151182407Y-94555868D01*
X151182407Y-94555868D02*
X151289549Y-94555868D01*
X151289549Y-94555868D02*
X151360978Y-94591583D01*
X152003835Y-95020154D02*
X151932407Y-95055868D01*
X151932407Y-95055868D02*
X151789550Y-95055868D01*
X151789550Y-95055868D02*
X151718121Y-95020154D01*
X151718121Y-95020154D02*
X151682407Y-94948725D01*
X151682407Y-94948725D02*
X151682407Y-94663011D01*
X151682407Y-94663011D02*
X151718121Y-94591583D01*
X151718121Y-94591583D02*
X151789550Y-94555868D01*
X151789550Y-94555868D02*
X151932407Y-94555868D01*
X151932407Y-94555868D02*
X152003835Y-94591583D01*
X152003835Y-94591583D02*
X152039550Y-94663011D01*
X152039550Y-94663011D02*
X152039550Y-94734440D01*
X152039550Y-94734440D02*
X151682407Y-94805868D01*
X152253835Y-94555868D02*
X152539549Y-94555868D01*
X152360978Y-94305868D02*
X152360978Y-94948725D01*
X152360978Y-94948725D02*
X152396692Y-95020154D01*
X152396692Y-95020154D02*
X152468121Y-95055868D01*
X152468121Y-95055868D02*
X152539549Y-95055868D01*
X153620535Y-81247815D02*
X153191964Y-81247815D01*
X153406249Y-81247815D02*
X153406249Y-80497815D01*
X153406249Y-80497815D02*
X153334821Y-80604958D01*
X153334821Y-80604958D02*
X153263392Y-80676387D01*
X153263392Y-80676387D02*
X153191964Y-80712101D01*
X154084821Y-80497815D02*
X154156250Y-80497815D01*
X154156250Y-80497815D02*
X154227678Y-80533530D01*
X154227678Y-80533530D02*
X154263393Y-80569244D01*
X154263393Y-80569244D02*
X154299107Y-80640672D01*
X154299107Y-80640672D02*
X154334821Y-80783530D01*
X154334821Y-80783530D02*
X154334821Y-80962101D01*
X154334821Y-80962101D02*
X154299107Y-81104958D01*
X154299107Y-81104958D02*
X154263393Y-81176387D01*
X154263393Y-81176387D02*
X154227678Y-81212101D01*
X154227678Y-81212101D02*
X154156250Y-81247815D01*
X154156250Y-81247815D02*
X154084821Y-81247815D01*
X154084821Y-81247815D02*
X154013393Y-81212101D01*
X154013393Y-81212101D02*
X153977678Y-81176387D01*
X153977678Y-81176387D02*
X153941964Y-81104958D01*
X153941964Y-81104958D02*
X153906250Y-80962101D01*
X153906250Y-80962101D02*
X153906250Y-80783530D01*
X153906250Y-80783530D02*
X153941964Y-80640672D01*
X153941964Y-80640672D02*
X153977678Y-80569244D01*
X153977678Y-80569244D02*
X154013393Y-80533530D01*
X154013393Y-80533530D02*
X154084821Y-80497815D01*
X154799107Y-80497815D02*
X154870536Y-80497815D01*
X154870536Y-80497815D02*
X154941964Y-80533530D01*
X154941964Y-80533530D02*
X154977679Y-80569244D01*
X154977679Y-80569244D02*
X155013393Y-80640672D01*
X155013393Y-80640672D02*
X155049107Y-80783530D01*
X155049107Y-80783530D02*
X155049107Y-80962101D01*
X155049107Y-80962101D02*
X155013393Y-81104958D01*
X155013393Y-81104958D02*
X154977679Y-81176387D01*
X154977679Y-81176387D02*
X154941964Y-81212101D01*
X154941964Y-81212101D02*
X154870536Y-81247815D01*
X154870536Y-81247815D02*
X154799107Y-81247815D01*
X154799107Y-81247815D02*
X154727679Y-81212101D01*
X154727679Y-81212101D02*
X154691964Y-81176387D01*
X154691964Y-81176387D02*
X154656250Y-81104958D01*
X154656250Y-81104958D02*
X154620536Y-80962101D01*
X154620536Y-80962101D02*
X154620536Y-80783530D01*
X154620536Y-80783530D02*
X154656250Y-80640672D01*
X154656250Y-80640672D02*
X154691964Y-80569244D01*
X154691964Y-80569244D02*
X154727679Y-80533530D01*
X154727679Y-80533530D02*
X154799107Y-80497815D01*
X155370536Y-80747815D02*
X155370536Y-81247815D01*
X155370536Y-80819244D02*
X155406250Y-80783530D01*
X155406250Y-80783530D02*
X155477679Y-80747815D01*
X155477679Y-80747815D02*
X155584822Y-80747815D01*
X155584822Y-80747815D02*
X155656250Y-80783530D01*
X155656250Y-80783530D02*
X155691965Y-80854958D01*
X155691965Y-80854958D02*
X155691965Y-81247815D01*
X156299107Y-80854958D02*
X156049107Y-80854958D01*
X156049107Y-81247815D02*
X156049107Y-80497815D01*
X156049107Y-80497815D02*
X156406250Y-80497815D01*
X143613392Y-73264821D02*
X143720535Y-73300535D01*
X143720535Y-73300535D02*
X143899106Y-73300535D01*
X143899106Y-73300535D02*
X143970535Y-73264821D01*
X143970535Y-73264821D02*
X144006249Y-73229107D01*
X144006249Y-73229107D02*
X144041963Y-73157678D01*
X144041963Y-73157678D02*
X144041963Y-73086250D01*
X144041963Y-73086250D02*
X144006249Y-73014821D01*
X144006249Y-73014821D02*
X143970535Y-72979107D01*
X143970535Y-72979107D02*
X143899106Y-72943392D01*
X143899106Y-72943392D02*
X143756249Y-72907678D01*
X143756249Y-72907678D02*
X143684820Y-72871964D01*
X143684820Y-72871964D02*
X143649106Y-72836250D01*
X143649106Y-72836250D02*
X143613392Y-72764821D01*
X143613392Y-72764821D02*
X143613392Y-72693392D01*
X143613392Y-72693392D02*
X143649106Y-72621964D01*
X143649106Y-72621964D02*
X143684820Y-72586250D01*
X143684820Y-72586250D02*
X143756249Y-72550535D01*
X143756249Y-72550535D02*
X143934820Y-72550535D01*
X143934820Y-72550535D02*
X144041963Y-72586250D01*
X144256249Y-72550535D02*
X144684821Y-72550535D01*
X144470535Y-73300535D02*
X144470535Y-72550535D01*
X144934821Y-73300535D02*
X144934821Y-72550535D01*
X144934821Y-72550535D02*
X145184821Y-73086250D01*
X145184821Y-73086250D02*
X145434821Y-72550535D01*
X145434821Y-72550535D02*
X145434821Y-73300535D01*
X145720535Y-72550535D02*
X146184821Y-72550535D01*
X146184821Y-72550535D02*
X145934821Y-72836250D01*
X145934821Y-72836250D02*
X146041964Y-72836250D01*
X146041964Y-72836250D02*
X146113393Y-72871964D01*
X146113393Y-72871964D02*
X146149107Y-72907678D01*
X146149107Y-72907678D02*
X146184821Y-72979107D01*
X146184821Y-72979107D02*
X146184821Y-73157678D01*
X146184821Y-73157678D02*
X146149107Y-73229107D01*
X146149107Y-73229107D02*
X146113393Y-73264821D01*
X146113393Y-73264821D02*
X146041964Y-73300535D01*
X146041964Y-73300535D02*
X145827678Y-73300535D01*
X145827678Y-73300535D02*
X145756250Y-73264821D01*
X145756250Y-73264821D02*
X145720535Y-73229107D01*
X146470536Y-72621964D02*
X146506250Y-72586250D01*
X146506250Y-72586250D02*
X146577679Y-72550535D01*
X146577679Y-72550535D02*
X146756250Y-72550535D01*
X146756250Y-72550535D02*
X146827679Y-72586250D01*
X146827679Y-72586250D02*
X146863393Y-72621964D01*
X146863393Y-72621964D02*
X146899107Y-72693392D01*
X146899107Y-72693392D02*
X146899107Y-72764821D01*
X146899107Y-72764821D02*
X146863393Y-72871964D01*
X146863393Y-72871964D02*
X146434821Y-73300535D01*
X146434821Y-73300535D02*
X146899107Y-73300535D01*
X143689293Y-55244940D02*
X143689293Y-55702083D01*
X143689293Y-55473511D02*
X142889293Y-55473511D01*
X142889293Y-55473511D02*
X143003579Y-55549702D01*
X143003579Y-55549702D02*
X143079769Y-55625892D01*
X143079769Y-55625892D02*
X143117865Y-55702083D01*
X143155960Y-54559225D02*
X143689293Y-54559225D01*
X143155960Y-54902082D02*
X143575008Y-54902082D01*
X143575008Y-54902082D02*
X143651198Y-54863987D01*
X143651198Y-54863987D02*
X143689293Y-54787797D01*
X143689293Y-54787797D02*
X143689293Y-54673511D01*
X143689293Y-54673511D02*
X143651198Y-54597320D01*
X143651198Y-54597320D02*
X143613103Y-54559225D01*
X143270246Y-53911606D02*
X143270246Y-54178272D01*
X143689293Y-54178272D02*
X142889293Y-54178272D01*
X142889293Y-54178272D02*
X142889293Y-53797320D01*
X134557338Y-81302080D02*
X134128767Y-81302080D01*
X134343052Y-81302080D02*
X134343052Y-80552080D01*
X134343052Y-80552080D02*
X134271624Y-80659223D01*
X134271624Y-80659223D02*
X134200195Y-80730652D01*
X134200195Y-80730652D02*
X134128767Y-80766366D01*
X135021624Y-80552080D02*
X135093053Y-80552080D01*
X135093053Y-80552080D02*
X135164481Y-80587795D01*
X135164481Y-80587795D02*
X135200196Y-80623509D01*
X135200196Y-80623509D02*
X135235910Y-80694937D01*
X135235910Y-80694937D02*
X135271624Y-80837795D01*
X135271624Y-80837795D02*
X135271624Y-81016366D01*
X135271624Y-81016366D02*
X135235910Y-81159223D01*
X135235910Y-81159223D02*
X135200196Y-81230652D01*
X135200196Y-81230652D02*
X135164481Y-81266366D01*
X135164481Y-81266366D02*
X135093053Y-81302080D01*
X135093053Y-81302080D02*
X135021624Y-81302080D01*
X135021624Y-81302080D02*
X134950196Y-81266366D01*
X134950196Y-81266366D02*
X134914481Y-81230652D01*
X134914481Y-81230652D02*
X134878767Y-81159223D01*
X134878767Y-81159223D02*
X134843053Y-81016366D01*
X134843053Y-81016366D02*
X134843053Y-80837795D01*
X134843053Y-80837795D02*
X134878767Y-80694937D01*
X134878767Y-80694937D02*
X134914481Y-80623509D01*
X134914481Y-80623509D02*
X134950196Y-80587795D01*
X134950196Y-80587795D02*
X135021624Y-80552080D01*
X135735910Y-80552080D02*
X135807339Y-80552080D01*
X135807339Y-80552080D02*
X135878767Y-80587795D01*
X135878767Y-80587795D02*
X135914482Y-80623509D01*
X135914482Y-80623509D02*
X135950196Y-80694937D01*
X135950196Y-80694937D02*
X135985910Y-80837795D01*
X135985910Y-80837795D02*
X135985910Y-81016366D01*
X135985910Y-81016366D02*
X135950196Y-81159223D01*
X135950196Y-81159223D02*
X135914482Y-81230652D01*
X135914482Y-81230652D02*
X135878767Y-81266366D01*
X135878767Y-81266366D02*
X135807339Y-81302080D01*
X135807339Y-81302080D02*
X135735910Y-81302080D01*
X135735910Y-81302080D02*
X135664482Y-81266366D01*
X135664482Y-81266366D02*
X135628767Y-81230652D01*
X135628767Y-81230652D02*
X135593053Y-81159223D01*
X135593053Y-81159223D02*
X135557339Y-81016366D01*
X135557339Y-81016366D02*
X135557339Y-80837795D01*
X135557339Y-80837795D02*
X135593053Y-80694937D01*
X135593053Y-80694937D02*
X135628767Y-80623509D01*
X135628767Y-80623509D02*
X135664482Y-80587795D01*
X135664482Y-80587795D02*
X135735910Y-80552080D01*
X136307339Y-80802080D02*
X136307339Y-81302080D01*
X136307339Y-80873509D02*
X136343053Y-80837795D01*
X136343053Y-80837795D02*
X136414482Y-80802080D01*
X136414482Y-80802080D02*
X136521625Y-80802080D01*
X136521625Y-80802080D02*
X136593053Y-80837795D01*
X136593053Y-80837795D02*
X136628768Y-80909223D01*
X136628768Y-80909223D02*
X136628768Y-81302080D01*
X137235910Y-80909223D02*
X136985910Y-80909223D01*
X136985910Y-81302080D02*
X136985910Y-80552080D01*
X136985910Y-80552080D02*
X137343053Y-80552080D01*
X150067464Y-86149974D02*
X149638893Y-86149974D01*
X149853178Y-86149974D02*
X149853178Y-85399974D01*
X149853178Y-85399974D02*
X149781750Y-85507117D01*
X149781750Y-85507117D02*
X149710321Y-85578546D01*
X149710321Y-85578546D02*
X149638893Y-85614260D01*
X150531750Y-85399974D02*
X150603179Y-85399974D01*
X150603179Y-85399974D02*
X150674607Y-85435689D01*
X150674607Y-85435689D02*
X150710322Y-85471403D01*
X150710322Y-85471403D02*
X150746036Y-85542831D01*
X150746036Y-85542831D02*
X150781750Y-85685689D01*
X150781750Y-85685689D02*
X150781750Y-85864260D01*
X150781750Y-85864260D02*
X150746036Y-86007117D01*
X150746036Y-86007117D02*
X150710322Y-86078546D01*
X150710322Y-86078546D02*
X150674607Y-86114260D01*
X150674607Y-86114260D02*
X150603179Y-86149974D01*
X150603179Y-86149974D02*
X150531750Y-86149974D01*
X150531750Y-86149974D02*
X150460322Y-86114260D01*
X150460322Y-86114260D02*
X150424607Y-86078546D01*
X150424607Y-86078546D02*
X150388893Y-86007117D01*
X150388893Y-86007117D02*
X150353179Y-85864260D01*
X150353179Y-85864260D02*
X150353179Y-85685689D01*
X150353179Y-85685689D02*
X150388893Y-85542831D01*
X150388893Y-85542831D02*
X150424607Y-85471403D01*
X150424607Y-85471403D02*
X150460322Y-85435689D01*
X150460322Y-85435689D02*
X150531750Y-85399974D01*
X151246036Y-85399974D02*
X151317465Y-85399974D01*
X151317465Y-85399974D02*
X151388893Y-85435689D01*
X151388893Y-85435689D02*
X151424608Y-85471403D01*
X151424608Y-85471403D02*
X151460322Y-85542831D01*
X151460322Y-85542831D02*
X151496036Y-85685689D01*
X151496036Y-85685689D02*
X151496036Y-85864260D01*
X151496036Y-85864260D02*
X151460322Y-86007117D01*
X151460322Y-86007117D02*
X151424608Y-86078546D01*
X151424608Y-86078546D02*
X151388893Y-86114260D01*
X151388893Y-86114260D02*
X151317465Y-86149974D01*
X151317465Y-86149974D02*
X151246036Y-86149974D01*
X151246036Y-86149974D02*
X151174608Y-86114260D01*
X151174608Y-86114260D02*
X151138893Y-86078546D01*
X151138893Y-86078546D02*
X151103179Y-86007117D01*
X151103179Y-86007117D02*
X151067465Y-85864260D01*
X151067465Y-85864260D02*
X151067465Y-85685689D01*
X151067465Y-85685689D02*
X151103179Y-85542831D01*
X151103179Y-85542831D02*
X151138893Y-85471403D01*
X151138893Y-85471403D02*
X151174608Y-85435689D01*
X151174608Y-85435689D02*
X151246036Y-85399974D01*
X151817465Y-85649974D02*
X151817465Y-86149974D01*
X151817465Y-85721403D02*
X151853179Y-85685689D01*
X151853179Y-85685689D02*
X151924608Y-85649974D01*
X151924608Y-85649974D02*
X152031751Y-85649974D01*
X152031751Y-85649974D02*
X152103179Y-85685689D01*
X152103179Y-85685689D02*
X152138894Y-85757117D01*
X152138894Y-85757117D02*
X152138894Y-86149974D01*
X152746036Y-85757117D02*
X152496036Y-85757117D01*
X152496036Y-86149974D02*
X152496036Y-85399974D01*
X152496036Y-85399974D02*
X152853179Y-85399974D01*
X135019140Y-56206083D02*
X135057235Y-56167988D01*
X135057235Y-56167988D02*
X135095330Y-56206083D01*
X135095330Y-56206083D02*
X135057235Y-56244179D01*
X135057235Y-56244179D02*
X135019140Y-56206083D01*
X135019140Y-56206083D02*
X135095330Y-56206083D01*
X134295330Y-55901322D02*
X134295330Y-55406084D01*
X134295330Y-55406084D02*
X134600092Y-55672750D01*
X134600092Y-55672750D02*
X134600092Y-55558465D01*
X134600092Y-55558465D02*
X134638187Y-55482274D01*
X134638187Y-55482274D02*
X134676283Y-55444179D01*
X134676283Y-55444179D02*
X134752473Y-55406084D01*
X134752473Y-55406084D02*
X134942949Y-55406084D01*
X134942949Y-55406084D02*
X135019140Y-55444179D01*
X135019140Y-55444179D02*
X135057235Y-55482274D01*
X135057235Y-55482274D02*
X135095330Y-55558465D01*
X135095330Y-55558465D02*
X135095330Y-55787036D01*
X135095330Y-55787036D02*
X135057235Y-55863227D01*
X135057235Y-55863227D02*
X135019140Y-55901322D01*
X134295330Y-55139417D02*
X134295330Y-54644179D01*
X134295330Y-54644179D02*
X134600092Y-54910845D01*
X134600092Y-54910845D02*
X134600092Y-54796560D01*
X134600092Y-54796560D02*
X134638187Y-54720369D01*
X134638187Y-54720369D02*
X134676283Y-54682274D01*
X134676283Y-54682274D02*
X134752473Y-54644179D01*
X134752473Y-54644179D02*
X134942949Y-54644179D01*
X134942949Y-54644179D02*
X135019140Y-54682274D01*
X135019140Y-54682274D02*
X135057235Y-54720369D01*
X135057235Y-54720369D02*
X135095330Y-54796560D01*
X135095330Y-54796560D02*
X135095330Y-55025131D01*
X135095330Y-55025131D02*
X135057235Y-55101322D01*
X135057235Y-55101322D02*
X135019140Y-55139417D01*
X134561997Y-53958464D02*
X135095330Y-53958464D01*
X134561997Y-54301321D02*
X134981045Y-54301321D01*
X134981045Y-54301321D02*
X135057235Y-54263226D01*
X135057235Y-54263226D02*
X135095330Y-54187036D01*
X135095330Y-54187036D02*
X135095330Y-54072750D01*
X135095330Y-54072750D02*
X135057235Y-53996559D01*
X135057235Y-53996559D02*
X135019140Y-53958464D01*
X134676283Y-53310845D02*
X134676283Y-53577511D01*
X135095330Y-53577511D02*
X134295330Y-53577511D01*
X134295330Y-53577511D02*
X134295330Y-53196559D01*
X149644519Y-91648375D02*
X149644519Y-90898375D01*
X149644519Y-91184090D02*
X149715948Y-91148375D01*
X149715948Y-91148375D02*
X149858805Y-91148375D01*
X149858805Y-91148375D02*
X149930233Y-91184090D01*
X149930233Y-91184090D02*
X149965948Y-91219804D01*
X149965948Y-91219804D02*
X150001662Y-91291232D01*
X150001662Y-91291232D02*
X150001662Y-91505518D01*
X150001662Y-91505518D02*
X149965948Y-91576947D01*
X149965948Y-91576947D02*
X149930233Y-91612661D01*
X149930233Y-91612661D02*
X149858805Y-91648375D01*
X149858805Y-91648375D02*
X149715948Y-91648375D01*
X149715948Y-91648375D02*
X149644519Y-91612661D01*
X150644519Y-91148375D02*
X150644519Y-91648375D01*
X150323090Y-91148375D02*
X150323090Y-91541232D01*
X150323090Y-91541232D02*
X150358804Y-91612661D01*
X150358804Y-91612661D02*
X150430233Y-91648375D01*
X150430233Y-91648375D02*
X150537376Y-91648375D01*
X150537376Y-91648375D02*
X150608804Y-91612661D01*
X150608804Y-91612661D02*
X150644519Y-91576947D01*
X150894518Y-91148375D02*
X151180232Y-91148375D01*
X151001661Y-90898375D02*
X151001661Y-91541232D01*
X151001661Y-91541232D02*
X151037375Y-91612661D01*
X151037375Y-91612661D02*
X151108804Y-91648375D01*
X151108804Y-91648375D02*
X151180232Y-91648375D01*
X151323089Y-91148375D02*
X151608803Y-91148375D01*
X151430232Y-90898375D02*
X151430232Y-91541232D01*
X151430232Y-91541232D02*
X151465946Y-91612661D01*
X151465946Y-91612661D02*
X151537375Y-91648375D01*
X151537375Y-91648375D02*
X151608803Y-91648375D01*
X151965946Y-91648375D02*
X151894517Y-91612661D01*
X151894517Y-91612661D02*
X151858803Y-91576947D01*
X151858803Y-91576947D02*
X151823089Y-91505518D01*
X151823089Y-91505518D02*
X151823089Y-91291232D01*
X151823089Y-91291232D02*
X151858803Y-91219804D01*
X151858803Y-91219804D02*
X151894517Y-91184090D01*
X151894517Y-91184090D02*
X151965946Y-91148375D01*
X151965946Y-91148375D02*
X152073089Y-91148375D01*
X152073089Y-91148375D02*
X152144517Y-91184090D01*
X152144517Y-91184090D02*
X152180232Y-91219804D01*
X152180232Y-91219804D02*
X152215946Y-91291232D01*
X152215946Y-91291232D02*
X152215946Y-91505518D01*
X152215946Y-91505518D02*
X152180232Y-91576947D01*
X152180232Y-91576947D02*
X152144517Y-91612661D01*
X152144517Y-91612661D02*
X152073089Y-91648375D01*
X152073089Y-91648375D02*
X151965946Y-91648375D01*
X152537374Y-91148375D02*
X152537374Y-91648375D01*
X152537374Y-91219804D02*
X152573088Y-91184090D01*
X152573088Y-91184090D02*
X152644517Y-91148375D01*
X152644517Y-91148375D02*
X152751660Y-91148375D01*
X152751660Y-91148375D02*
X152823088Y-91184090D01*
X152823088Y-91184090D02*
X152858803Y-91255518D01*
X152858803Y-91255518D02*
X152858803Y-91648375D01*
X149027108Y-55540606D02*
X149527108Y-55540606D01*
X149527108Y-55540606D02*
X149205680Y-56290606D01*
X150169966Y-55540606D02*
X149812823Y-55540606D01*
X149812823Y-55540606D02*
X149777109Y-55897749D01*
X149777109Y-55897749D02*
X149812823Y-55862035D01*
X149812823Y-55862035D02*
X149884252Y-55826321D01*
X149884252Y-55826321D02*
X150062823Y-55826321D01*
X150062823Y-55826321D02*
X150134252Y-55862035D01*
X150134252Y-55862035D02*
X150169966Y-55897749D01*
X150169966Y-55897749D02*
X150205680Y-55969178D01*
X150205680Y-55969178D02*
X150205680Y-56147749D01*
X150205680Y-56147749D02*
X150169966Y-56219178D01*
X150169966Y-56219178D02*
X150134252Y-56254892D01*
X150134252Y-56254892D02*
X150062823Y-56290606D01*
X150062823Y-56290606D02*
X149884252Y-56290606D01*
X149884252Y-56290606D02*
X149812823Y-56254892D01*
X149812823Y-56254892D02*
X149777109Y-56219178D01*
X150955680Y-56290606D02*
X150705680Y-55933463D01*
X150527109Y-56290606D02*
X150527109Y-55540606D01*
X150527109Y-55540606D02*
X150812823Y-55540606D01*
X150812823Y-55540606D02*
X150884252Y-55576321D01*
X150884252Y-55576321D02*
X150919966Y-55612035D01*
X150919966Y-55612035D02*
X150955680Y-55683463D01*
X150955680Y-55683463D02*
X150955680Y-55790606D01*
X150955680Y-55790606D02*
X150919966Y-55862035D01*
X150919966Y-55862035D02*
X150884252Y-55897749D01*
X150884252Y-55897749D02*
X150812823Y-55933463D01*
X150812823Y-55933463D02*
X150527109Y-55933463D01*
X153620535Y-78856785D02*
X153191964Y-78856785D01*
X153406249Y-78856785D02*
X153406249Y-78106785D01*
X153406249Y-78106785D02*
X153334821Y-78213928D01*
X153334821Y-78213928D02*
X153263392Y-78285357D01*
X153263392Y-78285357D02*
X153191964Y-78321071D01*
X154084821Y-78106785D02*
X154156250Y-78106785D01*
X154156250Y-78106785D02*
X154227678Y-78142500D01*
X154227678Y-78142500D02*
X154263393Y-78178214D01*
X154263393Y-78178214D02*
X154299107Y-78249642D01*
X154299107Y-78249642D02*
X154334821Y-78392500D01*
X154334821Y-78392500D02*
X154334821Y-78571071D01*
X154334821Y-78571071D02*
X154299107Y-78713928D01*
X154299107Y-78713928D02*
X154263393Y-78785357D01*
X154263393Y-78785357D02*
X154227678Y-78821071D01*
X154227678Y-78821071D02*
X154156250Y-78856785D01*
X154156250Y-78856785D02*
X154084821Y-78856785D01*
X154084821Y-78856785D02*
X154013393Y-78821071D01*
X154013393Y-78821071D02*
X153977678Y-78785357D01*
X153977678Y-78785357D02*
X153941964Y-78713928D01*
X153941964Y-78713928D02*
X153906250Y-78571071D01*
X153906250Y-78571071D02*
X153906250Y-78392500D01*
X153906250Y-78392500D02*
X153941964Y-78249642D01*
X153941964Y-78249642D02*
X153977678Y-78178214D01*
X153977678Y-78178214D02*
X154013393Y-78142500D01*
X154013393Y-78142500D02*
X154084821Y-78106785D01*
X154799107Y-78106785D02*
X154870536Y-78106785D01*
X154870536Y-78106785D02*
X154941964Y-78142500D01*
X154941964Y-78142500D02*
X154977679Y-78178214D01*
X154977679Y-78178214D02*
X155013393Y-78249642D01*
X155013393Y-78249642D02*
X155049107Y-78392500D01*
X155049107Y-78392500D02*
X155049107Y-78571071D01*
X155049107Y-78571071D02*
X155013393Y-78713928D01*
X155013393Y-78713928D02*
X154977679Y-78785357D01*
X154977679Y-78785357D02*
X154941964Y-78821071D01*
X154941964Y-78821071D02*
X154870536Y-78856785D01*
X154870536Y-78856785D02*
X154799107Y-78856785D01*
X154799107Y-78856785D02*
X154727679Y-78821071D01*
X154727679Y-78821071D02*
X154691964Y-78785357D01*
X154691964Y-78785357D02*
X154656250Y-78713928D01*
X154656250Y-78713928D02*
X154620536Y-78571071D01*
X154620536Y-78571071D02*
X154620536Y-78392500D01*
X154620536Y-78392500D02*
X154656250Y-78249642D01*
X154656250Y-78249642D02*
X154691964Y-78178214D01*
X154691964Y-78178214D02*
X154727679Y-78142500D01*
X154727679Y-78142500D02*
X154799107Y-78106785D01*
X155370536Y-78356785D02*
X155370536Y-78856785D01*
X155370536Y-78428214D02*
X155406250Y-78392500D01*
X155406250Y-78392500D02*
X155477679Y-78356785D01*
X155477679Y-78356785D02*
X155584822Y-78356785D01*
X155584822Y-78356785D02*
X155656250Y-78392500D01*
X155656250Y-78392500D02*
X155691965Y-78463928D01*
X155691965Y-78463928D02*
X155691965Y-78856785D01*
X156299107Y-78463928D02*
X156049107Y-78463928D01*
X156049107Y-78856785D02*
X156049107Y-78106785D01*
X156049107Y-78106785D02*
X156406250Y-78106785D01*
X152758422Y-65451646D02*
X152758422Y-65880217D01*
X152758422Y-65665932D02*
X152008422Y-65665932D01*
X152008422Y-65665932D02*
X152115565Y-65737360D01*
X152115565Y-65737360D02*
X152186994Y-65808789D01*
X152186994Y-65808789D02*
X152222708Y-65880217D01*
X152008422Y-64987360D02*
X152008422Y-64915931D01*
X152008422Y-64915931D02*
X152044137Y-64844503D01*
X152044137Y-64844503D02*
X152079851Y-64808789D01*
X152079851Y-64808789D02*
X152151279Y-64773074D01*
X152151279Y-64773074D02*
X152294137Y-64737360D01*
X152294137Y-64737360D02*
X152472708Y-64737360D01*
X152472708Y-64737360D02*
X152615565Y-64773074D01*
X152615565Y-64773074D02*
X152686994Y-64808789D01*
X152686994Y-64808789D02*
X152722708Y-64844503D01*
X152722708Y-64844503D02*
X152758422Y-64915931D01*
X152758422Y-64915931D02*
X152758422Y-64987360D01*
X152758422Y-64987360D02*
X152722708Y-65058789D01*
X152722708Y-65058789D02*
X152686994Y-65094503D01*
X152686994Y-65094503D02*
X152615565Y-65130217D01*
X152615565Y-65130217D02*
X152472708Y-65165931D01*
X152472708Y-65165931D02*
X152294137Y-65165931D01*
X152294137Y-65165931D02*
X152151279Y-65130217D01*
X152151279Y-65130217D02*
X152079851Y-65094503D01*
X152079851Y-65094503D02*
X152044137Y-65058789D01*
X152044137Y-65058789D02*
X152008422Y-64987360D01*
X152008422Y-64273074D02*
X152008422Y-64201645D01*
X152008422Y-64201645D02*
X152044137Y-64130217D01*
X152044137Y-64130217D02*
X152079851Y-64094503D01*
X152079851Y-64094503D02*
X152151279Y-64058788D01*
X152151279Y-64058788D02*
X152294137Y-64023074D01*
X152294137Y-64023074D02*
X152472708Y-64023074D01*
X152472708Y-64023074D02*
X152615565Y-64058788D01*
X152615565Y-64058788D02*
X152686994Y-64094503D01*
X152686994Y-64094503D02*
X152722708Y-64130217D01*
X152722708Y-64130217D02*
X152758422Y-64201645D01*
X152758422Y-64201645D02*
X152758422Y-64273074D01*
X152758422Y-64273074D02*
X152722708Y-64344503D01*
X152722708Y-64344503D02*
X152686994Y-64380217D01*
X152686994Y-64380217D02*
X152615565Y-64415931D01*
X152615565Y-64415931D02*
X152472708Y-64451645D01*
X152472708Y-64451645D02*
X152294137Y-64451645D01*
X152294137Y-64451645D02*
X152151279Y-64415931D01*
X152151279Y-64415931D02*
X152079851Y-64380217D01*
X152079851Y-64380217D02*
X152044137Y-64344503D01*
X152044137Y-64344503D02*
X152008422Y-64273074D01*
X152258422Y-63701645D02*
X152758422Y-63701645D01*
X152329851Y-63701645D02*
X152294137Y-63665931D01*
X152294137Y-63665931D02*
X152258422Y-63594502D01*
X152258422Y-63594502D02*
X152258422Y-63487359D01*
X152258422Y-63487359D02*
X152294137Y-63415931D01*
X152294137Y-63415931D02*
X152365565Y-63380217D01*
X152365565Y-63380217D02*
X152758422Y-63380217D01*
X152365565Y-62773074D02*
X152365565Y-63023074D01*
X152758422Y-63023074D02*
X152008422Y-63023074D01*
X152008422Y-63023074D02*
X152008422Y-62665931D01*
X134557338Y-78911050D02*
X134128767Y-78911050D01*
X134343052Y-78911050D02*
X134343052Y-78161050D01*
X134343052Y-78161050D02*
X134271624Y-78268193D01*
X134271624Y-78268193D02*
X134200195Y-78339622D01*
X134200195Y-78339622D02*
X134128767Y-78375336D01*
X135021624Y-78161050D02*
X135093053Y-78161050D01*
X135093053Y-78161050D02*
X135164481Y-78196765D01*
X135164481Y-78196765D02*
X135200196Y-78232479D01*
X135200196Y-78232479D02*
X135235910Y-78303907D01*
X135235910Y-78303907D02*
X135271624Y-78446765D01*
X135271624Y-78446765D02*
X135271624Y-78625336D01*
X135271624Y-78625336D02*
X135235910Y-78768193D01*
X135235910Y-78768193D02*
X135200196Y-78839622D01*
X135200196Y-78839622D02*
X135164481Y-78875336D01*
X135164481Y-78875336D02*
X135093053Y-78911050D01*
X135093053Y-78911050D02*
X135021624Y-78911050D01*
X135021624Y-78911050D02*
X134950196Y-78875336D01*
X134950196Y-78875336D02*
X134914481Y-78839622D01*
X134914481Y-78839622D02*
X134878767Y-78768193D01*
X134878767Y-78768193D02*
X134843053Y-78625336D01*
X134843053Y-78625336D02*
X134843053Y-78446765D01*
X134843053Y-78446765D02*
X134878767Y-78303907D01*
X134878767Y-78303907D02*
X134914481Y-78232479D01*
X134914481Y-78232479D02*
X134950196Y-78196765D01*
X134950196Y-78196765D02*
X135021624Y-78161050D01*
X135735910Y-78161050D02*
X135807339Y-78161050D01*
X135807339Y-78161050D02*
X135878767Y-78196765D01*
X135878767Y-78196765D02*
X135914482Y-78232479D01*
X135914482Y-78232479D02*
X135950196Y-78303907D01*
X135950196Y-78303907D02*
X135985910Y-78446765D01*
X135985910Y-78446765D02*
X135985910Y-78625336D01*
X135985910Y-78625336D02*
X135950196Y-78768193D01*
X135950196Y-78768193D02*
X135914482Y-78839622D01*
X135914482Y-78839622D02*
X135878767Y-78875336D01*
X135878767Y-78875336D02*
X135807339Y-78911050D01*
X135807339Y-78911050D02*
X135735910Y-78911050D01*
X135735910Y-78911050D02*
X135664482Y-78875336D01*
X135664482Y-78875336D02*
X135628767Y-78839622D01*
X135628767Y-78839622D02*
X135593053Y-78768193D01*
X135593053Y-78768193D02*
X135557339Y-78625336D01*
X135557339Y-78625336D02*
X135557339Y-78446765D01*
X135557339Y-78446765D02*
X135593053Y-78303907D01*
X135593053Y-78303907D02*
X135628767Y-78232479D01*
X135628767Y-78232479D02*
X135664482Y-78196765D01*
X135664482Y-78196765D02*
X135735910Y-78161050D01*
X136307339Y-78411050D02*
X136307339Y-78911050D01*
X136307339Y-78482479D02*
X136343053Y-78446765D01*
X136343053Y-78446765D02*
X136414482Y-78411050D01*
X136414482Y-78411050D02*
X136521625Y-78411050D01*
X136521625Y-78411050D02*
X136593053Y-78446765D01*
X136593053Y-78446765D02*
X136628768Y-78518193D01*
X136628768Y-78518193D02*
X136628768Y-78911050D01*
X137235910Y-78518193D02*
X136985910Y-78518193D01*
X136985910Y-78911050D02*
X136985910Y-78161050D01*
X136985910Y-78161050D02*
X137343053Y-78161050D01*
X148631674Y-45320033D02*
X149095960Y-45320033D01*
X149095960Y-45320033D02*
X148845960Y-45605748D01*
X148845960Y-45605748D02*
X148953103Y-45605748D01*
X148953103Y-45605748D02*
X149024532Y-45641462D01*
X149024532Y-45641462D02*
X149060246Y-45677176D01*
X149060246Y-45677176D02*
X149095960Y-45748605D01*
X149095960Y-45748605D02*
X149095960Y-45927176D01*
X149095960Y-45927176D02*
X149060246Y-45998605D01*
X149060246Y-45998605D02*
X149024532Y-46034319D01*
X149024532Y-46034319D02*
X148953103Y-46070033D01*
X148953103Y-46070033D02*
X148738817Y-46070033D01*
X148738817Y-46070033D02*
X148667389Y-46034319D01*
X148667389Y-46034319D02*
X148631674Y-45998605D01*
X149417389Y-45998605D02*
X149453103Y-46034319D01*
X149453103Y-46034319D02*
X149417389Y-46070033D01*
X149417389Y-46070033D02*
X149381675Y-46034319D01*
X149381675Y-46034319D02*
X149417389Y-45998605D01*
X149417389Y-45998605D02*
X149417389Y-46070033D01*
X150095961Y-45320033D02*
X149953103Y-45320033D01*
X149953103Y-45320033D02*
X149881675Y-45355748D01*
X149881675Y-45355748D02*
X149845961Y-45391462D01*
X149845961Y-45391462D02*
X149774532Y-45498605D01*
X149774532Y-45498605D02*
X149738818Y-45641462D01*
X149738818Y-45641462D02*
X149738818Y-45927176D01*
X149738818Y-45927176D02*
X149774532Y-45998605D01*
X149774532Y-45998605D02*
X149810246Y-46034319D01*
X149810246Y-46034319D02*
X149881675Y-46070033D01*
X149881675Y-46070033D02*
X150024532Y-46070033D01*
X150024532Y-46070033D02*
X150095961Y-46034319D01*
X150095961Y-46034319D02*
X150131675Y-45998605D01*
X150131675Y-45998605D02*
X150167389Y-45927176D01*
X150167389Y-45927176D02*
X150167389Y-45748605D01*
X150167389Y-45748605D02*
X150131675Y-45677176D01*
X150131675Y-45677176D02*
X150095961Y-45641462D01*
X150095961Y-45641462D02*
X150024532Y-45605748D01*
X150024532Y-45605748D02*
X149881675Y-45605748D01*
X149881675Y-45605748D02*
X149810246Y-45641462D01*
X149810246Y-45641462D02*
X149774532Y-45677176D01*
X149774532Y-45677176D02*
X149738818Y-45748605D01*
X150381675Y-45320033D02*
X150631675Y-46070033D01*
X150631675Y-46070033D02*
X150881675Y-45320033D01*
X139404465Y-38375535D02*
X139333036Y-38339821D01*
X139333036Y-38339821D02*
X139297322Y-38268392D01*
X139297322Y-38268392D02*
X139297322Y-37625535D01*
X139797322Y-38375535D02*
X139725893Y-38339821D01*
X139725893Y-38339821D02*
X139690179Y-38304107D01*
X139690179Y-38304107D02*
X139654465Y-38232678D01*
X139654465Y-38232678D02*
X139654465Y-38018392D01*
X139654465Y-38018392D02*
X139690179Y-37946964D01*
X139690179Y-37946964D02*
X139725893Y-37911250D01*
X139725893Y-37911250D02*
X139797322Y-37875535D01*
X139797322Y-37875535D02*
X139904465Y-37875535D01*
X139904465Y-37875535D02*
X139975893Y-37911250D01*
X139975893Y-37911250D02*
X140011608Y-37946964D01*
X140011608Y-37946964D02*
X140047322Y-38018392D01*
X140047322Y-38018392D02*
X140047322Y-38232678D01*
X140047322Y-38232678D02*
X140011608Y-38304107D01*
X140011608Y-38304107D02*
X139975893Y-38339821D01*
X139975893Y-38339821D02*
X139904465Y-38375535D01*
X139904465Y-38375535D02*
X139797322Y-38375535D01*
X140690179Y-37875535D02*
X140690179Y-38482678D01*
X140690179Y-38482678D02*
X140654464Y-38554107D01*
X140654464Y-38554107D02*
X140618750Y-38589821D01*
X140618750Y-38589821D02*
X140547321Y-38625535D01*
X140547321Y-38625535D02*
X140440179Y-38625535D01*
X140440179Y-38625535D02*
X140368750Y-38589821D01*
X140690179Y-38339821D02*
X140618750Y-38375535D01*
X140618750Y-38375535D02*
X140475893Y-38375535D01*
X140475893Y-38375535D02*
X140404464Y-38339821D01*
X140404464Y-38339821D02*
X140368750Y-38304107D01*
X140368750Y-38304107D02*
X140333036Y-38232678D01*
X140333036Y-38232678D02*
X140333036Y-38018392D01*
X140333036Y-38018392D02*
X140368750Y-37946964D01*
X140368750Y-37946964D02*
X140404464Y-37911250D01*
X140404464Y-37911250D02*
X140475893Y-37875535D01*
X140475893Y-37875535D02*
X140618750Y-37875535D01*
X140618750Y-37875535D02*
X140690179Y-37911250D01*
X141047321Y-38375535D02*
X141047321Y-37875535D01*
X141047321Y-37625535D02*
X141011607Y-37661250D01*
X141011607Y-37661250D02*
X141047321Y-37696964D01*
X141047321Y-37696964D02*
X141083035Y-37661250D01*
X141083035Y-37661250D02*
X141047321Y-37625535D01*
X141047321Y-37625535D02*
X141047321Y-37696964D01*
X141725893Y-38339821D02*
X141654464Y-38375535D01*
X141654464Y-38375535D02*
X141511607Y-38375535D01*
X141511607Y-38375535D02*
X141440178Y-38339821D01*
X141440178Y-38339821D02*
X141404464Y-38304107D01*
X141404464Y-38304107D02*
X141368750Y-38232678D01*
X141368750Y-38232678D02*
X141368750Y-38018392D01*
X141368750Y-38018392D02*
X141404464Y-37946964D01*
X141404464Y-37946964D02*
X141440178Y-37911250D01*
X141440178Y-37911250D02*
X141511607Y-37875535D01*
X141511607Y-37875535D02*
X141654464Y-37875535D01*
X141654464Y-37875535D02*
X141725893Y-37911250D01*
X137617201Y-91671025D02*
X137617201Y-90921025D01*
X137617201Y-91206740D02*
X137688630Y-91171025D01*
X137688630Y-91171025D02*
X137831487Y-91171025D01*
X137831487Y-91171025D02*
X137902915Y-91206740D01*
X137902915Y-91206740D02*
X137938630Y-91242454D01*
X137938630Y-91242454D02*
X137974344Y-91313882D01*
X137974344Y-91313882D02*
X137974344Y-91528168D01*
X137974344Y-91528168D02*
X137938630Y-91599597D01*
X137938630Y-91599597D02*
X137902915Y-91635311D01*
X137902915Y-91635311D02*
X137831487Y-91671025D01*
X137831487Y-91671025D02*
X137688630Y-91671025D01*
X137688630Y-91671025D02*
X137617201Y-91635311D01*
X138617201Y-91171025D02*
X138617201Y-91671025D01*
X138295772Y-91171025D02*
X138295772Y-91563882D01*
X138295772Y-91563882D02*
X138331486Y-91635311D01*
X138331486Y-91635311D02*
X138402915Y-91671025D01*
X138402915Y-91671025D02*
X138510058Y-91671025D01*
X138510058Y-91671025D02*
X138581486Y-91635311D01*
X138581486Y-91635311D02*
X138617201Y-91599597D01*
X138867200Y-91171025D02*
X139152914Y-91171025D01*
X138974343Y-90921025D02*
X138974343Y-91563882D01*
X138974343Y-91563882D02*
X139010057Y-91635311D01*
X139010057Y-91635311D02*
X139081486Y-91671025D01*
X139081486Y-91671025D02*
X139152914Y-91671025D01*
X139295771Y-91171025D02*
X139581485Y-91171025D01*
X139402914Y-90921025D02*
X139402914Y-91563882D01*
X139402914Y-91563882D02*
X139438628Y-91635311D01*
X139438628Y-91635311D02*
X139510057Y-91671025D01*
X139510057Y-91671025D02*
X139581485Y-91671025D01*
X139938628Y-91671025D02*
X139867199Y-91635311D01*
X139867199Y-91635311D02*
X139831485Y-91599597D01*
X139831485Y-91599597D02*
X139795771Y-91528168D01*
X139795771Y-91528168D02*
X139795771Y-91313882D01*
X139795771Y-91313882D02*
X139831485Y-91242454D01*
X139831485Y-91242454D02*
X139867199Y-91206740D01*
X139867199Y-91206740D02*
X139938628Y-91171025D01*
X139938628Y-91171025D02*
X140045771Y-91171025D01*
X140045771Y-91171025D02*
X140117199Y-91206740D01*
X140117199Y-91206740D02*
X140152914Y-91242454D01*
X140152914Y-91242454D02*
X140188628Y-91313882D01*
X140188628Y-91313882D02*
X140188628Y-91528168D01*
X140188628Y-91528168D02*
X140152914Y-91599597D01*
X140152914Y-91599597D02*
X140117199Y-91635311D01*
X140117199Y-91635311D02*
X140045771Y-91671025D01*
X140045771Y-91671025D02*
X139938628Y-91671025D01*
X140510056Y-91171025D02*
X140510056Y-91671025D01*
X140510056Y-91242454D02*
X140545770Y-91206740D01*
X140545770Y-91206740D02*
X140617199Y-91171025D01*
X140617199Y-91171025D02*
X140724342Y-91171025D01*
X140724342Y-91171025D02*
X140795770Y-91206740D01*
X140795770Y-91206740D02*
X140831485Y-91278168D01*
X140831485Y-91278168D02*
X140831485Y-91671025D01*
X138247924Y-95077216D02*
X138247924Y-94327216D01*
X138247924Y-94612931D02*
X138319353Y-94577216D01*
X138319353Y-94577216D02*
X138462210Y-94577216D01*
X138462210Y-94577216D02*
X138533638Y-94612931D01*
X138533638Y-94612931D02*
X138569353Y-94648645D01*
X138569353Y-94648645D02*
X138605067Y-94720073D01*
X138605067Y-94720073D02*
X138605067Y-94934359D01*
X138605067Y-94934359D02*
X138569353Y-95005788D01*
X138569353Y-95005788D02*
X138533638Y-95041502D01*
X138533638Y-95041502D02*
X138462210Y-95077216D01*
X138462210Y-95077216D02*
X138319353Y-95077216D01*
X138319353Y-95077216D02*
X138247924Y-95041502D01*
X139033638Y-95077216D02*
X138962209Y-95041502D01*
X138962209Y-95041502D02*
X138926495Y-95005788D01*
X138926495Y-95005788D02*
X138890781Y-94934359D01*
X138890781Y-94934359D02*
X138890781Y-94720073D01*
X138890781Y-94720073D02*
X138926495Y-94648645D01*
X138926495Y-94648645D02*
X138962209Y-94612931D01*
X138962209Y-94612931D02*
X139033638Y-94577216D01*
X139033638Y-94577216D02*
X139140781Y-94577216D01*
X139140781Y-94577216D02*
X139212209Y-94612931D01*
X139212209Y-94612931D02*
X139247924Y-94648645D01*
X139247924Y-94648645D02*
X139283638Y-94720073D01*
X139283638Y-94720073D02*
X139283638Y-94934359D01*
X139283638Y-94934359D02*
X139247924Y-95005788D01*
X139247924Y-95005788D02*
X139212209Y-95041502D01*
X139212209Y-95041502D02*
X139140781Y-95077216D01*
X139140781Y-95077216D02*
X139033638Y-95077216D01*
X139712209Y-95077216D02*
X139640780Y-95041502D01*
X139640780Y-95041502D02*
X139605066Y-95005788D01*
X139605066Y-95005788D02*
X139569352Y-94934359D01*
X139569352Y-94934359D02*
X139569352Y-94720073D01*
X139569352Y-94720073D02*
X139605066Y-94648645D01*
X139605066Y-94648645D02*
X139640780Y-94612931D01*
X139640780Y-94612931D02*
X139712209Y-94577216D01*
X139712209Y-94577216D02*
X139819352Y-94577216D01*
X139819352Y-94577216D02*
X139890780Y-94612931D01*
X139890780Y-94612931D02*
X139926495Y-94648645D01*
X139926495Y-94648645D02*
X139962209Y-94720073D01*
X139962209Y-94720073D02*
X139962209Y-94934359D01*
X139962209Y-94934359D02*
X139926495Y-95005788D01*
X139926495Y-95005788D02*
X139890780Y-95041502D01*
X139890780Y-95041502D02*
X139819352Y-95077216D01*
X139819352Y-95077216D02*
X139712209Y-95077216D01*
X140176494Y-94577216D02*
X140462208Y-94577216D01*
X140283637Y-94327216D02*
X140283637Y-94970073D01*
X140283637Y-94970073D02*
X140319351Y-95041502D01*
X140319351Y-95041502D02*
X140390780Y-95077216D01*
X140390780Y-95077216D02*
X140462208Y-95077216D01*
X144738035Y-39260714D02*
X144738035Y-39689285D01*
X144738035Y-39475000D02*
X143988035Y-39475000D01*
X143988035Y-39475000D02*
X144095178Y-39546428D01*
X144095178Y-39546428D02*
X144166607Y-39617857D01*
X144166607Y-39617857D02*
X144202321Y-39689285D01*
X143988035Y-38796428D02*
X143988035Y-38724999D01*
X143988035Y-38724999D02*
X144023750Y-38653571D01*
X144023750Y-38653571D02*
X144059464Y-38617857D01*
X144059464Y-38617857D02*
X144130892Y-38582142D01*
X144130892Y-38582142D02*
X144273750Y-38546428D01*
X144273750Y-38546428D02*
X144452321Y-38546428D01*
X144452321Y-38546428D02*
X144595178Y-38582142D01*
X144595178Y-38582142D02*
X144666607Y-38617857D01*
X144666607Y-38617857D02*
X144702321Y-38653571D01*
X144702321Y-38653571D02*
X144738035Y-38724999D01*
X144738035Y-38724999D02*
X144738035Y-38796428D01*
X144738035Y-38796428D02*
X144702321Y-38867857D01*
X144702321Y-38867857D02*
X144666607Y-38903571D01*
X144666607Y-38903571D02*
X144595178Y-38939285D01*
X144595178Y-38939285D02*
X144452321Y-38974999D01*
X144452321Y-38974999D02*
X144273750Y-38974999D01*
X144273750Y-38974999D02*
X144130892Y-38939285D01*
X144130892Y-38939285D02*
X144059464Y-38903571D01*
X144059464Y-38903571D02*
X144023750Y-38867857D01*
X144023750Y-38867857D02*
X143988035Y-38796428D01*
X143988035Y-38082142D02*
X143988035Y-38010713D01*
X143988035Y-38010713D02*
X144023750Y-37939285D01*
X144023750Y-37939285D02*
X144059464Y-37903571D01*
X144059464Y-37903571D02*
X144130892Y-37867856D01*
X144130892Y-37867856D02*
X144273750Y-37832142D01*
X144273750Y-37832142D02*
X144452321Y-37832142D01*
X144452321Y-37832142D02*
X144595178Y-37867856D01*
X144595178Y-37867856D02*
X144666607Y-37903571D01*
X144666607Y-37903571D02*
X144702321Y-37939285D01*
X144702321Y-37939285D02*
X144738035Y-38010713D01*
X144738035Y-38010713D02*
X144738035Y-38082142D01*
X144738035Y-38082142D02*
X144702321Y-38153571D01*
X144702321Y-38153571D02*
X144666607Y-38189285D01*
X144666607Y-38189285D02*
X144595178Y-38224999D01*
X144595178Y-38224999D02*
X144452321Y-38260713D01*
X144452321Y-38260713D02*
X144273750Y-38260713D01*
X144273750Y-38260713D02*
X144130892Y-38224999D01*
X144130892Y-38224999D02*
X144059464Y-38189285D01*
X144059464Y-38189285D02*
X144023750Y-38153571D01*
X144023750Y-38153571D02*
X143988035Y-38082142D01*
X144238035Y-37510713D02*
X144738035Y-37510713D01*
X144309464Y-37510713D02*
X144273750Y-37474999D01*
X144273750Y-37474999D02*
X144238035Y-37403570D01*
X144238035Y-37403570D02*
X144238035Y-37296427D01*
X144238035Y-37296427D02*
X144273750Y-37224999D01*
X144273750Y-37224999D02*
X144345178Y-37189285D01*
X144345178Y-37189285D02*
X144738035Y-37189285D01*
X144345178Y-36582142D02*
X144345178Y-36832142D01*
X144738035Y-36832142D02*
X143988035Y-36832142D01*
X143988035Y-36832142D02*
X143988035Y-36474999D01*
X135977499Y-47664821D02*
X136084642Y-47700535D01*
X136084642Y-47700535D02*
X136263213Y-47700535D01*
X136263213Y-47700535D02*
X136334642Y-47664821D01*
X136334642Y-47664821D02*
X136370356Y-47629107D01*
X136370356Y-47629107D02*
X136406070Y-47557678D01*
X136406070Y-47557678D02*
X136406070Y-47486250D01*
X136406070Y-47486250D02*
X136370356Y-47414821D01*
X136370356Y-47414821D02*
X136334642Y-47379107D01*
X136334642Y-47379107D02*
X136263213Y-47343392D01*
X136263213Y-47343392D02*
X136120356Y-47307678D01*
X136120356Y-47307678D02*
X136048927Y-47271964D01*
X136048927Y-47271964D02*
X136013213Y-47236250D01*
X136013213Y-47236250D02*
X135977499Y-47164821D01*
X135977499Y-47164821D02*
X135977499Y-47093392D01*
X135977499Y-47093392D02*
X136013213Y-47021964D01*
X136013213Y-47021964D02*
X136048927Y-46986250D01*
X136048927Y-46986250D02*
X136120356Y-46950535D01*
X136120356Y-46950535D02*
X136298927Y-46950535D01*
X136298927Y-46950535D02*
X136406070Y-46986250D01*
X136691785Y-47486250D02*
X137048928Y-47486250D01*
X136620356Y-47700535D02*
X136870356Y-46950535D01*
X136870356Y-46950535D02*
X137120356Y-47700535D01*
X137763213Y-47700535D02*
X137334642Y-47700535D01*
X137548927Y-47700535D02*
X137548927Y-46950535D01*
X137548927Y-46950535D02*
X137477499Y-47057678D01*
X137477499Y-47057678D02*
X137406070Y-47129107D01*
X137406070Y-47129107D02*
X137334642Y-47164821D01*
X138441785Y-46950535D02*
X138084642Y-46950535D01*
X138084642Y-46950535D02*
X138048928Y-47307678D01*
X138048928Y-47307678D02*
X138084642Y-47271964D01*
X138084642Y-47271964D02*
X138156071Y-47236250D01*
X138156071Y-47236250D02*
X138334642Y-47236250D01*
X138334642Y-47236250D02*
X138406071Y-47271964D01*
X138406071Y-47271964D02*
X138441785Y-47307678D01*
X138441785Y-47307678D02*
X138477499Y-47379107D01*
X138477499Y-47379107D02*
X138477499Y-47557678D01*
X138477499Y-47557678D02*
X138441785Y-47629107D01*
X138441785Y-47629107D02*
X138406071Y-47664821D01*
X138406071Y-47664821D02*
X138334642Y-47700535D01*
X138334642Y-47700535D02*
X138156071Y-47700535D01*
X138156071Y-47700535D02*
X138084642Y-47664821D01*
X138084642Y-47664821D02*
X138048928Y-47629107D01*
X139227499Y-47629107D02*
X139191785Y-47664821D01*
X139191785Y-47664821D02*
X139084642Y-47700535D01*
X139084642Y-47700535D02*
X139013214Y-47700535D01*
X139013214Y-47700535D02*
X138906071Y-47664821D01*
X138906071Y-47664821D02*
X138834642Y-47593392D01*
X138834642Y-47593392D02*
X138798928Y-47521964D01*
X138798928Y-47521964D02*
X138763214Y-47379107D01*
X138763214Y-47379107D02*
X138763214Y-47271964D01*
X138763214Y-47271964D02*
X138798928Y-47129107D01*
X138798928Y-47129107D02*
X138834642Y-47057678D01*
X138834642Y-47057678D02*
X138906071Y-46986250D01*
X138906071Y-46986250D02*
X139013214Y-46950535D01*
X139013214Y-46950535D02*
X139084642Y-46950535D01*
X139084642Y-46950535D02*
X139191785Y-46986250D01*
X139191785Y-46986250D02*
X139227499Y-47021964D01*
X139513214Y-47486250D02*
X139870357Y-47486250D01*
X139441785Y-47700535D02*
X139691785Y-46950535D01*
X139691785Y-46950535D02*
X139941785Y-47700535D01*
X148877867Y-58818676D02*
X149377867Y-58818676D01*
X149377867Y-58818676D02*
X149056439Y-59568676D01*
X150020725Y-58818676D02*
X149663582Y-58818676D01*
X149663582Y-58818676D02*
X149627868Y-59175819D01*
X149627868Y-59175819D02*
X149663582Y-59140105D01*
X149663582Y-59140105D02*
X149735011Y-59104391D01*
X149735011Y-59104391D02*
X149913582Y-59104391D01*
X149913582Y-59104391D02*
X149985011Y-59140105D01*
X149985011Y-59140105D02*
X150020725Y-59175819D01*
X150020725Y-59175819D02*
X150056439Y-59247248D01*
X150056439Y-59247248D02*
X150056439Y-59425819D01*
X150056439Y-59425819D02*
X150020725Y-59497248D01*
X150020725Y-59497248D02*
X149985011Y-59532962D01*
X149985011Y-59532962D02*
X149913582Y-59568676D01*
X149913582Y-59568676D02*
X149735011Y-59568676D01*
X149735011Y-59568676D02*
X149663582Y-59532962D01*
X149663582Y-59532962D02*
X149627868Y-59497248D01*
X150806439Y-59568676D02*
X150556439Y-59211533D01*
X150377868Y-59568676D02*
X150377868Y-58818676D01*
X150377868Y-58818676D02*
X150663582Y-58818676D01*
X150663582Y-58818676D02*
X150735011Y-58854391D01*
X150735011Y-58854391D02*
X150770725Y-58890105D01*
X150770725Y-58890105D02*
X150806439Y-58961533D01*
X150806439Y-58961533D02*
X150806439Y-59068676D01*
X150806439Y-59068676D02*
X150770725Y-59140105D01*
X150770725Y-59140105D02*
X150735011Y-59175819D01*
X150735011Y-59175819D02*
X150663582Y-59211533D01*
X150663582Y-59211533D02*
X150377868Y-59211533D01*
X136835642Y-65467831D02*
X136835642Y-65896402D01*
X136835642Y-65682117D02*
X136085642Y-65682117D01*
X136085642Y-65682117D02*
X136192785Y-65753545D01*
X136192785Y-65753545D02*
X136264214Y-65824974D01*
X136264214Y-65824974D02*
X136299928Y-65896402D01*
X136085642Y-65003545D02*
X136085642Y-64932116D01*
X136085642Y-64932116D02*
X136121357Y-64860688D01*
X136121357Y-64860688D02*
X136157071Y-64824974D01*
X136157071Y-64824974D02*
X136228499Y-64789259D01*
X136228499Y-64789259D02*
X136371357Y-64753545D01*
X136371357Y-64753545D02*
X136549928Y-64753545D01*
X136549928Y-64753545D02*
X136692785Y-64789259D01*
X136692785Y-64789259D02*
X136764214Y-64824974D01*
X136764214Y-64824974D02*
X136799928Y-64860688D01*
X136799928Y-64860688D02*
X136835642Y-64932116D01*
X136835642Y-64932116D02*
X136835642Y-65003545D01*
X136835642Y-65003545D02*
X136799928Y-65074974D01*
X136799928Y-65074974D02*
X136764214Y-65110688D01*
X136764214Y-65110688D02*
X136692785Y-65146402D01*
X136692785Y-65146402D02*
X136549928Y-65182116D01*
X136549928Y-65182116D02*
X136371357Y-65182116D01*
X136371357Y-65182116D02*
X136228499Y-65146402D01*
X136228499Y-65146402D02*
X136157071Y-65110688D01*
X136157071Y-65110688D02*
X136121357Y-65074974D01*
X136121357Y-65074974D02*
X136085642Y-65003545D01*
X136085642Y-64289259D02*
X136085642Y-64217830D01*
X136085642Y-64217830D02*
X136121357Y-64146402D01*
X136121357Y-64146402D02*
X136157071Y-64110688D01*
X136157071Y-64110688D02*
X136228499Y-64074973D01*
X136228499Y-64074973D02*
X136371357Y-64039259D01*
X136371357Y-64039259D02*
X136549928Y-64039259D01*
X136549928Y-64039259D02*
X136692785Y-64074973D01*
X136692785Y-64074973D02*
X136764214Y-64110688D01*
X136764214Y-64110688D02*
X136799928Y-64146402D01*
X136799928Y-64146402D02*
X136835642Y-64217830D01*
X136835642Y-64217830D02*
X136835642Y-64289259D01*
X136835642Y-64289259D02*
X136799928Y-64360688D01*
X136799928Y-64360688D02*
X136764214Y-64396402D01*
X136764214Y-64396402D02*
X136692785Y-64432116D01*
X136692785Y-64432116D02*
X136549928Y-64467830D01*
X136549928Y-64467830D02*
X136371357Y-64467830D01*
X136371357Y-64467830D02*
X136228499Y-64432116D01*
X136228499Y-64432116D02*
X136157071Y-64396402D01*
X136157071Y-64396402D02*
X136121357Y-64360688D01*
X136121357Y-64360688D02*
X136085642Y-64289259D01*
X136335642Y-63717830D02*
X136835642Y-63717830D01*
X136407071Y-63717830D02*
X136371357Y-63682116D01*
X136371357Y-63682116D02*
X136335642Y-63610687D01*
X136335642Y-63610687D02*
X136335642Y-63503544D01*
X136335642Y-63503544D02*
X136371357Y-63432116D01*
X136371357Y-63432116D02*
X136442785Y-63396402D01*
X136442785Y-63396402D02*
X136835642Y-63396402D01*
X136442785Y-62789259D02*
X136442785Y-63039259D01*
X136835642Y-63039259D02*
X136085642Y-63039259D01*
X136085642Y-63039259D02*
X136085642Y-62682116D01*
X138871922Y-86063884D02*
X138443351Y-86063884D01*
X138657636Y-86063884D02*
X138657636Y-85313884D01*
X138657636Y-85313884D02*
X138586208Y-85421027D01*
X138586208Y-85421027D02*
X138514779Y-85492456D01*
X138514779Y-85492456D02*
X138443351Y-85528170D01*
X139336208Y-85313884D02*
X139407637Y-85313884D01*
X139407637Y-85313884D02*
X139479065Y-85349599D01*
X139479065Y-85349599D02*
X139514780Y-85385313D01*
X139514780Y-85385313D02*
X139550494Y-85456741D01*
X139550494Y-85456741D02*
X139586208Y-85599599D01*
X139586208Y-85599599D02*
X139586208Y-85778170D01*
X139586208Y-85778170D02*
X139550494Y-85921027D01*
X139550494Y-85921027D02*
X139514780Y-85992456D01*
X139514780Y-85992456D02*
X139479065Y-86028170D01*
X139479065Y-86028170D02*
X139407637Y-86063884D01*
X139407637Y-86063884D02*
X139336208Y-86063884D01*
X139336208Y-86063884D02*
X139264780Y-86028170D01*
X139264780Y-86028170D02*
X139229065Y-85992456D01*
X139229065Y-85992456D02*
X139193351Y-85921027D01*
X139193351Y-85921027D02*
X139157637Y-85778170D01*
X139157637Y-85778170D02*
X139157637Y-85599599D01*
X139157637Y-85599599D02*
X139193351Y-85456741D01*
X139193351Y-85456741D02*
X139229065Y-85385313D01*
X139229065Y-85385313D02*
X139264780Y-85349599D01*
X139264780Y-85349599D02*
X139336208Y-85313884D01*
X139907637Y-86063884D02*
X139907637Y-85313884D01*
X139979066Y-85778170D02*
X140193351Y-86063884D01*
X140193351Y-85563884D02*
X139907637Y-85849599D01*
X137479099Y-56531966D02*
X137145765Y-56531966D01*
X137145765Y-56531966D02*
X137145765Y-55831966D01*
X137645766Y-55831966D02*
X138112432Y-55831966D01*
X138112432Y-55831966D02*
X137812432Y-56531966D01*
X138479099Y-56131966D02*
X138412433Y-56098633D01*
X138412433Y-56098633D02*
X138379099Y-56065300D01*
X138379099Y-56065300D02*
X138345766Y-55998633D01*
X138345766Y-55998633D02*
X138345766Y-55965300D01*
X138345766Y-55965300D02*
X138379099Y-55898633D01*
X138379099Y-55898633D02*
X138412433Y-55865300D01*
X138412433Y-55865300D02*
X138479099Y-55831966D01*
X138479099Y-55831966D02*
X138612433Y-55831966D01*
X138612433Y-55831966D02*
X138679099Y-55865300D01*
X138679099Y-55865300D02*
X138712433Y-55898633D01*
X138712433Y-55898633D02*
X138745766Y-55965300D01*
X138745766Y-55965300D02*
X138745766Y-55998633D01*
X138745766Y-55998633D02*
X138712433Y-56065300D01*
X138712433Y-56065300D02*
X138679099Y-56098633D01*
X138679099Y-56098633D02*
X138612433Y-56131966D01*
X138612433Y-56131966D02*
X138479099Y-56131966D01*
X138479099Y-56131966D02*
X138412433Y-56165300D01*
X138412433Y-56165300D02*
X138379099Y-56198633D01*
X138379099Y-56198633D02*
X138345766Y-56265300D01*
X138345766Y-56265300D02*
X138345766Y-56398633D01*
X138345766Y-56398633D02*
X138379099Y-56465300D01*
X138379099Y-56465300D02*
X138412433Y-56498633D01*
X138412433Y-56498633D02*
X138479099Y-56531966D01*
X138479099Y-56531966D02*
X138612433Y-56531966D01*
X138612433Y-56531966D02*
X138679099Y-56498633D01*
X138679099Y-56498633D02*
X138712433Y-56465300D01*
X138712433Y-56465300D02*
X138745766Y-56398633D01*
X138745766Y-56398633D02*
X138745766Y-56265300D01*
X138745766Y-56265300D02*
X138712433Y-56198633D01*
X138712433Y-56198633D02*
X138679099Y-56165300D01*
X138679099Y-56165300D02*
X138612433Y-56131966D01*
X139379100Y-56531966D02*
X139045766Y-56531966D01*
X139045766Y-56531966D02*
X139045766Y-55831966D01*
X139545767Y-55831966D02*
X139979100Y-55831966D01*
X139979100Y-55831966D02*
X139745767Y-56098633D01*
X139745767Y-56098633D02*
X139845767Y-56098633D01*
X139845767Y-56098633D02*
X139912433Y-56131966D01*
X139912433Y-56131966D02*
X139945767Y-56165300D01*
X139945767Y-56165300D02*
X139979100Y-56231966D01*
X139979100Y-56231966D02*
X139979100Y-56398633D01*
X139979100Y-56398633D02*
X139945767Y-56465300D01*
X139945767Y-56465300D02*
X139912433Y-56498633D01*
X139912433Y-56498633D02*
X139845767Y-56531966D01*
X139845767Y-56531966D02*
X139645767Y-56531966D01*
X139645767Y-56531966D02*
X139579100Y-56498633D01*
X139579100Y-56498633D02*
X139545767Y-56465300D01*
X140212434Y-55831966D02*
X140645767Y-55831966D01*
X140645767Y-55831966D02*
X140412434Y-56098633D01*
X140412434Y-56098633D02*
X140512434Y-56098633D01*
X140512434Y-56098633D02*
X140579100Y-56131966D01*
X140579100Y-56131966D02*
X140612434Y-56165300D01*
X140612434Y-56165300D02*
X140645767Y-56231966D01*
X140645767Y-56231966D02*
X140645767Y-56398633D01*
X140645767Y-56398633D02*
X140612434Y-56465300D01*
X140612434Y-56465300D02*
X140579100Y-56498633D01*
X140579100Y-56498633D02*
X140512434Y-56531966D01*
X140512434Y-56531966D02*
X140312434Y-56531966D01*
X140312434Y-56531966D02*
X140245767Y-56498633D01*
X140245767Y-56498633D02*
X140212434Y-56465300D01*
X148564066Y-48886369D02*
X149028352Y-48886369D01*
X149028352Y-48886369D02*
X148778352Y-49172084D01*
X148778352Y-49172084D02*
X148885495Y-49172084D01*
X148885495Y-49172084D02*
X148956924Y-49207798D01*
X148956924Y-49207798D02*
X148992638Y-49243512D01*
X148992638Y-49243512D02*
X149028352Y-49314941D01*
X149028352Y-49314941D02*
X149028352Y-49493512D01*
X149028352Y-49493512D02*
X148992638Y-49564941D01*
X148992638Y-49564941D02*
X148956924Y-49600655D01*
X148956924Y-49600655D02*
X148885495Y-49636369D01*
X148885495Y-49636369D02*
X148671209Y-49636369D01*
X148671209Y-49636369D02*
X148599781Y-49600655D01*
X148599781Y-49600655D02*
X148564066Y-49564941D01*
X149349781Y-49564941D02*
X149385495Y-49600655D01*
X149385495Y-49600655D02*
X149349781Y-49636369D01*
X149349781Y-49636369D02*
X149314067Y-49600655D01*
X149314067Y-49600655D02*
X149349781Y-49564941D01*
X149349781Y-49564941D02*
X149349781Y-49636369D01*
X150028353Y-48886369D02*
X149885495Y-48886369D01*
X149885495Y-48886369D02*
X149814067Y-48922084D01*
X149814067Y-48922084D02*
X149778353Y-48957798D01*
X149778353Y-48957798D02*
X149706924Y-49064941D01*
X149706924Y-49064941D02*
X149671210Y-49207798D01*
X149671210Y-49207798D02*
X149671210Y-49493512D01*
X149671210Y-49493512D02*
X149706924Y-49564941D01*
X149706924Y-49564941D02*
X149742638Y-49600655D01*
X149742638Y-49600655D02*
X149814067Y-49636369D01*
X149814067Y-49636369D02*
X149956924Y-49636369D01*
X149956924Y-49636369D02*
X150028353Y-49600655D01*
X150028353Y-49600655D02*
X150064067Y-49564941D01*
X150064067Y-49564941D02*
X150099781Y-49493512D01*
X150099781Y-49493512D02*
X150099781Y-49314941D01*
X150099781Y-49314941D02*
X150064067Y-49243512D01*
X150064067Y-49243512D02*
X150028353Y-49207798D01*
X150028353Y-49207798D02*
X149956924Y-49172084D01*
X149956924Y-49172084D02*
X149814067Y-49172084D01*
X149814067Y-49172084D02*
X149742638Y-49207798D01*
X149742638Y-49207798D02*
X149706924Y-49243512D01*
X149706924Y-49243512D02*
X149671210Y-49314941D01*
X150314067Y-48886369D02*
X150564067Y-49636369D01*
X150564067Y-49636369D02*
X150814067Y-48886369D01*
X133637654Y-38614285D02*
X133637654Y-38995237D01*
X133637654Y-38995237D02*
X134018607Y-39033333D01*
X134018607Y-39033333D02*
X133980511Y-38995237D01*
X133980511Y-38995237D02*
X133942416Y-38919047D01*
X133942416Y-38919047D02*
X133942416Y-38728571D01*
X133942416Y-38728571D02*
X133980511Y-38652380D01*
X133980511Y-38652380D02*
X134018607Y-38614285D01*
X134018607Y-38614285D02*
X134094797Y-38576190D01*
X134094797Y-38576190D02*
X134285273Y-38576190D01*
X134285273Y-38576190D02*
X134361464Y-38614285D01*
X134361464Y-38614285D02*
X134399559Y-38652380D01*
X134399559Y-38652380D02*
X134437654Y-38728571D01*
X134437654Y-38728571D02*
X134437654Y-38919047D01*
X134437654Y-38919047D02*
X134399559Y-38995237D01*
X134399559Y-38995237D02*
X134361464Y-39033333D01*
X134437654Y-38233332D02*
X133637654Y-38233332D01*
X134132892Y-38157142D02*
X134437654Y-37928570D01*
X133904321Y-37928570D02*
X134209083Y-38233332D01*
X134437654Y-37166666D02*
X134437654Y-37623809D01*
X134437654Y-37395237D02*
X133637654Y-37395237D01*
X133637654Y-37395237D02*
X133751940Y-37471428D01*
X133751940Y-37471428D02*
X133828130Y-37547618D01*
X133828130Y-37547618D02*
X133866226Y-37623809D01*
X139310438Y-65174532D02*
X139310438Y-65631675D01*
X139310438Y-65403103D02*
X138510438Y-65403103D01*
X138510438Y-65403103D02*
X138624724Y-65479294D01*
X138624724Y-65479294D02*
X138700914Y-65555484D01*
X138700914Y-65555484D02*
X138739010Y-65631675D01*
X138510438Y-64679293D02*
X138510438Y-64603103D01*
X138510438Y-64603103D02*
X138548534Y-64526912D01*
X138548534Y-64526912D02*
X138586629Y-64488817D01*
X138586629Y-64488817D02*
X138662819Y-64450722D01*
X138662819Y-64450722D02*
X138815200Y-64412627D01*
X138815200Y-64412627D02*
X139005676Y-64412627D01*
X139005676Y-64412627D02*
X139158057Y-64450722D01*
X139158057Y-64450722D02*
X139234248Y-64488817D01*
X139234248Y-64488817D02*
X139272343Y-64526912D01*
X139272343Y-64526912D02*
X139310438Y-64603103D01*
X139310438Y-64603103D02*
X139310438Y-64679293D01*
X139310438Y-64679293D02*
X139272343Y-64755484D01*
X139272343Y-64755484D02*
X139234248Y-64793579D01*
X139234248Y-64793579D02*
X139158057Y-64831674D01*
X139158057Y-64831674D02*
X139005676Y-64869770D01*
X139005676Y-64869770D02*
X138815200Y-64869770D01*
X138815200Y-64869770D02*
X138662819Y-64831674D01*
X138662819Y-64831674D02*
X138586629Y-64793579D01*
X138586629Y-64793579D02*
X138548534Y-64755484D01*
X138548534Y-64755484D02*
X138510438Y-64679293D01*
X138777105Y-63726912D02*
X139310438Y-63726912D01*
X138777105Y-64069769D02*
X139196153Y-64069769D01*
X139196153Y-64069769D02*
X139272343Y-64031674D01*
X139272343Y-64031674D02*
X139310438Y-63955484D01*
X139310438Y-63955484D02*
X139310438Y-63841198D01*
X139310438Y-63841198D02*
X139272343Y-63765007D01*
X139272343Y-63765007D02*
X139234248Y-63726912D01*
X138891391Y-63079293D02*
X138891391Y-63345959D01*
X139310438Y-63345959D02*
X138510438Y-63345959D01*
X138510438Y-63345959D02*
X138510438Y-62965007D01*
D10*
%TO.C,*%
%TO.C,D44*%
X141283570Y-27893214D02*
X141354999Y-27928928D01*
X141354999Y-27928928D02*
X141390713Y-27964642D01*
X141390713Y-27964642D02*
X141426427Y-28036071D01*
X141426427Y-28036071D02*
X141426427Y-28250357D01*
X141426427Y-28250357D02*
X141390713Y-28321785D01*
X141390713Y-28321785D02*
X141354999Y-28357500D01*
X141354999Y-28357500D02*
X141283570Y-28393214D01*
X141283570Y-28393214D02*
X141176427Y-28393214D01*
X141176427Y-28393214D02*
X141104999Y-28357500D01*
X141104999Y-28357500D02*
X141069285Y-28321785D01*
X141069285Y-28321785D02*
X141033570Y-28250357D01*
X141033570Y-28250357D02*
X141033570Y-28036071D01*
X141033570Y-28036071D02*
X141069285Y-27964642D01*
X141069285Y-27964642D02*
X141104999Y-27928928D01*
X141104999Y-27928928D02*
X141176427Y-27893214D01*
X141176427Y-27893214D02*
X141283570Y-27893214D01*
X137940714Y-31034285D02*
X137940714Y-30534285D01*
X137940714Y-30284285D02*
X137905000Y-30320000D01*
X137905000Y-30320000D02*
X137940714Y-30355714D01*
X137940714Y-30355714D02*
X137976428Y-30320000D01*
X137976428Y-30320000D02*
X137940714Y-30284285D01*
X137940714Y-30284285D02*
X137940714Y-30355714D01*
X138297857Y-30534285D02*
X138297857Y-31034285D01*
X138297857Y-30605714D02*
X138333571Y-30570000D01*
X138333571Y-30570000D02*
X138405000Y-30534285D01*
X138405000Y-30534285D02*
X138512143Y-30534285D01*
X138512143Y-30534285D02*
X138583571Y-30570000D01*
X138583571Y-30570000D02*
X138619286Y-30641428D01*
X138619286Y-30641428D02*
X138619286Y-31034285D01*
X139072857Y-27444285D02*
X138715714Y-27444285D01*
X138715714Y-27444285D02*
X138680000Y-27801428D01*
X138680000Y-27801428D02*
X138715714Y-27765714D01*
X138715714Y-27765714D02*
X138787143Y-27730000D01*
X138787143Y-27730000D02*
X138965714Y-27730000D01*
X138965714Y-27730000D02*
X139037143Y-27765714D01*
X139037143Y-27765714D02*
X139072857Y-27801428D01*
X139072857Y-27801428D02*
X139108571Y-27872857D01*
X139108571Y-27872857D02*
X139108571Y-28051428D01*
X139108571Y-28051428D02*
X139072857Y-28122857D01*
X139072857Y-28122857D02*
X139037143Y-28158571D01*
X139037143Y-28158571D02*
X138965714Y-28194285D01*
X138965714Y-28194285D02*
X138787143Y-28194285D01*
X138787143Y-28194285D02*
X138715714Y-28158571D01*
X138715714Y-28158571D02*
X138680000Y-28122857D01*
X139358571Y-27694285D02*
X139537143Y-28194285D01*
X139537143Y-28194285D02*
X139715714Y-27694285D01*
X140406428Y-30340000D02*
X140335000Y-30304285D01*
X140335000Y-30304285D02*
X140227857Y-30304285D01*
X140227857Y-30304285D02*
X140120714Y-30340000D01*
X140120714Y-30340000D02*
X140049285Y-30411428D01*
X140049285Y-30411428D02*
X140013571Y-30482857D01*
X140013571Y-30482857D02*
X139977857Y-30625714D01*
X139977857Y-30625714D02*
X139977857Y-30732857D01*
X139977857Y-30732857D02*
X140013571Y-30875714D01*
X140013571Y-30875714D02*
X140049285Y-30947142D01*
X140049285Y-30947142D02*
X140120714Y-31018571D01*
X140120714Y-31018571D02*
X140227857Y-31054285D01*
X140227857Y-31054285D02*
X140299285Y-31054285D01*
X140299285Y-31054285D02*
X140406428Y-31018571D01*
X140406428Y-31018571D02*
X140442142Y-30982857D01*
X140442142Y-30982857D02*
X140442142Y-30732857D01*
X140442142Y-30732857D02*
X140299285Y-30732857D01*
%TO.C,D45*%
X153189820Y-27893214D02*
X153261249Y-27928928D01*
X153261249Y-27928928D02*
X153296963Y-27964642D01*
X153296963Y-27964642D02*
X153332677Y-28036071D01*
X153332677Y-28036071D02*
X153332677Y-28250357D01*
X153332677Y-28250357D02*
X153296963Y-28321785D01*
X153296963Y-28321785D02*
X153261249Y-28357500D01*
X153261249Y-28357500D02*
X153189820Y-28393214D01*
X153189820Y-28393214D02*
X153082677Y-28393214D01*
X153082677Y-28393214D02*
X153011249Y-28357500D01*
X153011249Y-28357500D02*
X152975535Y-28321785D01*
X152975535Y-28321785D02*
X152939820Y-28250357D01*
X152939820Y-28250357D02*
X152939820Y-28036071D01*
X152939820Y-28036071D02*
X152975535Y-27964642D01*
X152975535Y-27964642D02*
X153011249Y-27928928D01*
X153011249Y-27928928D02*
X153082677Y-27893214D01*
X153082677Y-27893214D02*
X153189820Y-27893214D01*
X150979107Y-27444285D02*
X150621964Y-27444285D01*
X150621964Y-27444285D02*
X150586250Y-27801428D01*
X150586250Y-27801428D02*
X150621964Y-27765714D01*
X150621964Y-27765714D02*
X150693393Y-27730000D01*
X150693393Y-27730000D02*
X150871964Y-27730000D01*
X150871964Y-27730000D02*
X150943393Y-27765714D01*
X150943393Y-27765714D02*
X150979107Y-27801428D01*
X150979107Y-27801428D02*
X151014821Y-27872857D01*
X151014821Y-27872857D02*
X151014821Y-28051428D01*
X151014821Y-28051428D02*
X150979107Y-28122857D01*
X150979107Y-28122857D02*
X150943393Y-28158571D01*
X150943393Y-28158571D02*
X150871964Y-28194285D01*
X150871964Y-28194285D02*
X150693393Y-28194285D01*
X150693393Y-28194285D02*
X150621964Y-28158571D01*
X150621964Y-28158571D02*
X150586250Y-28122857D01*
X151264821Y-27694285D02*
X151443393Y-28194285D01*
X151443393Y-28194285D02*
X151621964Y-27694285D01*
X152312678Y-30340000D02*
X152241250Y-30304285D01*
X152241250Y-30304285D02*
X152134107Y-30304285D01*
X152134107Y-30304285D02*
X152026964Y-30340000D01*
X152026964Y-30340000D02*
X151955535Y-30411428D01*
X151955535Y-30411428D02*
X151919821Y-30482857D01*
X151919821Y-30482857D02*
X151884107Y-30625714D01*
X151884107Y-30625714D02*
X151884107Y-30732857D01*
X151884107Y-30732857D02*
X151919821Y-30875714D01*
X151919821Y-30875714D02*
X151955535Y-30947142D01*
X151955535Y-30947142D02*
X152026964Y-31018571D01*
X152026964Y-31018571D02*
X152134107Y-31054285D01*
X152134107Y-31054285D02*
X152205535Y-31054285D01*
X152205535Y-31054285D02*
X152312678Y-31018571D01*
X152312678Y-31018571D02*
X152348392Y-30982857D01*
X152348392Y-30982857D02*
X152348392Y-30732857D01*
X152348392Y-30732857D02*
X152205535Y-30732857D01*
X149846964Y-31034285D02*
X149846964Y-30534285D01*
X149846964Y-30284285D02*
X149811250Y-30320000D01*
X149811250Y-30320000D02*
X149846964Y-30355714D01*
X149846964Y-30355714D02*
X149882678Y-30320000D01*
X149882678Y-30320000D02*
X149846964Y-30284285D01*
X149846964Y-30284285D02*
X149846964Y-30355714D01*
X150204107Y-30534285D02*
X150204107Y-31034285D01*
X150204107Y-30605714D02*
X150239821Y-30570000D01*
X150239821Y-30570000D02*
X150311250Y-30534285D01*
X150311250Y-30534285D02*
X150418393Y-30534285D01*
X150418393Y-30534285D02*
X150489821Y-30570000D01*
X150489821Y-30570000D02*
X150525536Y-30641428D01*
X150525536Y-30641428D02*
X150525536Y-31034285D01*
%TO.C,D6*%
X162043750Y-31250000D02*
X162043750Y-32250000D01*
X162143750Y-31750000D02*
X163043750Y-31250000D01*
X163043750Y-31250000D02*
X163043750Y-32250000D01*
X163043750Y-32250000D02*
X162143750Y-31750000D01*
D12*
%TO.C,RST1*%
X148492500Y-92321250D02*
X148492500Y-90241250D01*
X149762500Y-88561250D02*
X149272500Y-89051250D01*
X149762500Y-88561250D02*
X152662500Y-88561250D01*
X149762500Y-94001250D02*
X149272500Y-93511250D01*
X149762500Y-94001250D02*
X152662500Y-94001250D01*
X152662500Y-88561250D02*
X153152500Y-89051250D01*
X152662500Y-94001250D02*
X153152500Y-93511250D01*
X153932500Y-92321250D02*
X153932500Y-90241250D01*
%TO.C,F1*%
X156556250Y-36525000D02*
X156556250Y-33325000D01*
X156556250Y-36525000D02*
X154845250Y-36525000D01*
X156556250Y-33325000D02*
X149744250Y-33325000D01*
X153467250Y-36525000D02*
X146656250Y-36525000D01*
X148367250Y-33325000D02*
X146656250Y-33325000D01*
X146656250Y-36525000D02*
X146656250Y-33325000D01*
%TO.C,C8*%
X151330000Y-66563750D02*
X151345000Y-66563750D01*
X151330000Y-66563750D02*
X151330000Y-62023750D01*
X153455000Y-66563750D02*
X153470000Y-66563750D01*
X153470000Y-66563750D02*
X153470000Y-62023750D01*
X151330000Y-62023750D02*
X151345000Y-62023750D01*
X153455000Y-62023750D02*
X153470000Y-62023750D01*
%TO.C,R4*%
X136525000Y-35230000D02*
X136525000Y-36180000D01*
X137445000Y-36180000D02*
X135605000Y-36180000D01*
X135605000Y-36180000D02*
X135605000Y-40020000D01*
X137445000Y-40020000D02*
X137445000Y-36180000D01*
X135605000Y-40020000D02*
X137445000Y-40020000D01*
X136525000Y-40970000D02*
X136525000Y-40020000D01*
D10*
%TO.C,D4*%
X125912500Y-35425000D02*
X125912500Y-34425000D01*
X125812500Y-34925000D02*
X124912500Y-35425000D01*
X124912500Y-35425000D02*
X124912500Y-34425000D01*
X124912500Y-34425000D02*
X125812500Y-34925000D01*
D12*
%TO.C,C5*%
X135405000Y-66563750D02*
X135420000Y-66563750D01*
X135405000Y-66563750D02*
X135405000Y-62023750D01*
X137530000Y-66563750D02*
X137545000Y-66563750D01*
X137545000Y-66563750D02*
X137545000Y-62023750D01*
X135405000Y-62023750D02*
X135420000Y-62023750D01*
X137530000Y-62023750D02*
X137545000Y-62023750D01*
%TO.C,C6*%
X137981531Y-82079836D02*
X137981531Y-82064836D01*
X137981531Y-82079836D02*
X133441531Y-82079836D01*
X137981531Y-79954836D02*
X137981531Y-79939836D01*
X137981531Y-79939836D02*
X133441531Y-79939836D01*
X133441531Y-82079836D02*
X133441531Y-82064836D01*
X133441531Y-79954836D02*
X133441531Y-79939836D01*
D10*
%TO.C,D12*%
X128293750Y-51300000D02*
X128293750Y-50300000D01*
X128193750Y-50800000D02*
X127293750Y-51300000D01*
X127293750Y-51300000D02*
X127293750Y-50300000D01*
X127293750Y-50300000D02*
X128193750Y-50800000D01*
%TO.C,D3*%
X128293750Y-38600000D02*
X128293750Y-37600000D01*
X128193750Y-38100000D02*
X127293750Y-38600000D01*
X127293750Y-38600000D02*
X127293750Y-37600000D01*
X127293750Y-37600000D02*
X128193750Y-38100000D01*
%TO.C,D8*%
X162043750Y-37600000D02*
X162043750Y-38600000D01*
X162143750Y-38100000D02*
X163043750Y-37600000D01*
X163043750Y-37600000D02*
X163043750Y-38600000D01*
X163043750Y-38600000D02*
X162143750Y-38100000D01*
D12*
%TO.C,R3*%
X152888750Y-55981250D02*
X151938750Y-55981250D01*
X151938750Y-56901250D02*
X151938750Y-55061250D01*
X151938750Y-55061250D02*
X148098750Y-55061250D01*
X148098750Y-56901250D02*
X151938750Y-56901250D01*
X148098750Y-55061250D02*
X148098750Y-56901250D01*
X147148750Y-55981250D02*
X148098750Y-55981250D01*
D10*
%TO.C,D16*%
X164600000Y-59625000D02*
X164600000Y-60625000D01*
X164700000Y-60125000D02*
X165600000Y-59625000D01*
X165600000Y-59625000D02*
X165600000Y-60625000D01*
X165600000Y-60625000D02*
X164700000Y-60125000D01*
D12*
%TO.C,C1*%
X135695429Y-52380000D02*
X135680429Y-52380000D01*
X135695429Y-52380000D02*
X135695429Y-56920000D01*
X133570429Y-52380000D02*
X133555429Y-52380000D01*
X133555429Y-52380000D02*
X133555429Y-56920000D01*
X135695429Y-56920000D02*
X135680429Y-56920000D01*
X133570429Y-56920000D02*
X133555429Y-56920000D01*
D10*
%TO.C,D9*%
X164600000Y-40775000D02*
X164600000Y-41775000D01*
X164700000Y-41275000D02*
X165600000Y-40775000D01*
X165600000Y-40775000D02*
X165600000Y-41775000D01*
X165600000Y-41775000D02*
X164700000Y-41275000D01*
%TO.C,D24*%
X125912500Y-67175000D02*
X125912500Y-66175000D01*
X125812500Y-66675000D02*
X124912500Y-67175000D01*
X124912500Y-67175000D02*
X124912500Y-66175000D01*
X124912500Y-66175000D02*
X125812500Y-66675000D01*
%TO.C,D38*%
X164600000Y-85225000D02*
X164600000Y-86225000D01*
X164700000Y-85725000D02*
X165600000Y-85225000D01*
X165600000Y-85225000D02*
X165600000Y-86225000D01*
X165600000Y-86225000D02*
X164700000Y-85725000D01*
%TO.C,D29*%
X164600000Y-72525000D02*
X164600000Y-73525000D01*
X164700000Y-73025000D02*
X165600000Y-72525000D01*
X165600000Y-72525000D02*
X165600000Y-73525000D01*
X165600000Y-73525000D02*
X164700000Y-73025000D01*
D12*
%TO.C,R5*%
X134143750Y-35230000D02*
X134143750Y-36180000D01*
X135063750Y-36180000D02*
X133223750Y-36180000D01*
X133223750Y-36180000D02*
X133223750Y-40020000D01*
X135063750Y-40020000D02*
X135063750Y-36180000D01*
X133223750Y-40020000D02*
X135063750Y-40020000D01*
X134143750Y-40970000D02*
X134143750Y-40020000D01*
D10*
%TO.C,D18*%
X164600000Y-53475000D02*
X164600000Y-54475000D01*
X164700000Y-53975000D02*
X165600000Y-53475000D01*
X165600000Y-53475000D02*
X165600000Y-54475000D01*
X165600000Y-54475000D02*
X164700000Y-53975000D01*
%TO.C,D7*%
X164600000Y-34425000D02*
X164600000Y-35425000D01*
X164700000Y-34925000D02*
X165600000Y-34425000D01*
X165600000Y-34425000D02*
X165600000Y-35425000D01*
X165600000Y-35425000D02*
X164700000Y-34925000D01*
%TO.C,D34*%
X128293750Y-89400000D02*
X128293750Y-88400000D01*
X128193750Y-88900000D02*
X127293750Y-89400000D01*
X127293750Y-89400000D02*
X127293750Y-88400000D01*
X127293750Y-88400000D02*
X128193750Y-88900000D01*
%TO.C,D20*%
X164600000Y-47125000D02*
X164600000Y-48125000D01*
X164700000Y-47625000D02*
X165600000Y-47125000D01*
X165600000Y-47125000D02*
X165600000Y-48125000D01*
X165600000Y-48125000D02*
X164700000Y-47625000D01*
%TO.C,D13*%
X125912500Y-54475000D02*
X125912500Y-53475000D01*
X125812500Y-53975000D02*
X124912500Y-54475000D01*
X124912500Y-54475000D02*
X124912500Y-53475000D01*
X124912500Y-53475000D02*
X125812500Y-53975000D01*
D12*
%TO.C,D41*%
X142032500Y-49220966D02*
X134192500Y-49220966D01*
X142032500Y-48740966D02*
X142032500Y-49220966D01*
X142032500Y-45860966D02*
X142032500Y-45380966D01*
X142032500Y-45380966D02*
X134192500Y-45380966D01*
X140892500Y-49220966D02*
X140892500Y-45380966D01*
X140772500Y-49220966D02*
X140772500Y-45380966D01*
X140652500Y-49220966D02*
X140652500Y-45380966D01*
X134192500Y-49220966D02*
X134192500Y-48740966D01*
X134192500Y-45380966D02*
X134192500Y-45860966D01*
%TO.C,R2*%
X152888750Y-59156250D02*
X151938750Y-59156250D01*
X151938750Y-60076250D02*
X151938750Y-58236250D01*
X151938750Y-58236250D02*
X148098750Y-58236250D01*
X148098750Y-60076250D02*
X151938750Y-60076250D01*
X148098750Y-58236250D02*
X148098750Y-60076250D01*
X147148750Y-59156250D02*
X148098750Y-59156250D01*
D10*
%TO.C,D15*%
X125912500Y-60625000D02*
X125912500Y-59625000D01*
X125812500Y-60125000D02*
X124912500Y-60625000D01*
X124912500Y-60625000D02*
X124912500Y-59625000D01*
X124912500Y-59625000D02*
X125812500Y-60125000D01*
%TO.C,D33*%
X125912500Y-86225000D02*
X125912500Y-85225000D01*
X125812500Y-85725000D02*
X124912500Y-86225000D01*
X124912500Y-86225000D02*
X124912500Y-85225000D01*
X124912500Y-85225000D02*
X125812500Y-85725000D01*
D12*
%TO.C,R1*%
X152788750Y-52562500D02*
X151838750Y-52562500D01*
X151838750Y-53482500D02*
X151838750Y-51642500D01*
X151838750Y-51642500D02*
X147998750Y-51642500D01*
X147998750Y-53482500D02*
X151838750Y-53482500D01*
X147998750Y-51642500D02*
X147998750Y-53482500D01*
X147048750Y-52562500D02*
X147998750Y-52562500D01*
D10*
%TO.C,D10*%
X162218750Y-43950000D02*
X162218750Y-44950000D01*
X162318750Y-44450000D02*
X163218750Y-43950000D01*
X163218750Y-43950000D02*
X163218750Y-44950000D01*
X163218750Y-44950000D02*
X162318750Y-44450000D01*
%TO.C,D36*%
X164600000Y-91575000D02*
X164600000Y-92575000D01*
X164700000Y-92075000D02*
X165600000Y-91575000D01*
X165600000Y-91575000D02*
X165600000Y-92575000D01*
X165600000Y-92575000D02*
X164700000Y-92075000D01*
%TO.C,D19*%
X162218750Y-50300000D02*
X162218750Y-51300000D01*
X162318750Y-50800000D02*
X163218750Y-50300000D01*
X163218750Y-50300000D02*
X163218750Y-51300000D01*
X163218750Y-51300000D02*
X162318750Y-50800000D01*
D12*
%TO.C,D43*%
X152788750Y-49212500D02*
X152138750Y-49212500D01*
X152138750Y-50332500D02*
X152138750Y-48092500D01*
X152138750Y-48092500D02*
X147898750Y-48092500D01*
X151538750Y-50332500D02*
X151538750Y-48092500D01*
X151418750Y-50332500D02*
X151418750Y-48092500D01*
X151298750Y-50332500D02*
X151298750Y-48092500D01*
X147898750Y-50332500D02*
X152138750Y-50332500D01*
X147898750Y-48092500D02*
X147898750Y-50332500D01*
X147248750Y-49212500D02*
X147898750Y-49212500D01*
%TO.C,G\u002A\u002A\u002A*%
G36*
X140588588Y-82018052D02*
G01*
X140588588Y-82606321D01*
X140805752Y-82606321D01*
X141022917Y-82606321D01*
X141022917Y-82730022D01*
X141022917Y-82853723D01*
X140673804Y-82853723D01*
X140324692Y-82853723D01*
X140324692Y-82141753D01*
X140324692Y-81429784D01*
X140456640Y-81429784D01*
X140588588Y-81429784D01*
X140588588Y-82018052D01*
G37*
G36*
X144068718Y-81553485D02*
G01*
X144068718Y-81677186D01*
X143936769Y-81677186D01*
X143804821Y-81677186D01*
X143804821Y-82265455D01*
X143804821Y-82853723D01*
X143672898Y-82853723D01*
X143540975Y-82853723D01*
X143539576Y-82266829D01*
X143538176Y-81679935D01*
X143407603Y-81678461D01*
X143277029Y-81676987D01*
X143277029Y-81553385D01*
X143277029Y-81429784D01*
X143672873Y-81429784D01*
X144068718Y-81429784D01*
X144068718Y-81553485D01*
G37*
G36*
X150165817Y-81902268D02*
G01*
X150165817Y-82017393D01*
X149929410Y-82317112D01*
X149889942Y-82367192D01*
X149852537Y-82414735D01*
X149817744Y-82459040D01*
X149786111Y-82499404D01*
X149758186Y-82535125D01*
X149734517Y-82565503D01*
X149715652Y-82589833D01*
X149702140Y-82607416D01*
X149694529Y-82617548D01*
X149693003Y-82619822D01*
X149698319Y-82620435D01*
X149713540Y-82621006D01*
X149737573Y-82621521D01*
X149769329Y-82621969D01*
X149807715Y-82622334D01*
X149851642Y-82622605D01*
X149900016Y-82622769D01*
X149943155Y-82622814D01*
X150193306Y-82622814D01*
X150193306Y-82738269D01*
X150193306Y-82853723D01*
X149789215Y-82853723D01*
X149385124Y-82853723D01*
X149385348Y-82734145D01*
X149385571Y-82614567D01*
X149619006Y-82319106D01*
X149658237Y-82269410D01*
X149695400Y-82222258D01*
X149729940Y-82178356D01*
X149761307Y-82138410D01*
X149788947Y-82103125D01*
X149812308Y-82073207D01*
X149830838Y-82049362D01*
X149843984Y-82032297D01*
X149851194Y-82022715D01*
X149852440Y-82020848D01*
X149847142Y-82020223D01*
X149832041Y-82019647D01*
X149808333Y-82019135D01*
X149777212Y-82018704D01*
X149739871Y-82018369D01*
X149697504Y-82018147D01*
X149651306Y-82018054D01*
X149643523Y-82018052D01*
X149434605Y-82018052D01*
X149434605Y-81902598D01*
X149434605Y-81787143D01*
X149800211Y-81787143D01*
X150165817Y-81787143D01*
X150165817Y-81902268D01*
G37*
G36*
X147320687Y-81787332D02*
G01*
X147449287Y-82141989D01*
X147470889Y-82201448D01*
X147491416Y-82257718D01*
X147510558Y-82309971D01*
X147528009Y-82357377D01*
X147543460Y-82399107D01*
X147556605Y-82434332D01*
X147567134Y-82462222D01*
X147574742Y-82481948D01*
X147579119Y-82492682D01*
X147580079Y-82494454D01*
X147582184Y-82489013D01*
X147587542Y-82474021D01*
X147595858Y-82450332D01*
X147606836Y-82418802D01*
X147620180Y-82380284D01*
X147635594Y-82335635D01*
X147652781Y-82285709D01*
X147671447Y-82231362D01*
X147691295Y-82173448D01*
X147702372Y-82141077D01*
X147822473Y-81789892D01*
X147963925Y-81788423D01*
X148008425Y-81788063D01*
X148042965Y-81788045D01*
X148068575Y-81788409D01*
X148086287Y-81789196D01*
X148097131Y-81790447D01*
X148102138Y-81792203D01*
X148102667Y-81793921D01*
X148100270Y-81799878D01*
X148094022Y-81815343D01*
X148084200Y-81839634D01*
X148071080Y-81872067D01*
X148054939Y-81911959D01*
X148036052Y-81958627D01*
X148014698Y-82011388D01*
X147991151Y-82069559D01*
X147965689Y-82132456D01*
X147938587Y-82199397D01*
X147910124Y-82269698D01*
X147886798Y-82327305D01*
X147673640Y-82853723D01*
X147572623Y-82853723D01*
X147537026Y-82853684D01*
X147510872Y-82853444D01*
X147492607Y-82852822D01*
X147480677Y-82851638D01*
X147473530Y-82849709D01*
X147469613Y-82846853D01*
X147467371Y-82842891D01*
X147466752Y-82841353D01*
X147464054Y-82834617D01*
X147457524Y-82818386D01*
X147447447Y-82793362D01*
X147434104Y-82760246D01*
X147417778Y-82719740D01*
X147398754Y-82672546D01*
X147377312Y-82619365D01*
X147353737Y-82560900D01*
X147328311Y-82497853D01*
X147301318Y-82430924D01*
X147273039Y-82360816D01*
X147254532Y-82314935D01*
X147225639Y-82243309D01*
X147197890Y-82174511D01*
X147171562Y-82109233D01*
X147146936Y-82048167D01*
X147124290Y-81992005D01*
X147103902Y-81941439D01*
X147086053Y-81897161D01*
X147071021Y-81859862D01*
X147059085Y-81830235D01*
X147050523Y-81808973D01*
X147045616Y-81796765D01*
X147044518Y-81794015D01*
X147045920Y-81791828D01*
X147052684Y-81790131D01*
X147065815Y-81788875D01*
X147086321Y-81788011D01*
X147115207Y-81787488D01*
X147153479Y-81787257D01*
X147181279Y-81787238D01*
X147320687Y-81787332D01*
G37*
G36*
X144377756Y-81431084D02*
G01*
X144560345Y-81432533D01*
X144710268Y-81858615D01*
X144734498Y-81927472D01*
X144758518Y-81995729D01*
X144781957Y-82062325D01*
X144804440Y-82126201D01*
X144825594Y-82186295D01*
X144845047Y-82241549D01*
X144862424Y-82290902D01*
X144877353Y-82333293D01*
X144889461Y-82367664D01*
X144898374Y-82392953D01*
X144899856Y-82397154D01*
X144912867Y-82433898D01*
X144922792Y-82461341D01*
X144930153Y-82480572D01*
X144935472Y-82492675D01*
X144939271Y-82498740D01*
X144942071Y-82499852D01*
X144944395Y-82497098D01*
X144946052Y-82493367D01*
X144948751Y-82485968D01*
X144954806Y-82468913D01*
X144963963Y-82442928D01*
X144975967Y-82408744D01*
X144990563Y-82367088D01*
X145007496Y-82318688D01*
X145026512Y-82264274D01*
X145047355Y-82204574D01*
X145069771Y-82140316D01*
X145093506Y-82072228D01*
X145118304Y-82001041D01*
X145131523Y-81963074D01*
X145156708Y-81890733D01*
X145180912Y-81821231D01*
X145203886Y-81755283D01*
X145225379Y-81693607D01*
X145245141Y-81636917D01*
X145262923Y-81585931D01*
X145278475Y-81541365D01*
X145291546Y-81503934D01*
X145301888Y-81474356D01*
X145309250Y-81453345D01*
X145313383Y-81441619D01*
X145314182Y-81439405D01*
X145315864Y-81436788D01*
X145319410Y-81434691D01*
X145325933Y-81433058D01*
X145336542Y-81431830D01*
X145352351Y-81430952D01*
X145374469Y-81430365D01*
X145404008Y-81430013D01*
X145442080Y-81429839D01*
X145489796Y-81429785D01*
X145501492Y-81429784D01*
X145685081Y-81429784D01*
X145685081Y-82141753D01*
X145685081Y-82853723D01*
X145553133Y-82853723D01*
X145421185Y-82853723D01*
X145421185Y-82320109D01*
X145421140Y-82244608D01*
X145421009Y-82172346D01*
X145420798Y-82104067D01*
X145420514Y-82040511D01*
X145420163Y-81982420D01*
X145419750Y-81930537D01*
X145419283Y-81885603D01*
X145418768Y-81848361D01*
X145418211Y-81819552D01*
X145417617Y-81799918D01*
X145416994Y-81790202D01*
X145416704Y-81789264D01*
X145414349Y-81794745D01*
X145408708Y-81809945D01*
X145400021Y-81834169D01*
X145388529Y-81866721D01*
X145374474Y-81906908D01*
X145358096Y-81954032D01*
X145339637Y-82007400D01*
X145319339Y-82066315D01*
X145297441Y-82130084D01*
X145274186Y-82198010D01*
X145249814Y-82269398D01*
X145231562Y-82322987D01*
X145050901Y-82853940D01*
X144937833Y-82852457D01*
X144824765Y-82850974D01*
X144643289Y-82320624D01*
X144461813Y-81790274D01*
X144460411Y-82321999D01*
X144459009Y-82853723D01*
X144327088Y-82853723D01*
X144195168Y-82853723D01*
X144195168Y-82141679D01*
X144195168Y-81429635D01*
X144377756Y-81431084D01*
G37*
G36*
X145853538Y-82307939D02*
G01*
X146111534Y-82307939D01*
X146111535Y-82325931D01*
X146112004Y-82357018D01*
X146113309Y-82380338D01*
X146115887Y-82399113D01*
X146120172Y-82416564D01*
X146126265Y-82434978D01*
X146146960Y-82483475D01*
X146172667Y-82524873D01*
X146205679Y-82562727D01*
X146213700Y-82570507D01*
X146259359Y-82606545D01*
X146309402Y-82632925D01*
X146362711Y-82649338D01*
X146418169Y-82655478D01*
X146474660Y-82651037D01*
X146492751Y-82647336D01*
X146543994Y-82629727D01*
X146590919Y-82602435D01*
X146632796Y-82566172D01*
X146668894Y-82521647D01*
X146698486Y-82469571D01*
X146713923Y-82431903D01*
X146721645Y-82401703D01*
X146726649Y-82364622D01*
X146728776Y-82324472D01*
X146727865Y-82285066D01*
X146723756Y-82250217D01*
X146721918Y-82241398D01*
X146704346Y-82188262D01*
X146678093Y-82138455D01*
X146644453Y-82093365D01*
X146604723Y-82054379D01*
X146560199Y-82022882D01*
X146512176Y-82000263D01*
X146490286Y-81993483D01*
X146438358Y-81985405D01*
X146386488Y-81987580D01*
X146335801Y-81999320D01*
X146287420Y-82019933D01*
X146242469Y-82048730D01*
X146202072Y-82085022D01*
X146167354Y-82128118D01*
X146139438Y-82177327D01*
X146123357Y-82218723D01*
X146117807Y-82238426D01*
X146114225Y-82257702D01*
X146112253Y-82279793D01*
X146111534Y-82307939D01*
X145853538Y-82307939D01*
X145856743Y-82250677D01*
X145870480Y-82177816D01*
X145893779Y-82106982D01*
X145926604Y-82039153D01*
X145968917Y-81975303D01*
X146005789Y-81931750D01*
X146062780Y-81878316D01*
X146124256Y-81834348D01*
X146189334Y-81799720D01*
X146257131Y-81774304D01*
X146326765Y-81757974D01*
X146397350Y-81750601D01*
X146468004Y-81752059D01*
X146537844Y-81762219D01*
X146605987Y-81780956D01*
X146671548Y-81808141D01*
X146733646Y-81843648D01*
X146791395Y-81887349D01*
X146843914Y-81939116D01*
X146890318Y-81998823D01*
X146928945Y-82064784D01*
X146956954Y-82132299D01*
X146976046Y-82204616D01*
X146986032Y-82279847D01*
X146986719Y-82356103D01*
X146977919Y-82431496D01*
X146969733Y-82468938D01*
X146945536Y-82542468D01*
X146912351Y-82610419D01*
X146870950Y-82672269D01*
X146822109Y-82727497D01*
X146766601Y-82775582D01*
X146705201Y-82816002D01*
X146638682Y-82848236D01*
X146567819Y-82871763D01*
X146493386Y-82886062D01*
X146416157Y-82890610D01*
X146349625Y-82886508D01*
X146278285Y-82872802D01*
X146208295Y-82848967D01*
X146141182Y-82815866D01*
X146078474Y-82774364D01*
X146021699Y-82725324D01*
X145977233Y-82675833D01*
X145932808Y-82611281D01*
X145898170Y-82542905D01*
X145873282Y-82471681D01*
X145858107Y-82398585D01*
X145852606Y-82324592D01*
X145853538Y-82307939D01*
G37*
G36*
X148162629Y-82307939D02*
G01*
X148420625Y-82307939D01*
X148420626Y-82325931D01*
X148421095Y-82357018D01*
X148422400Y-82380338D01*
X148424978Y-82399113D01*
X148429262Y-82416564D01*
X148435356Y-82434978D01*
X148456051Y-82483475D01*
X148481758Y-82524873D01*
X148514770Y-82562727D01*
X148522790Y-82570507D01*
X148568450Y-82606545D01*
X148618493Y-82632925D01*
X148671801Y-82649338D01*
X148727260Y-82655478D01*
X148783751Y-82651037D01*
X148801842Y-82647336D01*
X148853085Y-82629727D01*
X148900010Y-82602435D01*
X148941886Y-82566172D01*
X148977985Y-82521647D01*
X149007577Y-82469571D01*
X149023014Y-82431903D01*
X149030736Y-82401703D01*
X149035740Y-82364622D01*
X149037867Y-82324472D01*
X149036956Y-82285066D01*
X149032847Y-82250217D01*
X149031009Y-82241398D01*
X149013437Y-82188262D01*
X148987184Y-82138455D01*
X148953544Y-82093365D01*
X148913814Y-82054379D01*
X148869290Y-82022882D01*
X148821267Y-82000263D01*
X148799376Y-81993483D01*
X148747449Y-81985405D01*
X148695579Y-81987580D01*
X148644892Y-81999320D01*
X148596511Y-82019933D01*
X148551560Y-82048730D01*
X148511163Y-82085022D01*
X148476445Y-82128118D01*
X148448529Y-82177327D01*
X148432448Y-82218723D01*
X148426898Y-82238426D01*
X148423316Y-82257702D01*
X148421344Y-82279793D01*
X148420625Y-82307939D01*
X148162629Y-82307939D01*
X148165834Y-82250677D01*
X148179571Y-82177816D01*
X148202870Y-82106982D01*
X148235695Y-82039153D01*
X148278008Y-81975303D01*
X148314880Y-81931750D01*
X148371871Y-81878316D01*
X148433347Y-81834348D01*
X148498425Y-81799720D01*
X148566222Y-81774304D01*
X148635855Y-81757974D01*
X148706441Y-81750601D01*
X148777095Y-81752059D01*
X148846935Y-81762219D01*
X148915078Y-81780956D01*
X148980639Y-81808141D01*
X149042737Y-81843648D01*
X149100486Y-81887349D01*
X149153005Y-81939116D01*
X149199409Y-81998823D01*
X149238036Y-82064784D01*
X149266045Y-82132299D01*
X149285137Y-82204616D01*
X149295123Y-82279847D01*
X149295810Y-82356103D01*
X149287010Y-82431496D01*
X149278824Y-82468938D01*
X149254627Y-82542468D01*
X149221442Y-82610419D01*
X149180041Y-82672269D01*
X149131200Y-82727497D01*
X149075692Y-82775582D01*
X149014292Y-82816002D01*
X148947773Y-82848236D01*
X148876910Y-82871763D01*
X148802477Y-82886062D01*
X148725248Y-82890610D01*
X148658716Y-82886508D01*
X148587376Y-82872802D01*
X148517386Y-82848967D01*
X148450273Y-82815866D01*
X148387565Y-82774364D01*
X148330790Y-82725324D01*
X148286324Y-82675833D01*
X148241899Y-82611281D01*
X148207261Y-82542905D01*
X148182373Y-82471681D01*
X148167197Y-82398585D01*
X148161697Y-82324592D01*
X148162629Y-82307939D01*
G37*
G36*
X141111733Y-82168359D02*
G01*
X141135895Y-82096156D01*
X141169601Y-82026858D01*
X141201614Y-81976818D01*
X141221845Y-81951374D01*
X141247649Y-81923143D01*
X141276321Y-81894747D01*
X141305157Y-81868810D01*
X141331452Y-81847955D01*
X141341791Y-81840890D01*
X141408530Y-81803635D01*
X141476491Y-81776557D01*
X141547818Y-81758874D01*
X141580410Y-81753920D01*
X141659833Y-81749158D01*
X141736618Y-81754799D01*
X141810091Y-81770426D01*
X141879579Y-81795622D01*
X141944407Y-81829972D01*
X142003903Y-81873060D01*
X142057392Y-81924468D01*
X142104201Y-81983780D01*
X142143656Y-82050581D01*
X142173711Y-82120589D01*
X142190189Y-82178049D01*
X142200691Y-82240170D01*
X142204901Y-82303328D01*
X142202505Y-82363896D01*
X142197780Y-82397403D01*
X142191122Y-82433139D01*
X141777452Y-82434548D01*
X141698509Y-82434844D01*
X141629891Y-82435167D01*
X141570926Y-82435531D01*
X141520943Y-82435952D01*
X141479270Y-82436443D01*
X141445237Y-82437018D01*
X141418171Y-82437693D01*
X141397403Y-82438481D01*
X141382259Y-82439397D01*
X141372071Y-82440455D01*
X141366165Y-82441670D01*
X141363870Y-82443057D01*
X141363782Y-82443430D01*
X141367120Y-82457332D01*
X141376132Y-82477110D01*
X141389322Y-82500308D01*
X141405192Y-82524469D01*
X141422243Y-82547136D01*
X141437574Y-82564446D01*
X141469507Y-82591857D01*
X141507307Y-82616354D01*
X141547347Y-82635947D01*
X141586002Y-82648647D01*
X141594067Y-82650337D01*
X141646732Y-82655578D01*
X141700036Y-82652629D01*
X141750889Y-82641881D01*
X141793639Y-82625043D01*
X141817701Y-82610166D01*
X141842779Y-82590254D01*
X141865750Y-82568167D01*
X141883488Y-82546761D01*
X141889187Y-82537641D01*
X141899573Y-82518355D01*
X142035525Y-82518355D01*
X142171476Y-82518355D01*
X142163603Y-82540670D01*
X142137786Y-82598477D01*
X142102350Y-82654507D01*
X142058666Y-82707428D01*
X142008103Y-82755909D01*
X141952029Y-82798620D01*
X141891813Y-82834230D01*
X141836596Y-82858593D01*
X141786907Y-82873423D01*
X141731189Y-82883916D01*
X141673498Y-82889628D01*
X141617892Y-82890114D01*
X141579677Y-82886738D01*
X141503224Y-82870737D01*
X141430249Y-82845106D01*
X141361996Y-82810456D01*
X141299707Y-82767402D01*
X141253390Y-82725687D01*
X141203790Y-82667709D01*
X141163158Y-82604310D01*
X141131566Y-82536531D01*
X141109087Y-82465412D01*
X141095792Y-82391994D01*
X141091753Y-82317319D01*
X141097043Y-82242427D01*
X141100109Y-82226970D01*
X141353673Y-82226970D01*
X141647364Y-82226970D01*
X141712842Y-82226933D01*
X141768132Y-82226810D01*
X141814045Y-82226579D01*
X141851387Y-82226218D01*
X141880967Y-82225708D01*
X141903595Y-82225026D01*
X141920078Y-82224151D01*
X141931226Y-82223063D01*
X141937845Y-82221740D01*
X141940746Y-82220162D01*
X141941055Y-82219302D01*
X141938552Y-82203557D01*
X141931892Y-82181543D01*
X141922349Y-82156552D01*
X141911196Y-82131879D01*
X141899706Y-82110815D01*
X141898132Y-82108324D01*
X141864620Y-82066139D01*
X141824355Y-82032457D01*
X141777879Y-82007559D01*
X141725734Y-81991721D01*
X141668464Y-81985222D01*
X141657641Y-81985065D01*
X141610542Y-81988490D01*
X141563385Y-81998114D01*
X141520146Y-82012964D01*
X141496923Y-82024440D01*
X141457435Y-82052745D01*
X141421637Y-82089436D01*
X141391387Y-82132057D01*
X141368546Y-82178150D01*
X141359198Y-82206353D01*
X141353673Y-82226970D01*
X141100109Y-82226970D01*
X141111733Y-82168359D01*
G37*
G36*
X142751986Y-81405192D02*
G01*
X142785561Y-81405347D01*
X142810719Y-81405914D01*
X142830038Y-81407219D01*
X142846097Y-81409588D01*
X142861474Y-81413345D01*
X142878748Y-81418818D01*
X142889701Y-81422575D01*
X142943504Y-81444447D01*
X142990085Y-81470822D01*
X143032950Y-81503793D01*
X143046640Y-81516254D01*
X143092329Y-81566312D01*
X143128107Y-81621054D01*
X143154176Y-81680855D01*
X143170219Y-81743160D01*
X143173894Y-81764913D01*
X143176619Y-81783794D01*
X143177855Y-81796035D01*
X143177876Y-81796764D01*
X143178068Y-81809134D01*
X143044012Y-81809134D01*
X142909957Y-81809134D01*
X142906642Y-81796764D01*
X142903855Y-81781383D01*
X142903251Y-81772902D01*
X142899857Y-81757469D01*
X142891122Y-81737199D01*
X142878983Y-81715495D01*
X142865379Y-81695761D01*
X142852247Y-81681401D01*
X142850221Y-81679754D01*
X142819288Y-81662486D01*
X142783031Y-81652344D01*
X142744787Y-81649677D01*
X142707888Y-81654832D01*
X142686012Y-81662633D01*
X142658528Y-81679799D01*
X142634386Y-81702909D01*
X142616612Y-81728785D01*
X142611296Y-81741067D01*
X142605721Y-81768022D01*
X142604561Y-81799869D01*
X142607702Y-81831482D01*
X142613847Y-81854816D01*
X142628036Y-81879668D01*
X142650498Y-81904299D01*
X142678736Y-81926264D01*
X142698194Y-81937542D01*
X142713030Y-81944212D01*
X142735655Y-81953346D01*
X142763427Y-81963922D01*
X142793707Y-81974920D01*
X142806370Y-81979361D01*
X142862268Y-81999443D01*
X142912356Y-82018843D01*
X142955323Y-82037016D01*
X142989860Y-82053415D01*
X143008373Y-82063579D01*
X143062481Y-82101901D01*
X143109848Y-82147764D01*
X143149397Y-82199826D01*
X143180049Y-82256744D01*
X143194688Y-82295693D01*
X143201723Y-82325826D01*
X143206839Y-82363473D01*
X143209870Y-82405293D01*
X143210650Y-82447945D01*
X143209013Y-82488087D01*
X143205700Y-82517105D01*
X143189645Y-82584120D01*
X143164149Y-82645967D01*
X143129768Y-82702051D01*
X143087059Y-82751779D01*
X143036580Y-82794555D01*
X142978887Y-82829786D01*
X142914538Y-82856878D01*
X142876642Y-82868061D01*
X142831823Y-82877036D01*
X142783803Y-82882544D01*
X142736643Y-82884317D01*
X142694406Y-82882088D01*
X142684186Y-82880737D01*
X142614258Y-82864942D01*
X142549160Y-82840217D01*
X142489609Y-82807285D01*
X142436326Y-82766867D01*
X142390029Y-82719689D01*
X142351436Y-82666472D01*
X142321268Y-82607939D01*
X142300241Y-82544815D01*
X142289650Y-82483898D01*
X142285881Y-82446691D01*
X142424991Y-82448162D01*
X142564100Y-82449632D01*
X142570951Y-82483231D01*
X142585054Y-82528898D01*
X142606904Y-82566969D01*
X142635982Y-82597019D01*
X142671770Y-82618619D01*
X142713751Y-82631342D01*
X142754766Y-82634858D01*
X142801364Y-82630078D01*
X142843196Y-82616508D01*
X142879296Y-82595052D01*
X142908697Y-82566611D01*
X142930432Y-82532087D01*
X142943533Y-82492381D01*
X142947159Y-82455437D01*
X142942605Y-82408964D01*
X142928884Y-82368527D01*
X142905909Y-82333959D01*
X142873593Y-82305092D01*
X142865910Y-82299930D01*
X142852202Y-82292419D01*
X142829986Y-82281771D01*
X142801029Y-82268765D01*
X142767099Y-82254177D01*
X142729963Y-82238787D01*
X142697008Y-82225581D01*
X142658036Y-82209929D01*
X142620306Y-82194244D01*
X142585691Y-82179344D01*
X142556065Y-82166050D01*
X142533304Y-82155181D01*
X142521077Y-82148653D01*
X142476014Y-82116611D01*
X142435105Y-82076989D01*
X142399959Y-82031911D01*
X142372184Y-81983499D01*
X142353391Y-81933880D01*
X142350843Y-81923962D01*
X142339618Y-81854441D01*
X142338725Y-81786821D01*
X142347736Y-81721904D01*
X142366222Y-81660492D01*
X142393754Y-81603385D01*
X142429906Y-81551385D01*
X142474247Y-81505293D01*
X142526351Y-81465909D01*
X142585787Y-81434036D01*
X142620038Y-81420490D01*
X142637450Y-81414624D01*
X142652474Y-81410470D01*
X142667605Y-81407738D01*
X142685338Y-81406139D01*
X142708171Y-81405385D01*
X142738597Y-81405184D01*
X142751986Y-81405192D01*
G37*
D10*
%TO.C,D5*%
X128293750Y-32250000D02*
X128293750Y-31250000D01*
X128193750Y-31750000D02*
X127293750Y-32250000D01*
X127293750Y-32250000D02*
X127293750Y-31250000D01*
X127293750Y-31250000D02*
X128193750Y-31750000D01*
D12*
%TO.C,U2*%
X140706250Y-52918750D02*
X137106250Y-52918750D01*
X138906250Y-57368750D02*
G75*
G03*
X140744728Y-52930272I0J2600000D01*
G01*
X137067772Y-52930272D02*
G75*
G03*
X138906250Y-57368750I1838478J-1838478D01*
G01*
%TO.C,C10*%
X137836250Y-66563750D02*
X137851250Y-66563750D01*
X137836250Y-66563750D02*
X137836250Y-62023750D01*
X139961250Y-66563750D02*
X139976250Y-66563750D01*
X139976250Y-66563750D02*
X139976250Y-62023750D01*
X137836250Y-62023750D02*
X137851250Y-62023750D01*
X139961250Y-62023750D02*
X139976250Y-62023750D01*
D10*
%TO.C,D23*%
X128293750Y-70350000D02*
X128293750Y-69350000D01*
X128193750Y-69850000D02*
X127293750Y-70350000D01*
X127293750Y-70350000D02*
X127293750Y-69350000D01*
X127293750Y-69350000D02*
X128193750Y-69850000D01*
%TO.C,D27*%
X164600000Y-66175000D02*
X164600000Y-67175000D01*
X164700000Y-66675000D02*
X165600000Y-66175000D01*
X165600000Y-66175000D02*
X165600000Y-67175000D01*
X165600000Y-67175000D02*
X164700000Y-66675000D01*
%TO.C,D2*%
X125912500Y-41775000D02*
X125912500Y-40775000D01*
X125812500Y-41275000D02*
X124912500Y-41775000D01*
X124912500Y-41775000D02*
X124912500Y-40775000D01*
X124912500Y-40775000D02*
X125812500Y-41275000D01*
D12*
%TO.C,C9*%
X152498053Y-77565515D02*
X152498053Y-77580515D01*
X152498053Y-77565515D02*
X157038053Y-77565515D01*
X152498053Y-79690515D02*
X152498053Y-79705515D01*
X152498053Y-79705515D02*
X157038053Y-79705515D01*
X157038053Y-77565515D02*
X157038053Y-77580515D01*
X157038053Y-79690515D02*
X157038053Y-79705515D01*
D10*
%TO.C,D39*%
X162218750Y-82050000D02*
X162218750Y-83050000D01*
X162318750Y-82550000D02*
X163218750Y-82050000D01*
X163218750Y-82050000D02*
X163218750Y-83050000D01*
X163218750Y-83050000D02*
X162318750Y-82550000D01*
%TO.C,D17*%
X162043750Y-56650000D02*
X162043750Y-57650000D01*
X162143750Y-57150000D02*
X163043750Y-56650000D01*
X163043750Y-56650000D02*
X163043750Y-57650000D01*
X163043750Y-57650000D02*
X162143750Y-57150000D01*
%TO.C,D40*%
X164600000Y-78875000D02*
X164600000Y-79875000D01*
X164700000Y-79375000D02*
X165600000Y-78875000D01*
X165600000Y-78875000D02*
X165600000Y-79875000D01*
X165600000Y-79875000D02*
X164700000Y-79375000D01*
%TO.C,D1*%
X128293750Y-44950000D02*
X128293750Y-43950000D01*
X128193750Y-44450000D02*
X127293750Y-44950000D01*
X127293750Y-44950000D02*
X127293750Y-43950000D01*
X127293750Y-43950000D02*
X128193750Y-44450000D01*
D12*
%TO.C,R6*%
X136430000Y-85725000D02*
X137380000Y-85725000D01*
X137380000Y-84805000D02*
X137380000Y-86645000D01*
X137380000Y-86645000D02*
X141220000Y-86645000D01*
X141220000Y-84805000D02*
X137380000Y-84805000D01*
X141220000Y-86645000D02*
X141220000Y-84805000D01*
X142170000Y-85725000D02*
X141220000Y-85725000D01*
D10*
%TO.C,D30*%
X162218750Y-75700000D02*
X162218750Y-76700000D01*
X162318750Y-76200000D02*
X163218750Y-75700000D01*
X163218750Y-75700000D02*
X163218750Y-76700000D01*
X163218750Y-76700000D02*
X162318750Y-76200000D01*
D12*
%TO.C,C7*%
X137981531Y-79648586D02*
X137981531Y-79633586D01*
X137981531Y-79648586D02*
X133441531Y-79648586D01*
X137981531Y-77523586D02*
X137981531Y-77508586D01*
X137981531Y-77508586D02*
X133441531Y-77508586D01*
X133441531Y-79648586D02*
X133441531Y-79633586D01*
X133441531Y-77523586D02*
X133441531Y-77508586D01*
%TO.C,U3*%
X142053750Y-38980000D02*
X142053750Y-37220000D01*
X138983750Y-37220000D02*
X138983750Y-39650000D01*
D10*
%TO.C,D31*%
X125912500Y-79875000D02*
X125912500Y-78875000D01*
X125812500Y-79375000D02*
X124912500Y-79875000D01*
X124912500Y-79875000D02*
X124912500Y-78875000D01*
X124912500Y-78875000D02*
X125812500Y-79375000D01*
%TO.C,D28*%
X162218750Y-69350000D02*
X162218750Y-70350000D01*
X162318750Y-69850000D02*
X163218750Y-69350000D01*
X163218750Y-69350000D02*
X163218750Y-70350000D01*
X163218750Y-70350000D02*
X162318750Y-69850000D01*
%TO.C,D11*%
X125912500Y-48125000D02*
X125912500Y-47125000D01*
X125812500Y-47625000D02*
X124912500Y-48125000D01*
X124912500Y-48125000D02*
X124912500Y-47125000D01*
X124912500Y-47125000D02*
X125812500Y-47625000D01*
D12*
%TO.C,D42*%
X152788750Y-45662500D02*
X152138750Y-45662500D01*
X152138750Y-46782500D02*
X152138750Y-44542500D01*
X152138750Y-44542500D02*
X147898750Y-44542500D01*
X151538750Y-46782500D02*
X151538750Y-44542500D01*
X151418750Y-46782500D02*
X151418750Y-44542500D01*
X151298750Y-46782500D02*
X151298750Y-44542500D01*
X147898750Y-46782500D02*
X152138750Y-46782500D01*
X147898750Y-44542500D02*
X147898750Y-46782500D01*
X147248750Y-45662500D02*
X147898750Y-45662500D01*
%TO.C,C3*%
X148942500Y-84655000D02*
X148942500Y-84670000D01*
X148942500Y-84655000D02*
X153482500Y-84655000D01*
X148942500Y-86780000D02*
X148942500Y-86795000D01*
X148942500Y-86795000D02*
X153482500Y-86795000D01*
X153482500Y-84655000D02*
X153482500Y-84670000D01*
X153482500Y-86780000D02*
X153482500Y-86795000D01*
D10*
%TO.C,D37*%
X162218750Y-88400000D02*
X162218750Y-89400000D01*
X162318750Y-88900000D02*
X163218750Y-88400000D01*
X163218750Y-88400000D02*
X163218750Y-89400000D01*
X163218750Y-89400000D02*
X162318750Y-88900000D01*
%TO.C,D21*%
X128293750Y-76700000D02*
X128293750Y-75700000D01*
X128193750Y-76200000D02*
X127293750Y-76700000D01*
X127293750Y-76700000D02*
X127293750Y-75700000D01*
X127293750Y-75700000D02*
X128193750Y-76200000D01*
D12*
%TO.C,C4*%
X152498053Y-79996765D02*
X152498053Y-80011765D01*
X152498053Y-79996765D02*
X157038053Y-79996765D01*
X152498053Y-82121765D02*
X152498053Y-82136765D01*
X152498053Y-82136765D02*
X157038053Y-82136765D01*
X157038053Y-79996765D02*
X157038053Y-80011765D01*
X157038053Y-82121765D02*
X157038053Y-82136765D01*
%TO.C,U1*%
X140146250Y-78263090D02*
X141096250Y-78263090D01*
X141096250Y-78263090D02*
X141096250Y-79603090D01*
X150366250Y-78263090D02*
X149416250Y-78263090D01*
X140146250Y-77313090D02*
X140146250Y-78263090D01*
X150366250Y-77313090D02*
X150366250Y-78263090D01*
X140146250Y-68993090D02*
X140146250Y-68043090D01*
X150366250Y-68993090D02*
X150366250Y-68043090D01*
X140146250Y-68043090D02*
X141096250Y-68043090D01*
X150366250Y-68043090D02*
X149416250Y-68043090D01*
D10*
%TO.C,D25*%
X128293750Y-64200000D02*
X128293750Y-63200000D01*
X128193750Y-63700000D02*
X127293750Y-64200000D01*
X127293750Y-64200000D02*
X127293750Y-63200000D01*
X127293750Y-63200000D02*
X128193750Y-63700000D01*
%TO.C,D22*%
X125912500Y-73525000D02*
X125912500Y-72525000D01*
X125812500Y-73025000D02*
X124912500Y-73525000D01*
X124912500Y-73525000D02*
X124912500Y-72525000D01*
X124912500Y-72525000D02*
X125812500Y-73025000D01*
D12*
%TO.C,C12*%
X145532500Y-35830000D02*
X145517500Y-35830000D01*
X145532500Y-35830000D02*
X145532500Y-40370000D01*
X143407500Y-35830000D02*
X143392500Y-35830000D01*
X143392500Y-35830000D02*
X143392500Y-40370000D01*
X145532500Y-40370000D02*
X145517500Y-40370000D01*
X143407500Y-40370000D02*
X143392500Y-40370000D01*
D10*
%TO.C,D32*%
X128293750Y-83050000D02*
X128293750Y-82050000D01*
X128193750Y-82550000D02*
X127293750Y-83050000D01*
X127293750Y-83050000D02*
X127293750Y-82050000D01*
X127293750Y-82050000D02*
X128193750Y-82550000D01*
D12*
%TO.C,C2*%
X144320429Y-52506860D02*
X144305429Y-52506860D01*
X144320429Y-52506860D02*
X144320429Y-57046860D01*
X142195429Y-52506860D02*
X142180429Y-52506860D01*
X142180429Y-52506860D02*
X142180429Y-57046860D01*
X144320429Y-57046860D02*
X144305429Y-57046860D01*
X142195429Y-57046860D02*
X142180429Y-57046860D01*
D10*
%TO.C,D14*%
X128293750Y-57650000D02*
X128293750Y-56650000D01*
X128193750Y-57150000D02*
X127293750Y-57650000D01*
X127293750Y-57650000D02*
X127293750Y-56650000D01*
X127293750Y-56650000D02*
X128193750Y-57150000D01*
D12*
%TO.C,SW1*%
X142020000Y-90241250D02*
X142020000Y-92321250D01*
X140750000Y-94001250D02*
X141240000Y-93511250D01*
X140750000Y-94001250D02*
X137850000Y-94001250D01*
X140750000Y-88561250D02*
X141240000Y-89051250D01*
X140750000Y-88561250D02*
X137850000Y-88561250D01*
X137850000Y-94001250D02*
X137360000Y-93511250D01*
X137850000Y-88561250D02*
X137360000Y-89051250D01*
X136580000Y-90241250D02*
X136580000Y-92321250D01*
D10*
%TO.C,D35*%
X125912500Y-92575000D02*
X125912500Y-91575000D01*
X125812500Y-92075000D02*
X124912500Y-92575000D01*
X124912500Y-92575000D02*
X124912500Y-91575000D01*
X124912500Y-91575000D02*
X125812500Y-92075000D01*
%TO.C,D26*%
X162218750Y-63200000D02*
X162218750Y-64200000D01*
X162318750Y-63700000D02*
X163218750Y-63200000D01*
X163218750Y-63200000D02*
X163218750Y-64200000D01*
X163218750Y-64200000D02*
X162318750Y-63700000D01*
D12*
%TO.C,D44*%
X142190000Y-29368750D02*
G75*
G03*
X142190000Y-29368750I-2490000J0D01*
G01*
%TO.C,D45*%
X154096250Y-29368750D02*
G75*
G03*
X154096250Y-29368750I-2490000J0D01*
G01*
%TD*%
%LPC*%
D13*
%TO.C,*%
X55137500Y-42862500D03*
%TD*%
D14*
%TO.C,D6*%
X160768749Y-31749999D03*
X164318749Y-31749999D03*
%TD*%
D15*
%TO.C,RST1*%
X148112500Y-89431250D03*
X154312500Y-89431250D03*
X148112500Y-93131250D03*
X154312500Y-93131250D03*
%TD*%
D16*
%TO.C,F1*%
X154156250Y-35525000D03*
X149056250Y-34325000D03*
%TD*%
D17*
%TO.C,C8*%
X152400000Y-66793750D03*
X152400000Y-61793750D03*
%TD*%
D18*
%TO.C,MX24*%
X85407500Y-71437500D03*
D19*
X90487500Y-71437500D03*
D18*
X95567500Y-71437500D03*
%TD*%
%TO.C,MX10*%
X252095000Y-33337500D03*
D19*
X257175000Y-33337500D03*
D18*
X262255000Y-33337500D03*
%TD*%
D20*
%TO.C,R4*%
X136525000Y-34290000D03*
D21*
X136524999Y-41909999D03*
%TD*%
D18*
%TO.C,MX19*%
X233045000Y-52387500D03*
D19*
X238125000Y-52387500D03*
D18*
X243205000Y-52387500D03*
%TD*%
%TO.C,MX5*%
X104457500Y-33337500D03*
D19*
X109537500Y-33337500D03*
D18*
X114617500Y-33337500D03*
%TD*%
%TO.C,MX6*%
X175895000Y-33337500D03*
D19*
X180975000Y-33337500D03*
D18*
X186055000Y-33337500D03*
%TD*%
D14*
%TO.C,D4*%
X127187499Y-34924999D03*
X123637499Y-34924999D03*
%TD*%
D18*
%TO.C,MX21*%
X28257500Y-71437500D03*
D19*
X33337500Y-71437500D03*
D18*
X38417500Y-71437500D03*
%TD*%
D13*
%TO.C,H6*%
X234387500Y-40736500D03*
%TD*%
D19*
%TO.C,S1*%
X202406250Y-82232500D03*
X178593750Y-82232500D03*
%TD*%
D17*
%TO.C,C5*%
X136475000Y-66793750D03*
X136475000Y-61793750D03*
%TD*%
D18*
%TO.C,MX4*%
X85407500Y-33337500D03*
D19*
X90487500Y-33337500D03*
D18*
X95567500Y-33337500D03*
%TD*%
D17*
%TO.C,C6*%
X138211531Y-81009836D03*
X133211531Y-81009836D03*
%TD*%
D18*
%TO.C,MX37*%
X175895000Y-90487500D03*
D19*
X180975000Y-90487500D03*
D18*
X186055000Y-90487500D03*
%TD*%
%TO.C,MX20*%
X252095000Y-52387500D03*
D19*
X257175000Y-52387500D03*
D18*
X262255000Y-52387500D03*
%TD*%
D19*
%TO.C,S2*%
X219075000Y-82232500D03*
X180975000Y-82232500D03*
%TD*%
D14*
%TO.C,D12*%
X129568749Y-50799999D03*
X126018749Y-50799999D03*
%TD*%
D18*
%TO.C,MX27*%
X194945000Y-71437500D03*
D19*
X200025000Y-71437500D03*
D18*
X205105000Y-71437500D03*
%TD*%
%TO.C,MX1*%
X28257500Y-33337500D03*
D19*
X33337500Y-33337500D03*
D18*
X38417500Y-33337500D03*
%TD*%
%TO.C,MX38*%
X185420000Y-90487500D03*
D19*
X190500000Y-90487500D03*
D18*
X195580000Y-90487500D03*
%TD*%
%TO.C,MX12*%
X47307500Y-52387500D03*
D19*
X52387500Y-52387500D03*
D18*
X57467500Y-52387500D03*
%TD*%
D14*
%TO.C,D3*%
X129568749Y-38099999D03*
X126018749Y-38099999D03*
%TD*%
%TO.C,D8*%
X160768749Y-38099999D03*
X164318749Y-38099999D03*
%TD*%
D20*
%TO.C,R3*%
X153828750Y-55981250D03*
D21*
X146208749Y-55981249D03*
%TD*%
D14*
%TO.C,D16*%
X163324999Y-60124999D03*
X166874999Y-60124999D03*
%TD*%
D18*
%TO.C,MX34*%
X85407500Y-90487500D03*
D19*
X90487500Y-90487500D03*
D18*
X95567500Y-90487500D03*
%TD*%
D17*
%TO.C,C1*%
X134625429Y-52150000D03*
X134625429Y-57150000D03*
%TD*%
D14*
%TO.C,D9*%
X163324999Y-41274999D03*
X166874999Y-41274999D03*
%TD*%
%TO.C,D24*%
X127187499Y-66674999D03*
X123637499Y-66674999D03*
%TD*%
D18*
%TO.C,MX41*%
X233045000Y-90487500D03*
D19*
X238125000Y-90487500D03*
D18*
X243205000Y-90487500D03*
%TD*%
D14*
%TO.C,D38*%
X163324999Y-85724999D03*
X166874999Y-85724999D03*
%TD*%
%TO.C,D29*%
X163324999Y-73024999D03*
X166874999Y-73024999D03*
%TD*%
D20*
%TO.C,R5*%
X134143750Y-34290000D03*
D21*
X134143749Y-41909999D03*
%TD*%
D18*
%TO.C,MX28*%
X213995000Y-71437500D03*
D19*
X219075000Y-71437500D03*
D18*
X224155000Y-71437500D03*
%TD*%
%TO.C,MX8*%
X213995000Y-33337500D03*
D19*
X219075000Y-33337500D03*
D18*
X224155000Y-33337500D03*
%TD*%
D14*
%TO.C,D18*%
X163324999Y-53974999D03*
X166874999Y-53974999D03*
%TD*%
D18*
%TO.C,MX18*%
X213995000Y-52387500D03*
D19*
X219075000Y-52387500D03*
D18*
X224155000Y-52387500D03*
%TD*%
D14*
%TO.C,D7*%
X163324999Y-34924999D03*
X166874999Y-34924999D03*
%TD*%
%TO.C,D34*%
X129568749Y-88899999D03*
X126018749Y-88899999D03*
%TD*%
%TO.C,D20*%
X163324999Y-47624999D03*
X166874999Y-47624999D03*
%TD*%
D18*
%TO.C,MX33*%
X66357500Y-90487500D03*
D19*
X71437500Y-90487500D03*
D18*
X76517500Y-90487500D03*
%TD*%
D14*
%TO.C,D13*%
X127187499Y-53974999D03*
X123637499Y-53974999D03*
%TD*%
D22*
%TO.C,D41*%
X143192499Y-47300965D03*
D23*
X133032499Y-47300965D03*
%TD*%
D20*
%TO.C,R2*%
X153828750Y-59156250D03*
D21*
X146208749Y-59156249D03*
%TD*%
D14*
%TO.C,D15*%
X127187499Y-60124999D03*
X123637499Y-60124999D03*
%TD*%
D18*
%TO.C,MX23*%
X66357500Y-71437500D03*
D19*
X71437500Y-71437500D03*
D18*
X76517500Y-71437500D03*
%TD*%
D14*
%TO.C,D33*%
X127187499Y-85724999D03*
X123637499Y-85724999D03*
%TD*%
D20*
%TO.C,R1*%
X153728750Y-52562500D03*
D21*
X146108749Y-52562499D03*
%TD*%
D14*
%TO.C,D10*%
X160943749Y-44449999D03*
X164493749Y-44449999D03*
%TD*%
%TO.C,D36*%
X163324999Y-92074999D03*
X166874999Y-92074999D03*
%TD*%
D18*
%TO.C,MX14*%
X85407500Y-52387500D03*
D19*
X90487500Y-52387500D03*
D18*
X95567500Y-52387500D03*
%TD*%
D14*
%TO.C,D19*%
X160943749Y-50799999D03*
X164493749Y-50799999D03*
%TD*%
D24*
%TO.C,D43*%
X153828749Y-49212499D03*
D25*
X146208749Y-49212499D03*
%TD*%
D14*
%TO.C,D5*%
X129568749Y-31749999D03*
X126018749Y-31749999D03*
%TD*%
D26*
%TO.C,U2*%
X140176249Y-54768749D03*
D27*
X138906249Y-54768749D03*
X137636249Y-54768749D03*
%TD*%
D17*
%TO.C,C10*%
X138906250Y-66793750D03*
X138906250Y-61793750D03*
%TD*%
D19*
%TO.C,S3*%
X109537500Y-82232500D03*
X71437500Y-82232500D03*
%TD*%
D14*
%TO.C,D23*%
X129568749Y-69849999D03*
X126018749Y-69849999D03*
%TD*%
D18*
%TO.C,MX17*%
X194945000Y-52387500D03*
D19*
X200025000Y-52387500D03*
D18*
X205105000Y-52387500D03*
%TD*%
D14*
%TO.C,D27*%
X163324999Y-66674999D03*
X166874999Y-66674999D03*
%TD*%
%TO.C,D2*%
X127187499Y-41274999D03*
X123637499Y-41274999D03*
%TD*%
D17*
%TO.C,C9*%
X152268053Y-78635515D03*
X157268053Y-78635515D03*
%TD*%
D18*
%TO.C,MX16*%
X175895000Y-52387500D03*
D19*
X180975000Y-52387500D03*
D18*
X186055000Y-52387500D03*
%TD*%
D14*
%TO.C,D39*%
X160943749Y-82549999D03*
X164493749Y-82549999D03*
%TD*%
%TO.C,D17*%
X160768749Y-57149999D03*
X164318749Y-57149999D03*
%TD*%
D18*
%TO.C,MX31*%
X28257500Y-90487500D03*
D19*
X33337500Y-90487500D03*
D18*
X38417500Y-90487500D03*
%TD*%
D19*
%TO.C,S4*%
X111918750Y-82232500D03*
X88106250Y-82232500D03*
%TD*%
D14*
%TO.C,D40*%
X163324999Y-79374999D03*
X166874999Y-79374999D03*
%TD*%
D18*
%TO.C,MX26*%
X175895000Y-71437500D03*
D19*
X180975000Y-71437500D03*
D18*
X186055000Y-71437500D03*
%TD*%
D14*
%TO.C,D1*%
X129568749Y-44449999D03*
X126018749Y-44449999D03*
%TD*%
D20*
%TO.C,R6*%
X135490000Y-85725000D03*
D21*
X143109999Y-85724999D03*
%TD*%
D14*
%TO.C,D30*%
X160943749Y-76199999D03*
X164493749Y-76199999D03*
%TD*%
D17*
%TO.C,C7*%
X138211531Y-78578586D03*
X133211531Y-78578586D03*
%TD*%
D18*
%TO.C,MX32*%
X47307500Y-90487500D03*
D19*
X52387500Y-90487500D03*
D18*
X57467500Y-90487500D03*
%TD*%
D28*
%TO.C,U3*%
X139543749Y-39809999D03*
X140493749Y-39809999D03*
X141443749Y-39809999D03*
X141443749Y-36389999D03*
X139543749Y-36389999D03*
%TD*%
D14*
%TO.C,D31*%
X127187499Y-79374999D03*
X123637499Y-79374999D03*
%TD*%
D18*
%TO.C,MX3*%
X66357500Y-33337500D03*
D19*
X71437500Y-33337500D03*
D18*
X76517500Y-33337500D03*
%TD*%
D14*
%TO.C,D28*%
X160943749Y-69849999D03*
X164493749Y-69849999D03*
%TD*%
D18*
%TO.C,MX29*%
X233045000Y-71437500D03*
D19*
X238125000Y-71437500D03*
D18*
X243205000Y-71437500D03*
%TD*%
%TO.C,MX39*%
X200025000Y-95567500D03*
D19*
X200025000Y-90487500D03*
D18*
X200025000Y-85407500D03*
%TD*%
D14*
%TO.C,D11*%
X127187499Y-47624999D03*
X123637499Y-47624999D03*
%TD*%
D18*
%TO.C,MX7*%
X194945000Y-33337500D03*
D19*
X200025000Y-33337500D03*
D18*
X205105000Y-33337500D03*
%TD*%
%TO.C,MX22*%
X47307500Y-71437500D03*
D19*
X52387500Y-71437500D03*
D18*
X57467500Y-71437500D03*
%TD*%
%TO.C,MX9*%
X243205000Y-33337500D03*
D19*
X238125000Y-33337500D03*
D18*
X233045000Y-33337500D03*
%TD*%
D24*
%TO.C,D42*%
X153828749Y-45662499D03*
D25*
X146208749Y-45662499D03*
%TD*%
D17*
%TO.C,C3*%
X148712500Y-85725000D03*
X153712500Y-85725000D03*
%TD*%
D14*
%TO.C,D37*%
X160943749Y-88899999D03*
X164493749Y-88899999D03*
%TD*%
%TO.C,D21*%
X129568749Y-76199999D03*
X126018749Y-76199999D03*
%TD*%
D17*
%TO.C,C4*%
X152268053Y-81066765D03*
X157268053Y-81066765D03*
%TD*%
D18*
%TO.C,MX15*%
X104457500Y-52387500D03*
D19*
X109537500Y-52387500D03*
D18*
X114617500Y-52387500D03*
%TD*%
D13*
%TO.C,*%
X206137500Y-89371500D03*
%TD*%
%TO.C,*%
X53537500Y-77636500D03*
%TD*%
D18*
%TO.C,MX25*%
X104457500Y-71437500D03*
D19*
X109537500Y-71437500D03*
D18*
X114617500Y-71437500D03*
%TD*%
%TO.C,MX36*%
X94932500Y-90487500D03*
D19*
X100012500Y-90487500D03*
D18*
X105092500Y-90487500D03*
%TD*%
%TO.C,MX13*%
X66357500Y-52387500D03*
D19*
X71437500Y-52387500D03*
D18*
X76517500Y-52387500D03*
%TD*%
D29*
%TO.C,U1*%
X141506250Y-78828090D03*
X142006250Y-78828090D03*
X142506250Y-78828090D03*
X143006250Y-78828090D03*
X143506250Y-78828090D03*
X144006250Y-78828090D03*
X144506250Y-78828090D03*
X145006250Y-78828090D03*
X145506250Y-78828090D03*
X146006250Y-78828090D03*
X146506250Y-78828090D03*
X147006250Y-78828090D03*
X147506250Y-78828090D03*
X148006250Y-78828090D03*
X148506250Y-78828090D03*
X149006250Y-78828090D03*
D30*
X150931250Y-76903090D03*
X150931250Y-76403090D03*
X150931250Y-75903090D03*
X150931250Y-75403090D03*
X150931250Y-74903090D03*
X150931250Y-74403090D03*
X150931250Y-73903090D03*
X150931250Y-73403090D03*
X150931250Y-72903090D03*
X150931250Y-72403090D03*
X150931250Y-71903090D03*
X150931250Y-71403090D03*
X150931250Y-70903090D03*
X150931250Y-70403090D03*
X150931250Y-69903090D03*
X150931250Y-69403090D03*
D29*
X149006250Y-67478090D03*
X148506250Y-67478090D03*
X148006250Y-67478090D03*
X147506250Y-67478090D03*
X147006250Y-67478090D03*
X146506250Y-67478090D03*
X146006250Y-67478090D03*
X145506250Y-67478090D03*
X145006250Y-67478090D03*
X144506250Y-67478090D03*
X144006250Y-67478090D03*
X143506250Y-67478090D03*
X143006250Y-67478090D03*
X142506250Y-67478090D03*
X142006250Y-67478090D03*
X141506250Y-67478090D03*
D30*
X139581250Y-69403090D03*
X139581250Y-69903090D03*
X139581250Y-70403090D03*
X139581250Y-70903090D03*
X139581250Y-71403090D03*
X139581250Y-71903090D03*
X139581250Y-72403090D03*
X139581250Y-72903090D03*
X139581250Y-73403090D03*
X139581250Y-73903090D03*
X139581250Y-74403090D03*
X139581250Y-74903090D03*
X139581250Y-75403090D03*
X139581250Y-75903090D03*
X139581250Y-76403090D03*
X139581250Y-76903090D03*
%TD*%
D18*
%TO.C,MX40*%
X213995000Y-90487500D03*
D19*
X219075000Y-90487500D03*
D18*
X224155000Y-90487500D03*
%TD*%
D14*
%TO.C,D25*%
X129568749Y-63699999D03*
X126018749Y-63699999D03*
%TD*%
%TO.C,D22*%
X127187499Y-73024999D03*
X123637499Y-73024999D03*
%TD*%
D17*
%TO.C,C12*%
X144462500Y-35600000D03*
X144462500Y-40600000D03*
%TD*%
D18*
%TO.C,MX2*%
X47307500Y-33337500D03*
D19*
X52387500Y-33337500D03*
D18*
X57467500Y-33337500D03*
%TD*%
D14*
%TO.C,D32*%
X129568749Y-82549999D03*
X126018749Y-82549999D03*
%TD*%
D18*
%TO.C,MX11*%
X28257500Y-52387500D03*
D19*
X33337500Y-52387500D03*
D18*
X38417500Y-52387500D03*
%TD*%
%TO.C,MX42*%
X252095000Y-90487500D03*
D19*
X257175000Y-90487500D03*
D18*
X262255000Y-90487500D03*
%TD*%
%TO.C,MX30*%
X252095000Y-71437500D03*
D19*
X257175000Y-71437500D03*
D18*
X262255000Y-71437500D03*
%TD*%
%TO.C,MX35*%
X104457500Y-90487500D03*
D19*
X109537500Y-90487500D03*
D18*
X114617500Y-90487500D03*
%TD*%
D17*
%TO.C,C2*%
X143250429Y-52276860D03*
X143250429Y-57276860D03*
%TD*%
D14*
%TO.C,D14*%
X129568749Y-57149999D03*
X126018749Y-57149999D03*
%TD*%
D31*
%TO.C,SW1*%
X142400000Y-93131250D03*
X136200000Y-93131250D03*
X142400000Y-89431250D03*
X136200000Y-89431250D03*
%TD*%
D14*
%TO.C,D35*%
X127187499Y-92074999D03*
X123637499Y-92074999D03*
%TD*%
%TO.C,D26*%
X160943749Y-63699999D03*
X164493749Y-63699999D03*
%TD*%
D32*
%TO.C,D44*%
X139074999Y-29368749D03*
X141549999Y-29368749D03*
X140324999Y-29368749D03*
X137849999Y-29368749D03*
%TD*%
%TO.C,D45*%
X150981249Y-29368749D03*
X153456249Y-29368749D03*
X152231249Y-29368749D03*
X149756249Y-29368749D03*
%TD*%
D33*
%TO.C,J1*%
X233938179Y-29918750D03*
X234788179Y-29918750D03*
X235638179Y-29918750D03*
X236488179Y-29918750D03*
X237338179Y-29918750D03*
X238188179Y-29918750D03*
X239038179Y-29918750D03*
X239888179Y-29918750D03*
X239888179Y-28568750D03*
X239038179Y-28568750D03*
X238188179Y-28568750D03*
X237338179Y-28568750D03*
X236488179Y-28568750D03*
X235638179Y-28568750D03*
X234788179Y-28568750D03*
X233938179Y-28568750D03*
D34*
X232588178Y-25558749D03*
D35*
X232588178Y-28938749D03*
D34*
X241238178Y-25558749D03*
D35*
X241238178Y-28938749D03*
%TD*%
M02*
