%TF.GenerationSoftware,KiCad,Pcbnew,(7.0.0)*%
%TF.CreationDate,2024-04-29T17:21:40+02:00*%
%TF.ProjectId,LeSTMovoz revision,4c655354-4d6f-4766-9f7a-207265766973,rev?*%
%TF.SameCoordinates,Original*%
%TF.FileFunction,Paste,Top*%
%TF.FilePolarity,Positive*%
%FSLAX46Y46*%
G04 Gerber Fmt 4.6, Leading zero omitted, Abs format (unit mm)*
G04 Created by KiCad (PCBNEW (7.0.0)) date 2024-04-29 17:21:40*
%MOMM*%
%LPD*%
G01*
G04 APERTURE LIST*
G04 Aperture macros list*
%AMRoundRect*
0 Rectangle with rounded corners*
0 $1 Rounding radius*
0 $2 $3 $4 $5 $6 $7 $8 $9 X,Y pos of 4 corners*
0 Add a 4 corners polygon primitive as box body*
4,1,4,$2,$3,$4,$5,$6,$7,$8,$9,$2,$3,0*
0 Add four circle primitives for the rounded corners*
1,1,$1+$1,$2,$3*
1,1,$1+$1,$4,$5*
1,1,$1+$1,$6,$7*
1,1,$1+$1,$8,$9*
0 Add four rect primitives between the rounded corners*
20,1,$1+$1,$2,$3,$4,$5,0*
20,1,$1+$1,$4,$5,$6,$7,0*
20,1,$1+$1,$6,$7,$8,$9,0*
20,1,$1+$1,$8,$9,$2,$3,0*%
G04 Aperture macros list end*
%ADD10R,1.400000X1.300000*%
%ADD11R,0.650000X2.000000*%
%ADD12RoundRect,0.075000X0.075000X-0.700000X0.075000X0.700000X-0.075000X0.700000X-0.075000X-0.700000X0*%
%ADD13RoundRect,0.075000X0.700000X-0.075000X0.700000X0.075000X-0.700000X0.075000X-0.700000X-0.075000X0*%
G04 APERTURE END LIST*
D10*
%TO.C,D6*%
X160768749Y-31749999D03*
X164318749Y-31749999D03*
%TD*%
%TO.C,D4*%
X127187499Y-34924999D03*
X123637499Y-34924999D03*
%TD*%
%TO.C,D12*%
X129568749Y-50799999D03*
X126018749Y-50799999D03*
%TD*%
%TO.C,D3*%
X129568749Y-38099999D03*
X126018749Y-38099999D03*
%TD*%
%TO.C,D8*%
X160768749Y-38099999D03*
X164318749Y-38099999D03*
%TD*%
%TO.C,D16*%
X163324999Y-60124999D03*
X166874999Y-60124999D03*
%TD*%
%TO.C,D9*%
X163324999Y-41274999D03*
X166874999Y-41274999D03*
%TD*%
%TO.C,D24*%
X127187499Y-66674999D03*
X123637499Y-66674999D03*
%TD*%
%TO.C,D38*%
X163324999Y-85724999D03*
X166874999Y-85724999D03*
%TD*%
%TO.C,D29*%
X163324999Y-73024999D03*
X166874999Y-73024999D03*
%TD*%
%TO.C,D18*%
X163324999Y-53974999D03*
X166874999Y-53974999D03*
%TD*%
%TO.C,D7*%
X163324999Y-34924999D03*
X166874999Y-34924999D03*
%TD*%
%TO.C,D34*%
X129568749Y-88899999D03*
X126018749Y-88899999D03*
%TD*%
%TO.C,D20*%
X163324999Y-47624999D03*
X166874999Y-47624999D03*
%TD*%
%TO.C,D13*%
X127187499Y-53974999D03*
X123637499Y-53974999D03*
%TD*%
%TO.C,D15*%
X127187499Y-60124999D03*
X123637499Y-60124999D03*
%TD*%
%TO.C,D33*%
X127187499Y-85724999D03*
X123637499Y-85724999D03*
%TD*%
%TO.C,D10*%
X160943749Y-44449999D03*
X164493749Y-44449999D03*
%TD*%
%TO.C,D36*%
X163324999Y-92074999D03*
X166874999Y-92074999D03*
%TD*%
%TO.C,D19*%
X160943749Y-50799999D03*
X164493749Y-50799999D03*
%TD*%
%TO.C,D5*%
X129568749Y-31749999D03*
X126018749Y-31749999D03*
%TD*%
%TO.C,D23*%
X129568749Y-69849999D03*
X126018749Y-69849999D03*
%TD*%
%TO.C,D27*%
X163324999Y-66674999D03*
X166874999Y-66674999D03*
%TD*%
%TO.C,D2*%
X127187499Y-41274999D03*
X123637499Y-41274999D03*
%TD*%
%TO.C,D39*%
X160943749Y-82549999D03*
X164493749Y-82549999D03*
%TD*%
%TO.C,D17*%
X160768749Y-57149999D03*
X164318749Y-57149999D03*
%TD*%
%TO.C,D40*%
X163324999Y-79374999D03*
X166874999Y-79374999D03*
%TD*%
%TO.C,D1*%
X129568749Y-44449999D03*
X126018749Y-44449999D03*
%TD*%
%TO.C,D30*%
X160943749Y-76199999D03*
X164493749Y-76199999D03*
%TD*%
D11*
%TO.C,U3*%
X141131249Y-39809999D03*
X142081249Y-39809999D03*
X143031249Y-39809999D03*
X143031249Y-36389999D03*
X141131249Y-36389999D03*
%TD*%
D10*
%TO.C,D31*%
X127187499Y-79374999D03*
X123637499Y-79374999D03*
%TD*%
%TO.C,D28*%
X160943749Y-69849999D03*
X164493749Y-69849999D03*
%TD*%
%TO.C,D11*%
X127187499Y-47624999D03*
X123637499Y-47624999D03*
%TD*%
%TO.C,D37*%
X160943749Y-88899999D03*
X164493749Y-88899999D03*
%TD*%
%TO.C,D21*%
X129568749Y-76199999D03*
X126018749Y-76199999D03*
%TD*%
D12*
%TO.C,U1*%
X141506250Y-75343597D03*
X142006250Y-75343597D03*
X142506250Y-75343597D03*
X143006250Y-75343597D03*
X143506250Y-75343597D03*
X144006250Y-75343597D03*
X144506250Y-75343597D03*
X145006250Y-75343597D03*
X145506250Y-75343597D03*
X146006250Y-75343597D03*
X146506250Y-75343597D03*
X147006250Y-75343597D03*
X147506250Y-75343597D03*
X148006250Y-75343597D03*
X148506250Y-75343597D03*
X149006250Y-75343597D03*
D13*
X150931250Y-73418597D03*
X150931250Y-72918597D03*
X150931250Y-72418597D03*
X150931250Y-71918597D03*
X150931250Y-71418597D03*
X150931250Y-70918597D03*
X150931250Y-70418597D03*
X150931250Y-69918597D03*
X150931250Y-69418597D03*
X150931250Y-68918597D03*
X150931250Y-68418597D03*
X150931250Y-67918597D03*
X150931250Y-67418597D03*
X150931250Y-66918597D03*
X150931250Y-66418597D03*
X150931250Y-65918597D03*
D12*
X149006250Y-63993597D03*
X148506250Y-63993597D03*
X148006250Y-63993597D03*
X147506250Y-63993597D03*
X147006250Y-63993597D03*
X146506250Y-63993597D03*
X146006250Y-63993597D03*
X145506250Y-63993597D03*
X145006250Y-63993597D03*
X144506250Y-63993597D03*
X144006250Y-63993597D03*
X143506250Y-63993597D03*
X143006250Y-63993597D03*
X142506250Y-63993597D03*
X142006250Y-63993597D03*
X141506250Y-63993597D03*
D13*
X139581250Y-65918597D03*
X139581250Y-66418597D03*
X139581250Y-66918597D03*
X139581250Y-67418597D03*
X139581250Y-67918597D03*
X139581250Y-68418597D03*
X139581250Y-68918597D03*
X139581250Y-69418597D03*
X139581250Y-69918597D03*
X139581250Y-70418597D03*
X139581250Y-70918597D03*
X139581250Y-71418597D03*
X139581250Y-71918597D03*
X139581250Y-72418597D03*
X139581250Y-72918597D03*
X139581250Y-73418597D03*
%TD*%
D10*
%TO.C,D25*%
X129568749Y-63699999D03*
X126018749Y-63699999D03*
%TD*%
%TO.C,D22*%
X127187499Y-73024999D03*
X123637499Y-73024999D03*
%TD*%
%TO.C,D32*%
X129568749Y-82549999D03*
X126018749Y-82549999D03*
%TD*%
%TO.C,D14*%
X129568749Y-57149999D03*
X126018749Y-57149999D03*
%TD*%
%TO.C,D35*%
X127187499Y-92074999D03*
X123637499Y-92074999D03*
%TD*%
%TO.C,D26*%
X160943749Y-63699999D03*
X164493749Y-63699999D03*
%TD*%
M02*
