%TF.GenerationSoftware,KiCad,Pcbnew,(7.0.0)*%
%TF.CreationDate,2024-04-29T17:21:40+02:00*%
%TF.ProjectId,LeSTMovoz revision,4c655354-4d6f-4766-9f7a-207265766973,rev?*%
%TF.SameCoordinates,Original*%
%TF.FileFunction,Legend,Top*%
%TF.FilePolarity,Positive*%
%FSLAX46Y46*%
G04 Gerber Fmt 4.6, Leading zero omitted, Abs format (unit mm)*
G04 Created by KiCad (PCBNEW (7.0.0)) date 2024-04-29 17:21:40*
%MOMM*%
%LPD*%
G01*
G04 APERTURE LIST*
G04 Aperture macros list*
%AMRoundRect*
0 Rectangle with rounded corners*
0 $1 Rounding radius*
0 $2 $3 $4 $5 $6 $7 $8 $9 X,Y pos of 4 corners*
0 Add a 4 corners polygon primitive as box body*
4,1,4,$2,$3,$4,$5,$6,$7,$8,$9,$2,$3,0*
0 Add four circle primitives for the rounded corners*
1,1,$1+$1,$2,$3*
1,1,$1+$1,$4,$5*
1,1,$1+$1,$6,$7*
1,1,$1+$1,$8,$9*
0 Add four rect primitives between the rounded corners*
20,1,$1+$1,$2,$3,$4,$5,0*
20,1,$1+$1,$4,$5,$6,$7,0*
20,1,$1+$1,$6,$7,$8,$9,0*
20,1,$1+$1,$8,$9,$2,$3,0*%
G04 Aperture macros list end*
%ADD10C,0.150000*%
%ADD11C,0.125000*%
%ADD12C,0.120000*%
%ADD13C,4.400000*%
%ADD14R,1.778000X1.300000*%
%ADD15R,1.400000X1.300000*%
%ADD16O,1.778000X1.300000*%
%ADD17C,2.000000*%
%ADD18C,1.400000*%
%ADD19O,1.400000X1.400000*%
%ADD20C,1.710000*%
%ADD21C,1.600000*%
%ADD22C,1.701800*%
%ADD23C,3.987800*%
%ADD24R,1.600000X1.600000*%
%ADD25O,1.600000X1.600000*%
%ADD26R,2.400000X2.400000*%
%ADD27O,2.400000X2.400000*%
%ADD28R,1.050000X1.500000*%
%ADD29O,1.050000X1.500000*%
%ADD30R,0.650000X2.000000*%
%ADD31RoundRect,0.075000X0.075000X-0.700000X0.075000X0.700000X-0.075000X0.700000X-0.075000X-0.700000X0*%
%ADD32RoundRect,0.075000X0.700000X-0.075000X0.700000X0.075000X-0.700000X0.075000X-0.700000X-0.075000X0*%
%ADD33O,1.000000X1.500000*%
%ADD34C,0.700000*%
%ADD35O,0.900000X1.700000*%
%ADD36O,0.900000X2.400000*%
G04 APERTURE END LIST*
D10*
G36*
X141096250Y-74778597D02*
G01*
X140146250Y-74778597D01*
X140146250Y-73828597D01*
X141096250Y-74778597D01*
G37*
X141096250Y-74778597D02*
X140146250Y-74778597D01*
X140146250Y-73828597D01*
X141096250Y-74778597D01*
X155575000Y-41275000D02*
G75*
G03*
X155575000Y-41275000I-2381250J0D01*
G01*
X153193750Y-38893750D02*
X153193750Y-36116000D01*
X142500000Y-81062500D02*
X145700000Y-81062500D01*
D11*
X138812068Y-84147481D02*
X138454925Y-84147481D01*
X138454925Y-84147481D02*
X138419211Y-84504624D01*
X138419211Y-84504624D02*
X138454925Y-84468910D01*
X138454925Y-84468910D02*
X138526354Y-84433196D01*
X138526354Y-84433196D02*
X138704925Y-84433196D01*
X138704925Y-84433196D02*
X138776354Y-84468910D01*
X138776354Y-84468910D02*
X138812068Y-84504624D01*
X138812068Y-84504624D02*
X138847782Y-84576053D01*
X138847782Y-84576053D02*
X138847782Y-84754624D01*
X138847782Y-84754624D02*
X138812068Y-84826053D01*
X138812068Y-84826053D02*
X138776354Y-84861767D01*
X138776354Y-84861767D02*
X138704925Y-84897481D01*
X138704925Y-84897481D02*
X138526354Y-84897481D01*
X138526354Y-84897481D02*
X138454925Y-84861767D01*
X138454925Y-84861767D02*
X138419211Y-84826053D01*
X139169211Y-84897481D02*
X139169211Y-84147481D01*
X139240640Y-84611767D02*
X139454925Y-84897481D01*
X139454925Y-84397481D02*
X139169211Y-84683196D01*
X140169211Y-84897481D02*
X139740640Y-84897481D01*
X139954925Y-84897481D02*
X139954925Y-84147481D01*
X139954925Y-84147481D02*
X139883497Y-84254624D01*
X139883497Y-84254624D02*
X139812068Y-84326053D01*
X139812068Y-84326053D02*
X139740640Y-84361767D01*
X151836607Y-40800535D02*
X151479464Y-40800535D01*
X151479464Y-40800535D02*
X151443750Y-41157678D01*
X151443750Y-41157678D02*
X151479464Y-41121964D01*
X151479464Y-41121964D02*
X151550893Y-41086250D01*
X151550893Y-41086250D02*
X151729464Y-41086250D01*
X151729464Y-41086250D02*
X151800893Y-41121964D01*
X151800893Y-41121964D02*
X151836607Y-41157678D01*
X151836607Y-41157678D02*
X151872321Y-41229107D01*
X151872321Y-41229107D02*
X151872321Y-41407678D01*
X151872321Y-41407678D02*
X151836607Y-41479107D01*
X151836607Y-41479107D02*
X151800893Y-41514821D01*
X151800893Y-41514821D02*
X151729464Y-41550535D01*
X151729464Y-41550535D02*
X151550893Y-41550535D01*
X151550893Y-41550535D02*
X151479464Y-41514821D01*
X151479464Y-41514821D02*
X151443750Y-41479107D01*
X152336607Y-40800535D02*
X152408036Y-40800535D01*
X152408036Y-40800535D02*
X152479464Y-40836250D01*
X152479464Y-40836250D02*
X152515179Y-40871964D01*
X152515179Y-40871964D02*
X152550893Y-40943392D01*
X152550893Y-40943392D02*
X152586607Y-41086250D01*
X152586607Y-41086250D02*
X152586607Y-41264821D01*
X152586607Y-41264821D02*
X152550893Y-41407678D01*
X152550893Y-41407678D02*
X152515179Y-41479107D01*
X152515179Y-41479107D02*
X152479464Y-41514821D01*
X152479464Y-41514821D02*
X152408036Y-41550535D01*
X152408036Y-41550535D02*
X152336607Y-41550535D01*
X152336607Y-41550535D02*
X152265179Y-41514821D01*
X152265179Y-41514821D02*
X152229464Y-41479107D01*
X152229464Y-41479107D02*
X152193750Y-41407678D01*
X152193750Y-41407678D02*
X152158036Y-41264821D01*
X152158036Y-41264821D02*
X152158036Y-41086250D01*
X152158036Y-41086250D02*
X152193750Y-40943392D01*
X152193750Y-40943392D02*
X152229464Y-40871964D01*
X152229464Y-40871964D02*
X152265179Y-40836250D01*
X152265179Y-40836250D02*
X152336607Y-40800535D01*
X153050893Y-40800535D02*
X153122322Y-40800535D01*
X153122322Y-40800535D02*
X153193750Y-40836250D01*
X153193750Y-40836250D02*
X153229465Y-40871964D01*
X153229465Y-40871964D02*
X153265179Y-40943392D01*
X153265179Y-40943392D02*
X153300893Y-41086250D01*
X153300893Y-41086250D02*
X153300893Y-41264821D01*
X153300893Y-41264821D02*
X153265179Y-41407678D01*
X153265179Y-41407678D02*
X153229465Y-41479107D01*
X153229465Y-41479107D02*
X153193750Y-41514821D01*
X153193750Y-41514821D02*
X153122322Y-41550535D01*
X153122322Y-41550535D02*
X153050893Y-41550535D01*
X153050893Y-41550535D02*
X152979465Y-41514821D01*
X152979465Y-41514821D02*
X152943750Y-41479107D01*
X152943750Y-41479107D02*
X152908036Y-41407678D01*
X152908036Y-41407678D02*
X152872322Y-41264821D01*
X152872322Y-41264821D02*
X152872322Y-41086250D01*
X152872322Y-41086250D02*
X152908036Y-40943392D01*
X152908036Y-40943392D02*
X152943750Y-40871964D01*
X152943750Y-40871964D02*
X152979465Y-40836250D01*
X152979465Y-40836250D02*
X153050893Y-40800535D01*
X153622322Y-41550535D02*
X153622322Y-41050535D01*
X153622322Y-41121964D02*
X153658036Y-41086250D01*
X153658036Y-41086250D02*
X153729465Y-41050535D01*
X153729465Y-41050535D02*
X153836608Y-41050535D01*
X153836608Y-41050535D02*
X153908036Y-41086250D01*
X153908036Y-41086250D02*
X153943751Y-41157678D01*
X153943751Y-41157678D02*
X153943751Y-41550535D01*
X153943751Y-41157678D02*
X153979465Y-41086250D01*
X153979465Y-41086250D02*
X154050893Y-41050535D01*
X154050893Y-41050535D02*
X154158036Y-41050535D01*
X154158036Y-41050535D02*
X154229465Y-41086250D01*
X154229465Y-41086250D02*
X154265179Y-41157678D01*
X154265179Y-41157678D02*
X154265179Y-41550535D01*
X154586608Y-41336250D02*
X154943751Y-41336250D01*
X154515179Y-41550535D02*
X154765179Y-40800535D01*
X154765179Y-40800535D02*
X155015179Y-41550535D01*
X136218904Y-38614285D02*
X136218904Y-38995237D01*
X136218904Y-38995237D02*
X136599857Y-39033333D01*
X136599857Y-39033333D02*
X136561761Y-38995237D01*
X136561761Y-38995237D02*
X136523666Y-38919047D01*
X136523666Y-38919047D02*
X136523666Y-38728571D01*
X136523666Y-38728571D02*
X136561761Y-38652380D01*
X136561761Y-38652380D02*
X136599857Y-38614285D01*
X136599857Y-38614285D02*
X136676047Y-38576190D01*
X136676047Y-38576190D02*
X136866523Y-38576190D01*
X136866523Y-38576190D02*
X136942714Y-38614285D01*
X136942714Y-38614285D02*
X136980809Y-38652380D01*
X136980809Y-38652380D02*
X137018904Y-38728571D01*
X137018904Y-38728571D02*
X137018904Y-38919047D01*
X137018904Y-38919047D02*
X136980809Y-38995237D01*
X136980809Y-38995237D02*
X136942714Y-39033333D01*
X137018904Y-38233332D02*
X136218904Y-38233332D01*
X136714142Y-38157142D02*
X137018904Y-37928570D01*
X136485571Y-37928570D02*
X136790333Y-38233332D01*
X137018904Y-37166666D02*
X137018904Y-37623809D01*
X137018904Y-37395237D02*
X136218904Y-37395237D01*
X136218904Y-37395237D02*
X136333190Y-37471428D01*
X136333190Y-37471428D02*
X136409380Y-37547618D01*
X136409380Y-37547618D02*
X136447476Y-37623809D01*
X151010889Y-49998392D02*
X151506127Y-49998392D01*
X151506127Y-49998392D02*
X151239461Y-50303154D01*
X151239461Y-50303154D02*
X151353746Y-50303154D01*
X151353746Y-50303154D02*
X151429937Y-50341249D01*
X151429937Y-50341249D02*
X151468032Y-50379345D01*
X151468032Y-50379345D02*
X151506127Y-50455535D01*
X151506127Y-50455535D02*
X151506127Y-50646011D01*
X151506127Y-50646011D02*
X151468032Y-50722202D01*
X151468032Y-50722202D02*
X151429937Y-50760297D01*
X151429937Y-50760297D02*
X151353746Y-50798392D01*
X151353746Y-50798392D02*
X151125175Y-50798392D01*
X151125175Y-50798392D02*
X151048984Y-50760297D01*
X151048984Y-50760297D02*
X151010889Y-50722202D01*
X151848985Y-50722202D02*
X151887080Y-50760297D01*
X151887080Y-50760297D02*
X151848985Y-50798392D01*
X151848985Y-50798392D02*
X151810889Y-50760297D01*
X151810889Y-50760297D02*
X151848985Y-50722202D01*
X151848985Y-50722202D02*
X151848985Y-50798392D01*
X152572794Y-49998392D02*
X152420413Y-49998392D01*
X152420413Y-49998392D02*
X152344222Y-50036488D01*
X152344222Y-50036488D02*
X152306127Y-50074583D01*
X152306127Y-50074583D02*
X152229937Y-50188868D01*
X152229937Y-50188868D02*
X152191841Y-50341249D01*
X152191841Y-50341249D02*
X152191841Y-50646011D01*
X152191841Y-50646011D02*
X152229937Y-50722202D01*
X152229937Y-50722202D02*
X152268032Y-50760297D01*
X152268032Y-50760297D02*
X152344222Y-50798392D01*
X152344222Y-50798392D02*
X152496603Y-50798392D01*
X152496603Y-50798392D02*
X152572794Y-50760297D01*
X152572794Y-50760297D02*
X152610889Y-50722202D01*
X152610889Y-50722202D02*
X152648984Y-50646011D01*
X152648984Y-50646011D02*
X152648984Y-50455535D01*
X152648984Y-50455535D02*
X152610889Y-50379345D01*
X152610889Y-50379345D02*
X152572794Y-50341249D01*
X152572794Y-50341249D02*
X152496603Y-50303154D01*
X152496603Y-50303154D02*
X152344222Y-50303154D01*
X152344222Y-50303154D02*
X152268032Y-50341249D01*
X152268032Y-50341249D02*
X152229937Y-50379345D01*
X152229937Y-50379345D02*
X152191841Y-50455535D01*
X152877556Y-49998392D02*
X153144223Y-50798392D01*
X153144223Y-50798392D02*
X153410889Y-49998392D01*
X149599073Y-96611130D02*
X149599073Y-95944464D01*
X149599073Y-96134940D02*
X149646692Y-96039702D01*
X149646692Y-96039702D02*
X149694311Y-95992083D01*
X149694311Y-95992083D02*
X149789549Y-95944464D01*
X149789549Y-95944464D02*
X149884787Y-95944464D01*
X150599073Y-96563511D02*
X150503835Y-96611130D01*
X150503835Y-96611130D02*
X150313359Y-96611130D01*
X150313359Y-96611130D02*
X150218121Y-96563511D01*
X150218121Y-96563511D02*
X150170502Y-96468273D01*
X150170502Y-96468273D02*
X150170502Y-96087321D01*
X150170502Y-96087321D02*
X150218121Y-95992083D01*
X150218121Y-95992083D02*
X150313359Y-95944464D01*
X150313359Y-95944464D02*
X150503835Y-95944464D01*
X150503835Y-95944464D02*
X150599073Y-95992083D01*
X150599073Y-95992083D02*
X150646692Y-96087321D01*
X150646692Y-96087321D02*
X150646692Y-96182559D01*
X150646692Y-96182559D02*
X150170502Y-96277797D01*
X151027645Y-96563511D02*
X151122883Y-96611130D01*
X151122883Y-96611130D02*
X151313359Y-96611130D01*
X151313359Y-96611130D02*
X151408597Y-96563511D01*
X151408597Y-96563511D02*
X151456216Y-96468273D01*
X151456216Y-96468273D02*
X151456216Y-96420654D01*
X151456216Y-96420654D02*
X151408597Y-96325416D01*
X151408597Y-96325416D02*
X151313359Y-96277797D01*
X151313359Y-96277797D02*
X151170502Y-96277797D01*
X151170502Y-96277797D02*
X151075264Y-96230178D01*
X151075264Y-96230178D02*
X151027645Y-96134940D01*
X151027645Y-96134940D02*
X151027645Y-96087321D01*
X151027645Y-96087321D02*
X151075264Y-95992083D01*
X151075264Y-95992083D02*
X151170502Y-95944464D01*
X151170502Y-95944464D02*
X151313359Y-95944464D01*
X151313359Y-95944464D02*
X151408597Y-95992083D01*
X152265740Y-96563511D02*
X152170502Y-96611130D01*
X152170502Y-96611130D02*
X151980026Y-96611130D01*
X151980026Y-96611130D02*
X151884788Y-96563511D01*
X151884788Y-96563511D02*
X151837169Y-96468273D01*
X151837169Y-96468273D02*
X151837169Y-96087321D01*
X151837169Y-96087321D02*
X151884788Y-95992083D01*
X151884788Y-95992083D02*
X151980026Y-95944464D01*
X151980026Y-95944464D02*
X152170502Y-95944464D01*
X152170502Y-95944464D02*
X152265740Y-95992083D01*
X152265740Y-95992083D02*
X152313359Y-96087321D01*
X152313359Y-96087321D02*
X152313359Y-96182559D01*
X152313359Y-96182559D02*
X151837169Y-96277797D01*
X152599074Y-95944464D02*
X152980026Y-95944464D01*
X152741931Y-95611130D02*
X152741931Y-96468273D01*
X152741931Y-96468273D02*
X152789550Y-96563511D01*
X152789550Y-96563511D02*
X152884788Y-96611130D01*
X152884788Y-96611130D02*
X152980026Y-96611130D01*
X153617729Y-79604690D02*
X153189158Y-79604690D01*
X153403443Y-79604690D02*
X153403443Y-78854690D01*
X153403443Y-78854690D02*
X153332015Y-78961833D01*
X153332015Y-78961833D02*
X153260586Y-79033262D01*
X153260586Y-79033262D02*
X153189158Y-79068976D01*
X154082015Y-78854690D02*
X154153444Y-78854690D01*
X154153444Y-78854690D02*
X154224872Y-78890405D01*
X154224872Y-78890405D02*
X154260587Y-78926119D01*
X154260587Y-78926119D02*
X154296301Y-78997547D01*
X154296301Y-78997547D02*
X154332015Y-79140405D01*
X154332015Y-79140405D02*
X154332015Y-79318976D01*
X154332015Y-79318976D02*
X154296301Y-79461833D01*
X154296301Y-79461833D02*
X154260587Y-79533262D01*
X154260587Y-79533262D02*
X154224872Y-79568976D01*
X154224872Y-79568976D02*
X154153444Y-79604690D01*
X154153444Y-79604690D02*
X154082015Y-79604690D01*
X154082015Y-79604690D02*
X154010587Y-79568976D01*
X154010587Y-79568976D02*
X153974872Y-79533262D01*
X153974872Y-79533262D02*
X153939158Y-79461833D01*
X153939158Y-79461833D02*
X153903444Y-79318976D01*
X153903444Y-79318976D02*
X153903444Y-79140405D01*
X153903444Y-79140405D02*
X153939158Y-78997547D01*
X153939158Y-78997547D02*
X153974872Y-78926119D01*
X153974872Y-78926119D02*
X154010587Y-78890405D01*
X154010587Y-78890405D02*
X154082015Y-78854690D01*
X154796301Y-78854690D02*
X154867730Y-78854690D01*
X154867730Y-78854690D02*
X154939158Y-78890405D01*
X154939158Y-78890405D02*
X154974873Y-78926119D01*
X154974873Y-78926119D02*
X155010587Y-78997547D01*
X155010587Y-78997547D02*
X155046301Y-79140405D01*
X155046301Y-79140405D02*
X155046301Y-79318976D01*
X155046301Y-79318976D02*
X155010587Y-79461833D01*
X155010587Y-79461833D02*
X154974873Y-79533262D01*
X154974873Y-79533262D02*
X154939158Y-79568976D01*
X154939158Y-79568976D02*
X154867730Y-79604690D01*
X154867730Y-79604690D02*
X154796301Y-79604690D01*
X154796301Y-79604690D02*
X154724873Y-79568976D01*
X154724873Y-79568976D02*
X154689158Y-79533262D01*
X154689158Y-79533262D02*
X154653444Y-79461833D01*
X154653444Y-79461833D02*
X154617730Y-79318976D01*
X154617730Y-79318976D02*
X154617730Y-79140405D01*
X154617730Y-79140405D02*
X154653444Y-78997547D01*
X154653444Y-78997547D02*
X154689158Y-78926119D01*
X154689158Y-78926119D02*
X154724873Y-78890405D01*
X154724873Y-78890405D02*
X154796301Y-78854690D01*
X155367730Y-79104690D02*
X155367730Y-79604690D01*
X155367730Y-79176119D02*
X155403444Y-79140405D01*
X155403444Y-79140405D02*
X155474873Y-79104690D01*
X155474873Y-79104690D02*
X155582016Y-79104690D01*
X155582016Y-79104690D02*
X155653444Y-79140405D01*
X155653444Y-79140405D02*
X155689159Y-79211833D01*
X155689159Y-79211833D02*
X155689159Y-79604690D01*
X156296301Y-79211833D02*
X156046301Y-79211833D01*
X156046301Y-79604690D02*
X156046301Y-78854690D01*
X156046301Y-78854690D02*
X156403444Y-78854690D01*
X143613392Y-69780328D02*
X143720535Y-69816042D01*
X143720535Y-69816042D02*
X143899106Y-69816042D01*
X143899106Y-69816042D02*
X143970535Y-69780328D01*
X143970535Y-69780328D02*
X144006249Y-69744614D01*
X144006249Y-69744614D02*
X144041963Y-69673185D01*
X144041963Y-69673185D02*
X144041963Y-69601757D01*
X144041963Y-69601757D02*
X144006249Y-69530328D01*
X144006249Y-69530328D02*
X143970535Y-69494614D01*
X143970535Y-69494614D02*
X143899106Y-69458899D01*
X143899106Y-69458899D02*
X143756249Y-69423185D01*
X143756249Y-69423185D02*
X143684820Y-69387471D01*
X143684820Y-69387471D02*
X143649106Y-69351757D01*
X143649106Y-69351757D02*
X143613392Y-69280328D01*
X143613392Y-69280328D02*
X143613392Y-69208899D01*
X143613392Y-69208899D02*
X143649106Y-69137471D01*
X143649106Y-69137471D02*
X143684820Y-69101757D01*
X143684820Y-69101757D02*
X143756249Y-69066042D01*
X143756249Y-69066042D02*
X143934820Y-69066042D01*
X143934820Y-69066042D02*
X144041963Y-69101757D01*
X144256249Y-69066042D02*
X144684821Y-69066042D01*
X144470535Y-69816042D02*
X144470535Y-69066042D01*
X144934821Y-69816042D02*
X144934821Y-69066042D01*
X144934821Y-69066042D02*
X145184821Y-69601757D01*
X145184821Y-69601757D02*
X145434821Y-69066042D01*
X145434821Y-69066042D02*
X145434821Y-69816042D01*
X145720535Y-69066042D02*
X146184821Y-69066042D01*
X146184821Y-69066042D02*
X145934821Y-69351757D01*
X145934821Y-69351757D02*
X146041964Y-69351757D01*
X146041964Y-69351757D02*
X146113393Y-69387471D01*
X146113393Y-69387471D02*
X146149107Y-69423185D01*
X146149107Y-69423185D02*
X146184821Y-69494614D01*
X146184821Y-69494614D02*
X146184821Y-69673185D01*
X146184821Y-69673185D02*
X146149107Y-69744614D01*
X146149107Y-69744614D02*
X146113393Y-69780328D01*
X146113393Y-69780328D02*
X146041964Y-69816042D01*
X146041964Y-69816042D02*
X145827678Y-69816042D01*
X145827678Y-69816042D02*
X145756250Y-69780328D01*
X145756250Y-69780328D02*
X145720535Y-69744614D01*
X146470536Y-69137471D02*
X146506250Y-69101757D01*
X146506250Y-69101757D02*
X146577679Y-69066042D01*
X146577679Y-69066042D02*
X146756250Y-69066042D01*
X146756250Y-69066042D02*
X146827679Y-69101757D01*
X146827679Y-69101757D02*
X146863393Y-69137471D01*
X146863393Y-69137471D02*
X146899107Y-69208899D01*
X146899107Y-69208899D02*
X146899107Y-69280328D01*
X146899107Y-69280328D02*
X146863393Y-69387471D01*
X146863393Y-69387471D02*
X146434821Y-69816042D01*
X146434821Y-69816042D02*
X146899107Y-69816042D01*
X143689293Y-52568178D02*
X143689293Y-53025321D01*
X143689293Y-52796749D02*
X142889293Y-52796749D01*
X142889293Y-52796749D02*
X143003579Y-52872940D01*
X143003579Y-52872940D02*
X143079769Y-52949130D01*
X143079769Y-52949130D02*
X143117865Y-53025321D01*
X143155960Y-51882463D02*
X143689293Y-51882463D01*
X143155960Y-52225320D02*
X143575008Y-52225320D01*
X143575008Y-52225320D02*
X143651198Y-52187225D01*
X143651198Y-52187225D02*
X143689293Y-52111035D01*
X143689293Y-52111035D02*
X143689293Y-51996749D01*
X143689293Y-51996749D02*
X143651198Y-51920558D01*
X143651198Y-51920558D02*
X143613103Y-51882463D01*
X143270246Y-51234844D02*
X143270246Y-51501510D01*
X143689293Y-51501510D02*
X142889293Y-51501510D01*
X142889293Y-51501510D02*
X142889293Y-51120558D01*
X134570535Y-79660315D02*
X134141964Y-79660315D01*
X134356249Y-79660315D02*
X134356249Y-78910315D01*
X134356249Y-78910315D02*
X134284821Y-79017458D01*
X134284821Y-79017458D02*
X134213392Y-79088887D01*
X134213392Y-79088887D02*
X134141964Y-79124601D01*
X135034821Y-78910315D02*
X135106250Y-78910315D01*
X135106250Y-78910315D02*
X135177678Y-78946030D01*
X135177678Y-78946030D02*
X135213393Y-78981744D01*
X135213393Y-78981744D02*
X135249107Y-79053172D01*
X135249107Y-79053172D02*
X135284821Y-79196030D01*
X135284821Y-79196030D02*
X135284821Y-79374601D01*
X135284821Y-79374601D02*
X135249107Y-79517458D01*
X135249107Y-79517458D02*
X135213393Y-79588887D01*
X135213393Y-79588887D02*
X135177678Y-79624601D01*
X135177678Y-79624601D02*
X135106250Y-79660315D01*
X135106250Y-79660315D02*
X135034821Y-79660315D01*
X135034821Y-79660315D02*
X134963393Y-79624601D01*
X134963393Y-79624601D02*
X134927678Y-79588887D01*
X134927678Y-79588887D02*
X134891964Y-79517458D01*
X134891964Y-79517458D02*
X134856250Y-79374601D01*
X134856250Y-79374601D02*
X134856250Y-79196030D01*
X134856250Y-79196030D02*
X134891964Y-79053172D01*
X134891964Y-79053172D02*
X134927678Y-78981744D01*
X134927678Y-78981744D02*
X134963393Y-78946030D01*
X134963393Y-78946030D02*
X135034821Y-78910315D01*
X135749107Y-78910315D02*
X135820536Y-78910315D01*
X135820536Y-78910315D02*
X135891964Y-78946030D01*
X135891964Y-78946030D02*
X135927679Y-78981744D01*
X135927679Y-78981744D02*
X135963393Y-79053172D01*
X135963393Y-79053172D02*
X135999107Y-79196030D01*
X135999107Y-79196030D02*
X135999107Y-79374601D01*
X135999107Y-79374601D02*
X135963393Y-79517458D01*
X135963393Y-79517458D02*
X135927679Y-79588887D01*
X135927679Y-79588887D02*
X135891964Y-79624601D01*
X135891964Y-79624601D02*
X135820536Y-79660315D01*
X135820536Y-79660315D02*
X135749107Y-79660315D01*
X135749107Y-79660315D02*
X135677679Y-79624601D01*
X135677679Y-79624601D02*
X135641964Y-79588887D01*
X135641964Y-79588887D02*
X135606250Y-79517458D01*
X135606250Y-79517458D02*
X135570536Y-79374601D01*
X135570536Y-79374601D02*
X135570536Y-79196030D01*
X135570536Y-79196030D02*
X135606250Y-79053172D01*
X135606250Y-79053172D02*
X135641964Y-78981744D01*
X135641964Y-78981744D02*
X135677679Y-78946030D01*
X135677679Y-78946030D02*
X135749107Y-78910315D01*
X136320536Y-79160315D02*
X136320536Y-79660315D01*
X136320536Y-79231744D02*
X136356250Y-79196030D01*
X136356250Y-79196030D02*
X136427679Y-79160315D01*
X136427679Y-79160315D02*
X136534822Y-79160315D01*
X136534822Y-79160315D02*
X136606250Y-79196030D01*
X136606250Y-79196030D02*
X136641965Y-79267458D01*
X136641965Y-79267458D02*
X136641965Y-79660315D01*
X137249107Y-79267458D02*
X136999107Y-79267458D01*
X136999107Y-79660315D02*
X136999107Y-78910315D01*
X136999107Y-78910315D02*
X137356250Y-78910315D01*
X150067464Y-86149974D02*
X149638893Y-86149974D01*
X149853178Y-86149974D02*
X149853178Y-85399974D01*
X149853178Y-85399974D02*
X149781750Y-85507117D01*
X149781750Y-85507117D02*
X149710321Y-85578546D01*
X149710321Y-85578546D02*
X149638893Y-85614260D01*
X150531750Y-85399974D02*
X150603179Y-85399974D01*
X150603179Y-85399974D02*
X150674607Y-85435689D01*
X150674607Y-85435689D02*
X150710322Y-85471403D01*
X150710322Y-85471403D02*
X150746036Y-85542831D01*
X150746036Y-85542831D02*
X150781750Y-85685689D01*
X150781750Y-85685689D02*
X150781750Y-85864260D01*
X150781750Y-85864260D02*
X150746036Y-86007117D01*
X150746036Y-86007117D02*
X150710322Y-86078546D01*
X150710322Y-86078546D02*
X150674607Y-86114260D01*
X150674607Y-86114260D02*
X150603179Y-86149974D01*
X150603179Y-86149974D02*
X150531750Y-86149974D01*
X150531750Y-86149974D02*
X150460322Y-86114260D01*
X150460322Y-86114260D02*
X150424607Y-86078546D01*
X150424607Y-86078546D02*
X150388893Y-86007117D01*
X150388893Y-86007117D02*
X150353179Y-85864260D01*
X150353179Y-85864260D02*
X150353179Y-85685689D01*
X150353179Y-85685689D02*
X150388893Y-85542831D01*
X150388893Y-85542831D02*
X150424607Y-85471403D01*
X150424607Y-85471403D02*
X150460322Y-85435689D01*
X150460322Y-85435689D02*
X150531750Y-85399974D01*
X151246036Y-85399974D02*
X151317465Y-85399974D01*
X151317465Y-85399974D02*
X151388893Y-85435689D01*
X151388893Y-85435689D02*
X151424608Y-85471403D01*
X151424608Y-85471403D02*
X151460322Y-85542831D01*
X151460322Y-85542831D02*
X151496036Y-85685689D01*
X151496036Y-85685689D02*
X151496036Y-85864260D01*
X151496036Y-85864260D02*
X151460322Y-86007117D01*
X151460322Y-86007117D02*
X151424608Y-86078546D01*
X151424608Y-86078546D02*
X151388893Y-86114260D01*
X151388893Y-86114260D02*
X151317465Y-86149974D01*
X151317465Y-86149974D02*
X151246036Y-86149974D01*
X151246036Y-86149974D02*
X151174608Y-86114260D01*
X151174608Y-86114260D02*
X151138893Y-86078546D01*
X151138893Y-86078546D02*
X151103179Y-86007117D01*
X151103179Y-86007117D02*
X151067465Y-85864260D01*
X151067465Y-85864260D02*
X151067465Y-85685689D01*
X151067465Y-85685689D02*
X151103179Y-85542831D01*
X151103179Y-85542831D02*
X151138893Y-85471403D01*
X151138893Y-85471403D02*
X151174608Y-85435689D01*
X151174608Y-85435689D02*
X151246036Y-85399974D01*
X151817465Y-85649974D02*
X151817465Y-86149974D01*
X151817465Y-85721403D02*
X151853179Y-85685689D01*
X151853179Y-85685689D02*
X151924608Y-85649974D01*
X151924608Y-85649974D02*
X152031751Y-85649974D01*
X152031751Y-85649974D02*
X152103179Y-85685689D01*
X152103179Y-85685689D02*
X152138894Y-85757117D01*
X152138894Y-85757117D02*
X152138894Y-86149974D01*
X152746036Y-85757117D02*
X152496036Y-85757117D01*
X152496036Y-86149974D02*
X152496036Y-85399974D01*
X152496036Y-85399974D02*
X152853179Y-85399974D01*
X135019140Y-53558654D02*
X135057235Y-53520559D01*
X135057235Y-53520559D02*
X135095330Y-53558654D01*
X135095330Y-53558654D02*
X135057235Y-53596750D01*
X135057235Y-53596750D02*
X135019140Y-53558654D01*
X135019140Y-53558654D02*
X135095330Y-53558654D01*
X134295330Y-53253893D02*
X134295330Y-52758655D01*
X134295330Y-52758655D02*
X134600092Y-53025321D01*
X134600092Y-53025321D02*
X134600092Y-52911036D01*
X134600092Y-52911036D02*
X134638187Y-52834845D01*
X134638187Y-52834845D02*
X134676283Y-52796750D01*
X134676283Y-52796750D02*
X134752473Y-52758655D01*
X134752473Y-52758655D02*
X134942949Y-52758655D01*
X134942949Y-52758655D02*
X135019140Y-52796750D01*
X135019140Y-52796750D02*
X135057235Y-52834845D01*
X135057235Y-52834845D02*
X135095330Y-52911036D01*
X135095330Y-52911036D02*
X135095330Y-53139607D01*
X135095330Y-53139607D02*
X135057235Y-53215798D01*
X135057235Y-53215798D02*
X135019140Y-53253893D01*
X134295330Y-52491988D02*
X134295330Y-51996750D01*
X134295330Y-51996750D02*
X134600092Y-52263416D01*
X134600092Y-52263416D02*
X134600092Y-52149131D01*
X134600092Y-52149131D02*
X134638187Y-52072940D01*
X134638187Y-52072940D02*
X134676283Y-52034845D01*
X134676283Y-52034845D02*
X134752473Y-51996750D01*
X134752473Y-51996750D02*
X134942949Y-51996750D01*
X134942949Y-51996750D02*
X135019140Y-52034845D01*
X135019140Y-52034845D02*
X135057235Y-52072940D01*
X135057235Y-52072940D02*
X135095330Y-52149131D01*
X135095330Y-52149131D02*
X135095330Y-52377702D01*
X135095330Y-52377702D02*
X135057235Y-52453893D01*
X135057235Y-52453893D02*
X135019140Y-52491988D01*
X134561997Y-51311035D02*
X135095330Y-51311035D01*
X134561997Y-51653892D02*
X134981045Y-51653892D01*
X134981045Y-51653892D02*
X135057235Y-51615797D01*
X135057235Y-51615797D02*
X135095330Y-51539607D01*
X135095330Y-51539607D02*
X135095330Y-51425321D01*
X135095330Y-51425321D02*
X135057235Y-51349130D01*
X135057235Y-51349130D02*
X135019140Y-51311035D01*
X134676283Y-50663416D02*
X134676283Y-50930082D01*
X135095330Y-50930082D02*
X134295330Y-50930082D01*
X134295330Y-50930082D02*
X134295330Y-50549130D01*
X149644519Y-92327885D02*
X149644519Y-91577885D01*
X149644519Y-91863600D02*
X149715948Y-91827885D01*
X149715948Y-91827885D02*
X149858805Y-91827885D01*
X149858805Y-91827885D02*
X149930233Y-91863600D01*
X149930233Y-91863600D02*
X149965948Y-91899314D01*
X149965948Y-91899314D02*
X150001662Y-91970742D01*
X150001662Y-91970742D02*
X150001662Y-92185028D01*
X150001662Y-92185028D02*
X149965948Y-92256457D01*
X149965948Y-92256457D02*
X149930233Y-92292171D01*
X149930233Y-92292171D02*
X149858805Y-92327885D01*
X149858805Y-92327885D02*
X149715948Y-92327885D01*
X149715948Y-92327885D02*
X149644519Y-92292171D01*
X150644519Y-91827885D02*
X150644519Y-92327885D01*
X150323090Y-91827885D02*
X150323090Y-92220742D01*
X150323090Y-92220742D02*
X150358804Y-92292171D01*
X150358804Y-92292171D02*
X150430233Y-92327885D01*
X150430233Y-92327885D02*
X150537376Y-92327885D01*
X150537376Y-92327885D02*
X150608804Y-92292171D01*
X150608804Y-92292171D02*
X150644519Y-92256457D01*
X150894518Y-91827885D02*
X151180232Y-91827885D01*
X151001661Y-91577885D02*
X151001661Y-92220742D01*
X151001661Y-92220742D02*
X151037375Y-92292171D01*
X151037375Y-92292171D02*
X151108804Y-92327885D01*
X151108804Y-92327885D02*
X151180232Y-92327885D01*
X151323089Y-91827885D02*
X151608803Y-91827885D01*
X151430232Y-91577885D02*
X151430232Y-92220742D01*
X151430232Y-92220742D02*
X151465946Y-92292171D01*
X151465946Y-92292171D02*
X151537375Y-92327885D01*
X151537375Y-92327885D02*
X151608803Y-92327885D01*
X151965946Y-92327885D02*
X151894517Y-92292171D01*
X151894517Y-92292171D02*
X151858803Y-92256457D01*
X151858803Y-92256457D02*
X151823089Y-92185028D01*
X151823089Y-92185028D02*
X151823089Y-91970742D01*
X151823089Y-91970742D02*
X151858803Y-91899314D01*
X151858803Y-91899314D02*
X151894517Y-91863600D01*
X151894517Y-91863600D02*
X151965946Y-91827885D01*
X151965946Y-91827885D02*
X152073089Y-91827885D01*
X152073089Y-91827885D02*
X152144517Y-91863600D01*
X152144517Y-91863600D02*
X152180232Y-91899314D01*
X152180232Y-91899314D02*
X152215946Y-91970742D01*
X152215946Y-91970742D02*
X152215946Y-92185028D01*
X152215946Y-92185028D02*
X152180232Y-92256457D01*
X152180232Y-92256457D02*
X152144517Y-92292171D01*
X152144517Y-92292171D02*
X152073089Y-92327885D01*
X152073089Y-92327885D02*
X151965946Y-92327885D01*
X152537374Y-91827885D02*
X152537374Y-92327885D01*
X152537374Y-91899314D02*
X152573088Y-91863600D01*
X152573088Y-91863600D02*
X152644517Y-91827885D01*
X152644517Y-91827885D02*
X152751660Y-91827885D01*
X152751660Y-91827885D02*
X152823088Y-91863600D01*
X152823088Y-91863600D02*
X152858803Y-91935028D01*
X152858803Y-91935028D02*
X152858803Y-92327885D01*
X153620535Y-76959792D02*
X153191964Y-76959792D01*
X153406249Y-76959792D02*
X153406249Y-76209792D01*
X153406249Y-76209792D02*
X153334821Y-76316935D01*
X153334821Y-76316935D02*
X153263392Y-76388364D01*
X153263392Y-76388364D02*
X153191964Y-76424078D01*
X154084821Y-76209792D02*
X154156250Y-76209792D01*
X154156250Y-76209792D02*
X154227678Y-76245507D01*
X154227678Y-76245507D02*
X154263393Y-76281221D01*
X154263393Y-76281221D02*
X154299107Y-76352649D01*
X154299107Y-76352649D02*
X154334821Y-76495507D01*
X154334821Y-76495507D02*
X154334821Y-76674078D01*
X154334821Y-76674078D02*
X154299107Y-76816935D01*
X154299107Y-76816935D02*
X154263393Y-76888364D01*
X154263393Y-76888364D02*
X154227678Y-76924078D01*
X154227678Y-76924078D02*
X154156250Y-76959792D01*
X154156250Y-76959792D02*
X154084821Y-76959792D01*
X154084821Y-76959792D02*
X154013393Y-76924078D01*
X154013393Y-76924078D02*
X153977678Y-76888364D01*
X153977678Y-76888364D02*
X153941964Y-76816935D01*
X153941964Y-76816935D02*
X153906250Y-76674078D01*
X153906250Y-76674078D02*
X153906250Y-76495507D01*
X153906250Y-76495507D02*
X153941964Y-76352649D01*
X153941964Y-76352649D02*
X153977678Y-76281221D01*
X153977678Y-76281221D02*
X154013393Y-76245507D01*
X154013393Y-76245507D02*
X154084821Y-76209792D01*
X154799107Y-76209792D02*
X154870536Y-76209792D01*
X154870536Y-76209792D02*
X154941964Y-76245507D01*
X154941964Y-76245507D02*
X154977679Y-76281221D01*
X154977679Y-76281221D02*
X155013393Y-76352649D01*
X155013393Y-76352649D02*
X155049107Y-76495507D01*
X155049107Y-76495507D02*
X155049107Y-76674078D01*
X155049107Y-76674078D02*
X155013393Y-76816935D01*
X155013393Y-76816935D02*
X154977679Y-76888364D01*
X154977679Y-76888364D02*
X154941964Y-76924078D01*
X154941964Y-76924078D02*
X154870536Y-76959792D01*
X154870536Y-76959792D02*
X154799107Y-76959792D01*
X154799107Y-76959792D02*
X154727679Y-76924078D01*
X154727679Y-76924078D02*
X154691964Y-76888364D01*
X154691964Y-76888364D02*
X154656250Y-76816935D01*
X154656250Y-76816935D02*
X154620536Y-76674078D01*
X154620536Y-76674078D02*
X154620536Y-76495507D01*
X154620536Y-76495507D02*
X154656250Y-76352649D01*
X154656250Y-76352649D02*
X154691964Y-76281221D01*
X154691964Y-76281221D02*
X154727679Y-76245507D01*
X154727679Y-76245507D02*
X154799107Y-76209792D01*
X155370536Y-76459792D02*
X155370536Y-76959792D01*
X155370536Y-76531221D02*
X155406250Y-76495507D01*
X155406250Y-76495507D02*
X155477679Y-76459792D01*
X155477679Y-76459792D02*
X155584822Y-76459792D01*
X155584822Y-76459792D02*
X155656250Y-76495507D01*
X155656250Y-76495507D02*
X155691965Y-76566935D01*
X155691965Y-76566935D02*
X155691965Y-76959792D01*
X156299107Y-76566935D02*
X156049107Y-76566935D01*
X156049107Y-76959792D02*
X156049107Y-76209792D01*
X156049107Y-76209792D02*
X156406250Y-76209792D01*
X152658422Y-61054653D02*
X152658422Y-61483224D01*
X152658422Y-61268939D02*
X151908422Y-61268939D01*
X151908422Y-61268939D02*
X152015565Y-61340367D01*
X152015565Y-61340367D02*
X152086994Y-61411796D01*
X152086994Y-61411796D02*
X152122708Y-61483224D01*
X151908422Y-60590367D02*
X151908422Y-60518938D01*
X151908422Y-60518938D02*
X151944137Y-60447510D01*
X151944137Y-60447510D02*
X151979851Y-60411796D01*
X151979851Y-60411796D02*
X152051279Y-60376081D01*
X152051279Y-60376081D02*
X152194137Y-60340367D01*
X152194137Y-60340367D02*
X152372708Y-60340367D01*
X152372708Y-60340367D02*
X152515565Y-60376081D01*
X152515565Y-60376081D02*
X152586994Y-60411796D01*
X152586994Y-60411796D02*
X152622708Y-60447510D01*
X152622708Y-60447510D02*
X152658422Y-60518938D01*
X152658422Y-60518938D02*
X152658422Y-60590367D01*
X152658422Y-60590367D02*
X152622708Y-60661796D01*
X152622708Y-60661796D02*
X152586994Y-60697510D01*
X152586994Y-60697510D02*
X152515565Y-60733224D01*
X152515565Y-60733224D02*
X152372708Y-60768938D01*
X152372708Y-60768938D02*
X152194137Y-60768938D01*
X152194137Y-60768938D02*
X152051279Y-60733224D01*
X152051279Y-60733224D02*
X151979851Y-60697510D01*
X151979851Y-60697510D02*
X151944137Y-60661796D01*
X151944137Y-60661796D02*
X151908422Y-60590367D01*
X151908422Y-59876081D02*
X151908422Y-59804652D01*
X151908422Y-59804652D02*
X151944137Y-59733224D01*
X151944137Y-59733224D02*
X151979851Y-59697510D01*
X151979851Y-59697510D02*
X152051279Y-59661795D01*
X152051279Y-59661795D02*
X152194137Y-59626081D01*
X152194137Y-59626081D02*
X152372708Y-59626081D01*
X152372708Y-59626081D02*
X152515565Y-59661795D01*
X152515565Y-59661795D02*
X152586994Y-59697510D01*
X152586994Y-59697510D02*
X152622708Y-59733224D01*
X152622708Y-59733224D02*
X152658422Y-59804652D01*
X152658422Y-59804652D02*
X152658422Y-59876081D01*
X152658422Y-59876081D02*
X152622708Y-59947510D01*
X152622708Y-59947510D02*
X152586994Y-59983224D01*
X152586994Y-59983224D02*
X152515565Y-60018938D01*
X152515565Y-60018938D02*
X152372708Y-60054652D01*
X152372708Y-60054652D02*
X152194137Y-60054652D01*
X152194137Y-60054652D02*
X152051279Y-60018938D01*
X152051279Y-60018938D02*
X151979851Y-59983224D01*
X151979851Y-59983224D02*
X151944137Y-59947510D01*
X151944137Y-59947510D02*
X151908422Y-59876081D01*
X152158422Y-59304652D02*
X152658422Y-59304652D01*
X152229851Y-59304652D02*
X152194137Y-59268938D01*
X152194137Y-59268938D02*
X152158422Y-59197509D01*
X152158422Y-59197509D02*
X152158422Y-59090366D01*
X152158422Y-59090366D02*
X152194137Y-59018938D01*
X152194137Y-59018938D02*
X152265565Y-58983224D01*
X152265565Y-58983224D02*
X152658422Y-58983224D01*
X152265565Y-58376081D02*
X152265565Y-58626081D01*
X152658422Y-58626081D02*
X151908422Y-58626081D01*
X151908422Y-58626081D02*
X151908422Y-58268938D01*
X134570535Y-77269285D02*
X134141964Y-77269285D01*
X134356249Y-77269285D02*
X134356249Y-76519285D01*
X134356249Y-76519285D02*
X134284821Y-76626428D01*
X134284821Y-76626428D02*
X134213392Y-76697857D01*
X134213392Y-76697857D02*
X134141964Y-76733571D01*
X135034821Y-76519285D02*
X135106250Y-76519285D01*
X135106250Y-76519285D02*
X135177678Y-76555000D01*
X135177678Y-76555000D02*
X135213393Y-76590714D01*
X135213393Y-76590714D02*
X135249107Y-76662142D01*
X135249107Y-76662142D02*
X135284821Y-76805000D01*
X135284821Y-76805000D02*
X135284821Y-76983571D01*
X135284821Y-76983571D02*
X135249107Y-77126428D01*
X135249107Y-77126428D02*
X135213393Y-77197857D01*
X135213393Y-77197857D02*
X135177678Y-77233571D01*
X135177678Y-77233571D02*
X135106250Y-77269285D01*
X135106250Y-77269285D02*
X135034821Y-77269285D01*
X135034821Y-77269285D02*
X134963393Y-77233571D01*
X134963393Y-77233571D02*
X134927678Y-77197857D01*
X134927678Y-77197857D02*
X134891964Y-77126428D01*
X134891964Y-77126428D02*
X134856250Y-76983571D01*
X134856250Y-76983571D02*
X134856250Y-76805000D01*
X134856250Y-76805000D02*
X134891964Y-76662142D01*
X134891964Y-76662142D02*
X134927678Y-76590714D01*
X134927678Y-76590714D02*
X134963393Y-76555000D01*
X134963393Y-76555000D02*
X135034821Y-76519285D01*
X135749107Y-76519285D02*
X135820536Y-76519285D01*
X135820536Y-76519285D02*
X135891964Y-76555000D01*
X135891964Y-76555000D02*
X135927679Y-76590714D01*
X135927679Y-76590714D02*
X135963393Y-76662142D01*
X135963393Y-76662142D02*
X135999107Y-76805000D01*
X135999107Y-76805000D02*
X135999107Y-76983571D01*
X135999107Y-76983571D02*
X135963393Y-77126428D01*
X135963393Y-77126428D02*
X135927679Y-77197857D01*
X135927679Y-77197857D02*
X135891964Y-77233571D01*
X135891964Y-77233571D02*
X135820536Y-77269285D01*
X135820536Y-77269285D02*
X135749107Y-77269285D01*
X135749107Y-77269285D02*
X135677679Y-77233571D01*
X135677679Y-77233571D02*
X135641964Y-77197857D01*
X135641964Y-77197857D02*
X135606250Y-77126428D01*
X135606250Y-77126428D02*
X135570536Y-76983571D01*
X135570536Y-76983571D02*
X135570536Y-76805000D01*
X135570536Y-76805000D02*
X135606250Y-76662142D01*
X135606250Y-76662142D02*
X135641964Y-76590714D01*
X135641964Y-76590714D02*
X135677679Y-76555000D01*
X135677679Y-76555000D02*
X135749107Y-76519285D01*
X136320536Y-76769285D02*
X136320536Y-77269285D01*
X136320536Y-76840714D02*
X136356250Y-76805000D01*
X136356250Y-76805000D02*
X136427679Y-76769285D01*
X136427679Y-76769285D02*
X136534822Y-76769285D01*
X136534822Y-76769285D02*
X136606250Y-76805000D01*
X136606250Y-76805000D02*
X136641965Y-76876428D01*
X136641965Y-76876428D02*
X136641965Y-77269285D01*
X137249107Y-76876428D02*
X136999107Y-76876428D01*
X136999107Y-77269285D02*
X136999107Y-76519285D01*
X136999107Y-76519285D02*
X137356250Y-76519285D01*
X140991965Y-38375535D02*
X140920536Y-38339821D01*
X140920536Y-38339821D02*
X140884822Y-38268392D01*
X140884822Y-38268392D02*
X140884822Y-37625535D01*
X141384822Y-38375535D02*
X141313393Y-38339821D01*
X141313393Y-38339821D02*
X141277679Y-38304107D01*
X141277679Y-38304107D02*
X141241965Y-38232678D01*
X141241965Y-38232678D02*
X141241965Y-38018392D01*
X141241965Y-38018392D02*
X141277679Y-37946964D01*
X141277679Y-37946964D02*
X141313393Y-37911250D01*
X141313393Y-37911250D02*
X141384822Y-37875535D01*
X141384822Y-37875535D02*
X141491965Y-37875535D01*
X141491965Y-37875535D02*
X141563393Y-37911250D01*
X141563393Y-37911250D02*
X141599108Y-37946964D01*
X141599108Y-37946964D02*
X141634822Y-38018392D01*
X141634822Y-38018392D02*
X141634822Y-38232678D01*
X141634822Y-38232678D02*
X141599108Y-38304107D01*
X141599108Y-38304107D02*
X141563393Y-38339821D01*
X141563393Y-38339821D02*
X141491965Y-38375535D01*
X141491965Y-38375535D02*
X141384822Y-38375535D01*
X142277679Y-37875535D02*
X142277679Y-38482678D01*
X142277679Y-38482678D02*
X142241964Y-38554107D01*
X142241964Y-38554107D02*
X142206250Y-38589821D01*
X142206250Y-38589821D02*
X142134821Y-38625535D01*
X142134821Y-38625535D02*
X142027679Y-38625535D01*
X142027679Y-38625535D02*
X141956250Y-38589821D01*
X142277679Y-38339821D02*
X142206250Y-38375535D01*
X142206250Y-38375535D02*
X142063393Y-38375535D01*
X142063393Y-38375535D02*
X141991964Y-38339821D01*
X141991964Y-38339821D02*
X141956250Y-38304107D01*
X141956250Y-38304107D02*
X141920536Y-38232678D01*
X141920536Y-38232678D02*
X141920536Y-38018392D01*
X141920536Y-38018392D02*
X141956250Y-37946964D01*
X141956250Y-37946964D02*
X141991964Y-37911250D01*
X141991964Y-37911250D02*
X142063393Y-37875535D01*
X142063393Y-37875535D02*
X142206250Y-37875535D01*
X142206250Y-37875535D02*
X142277679Y-37911250D01*
X142634821Y-38375535D02*
X142634821Y-37875535D01*
X142634821Y-37625535D02*
X142599107Y-37661250D01*
X142599107Y-37661250D02*
X142634821Y-37696964D01*
X142634821Y-37696964D02*
X142670535Y-37661250D01*
X142670535Y-37661250D02*
X142634821Y-37625535D01*
X142634821Y-37625535D02*
X142634821Y-37696964D01*
X143313393Y-38339821D02*
X143241964Y-38375535D01*
X143241964Y-38375535D02*
X143099107Y-38375535D01*
X143099107Y-38375535D02*
X143027678Y-38339821D01*
X143027678Y-38339821D02*
X142991964Y-38304107D01*
X142991964Y-38304107D02*
X142956250Y-38232678D01*
X142956250Y-38232678D02*
X142956250Y-38018392D01*
X142956250Y-38018392D02*
X142991964Y-37946964D01*
X142991964Y-37946964D02*
X143027678Y-37911250D01*
X143027678Y-37911250D02*
X143099107Y-37875535D01*
X143099107Y-37875535D02*
X143241964Y-37875535D01*
X143241964Y-37875535D02*
X143313393Y-37911250D01*
X137617201Y-92350535D02*
X137617201Y-91600535D01*
X137617201Y-91886250D02*
X137688630Y-91850535D01*
X137688630Y-91850535D02*
X137831487Y-91850535D01*
X137831487Y-91850535D02*
X137902915Y-91886250D01*
X137902915Y-91886250D02*
X137938630Y-91921964D01*
X137938630Y-91921964D02*
X137974344Y-91993392D01*
X137974344Y-91993392D02*
X137974344Y-92207678D01*
X137974344Y-92207678D02*
X137938630Y-92279107D01*
X137938630Y-92279107D02*
X137902915Y-92314821D01*
X137902915Y-92314821D02*
X137831487Y-92350535D01*
X137831487Y-92350535D02*
X137688630Y-92350535D01*
X137688630Y-92350535D02*
X137617201Y-92314821D01*
X138617201Y-91850535D02*
X138617201Y-92350535D01*
X138295772Y-91850535D02*
X138295772Y-92243392D01*
X138295772Y-92243392D02*
X138331486Y-92314821D01*
X138331486Y-92314821D02*
X138402915Y-92350535D01*
X138402915Y-92350535D02*
X138510058Y-92350535D01*
X138510058Y-92350535D02*
X138581486Y-92314821D01*
X138581486Y-92314821D02*
X138617201Y-92279107D01*
X138867200Y-91850535D02*
X139152914Y-91850535D01*
X138974343Y-91600535D02*
X138974343Y-92243392D01*
X138974343Y-92243392D02*
X139010057Y-92314821D01*
X139010057Y-92314821D02*
X139081486Y-92350535D01*
X139081486Y-92350535D02*
X139152914Y-92350535D01*
X139295771Y-91850535D02*
X139581485Y-91850535D01*
X139402914Y-91600535D02*
X139402914Y-92243392D01*
X139402914Y-92243392D02*
X139438628Y-92314821D01*
X139438628Y-92314821D02*
X139510057Y-92350535D01*
X139510057Y-92350535D02*
X139581485Y-92350535D01*
X139938628Y-92350535D02*
X139867199Y-92314821D01*
X139867199Y-92314821D02*
X139831485Y-92279107D01*
X139831485Y-92279107D02*
X139795771Y-92207678D01*
X139795771Y-92207678D02*
X139795771Y-91993392D01*
X139795771Y-91993392D02*
X139831485Y-91921964D01*
X139831485Y-91921964D02*
X139867199Y-91886250D01*
X139867199Y-91886250D02*
X139938628Y-91850535D01*
X139938628Y-91850535D02*
X140045771Y-91850535D01*
X140045771Y-91850535D02*
X140117199Y-91886250D01*
X140117199Y-91886250D02*
X140152914Y-91921964D01*
X140152914Y-91921964D02*
X140188628Y-91993392D01*
X140188628Y-91993392D02*
X140188628Y-92207678D01*
X140188628Y-92207678D02*
X140152914Y-92279107D01*
X140152914Y-92279107D02*
X140117199Y-92314821D01*
X140117199Y-92314821D02*
X140045771Y-92350535D01*
X140045771Y-92350535D02*
X139938628Y-92350535D01*
X140510056Y-91850535D02*
X140510056Y-92350535D01*
X140510056Y-91921964D02*
X140545770Y-91886250D01*
X140545770Y-91886250D02*
X140617199Y-91850535D01*
X140617199Y-91850535D02*
X140724342Y-91850535D01*
X140724342Y-91850535D02*
X140795770Y-91886250D01*
X140795770Y-91886250D02*
X140831485Y-91957678D01*
X140831485Y-91957678D02*
X140831485Y-92350535D01*
X137896733Y-96611130D02*
X137896733Y-95611130D01*
X137896733Y-95992083D02*
X137991971Y-95944464D01*
X137991971Y-95944464D02*
X138182447Y-95944464D01*
X138182447Y-95944464D02*
X138277685Y-95992083D01*
X138277685Y-95992083D02*
X138325304Y-96039702D01*
X138325304Y-96039702D02*
X138372923Y-96134940D01*
X138372923Y-96134940D02*
X138372923Y-96420654D01*
X138372923Y-96420654D02*
X138325304Y-96515892D01*
X138325304Y-96515892D02*
X138277685Y-96563511D01*
X138277685Y-96563511D02*
X138182447Y-96611130D01*
X138182447Y-96611130D02*
X137991971Y-96611130D01*
X137991971Y-96611130D02*
X137896733Y-96563511D01*
X138944352Y-96611130D02*
X138849114Y-96563511D01*
X138849114Y-96563511D02*
X138801495Y-96515892D01*
X138801495Y-96515892D02*
X138753876Y-96420654D01*
X138753876Y-96420654D02*
X138753876Y-96134940D01*
X138753876Y-96134940D02*
X138801495Y-96039702D01*
X138801495Y-96039702D02*
X138849114Y-95992083D01*
X138849114Y-95992083D02*
X138944352Y-95944464D01*
X138944352Y-95944464D02*
X139087209Y-95944464D01*
X139087209Y-95944464D02*
X139182447Y-95992083D01*
X139182447Y-95992083D02*
X139230066Y-96039702D01*
X139230066Y-96039702D02*
X139277685Y-96134940D01*
X139277685Y-96134940D02*
X139277685Y-96420654D01*
X139277685Y-96420654D02*
X139230066Y-96515892D01*
X139230066Y-96515892D02*
X139182447Y-96563511D01*
X139182447Y-96563511D02*
X139087209Y-96611130D01*
X139087209Y-96611130D02*
X138944352Y-96611130D01*
X139849114Y-96611130D02*
X139753876Y-96563511D01*
X139753876Y-96563511D02*
X139706257Y-96515892D01*
X139706257Y-96515892D02*
X139658638Y-96420654D01*
X139658638Y-96420654D02*
X139658638Y-96134940D01*
X139658638Y-96134940D02*
X139706257Y-96039702D01*
X139706257Y-96039702D02*
X139753876Y-95992083D01*
X139753876Y-95992083D02*
X139849114Y-95944464D01*
X139849114Y-95944464D02*
X139991971Y-95944464D01*
X139991971Y-95944464D02*
X140087209Y-95992083D01*
X140087209Y-95992083D02*
X140134828Y-96039702D01*
X140134828Y-96039702D02*
X140182447Y-96134940D01*
X140182447Y-96134940D02*
X140182447Y-96420654D01*
X140182447Y-96420654D02*
X140134828Y-96515892D01*
X140134828Y-96515892D02*
X140087209Y-96563511D01*
X140087209Y-96563511D02*
X139991971Y-96611130D01*
X139991971Y-96611130D02*
X139849114Y-96611130D01*
X140468162Y-95944464D02*
X140849114Y-95944464D01*
X140611019Y-95611130D02*
X140611019Y-96468273D01*
X140611019Y-96468273D02*
X140658638Y-96563511D01*
X140658638Y-96563511D02*
X140753876Y-96611130D01*
X140753876Y-96611130D02*
X140849114Y-96611130D01*
X146325535Y-39260714D02*
X146325535Y-39689285D01*
X146325535Y-39475000D02*
X145575535Y-39475000D01*
X145575535Y-39475000D02*
X145682678Y-39546428D01*
X145682678Y-39546428D02*
X145754107Y-39617857D01*
X145754107Y-39617857D02*
X145789821Y-39689285D01*
X145575535Y-38796428D02*
X145575535Y-38724999D01*
X145575535Y-38724999D02*
X145611250Y-38653571D01*
X145611250Y-38653571D02*
X145646964Y-38617857D01*
X145646964Y-38617857D02*
X145718392Y-38582142D01*
X145718392Y-38582142D02*
X145861250Y-38546428D01*
X145861250Y-38546428D02*
X146039821Y-38546428D01*
X146039821Y-38546428D02*
X146182678Y-38582142D01*
X146182678Y-38582142D02*
X146254107Y-38617857D01*
X146254107Y-38617857D02*
X146289821Y-38653571D01*
X146289821Y-38653571D02*
X146325535Y-38724999D01*
X146325535Y-38724999D02*
X146325535Y-38796428D01*
X146325535Y-38796428D02*
X146289821Y-38867857D01*
X146289821Y-38867857D02*
X146254107Y-38903571D01*
X146254107Y-38903571D02*
X146182678Y-38939285D01*
X146182678Y-38939285D02*
X146039821Y-38974999D01*
X146039821Y-38974999D02*
X145861250Y-38974999D01*
X145861250Y-38974999D02*
X145718392Y-38939285D01*
X145718392Y-38939285D02*
X145646964Y-38903571D01*
X145646964Y-38903571D02*
X145611250Y-38867857D01*
X145611250Y-38867857D02*
X145575535Y-38796428D01*
X145575535Y-38082142D02*
X145575535Y-38010713D01*
X145575535Y-38010713D02*
X145611250Y-37939285D01*
X145611250Y-37939285D02*
X145646964Y-37903571D01*
X145646964Y-37903571D02*
X145718392Y-37867856D01*
X145718392Y-37867856D02*
X145861250Y-37832142D01*
X145861250Y-37832142D02*
X146039821Y-37832142D01*
X146039821Y-37832142D02*
X146182678Y-37867856D01*
X146182678Y-37867856D02*
X146254107Y-37903571D01*
X146254107Y-37903571D02*
X146289821Y-37939285D01*
X146289821Y-37939285D02*
X146325535Y-38010713D01*
X146325535Y-38010713D02*
X146325535Y-38082142D01*
X146325535Y-38082142D02*
X146289821Y-38153571D01*
X146289821Y-38153571D02*
X146254107Y-38189285D01*
X146254107Y-38189285D02*
X146182678Y-38224999D01*
X146182678Y-38224999D02*
X146039821Y-38260713D01*
X146039821Y-38260713D02*
X145861250Y-38260713D01*
X145861250Y-38260713D02*
X145718392Y-38224999D01*
X145718392Y-38224999D02*
X145646964Y-38189285D01*
X145646964Y-38189285D02*
X145611250Y-38153571D01*
X145611250Y-38153571D02*
X145575535Y-38082142D01*
X145825535Y-37510713D02*
X146325535Y-37510713D01*
X145896964Y-37510713D02*
X145861250Y-37474999D01*
X145861250Y-37474999D02*
X145825535Y-37403570D01*
X145825535Y-37403570D02*
X145825535Y-37296427D01*
X145825535Y-37296427D02*
X145861250Y-37224999D01*
X145861250Y-37224999D02*
X145932678Y-37189285D01*
X145932678Y-37189285D02*
X146325535Y-37189285D01*
X145932678Y-36582142D02*
X145932678Y-36832142D01*
X146325535Y-36832142D02*
X145575535Y-36832142D01*
X145575535Y-36832142D02*
X145575535Y-36474999D01*
X151010889Y-53499542D02*
X151506127Y-53499542D01*
X151506127Y-53499542D02*
X151239461Y-53804304D01*
X151239461Y-53804304D02*
X151353746Y-53804304D01*
X151353746Y-53804304D02*
X151429937Y-53842399D01*
X151429937Y-53842399D02*
X151468032Y-53880495D01*
X151468032Y-53880495D02*
X151506127Y-53956685D01*
X151506127Y-53956685D02*
X151506127Y-54147161D01*
X151506127Y-54147161D02*
X151468032Y-54223352D01*
X151468032Y-54223352D02*
X151429937Y-54261447D01*
X151429937Y-54261447D02*
X151353746Y-54299542D01*
X151353746Y-54299542D02*
X151125175Y-54299542D01*
X151125175Y-54299542D02*
X151048984Y-54261447D01*
X151048984Y-54261447D02*
X151010889Y-54223352D01*
X151848985Y-54223352D02*
X151887080Y-54261447D01*
X151887080Y-54261447D02*
X151848985Y-54299542D01*
X151848985Y-54299542D02*
X151810889Y-54261447D01*
X151810889Y-54261447D02*
X151848985Y-54223352D01*
X151848985Y-54223352D02*
X151848985Y-54299542D01*
X152572794Y-53499542D02*
X152420413Y-53499542D01*
X152420413Y-53499542D02*
X152344222Y-53537638D01*
X152344222Y-53537638D02*
X152306127Y-53575733D01*
X152306127Y-53575733D02*
X152229937Y-53690018D01*
X152229937Y-53690018D02*
X152191841Y-53842399D01*
X152191841Y-53842399D02*
X152191841Y-54147161D01*
X152191841Y-54147161D02*
X152229937Y-54223352D01*
X152229937Y-54223352D02*
X152268032Y-54261447D01*
X152268032Y-54261447D02*
X152344222Y-54299542D01*
X152344222Y-54299542D02*
X152496603Y-54299542D01*
X152496603Y-54299542D02*
X152572794Y-54261447D01*
X152572794Y-54261447D02*
X152610889Y-54223352D01*
X152610889Y-54223352D02*
X152648984Y-54147161D01*
X152648984Y-54147161D02*
X152648984Y-53956685D01*
X152648984Y-53956685D02*
X152610889Y-53880495D01*
X152610889Y-53880495D02*
X152572794Y-53842399D01*
X152572794Y-53842399D02*
X152496603Y-53804304D01*
X152496603Y-53804304D02*
X152344222Y-53804304D01*
X152344222Y-53804304D02*
X152268032Y-53842399D01*
X152268032Y-53842399D02*
X152229937Y-53880495D01*
X152229937Y-53880495D02*
X152191841Y-53956685D01*
X152877556Y-53499542D02*
X153144223Y-54299542D01*
X153144223Y-54299542D02*
X153410889Y-53499542D01*
X143092630Y-45683419D02*
X143199773Y-45719133D01*
X143199773Y-45719133D02*
X143378344Y-45719133D01*
X143378344Y-45719133D02*
X143449773Y-45683419D01*
X143449773Y-45683419D02*
X143485487Y-45647705D01*
X143485487Y-45647705D02*
X143521201Y-45576276D01*
X143521201Y-45576276D02*
X143521201Y-45504848D01*
X143521201Y-45504848D02*
X143485487Y-45433419D01*
X143485487Y-45433419D02*
X143449773Y-45397705D01*
X143449773Y-45397705D02*
X143378344Y-45361990D01*
X143378344Y-45361990D02*
X143235487Y-45326276D01*
X143235487Y-45326276D02*
X143164058Y-45290562D01*
X143164058Y-45290562D02*
X143128344Y-45254848D01*
X143128344Y-45254848D02*
X143092630Y-45183419D01*
X143092630Y-45183419D02*
X143092630Y-45111990D01*
X143092630Y-45111990D02*
X143128344Y-45040562D01*
X143128344Y-45040562D02*
X143164058Y-45004848D01*
X143164058Y-45004848D02*
X143235487Y-44969133D01*
X143235487Y-44969133D02*
X143414058Y-44969133D01*
X143414058Y-44969133D02*
X143521201Y-45004848D01*
X143806916Y-45504848D02*
X144164059Y-45504848D01*
X143735487Y-45719133D02*
X143985487Y-44969133D01*
X143985487Y-44969133D02*
X144235487Y-45719133D01*
X144878344Y-45719133D02*
X144449773Y-45719133D01*
X144664058Y-45719133D02*
X144664058Y-44969133D01*
X144664058Y-44969133D02*
X144592630Y-45076276D01*
X144592630Y-45076276D02*
X144521201Y-45147705D01*
X144521201Y-45147705D02*
X144449773Y-45183419D01*
X145556916Y-44969133D02*
X145199773Y-44969133D01*
X145199773Y-44969133D02*
X145164059Y-45326276D01*
X145164059Y-45326276D02*
X145199773Y-45290562D01*
X145199773Y-45290562D02*
X145271202Y-45254848D01*
X145271202Y-45254848D02*
X145449773Y-45254848D01*
X145449773Y-45254848D02*
X145521202Y-45290562D01*
X145521202Y-45290562D02*
X145556916Y-45326276D01*
X145556916Y-45326276D02*
X145592630Y-45397705D01*
X145592630Y-45397705D02*
X145592630Y-45576276D01*
X145592630Y-45576276D02*
X145556916Y-45647705D01*
X145556916Y-45647705D02*
X145521202Y-45683419D01*
X145521202Y-45683419D02*
X145449773Y-45719133D01*
X145449773Y-45719133D02*
X145271202Y-45719133D01*
X145271202Y-45719133D02*
X145199773Y-45683419D01*
X145199773Y-45683419D02*
X145164059Y-45647705D01*
X146342630Y-45647705D02*
X146306916Y-45683419D01*
X146306916Y-45683419D02*
X146199773Y-45719133D01*
X146199773Y-45719133D02*
X146128345Y-45719133D01*
X146128345Y-45719133D02*
X146021202Y-45683419D01*
X146021202Y-45683419D02*
X145949773Y-45611990D01*
X145949773Y-45611990D02*
X145914059Y-45540562D01*
X145914059Y-45540562D02*
X145878345Y-45397705D01*
X145878345Y-45397705D02*
X145878345Y-45290562D01*
X145878345Y-45290562D02*
X145914059Y-45147705D01*
X145914059Y-45147705D02*
X145949773Y-45076276D01*
X145949773Y-45076276D02*
X146021202Y-45004848D01*
X146021202Y-45004848D02*
X146128345Y-44969133D01*
X146128345Y-44969133D02*
X146199773Y-44969133D01*
X146199773Y-44969133D02*
X146306916Y-45004848D01*
X146306916Y-45004848D02*
X146342630Y-45040562D01*
X146628345Y-45504848D02*
X146985488Y-45504848D01*
X146556916Y-45719133D02*
X146806916Y-44969133D01*
X146806916Y-44969133D02*
X147056916Y-45719133D01*
X136835642Y-61070838D02*
X136835642Y-61499409D01*
X136835642Y-61285124D02*
X136085642Y-61285124D01*
X136085642Y-61285124D02*
X136192785Y-61356552D01*
X136192785Y-61356552D02*
X136264214Y-61427981D01*
X136264214Y-61427981D02*
X136299928Y-61499409D01*
X136085642Y-60606552D02*
X136085642Y-60535123D01*
X136085642Y-60535123D02*
X136121357Y-60463695D01*
X136121357Y-60463695D02*
X136157071Y-60427981D01*
X136157071Y-60427981D02*
X136228499Y-60392266D01*
X136228499Y-60392266D02*
X136371357Y-60356552D01*
X136371357Y-60356552D02*
X136549928Y-60356552D01*
X136549928Y-60356552D02*
X136692785Y-60392266D01*
X136692785Y-60392266D02*
X136764214Y-60427981D01*
X136764214Y-60427981D02*
X136799928Y-60463695D01*
X136799928Y-60463695D02*
X136835642Y-60535123D01*
X136835642Y-60535123D02*
X136835642Y-60606552D01*
X136835642Y-60606552D02*
X136799928Y-60677981D01*
X136799928Y-60677981D02*
X136764214Y-60713695D01*
X136764214Y-60713695D02*
X136692785Y-60749409D01*
X136692785Y-60749409D02*
X136549928Y-60785123D01*
X136549928Y-60785123D02*
X136371357Y-60785123D01*
X136371357Y-60785123D02*
X136228499Y-60749409D01*
X136228499Y-60749409D02*
X136157071Y-60713695D01*
X136157071Y-60713695D02*
X136121357Y-60677981D01*
X136121357Y-60677981D02*
X136085642Y-60606552D01*
X136085642Y-59892266D02*
X136085642Y-59820837D01*
X136085642Y-59820837D02*
X136121357Y-59749409D01*
X136121357Y-59749409D02*
X136157071Y-59713695D01*
X136157071Y-59713695D02*
X136228499Y-59677980D01*
X136228499Y-59677980D02*
X136371357Y-59642266D01*
X136371357Y-59642266D02*
X136549928Y-59642266D01*
X136549928Y-59642266D02*
X136692785Y-59677980D01*
X136692785Y-59677980D02*
X136764214Y-59713695D01*
X136764214Y-59713695D02*
X136799928Y-59749409D01*
X136799928Y-59749409D02*
X136835642Y-59820837D01*
X136835642Y-59820837D02*
X136835642Y-59892266D01*
X136835642Y-59892266D02*
X136799928Y-59963695D01*
X136799928Y-59963695D02*
X136764214Y-59999409D01*
X136764214Y-59999409D02*
X136692785Y-60035123D01*
X136692785Y-60035123D02*
X136549928Y-60070837D01*
X136549928Y-60070837D02*
X136371357Y-60070837D01*
X136371357Y-60070837D02*
X136228499Y-60035123D01*
X136228499Y-60035123D02*
X136157071Y-59999409D01*
X136157071Y-59999409D02*
X136121357Y-59963695D01*
X136121357Y-59963695D02*
X136085642Y-59892266D01*
X136335642Y-59320837D02*
X136835642Y-59320837D01*
X136407071Y-59320837D02*
X136371357Y-59285123D01*
X136371357Y-59285123D02*
X136335642Y-59213694D01*
X136335642Y-59213694D02*
X136335642Y-59106551D01*
X136335642Y-59106551D02*
X136371357Y-59035123D01*
X136371357Y-59035123D02*
X136442785Y-58999409D01*
X136442785Y-58999409D02*
X136835642Y-58999409D01*
X136442785Y-58392266D02*
X136442785Y-58642266D01*
X136835642Y-58642266D02*
X136085642Y-58642266D01*
X136085642Y-58642266D02*
X136085642Y-58285123D01*
X138824472Y-86488050D02*
X138467329Y-86488050D01*
X138467329Y-86488050D02*
X138431615Y-86845193D01*
X138431615Y-86845193D02*
X138467329Y-86809479D01*
X138467329Y-86809479D02*
X138538758Y-86773765D01*
X138538758Y-86773765D02*
X138717329Y-86773765D01*
X138717329Y-86773765D02*
X138788758Y-86809479D01*
X138788758Y-86809479D02*
X138824472Y-86845193D01*
X138824472Y-86845193D02*
X138860186Y-86916622D01*
X138860186Y-86916622D02*
X138860186Y-87095193D01*
X138860186Y-87095193D02*
X138824472Y-87166622D01*
X138824472Y-87166622D02*
X138788758Y-87202336D01*
X138788758Y-87202336D02*
X138717329Y-87238050D01*
X138717329Y-87238050D02*
X138538758Y-87238050D01*
X138538758Y-87238050D02*
X138467329Y-87202336D01*
X138467329Y-87202336D02*
X138431615Y-87166622D01*
X139181615Y-87238050D02*
X139181615Y-86488050D01*
X139253044Y-86952336D02*
X139467329Y-87238050D01*
X139467329Y-86738050D02*
X139181615Y-87023765D01*
X140181615Y-87238050D02*
X139753044Y-87238050D01*
X139967329Y-87238050D02*
X139967329Y-86488050D01*
X139967329Y-86488050D02*
X139895901Y-86595193D01*
X139895901Y-86595193D02*
X139824472Y-86666622D01*
X139824472Y-86666622D02*
X139753044Y-86702336D01*
X137506249Y-53936654D02*
X137172915Y-53936654D01*
X137172915Y-53936654D02*
X137172915Y-53236654D01*
X137672916Y-53236654D02*
X138139582Y-53236654D01*
X138139582Y-53236654D02*
X137839582Y-53936654D01*
X138506249Y-53536654D02*
X138439583Y-53503321D01*
X138439583Y-53503321D02*
X138406249Y-53469988D01*
X138406249Y-53469988D02*
X138372916Y-53403321D01*
X138372916Y-53403321D02*
X138372916Y-53369988D01*
X138372916Y-53369988D02*
X138406249Y-53303321D01*
X138406249Y-53303321D02*
X138439583Y-53269988D01*
X138439583Y-53269988D02*
X138506249Y-53236654D01*
X138506249Y-53236654D02*
X138639583Y-53236654D01*
X138639583Y-53236654D02*
X138706249Y-53269988D01*
X138706249Y-53269988D02*
X138739583Y-53303321D01*
X138739583Y-53303321D02*
X138772916Y-53369988D01*
X138772916Y-53369988D02*
X138772916Y-53403321D01*
X138772916Y-53403321D02*
X138739583Y-53469988D01*
X138739583Y-53469988D02*
X138706249Y-53503321D01*
X138706249Y-53503321D02*
X138639583Y-53536654D01*
X138639583Y-53536654D02*
X138506249Y-53536654D01*
X138506249Y-53536654D02*
X138439583Y-53569988D01*
X138439583Y-53569988D02*
X138406249Y-53603321D01*
X138406249Y-53603321D02*
X138372916Y-53669988D01*
X138372916Y-53669988D02*
X138372916Y-53803321D01*
X138372916Y-53803321D02*
X138406249Y-53869988D01*
X138406249Y-53869988D02*
X138439583Y-53903321D01*
X138439583Y-53903321D02*
X138506249Y-53936654D01*
X138506249Y-53936654D02*
X138639583Y-53936654D01*
X138639583Y-53936654D02*
X138706249Y-53903321D01*
X138706249Y-53903321D02*
X138739583Y-53869988D01*
X138739583Y-53869988D02*
X138772916Y-53803321D01*
X138772916Y-53803321D02*
X138772916Y-53669988D01*
X138772916Y-53669988D02*
X138739583Y-53603321D01*
X138739583Y-53603321D02*
X138706249Y-53569988D01*
X138706249Y-53569988D02*
X138639583Y-53536654D01*
X139406250Y-53936654D02*
X139072916Y-53936654D01*
X139072916Y-53936654D02*
X139072916Y-53236654D01*
X139572917Y-53236654D02*
X140006250Y-53236654D01*
X140006250Y-53236654D02*
X139772917Y-53503321D01*
X139772917Y-53503321D02*
X139872917Y-53503321D01*
X139872917Y-53503321D02*
X139939583Y-53536654D01*
X139939583Y-53536654D02*
X139972917Y-53569988D01*
X139972917Y-53569988D02*
X140006250Y-53636654D01*
X140006250Y-53636654D02*
X140006250Y-53803321D01*
X140006250Y-53803321D02*
X139972917Y-53869988D01*
X139972917Y-53869988D02*
X139939583Y-53903321D01*
X139939583Y-53903321D02*
X139872917Y-53936654D01*
X139872917Y-53936654D02*
X139672917Y-53936654D01*
X139672917Y-53936654D02*
X139606250Y-53903321D01*
X139606250Y-53903321D02*
X139572917Y-53869988D01*
X140239584Y-53236654D02*
X140672917Y-53236654D01*
X140672917Y-53236654D02*
X140439584Y-53503321D01*
X140439584Y-53503321D02*
X140539584Y-53503321D01*
X140539584Y-53503321D02*
X140606250Y-53536654D01*
X140606250Y-53536654D02*
X140639584Y-53569988D01*
X140639584Y-53569988D02*
X140672917Y-53636654D01*
X140672917Y-53636654D02*
X140672917Y-53803321D01*
X140672917Y-53803321D02*
X140639584Y-53869988D01*
X140639584Y-53869988D02*
X140606250Y-53903321D01*
X140606250Y-53903321D02*
X140539584Y-53936654D01*
X140539584Y-53936654D02*
X140339584Y-53936654D01*
X140339584Y-53936654D02*
X140272917Y-53903321D01*
X140272917Y-53903321D02*
X140239584Y-53869988D01*
X133837654Y-38614285D02*
X133837654Y-38995237D01*
X133837654Y-38995237D02*
X134218607Y-39033333D01*
X134218607Y-39033333D02*
X134180511Y-38995237D01*
X134180511Y-38995237D02*
X134142416Y-38919047D01*
X134142416Y-38919047D02*
X134142416Y-38728571D01*
X134142416Y-38728571D02*
X134180511Y-38652380D01*
X134180511Y-38652380D02*
X134218607Y-38614285D01*
X134218607Y-38614285D02*
X134294797Y-38576190D01*
X134294797Y-38576190D02*
X134485273Y-38576190D01*
X134485273Y-38576190D02*
X134561464Y-38614285D01*
X134561464Y-38614285D02*
X134599559Y-38652380D01*
X134599559Y-38652380D02*
X134637654Y-38728571D01*
X134637654Y-38728571D02*
X134637654Y-38919047D01*
X134637654Y-38919047D02*
X134599559Y-38995237D01*
X134599559Y-38995237D02*
X134561464Y-39033333D01*
X134637654Y-38233332D02*
X133837654Y-38233332D01*
X134332892Y-38157142D02*
X134637654Y-37928570D01*
X134104321Y-37928570D02*
X134409083Y-38233332D01*
X134637654Y-37166666D02*
X134637654Y-37623809D01*
X134637654Y-37395237D02*
X133837654Y-37395237D01*
X133837654Y-37395237D02*
X133951940Y-37471428D01*
X133951940Y-37471428D02*
X134028130Y-37547618D01*
X134028130Y-37547618D02*
X134066226Y-37623809D01*
X139310438Y-60777539D02*
X139310438Y-61234682D01*
X139310438Y-61006110D02*
X138510438Y-61006110D01*
X138510438Y-61006110D02*
X138624724Y-61082301D01*
X138624724Y-61082301D02*
X138700914Y-61158491D01*
X138700914Y-61158491D02*
X138739010Y-61234682D01*
X138510438Y-60282300D02*
X138510438Y-60206110D01*
X138510438Y-60206110D02*
X138548534Y-60129919D01*
X138548534Y-60129919D02*
X138586629Y-60091824D01*
X138586629Y-60091824D02*
X138662819Y-60053729D01*
X138662819Y-60053729D02*
X138815200Y-60015634D01*
X138815200Y-60015634D02*
X139005676Y-60015634D01*
X139005676Y-60015634D02*
X139158057Y-60053729D01*
X139158057Y-60053729D02*
X139234248Y-60091824D01*
X139234248Y-60091824D02*
X139272343Y-60129919D01*
X139272343Y-60129919D02*
X139310438Y-60206110D01*
X139310438Y-60206110D02*
X139310438Y-60282300D01*
X139310438Y-60282300D02*
X139272343Y-60358491D01*
X139272343Y-60358491D02*
X139234248Y-60396586D01*
X139234248Y-60396586D02*
X139158057Y-60434681D01*
X139158057Y-60434681D02*
X139005676Y-60472777D01*
X139005676Y-60472777D02*
X138815200Y-60472777D01*
X138815200Y-60472777D02*
X138662819Y-60434681D01*
X138662819Y-60434681D02*
X138586629Y-60396586D01*
X138586629Y-60396586D02*
X138548534Y-60358491D01*
X138548534Y-60358491D02*
X138510438Y-60282300D01*
X138777105Y-59329919D02*
X139310438Y-59329919D01*
X138777105Y-59672776D02*
X139196153Y-59672776D01*
X139196153Y-59672776D02*
X139272343Y-59634681D01*
X139272343Y-59634681D02*
X139310438Y-59558491D01*
X139310438Y-59558491D02*
X139310438Y-59444205D01*
X139310438Y-59444205D02*
X139272343Y-59368014D01*
X139272343Y-59368014D02*
X139234248Y-59329919D01*
X138891391Y-58682300D02*
X138891391Y-58948966D01*
X139310438Y-58948966D02*
X138510438Y-58948966D01*
X138510438Y-58948966D02*
X138510438Y-58568014D01*
D10*
%TO.C,*%
%TO.C,D41*%
X141283570Y-27893214D02*
X141354999Y-27928928D01*
X141354999Y-27928928D02*
X141390713Y-27964642D01*
X141390713Y-27964642D02*
X141426427Y-28036071D01*
X141426427Y-28036071D02*
X141426427Y-28250357D01*
X141426427Y-28250357D02*
X141390713Y-28321785D01*
X141390713Y-28321785D02*
X141354999Y-28357500D01*
X141354999Y-28357500D02*
X141283570Y-28393214D01*
X141283570Y-28393214D02*
X141176427Y-28393214D01*
X141176427Y-28393214D02*
X141104999Y-28357500D01*
X141104999Y-28357500D02*
X141069285Y-28321785D01*
X141069285Y-28321785D02*
X141033570Y-28250357D01*
X141033570Y-28250357D02*
X141033570Y-28036071D01*
X141033570Y-28036071D02*
X141069285Y-27964642D01*
X141069285Y-27964642D02*
X141104999Y-27928928D01*
X141104999Y-27928928D02*
X141176427Y-27893214D01*
X141176427Y-27893214D02*
X141283570Y-27893214D01*
X137940714Y-31034285D02*
X137940714Y-30534285D01*
X137940714Y-30284285D02*
X137905000Y-30320000D01*
X137905000Y-30320000D02*
X137940714Y-30355714D01*
X137940714Y-30355714D02*
X137976428Y-30320000D01*
X137976428Y-30320000D02*
X137940714Y-30284285D01*
X137940714Y-30284285D02*
X137940714Y-30355714D01*
X138297857Y-30534285D02*
X138297857Y-31034285D01*
X138297857Y-30605714D02*
X138333571Y-30570000D01*
X138333571Y-30570000D02*
X138405000Y-30534285D01*
X138405000Y-30534285D02*
X138512143Y-30534285D01*
X138512143Y-30534285D02*
X138583571Y-30570000D01*
X138583571Y-30570000D02*
X138619286Y-30641428D01*
X138619286Y-30641428D02*
X138619286Y-31034285D01*
X140386607Y-30481785D02*
X140029464Y-30481785D01*
X140029464Y-30481785D02*
X139993750Y-30838928D01*
X139993750Y-30838928D02*
X140029464Y-30803214D01*
X140029464Y-30803214D02*
X140100893Y-30767500D01*
X140100893Y-30767500D02*
X140279464Y-30767500D01*
X140279464Y-30767500D02*
X140350893Y-30803214D01*
X140350893Y-30803214D02*
X140386607Y-30838928D01*
X140386607Y-30838928D02*
X140422321Y-30910357D01*
X140422321Y-30910357D02*
X140422321Y-31088928D01*
X140422321Y-31088928D02*
X140386607Y-31160357D01*
X140386607Y-31160357D02*
X140350893Y-31196071D01*
X140350893Y-31196071D02*
X140279464Y-31231785D01*
X140279464Y-31231785D02*
X140100893Y-31231785D01*
X140100893Y-31231785D02*
X140029464Y-31196071D01*
X140029464Y-31196071D02*
X139993750Y-31160357D01*
X140672321Y-30731785D02*
X140850893Y-31231785D01*
X140850893Y-31231785D02*
X141029464Y-30731785D01*
X139102678Y-27342500D02*
X139031250Y-27306785D01*
X139031250Y-27306785D02*
X138924107Y-27306785D01*
X138924107Y-27306785D02*
X138816964Y-27342500D01*
X138816964Y-27342500D02*
X138745535Y-27413928D01*
X138745535Y-27413928D02*
X138709821Y-27485357D01*
X138709821Y-27485357D02*
X138674107Y-27628214D01*
X138674107Y-27628214D02*
X138674107Y-27735357D01*
X138674107Y-27735357D02*
X138709821Y-27878214D01*
X138709821Y-27878214D02*
X138745535Y-27949642D01*
X138745535Y-27949642D02*
X138816964Y-28021071D01*
X138816964Y-28021071D02*
X138924107Y-28056785D01*
X138924107Y-28056785D02*
X138995535Y-28056785D01*
X138995535Y-28056785D02*
X139102678Y-28021071D01*
X139102678Y-28021071D02*
X139138392Y-27985357D01*
X139138392Y-27985357D02*
X139138392Y-27735357D01*
X139138392Y-27735357D02*
X138995535Y-27735357D01*
%TO.C,D42*%
X153189820Y-27893214D02*
X153261249Y-27928928D01*
X153261249Y-27928928D02*
X153296963Y-27964642D01*
X153296963Y-27964642D02*
X153332677Y-28036071D01*
X153332677Y-28036071D02*
X153332677Y-28250357D01*
X153332677Y-28250357D02*
X153296963Y-28321785D01*
X153296963Y-28321785D02*
X153261249Y-28357500D01*
X153261249Y-28357500D02*
X153189820Y-28393214D01*
X153189820Y-28393214D02*
X153082677Y-28393214D01*
X153082677Y-28393214D02*
X153011249Y-28357500D01*
X153011249Y-28357500D02*
X152975535Y-28321785D01*
X152975535Y-28321785D02*
X152939820Y-28250357D01*
X152939820Y-28250357D02*
X152939820Y-28036071D01*
X152939820Y-28036071D02*
X152975535Y-27964642D01*
X152975535Y-27964642D02*
X153011249Y-27928928D01*
X153011249Y-27928928D02*
X153082677Y-27893214D01*
X153082677Y-27893214D02*
X153189820Y-27893214D01*
X152292857Y-30481785D02*
X151935714Y-30481785D01*
X151935714Y-30481785D02*
X151900000Y-30838928D01*
X151900000Y-30838928D02*
X151935714Y-30803214D01*
X151935714Y-30803214D02*
X152007143Y-30767500D01*
X152007143Y-30767500D02*
X152185714Y-30767500D01*
X152185714Y-30767500D02*
X152257143Y-30803214D01*
X152257143Y-30803214D02*
X152292857Y-30838928D01*
X152292857Y-30838928D02*
X152328571Y-30910357D01*
X152328571Y-30910357D02*
X152328571Y-31088928D01*
X152328571Y-31088928D02*
X152292857Y-31160357D01*
X152292857Y-31160357D02*
X152257143Y-31196071D01*
X152257143Y-31196071D02*
X152185714Y-31231785D01*
X152185714Y-31231785D02*
X152007143Y-31231785D01*
X152007143Y-31231785D02*
X151935714Y-31196071D01*
X151935714Y-31196071D02*
X151900000Y-31160357D01*
X152578571Y-30731785D02*
X152757143Y-31231785D01*
X152757143Y-31231785D02*
X152935714Y-30731785D01*
X151008928Y-27342500D02*
X150937500Y-27306785D01*
X150937500Y-27306785D02*
X150830357Y-27306785D01*
X150830357Y-27306785D02*
X150723214Y-27342500D01*
X150723214Y-27342500D02*
X150651785Y-27413928D01*
X150651785Y-27413928D02*
X150616071Y-27485357D01*
X150616071Y-27485357D02*
X150580357Y-27628214D01*
X150580357Y-27628214D02*
X150580357Y-27735357D01*
X150580357Y-27735357D02*
X150616071Y-27878214D01*
X150616071Y-27878214D02*
X150651785Y-27949642D01*
X150651785Y-27949642D02*
X150723214Y-28021071D01*
X150723214Y-28021071D02*
X150830357Y-28056785D01*
X150830357Y-28056785D02*
X150901785Y-28056785D01*
X150901785Y-28056785D02*
X151008928Y-28021071D01*
X151008928Y-28021071D02*
X151044642Y-27985357D01*
X151044642Y-27985357D02*
X151044642Y-27735357D01*
X151044642Y-27735357D02*
X150901785Y-27735357D01*
X149846964Y-31034285D02*
X149846964Y-30534285D01*
X149846964Y-30284285D02*
X149811250Y-30320000D01*
X149811250Y-30320000D02*
X149846964Y-30355714D01*
X149846964Y-30355714D02*
X149882678Y-30320000D01*
X149882678Y-30320000D02*
X149846964Y-30284285D01*
X149846964Y-30284285D02*
X149846964Y-30355714D01*
X150204107Y-30534285D02*
X150204107Y-31034285D01*
X150204107Y-30605714D02*
X150239821Y-30570000D01*
X150239821Y-30570000D02*
X150311250Y-30534285D01*
X150311250Y-30534285D02*
X150418393Y-30534285D01*
X150418393Y-30534285D02*
X150489821Y-30570000D01*
X150489821Y-30570000D02*
X150525536Y-30641428D01*
X150525536Y-30641428D02*
X150525536Y-31034285D01*
%TO.C,D6*%
X162043750Y-31250000D02*
X162043750Y-32250000D01*
X162143750Y-31750000D02*
X163043750Y-31250000D01*
X163043750Y-31250000D02*
X163043750Y-32250000D01*
X163043750Y-32250000D02*
X162143750Y-31750000D01*
D12*
%TO.C,SW2*%
X147712500Y-91325000D02*
X147712500Y-92825000D01*
X148962500Y-95325000D02*
X153462500Y-95325000D01*
X153462500Y-88825000D02*
X148962500Y-88825000D01*
X154712500Y-92825000D02*
X154712500Y-91325000D01*
%TO.C,R4*%
X136418264Y-84517916D02*
X137368264Y-84517916D01*
X137368264Y-83597916D02*
X137368264Y-85437916D01*
X137368264Y-85437916D02*
X141208264Y-85437916D01*
X141208264Y-83597916D02*
X137368264Y-83597916D01*
X141208264Y-85437916D02*
X141208264Y-83597916D01*
X142158264Y-84517916D02*
X141208264Y-84517916D01*
%TO.C,F1*%
X156137750Y-36116000D02*
X150227750Y-36116000D01*
X156137750Y-33752000D02*
X150227750Y-33752000D01*
%TO.C,C9*%
X151330000Y-62166757D02*
X151345000Y-62166757D01*
X151330000Y-62166757D02*
X151330000Y-57626757D01*
X153455000Y-62166757D02*
X153470000Y-62166757D01*
X153470000Y-62166757D02*
X153470000Y-57626757D01*
X151330000Y-57626757D02*
X151345000Y-57626757D01*
X153455000Y-57626757D02*
X153470000Y-57626757D01*
%TO.C,R1*%
X136725000Y-35230000D02*
X136725000Y-36180000D01*
X137645000Y-36180000D02*
X135805000Y-36180000D01*
X135805000Y-36180000D02*
X135805000Y-40020000D01*
X137645000Y-40020000D02*
X137645000Y-36180000D01*
X135805000Y-40020000D02*
X137645000Y-40020000D01*
X136725000Y-40970000D02*
X136725000Y-40020000D01*
D10*
%TO.C,D4*%
X125912500Y-35425000D02*
X125912500Y-34425000D01*
X125812500Y-34925000D02*
X124912500Y-35425000D01*
X124912500Y-35425000D02*
X124912500Y-34425000D01*
X124912500Y-34425000D02*
X125812500Y-34925000D01*
D12*
%TO.C,C6*%
X135405000Y-62166757D02*
X135420000Y-62166757D01*
X135405000Y-62166757D02*
X135405000Y-57626757D01*
X137530000Y-62166757D02*
X137545000Y-62166757D01*
X137545000Y-62166757D02*
X137545000Y-57626757D01*
X135405000Y-57626757D02*
X135420000Y-57626757D01*
X137530000Y-57626757D02*
X137545000Y-57626757D01*
%TO.C,C7*%
X137994728Y-80438071D02*
X137994728Y-80423071D01*
X137994728Y-80438071D02*
X133454728Y-80438071D01*
X137994728Y-78313071D02*
X137994728Y-78298071D01*
X137994728Y-78298071D02*
X133454728Y-78298071D01*
X133454728Y-80438071D02*
X133454728Y-80423071D01*
X133454728Y-78313071D02*
X133454728Y-78298071D01*
D10*
%TO.C,D12*%
X128293750Y-51300000D02*
X128293750Y-50300000D01*
X128193750Y-50800000D02*
X127293750Y-51300000D01*
X127293750Y-51300000D02*
X127293750Y-50300000D01*
X127293750Y-50300000D02*
X128193750Y-50800000D01*
D12*
%TO.C,D45*%
X155170000Y-53900000D02*
X154520000Y-53900000D01*
X154520000Y-55020000D02*
X154520000Y-52780000D01*
X154520000Y-52780000D02*
X150280000Y-52780000D01*
X153920000Y-55020000D02*
X153920000Y-52780000D01*
X153800000Y-55020000D02*
X153800000Y-52780000D01*
X153680000Y-55020000D02*
X153680000Y-52780000D01*
X150280000Y-55020000D02*
X154520000Y-55020000D01*
X150280000Y-52780000D02*
X150280000Y-55020000D01*
X149630000Y-53900000D02*
X150280000Y-53900000D01*
D10*
%TO.C,D3*%
X128293750Y-38600000D02*
X128293750Y-37600000D01*
X128193750Y-38100000D02*
X127293750Y-38600000D01*
X127293750Y-38600000D02*
X127293750Y-37600000D01*
X127293750Y-37600000D02*
X128193750Y-38100000D01*
%TO.C,D8*%
X162043750Y-37600000D02*
X162043750Y-38600000D01*
X162143750Y-38100000D02*
X163043750Y-37600000D01*
X163043750Y-37600000D02*
X163043750Y-38600000D01*
X163043750Y-38600000D02*
X162143750Y-38100000D01*
%TO.C,D16*%
X164600000Y-59625000D02*
X164600000Y-60625000D01*
X164700000Y-60125000D02*
X165600000Y-59625000D01*
X165600000Y-59625000D02*
X165600000Y-60625000D01*
X165600000Y-60625000D02*
X164700000Y-60125000D01*
D12*
%TO.C,C1*%
X135695429Y-49732571D02*
X135680429Y-49732571D01*
X135695429Y-49732571D02*
X135695429Y-54272571D01*
X133570429Y-49732571D02*
X133555429Y-49732571D01*
X133555429Y-49732571D02*
X133555429Y-54272571D01*
X135695429Y-54272571D02*
X135680429Y-54272571D01*
X133570429Y-54272571D02*
X133555429Y-54272571D01*
D10*
%TO.C,D9*%
X164600000Y-40775000D02*
X164600000Y-41775000D01*
X164700000Y-41275000D02*
X165600000Y-40775000D01*
X165600000Y-40775000D02*
X165600000Y-41775000D01*
X165600000Y-41775000D02*
X164700000Y-41275000D01*
%TO.C,D24*%
X125912500Y-67175000D02*
X125912500Y-66175000D01*
X125812500Y-66675000D02*
X124912500Y-67175000D01*
X124912500Y-67175000D02*
X124912500Y-66175000D01*
X124912500Y-66175000D02*
X125812500Y-66675000D01*
%TO.C,D38*%
X164600000Y-85225000D02*
X164600000Y-86225000D01*
X164700000Y-85725000D02*
X165600000Y-85225000D01*
X165600000Y-85225000D02*
X165600000Y-86225000D01*
X165600000Y-86225000D02*
X164700000Y-85725000D01*
%TO.C,D29*%
X164600000Y-72525000D02*
X164600000Y-73525000D01*
X164700000Y-73025000D02*
X165600000Y-72525000D01*
X165600000Y-72525000D02*
X165600000Y-73525000D01*
X165600000Y-73525000D02*
X164700000Y-73025000D01*
D12*
%TO.C,R2*%
X134343750Y-35230000D02*
X134343750Y-36180000D01*
X135263750Y-36180000D02*
X133423750Y-36180000D01*
X133423750Y-36180000D02*
X133423750Y-40020000D01*
X135263750Y-40020000D02*
X135263750Y-36180000D01*
X133423750Y-40020000D02*
X135263750Y-40020000D01*
X134343750Y-40970000D02*
X134343750Y-40020000D01*
D10*
%TO.C,D18*%
X164600000Y-53475000D02*
X164600000Y-54475000D01*
X164700000Y-53975000D02*
X165600000Y-53475000D01*
X165600000Y-53475000D02*
X165600000Y-54475000D01*
X165600000Y-54475000D02*
X164700000Y-53975000D01*
%TO.C,D7*%
X164600000Y-34425000D02*
X164600000Y-35425000D01*
X164700000Y-34925000D02*
X165600000Y-34425000D01*
X165600000Y-34425000D02*
X165600000Y-35425000D01*
X165600000Y-35425000D02*
X164700000Y-34925000D01*
%TO.C,D34*%
X128293750Y-89400000D02*
X128293750Y-88400000D01*
X128193750Y-88900000D02*
X127293750Y-89400000D01*
X127293750Y-89400000D02*
X127293750Y-88400000D01*
X127293750Y-88400000D02*
X128193750Y-88900000D01*
%TO.C,D20*%
X164600000Y-47125000D02*
X164600000Y-48125000D01*
X164700000Y-47625000D02*
X165600000Y-47125000D01*
X165600000Y-47125000D02*
X165600000Y-48125000D01*
X165600000Y-48125000D02*
X164700000Y-47625000D01*
%TO.C,D13*%
X125912500Y-54475000D02*
X125912500Y-53475000D01*
X125812500Y-53975000D02*
X124912500Y-54475000D01*
X124912500Y-54475000D02*
X124912500Y-53475000D01*
X124912500Y-53475000D02*
X125812500Y-53975000D01*
D12*
%TO.C,D43*%
X141147678Y-43447784D02*
X148987678Y-43447784D01*
X141147678Y-43927784D02*
X141147678Y-43447784D01*
X141147678Y-46807784D02*
X141147678Y-47287784D01*
X141147678Y-47287784D02*
X148987678Y-47287784D01*
X148987678Y-43447784D02*
X148987678Y-43927784D01*
X148987678Y-47287784D02*
X148987678Y-46807784D01*
D10*
%TO.C,D15*%
X125912500Y-60625000D02*
X125912500Y-59625000D01*
X125812500Y-60125000D02*
X124912500Y-60625000D01*
X124912500Y-60625000D02*
X124912500Y-59625000D01*
X124912500Y-59625000D02*
X125812500Y-60125000D01*
%TO.C,D33*%
X125912500Y-86225000D02*
X125912500Y-85225000D01*
X125812500Y-85725000D02*
X124912500Y-86225000D01*
X124912500Y-86225000D02*
X124912500Y-85225000D01*
X124912500Y-85225000D02*
X125812500Y-85725000D01*
%TO.C,D10*%
X162218750Y-43950000D02*
X162218750Y-44950000D01*
X162318750Y-44450000D02*
X163218750Y-43950000D01*
X163218750Y-43950000D02*
X163218750Y-44950000D01*
X163218750Y-44950000D02*
X162318750Y-44450000D01*
%TO.C,D36*%
X164600000Y-91575000D02*
X164600000Y-92575000D01*
X164700000Y-92075000D02*
X165600000Y-91575000D01*
X165600000Y-91575000D02*
X165600000Y-92575000D01*
X165600000Y-92575000D02*
X164700000Y-92075000D01*
%TO.C,D19*%
X162218750Y-50300000D02*
X162218750Y-51300000D01*
X162318750Y-50800000D02*
X163218750Y-50300000D01*
X163218750Y-50300000D02*
X163218750Y-51300000D01*
X163218750Y-51300000D02*
X162318750Y-50800000D01*
%TO.C,G\u002A\u002A\u002A*%
G36*
X140588588Y-80036802D02*
G01*
X140588588Y-80625071D01*
X140805752Y-80625071D01*
X141022917Y-80625071D01*
X141022917Y-80748772D01*
X141022917Y-80872473D01*
X140673804Y-80872473D01*
X140324692Y-80872473D01*
X140324692Y-80160503D01*
X140324692Y-79448534D01*
X140456640Y-79448534D01*
X140588588Y-79448534D01*
X140588588Y-80036802D01*
G37*
G36*
X144068718Y-79572235D02*
G01*
X144068718Y-79695936D01*
X143936769Y-79695936D01*
X143804821Y-79695936D01*
X143804821Y-80284205D01*
X143804821Y-80872473D01*
X143672898Y-80872473D01*
X143540975Y-80872473D01*
X143539576Y-80285579D01*
X143538176Y-79698685D01*
X143407603Y-79697211D01*
X143277029Y-79695737D01*
X143277029Y-79572135D01*
X143277029Y-79448534D01*
X143672873Y-79448534D01*
X144068718Y-79448534D01*
X144068718Y-79572235D01*
G37*
G36*
X150165817Y-79921018D02*
G01*
X150165817Y-80036143D01*
X149929410Y-80335862D01*
X149889942Y-80385942D01*
X149852537Y-80433485D01*
X149817744Y-80477790D01*
X149786111Y-80518154D01*
X149758186Y-80553875D01*
X149734517Y-80584253D01*
X149715652Y-80608583D01*
X149702140Y-80626166D01*
X149694529Y-80636298D01*
X149693003Y-80638572D01*
X149698319Y-80639185D01*
X149713540Y-80639756D01*
X149737573Y-80640271D01*
X149769329Y-80640719D01*
X149807715Y-80641084D01*
X149851642Y-80641355D01*
X149900016Y-80641519D01*
X149943155Y-80641564D01*
X150193306Y-80641564D01*
X150193306Y-80757019D01*
X150193306Y-80872473D01*
X149789215Y-80872473D01*
X149385124Y-80872473D01*
X149385348Y-80752895D01*
X149385571Y-80633317D01*
X149619006Y-80337856D01*
X149658237Y-80288160D01*
X149695400Y-80241008D01*
X149729940Y-80197106D01*
X149761307Y-80157160D01*
X149788947Y-80121875D01*
X149812308Y-80091957D01*
X149830838Y-80068112D01*
X149843984Y-80051047D01*
X149851194Y-80041465D01*
X149852440Y-80039598D01*
X149847142Y-80038973D01*
X149832041Y-80038397D01*
X149808333Y-80037885D01*
X149777212Y-80037454D01*
X149739871Y-80037119D01*
X149697504Y-80036897D01*
X149651306Y-80036804D01*
X149643523Y-80036802D01*
X149434605Y-80036802D01*
X149434605Y-79921348D01*
X149434605Y-79805893D01*
X149800211Y-79805893D01*
X150165817Y-79805893D01*
X150165817Y-79921018D01*
G37*
G36*
X147320687Y-79806082D02*
G01*
X147449287Y-80160739D01*
X147470889Y-80220198D01*
X147491416Y-80276468D01*
X147510558Y-80328721D01*
X147528009Y-80376127D01*
X147543460Y-80417857D01*
X147556605Y-80453082D01*
X147567134Y-80480972D01*
X147574742Y-80500698D01*
X147579119Y-80511432D01*
X147580079Y-80513204D01*
X147582184Y-80507763D01*
X147587542Y-80492771D01*
X147595858Y-80469082D01*
X147606836Y-80437552D01*
X147620180Y-80399034D01*
X147635594Y-80354385D01*
X147652781Y-80304459D01*
X147671447Y-80250112D01*
X147691295Y-80192198D01*
X147702372Y-80159827D01*
X147822473Y-79808642D01*
X147963925Y-79807173D01*
X148008425Y-79806813D01*
X148042965Y-79806795D01*
X148068575Y-79807159D01*
X148086287Y-79807946D01*
X148097131Y-79809197D01*
X148102138Y-79810953D01*
X148102667Y-79812671D01*
X148100270Y-79818628D01*
X148094022Y-79834093D01*
X148084200Y-79858384D01*
X148071080Y-79890817D01*
X148054939Y-79930709D01*
X148036052Y-79977377D01*
X148014698Y-80030138D01*
X147991151Y-80088309D01*
X147965689Y-80151206D01*
X147938587Y-80218147D01*
X147910124Y-80288448D01*
X147886798Y-80346055D01*
X147673640Y-80872473D01*
X147572623Y-80872473D01*
X147537026Y-80872434D01*
X147510872Y-80872194D01*
X147492607Y-80871572D01*
X147480677Y-80870388D01*
X147473530Y-80868459D01*
X147469613Y-80865603D01*
X147467371Y-80861641D01*
X147466752Y-80860103D01*
X147464054Y-80853367D01*
X147457524Y-80837136D01*
X147447447Y-80812112D01*
X147434104Y-80778996D01*
X147417778Y-80738490D01*
X147398754Y-80691296D01*
X147377312Y-80638115D01*
X147353737Y-80579650D01*
X147328311Y-80516603D01*
X147301318Y-80449674D01*
X147273039Y-80379566D01*
X147254532Y-80333685D01*
X147225639Y-80262059D01*
X147197890Y-80193261D01*
X147171562Y-80127983D01*
X147146936Y-80066917D01*
X147124290Y-80010755D01*
X147103902Y-79960189D01*
X147086053Y-79915911D01*
X147071021Y-79878612D01*
X147059085Y-79848985D01*
X147050523Y-79827723D01*
X147045616Y-79815515D01*
X147044518Y-79812765D01*
X147045920Y-79810578D01*
X147052684Y-79808881D01*
X147065815Y-79807625D01*
X147086321Y-79806761D01*
X147115207Y-79806238D01*
X147153479Y-79806007D01*
X147181279Y-79805988D01*
X147320687Y-79806082D01*
G37*
G36*
X144377756Y-79449834D02*
G01*
X144560345Y-79451283D01*
X144710268Y-79877365D01*
X144734498Y-79946222D01*
X144758518Y-80014479D01*
X144781957Y-80081075D01*
X144804440Y-80144951D01*
X144825594Y-80205045D01*
X144845047Y-80260299D01*
X144862424Y-80309652D01*
X144877353Y-80352043D01*
X144889461Y-80386414D01*
X144898374Y-80411703D01*
X144899856Y-80415904D01*
X144912867Y-80452648D01*
X144922792Y-80480091D01*
X144930153Y-80499322D01*
X144935472Y-80511425D01*
X144939271Y-80517490D01*
X144942071Y-80518602D01*
X144944395Y-80515848D01*
X144946052Y-80512117D01*
X144948751Y-80504718D01*
X144954806Y-80487663D01*
X144963963Y-80461678D01*
X144975967Y-80427494D01*
X144990563Y-80385838D01*
X145007496Y-80337438D01*
X145026512Y-80283024D01*
X145047355Y-80223324D01*
X145069771Y-80159066D01*
X145093506Y-80090978D01*
X145118304Y-80019791D01*
X145131523Y-79981824D01*
X145156708Y-79909483D01*
X145180912Y-79839981D01*
X145203886Y-79774033D01*
X145225379Y-79712357D01*
X145245141Y-79655667D01*
X145262923Y-79604681D01*
X145278475Y-79560115D01*
X145291546Y-79522684D01*
X145301888Y-79493106D01*
X145309250Y-79472095D01*
X145313383Y-79460369D01*
X145314182Y-79458155D01*
X145315864Y-79455538D01*
X145319410Y-79453441D01*
X145325933Y-79451808D01*
X145336542Y-79450580D01*
X145352351Y-79449702D01*
X145374469Y-79449115D01*
X145404008Y-79448763D01*
X145442080Y-79448589D01*
X145489796Y-79448535D01*
X145501492Y-79448534D01*
X145685081Y-79448534D01*
X145685081Y-80160503D01*
X145685081Y-80872473D01*
X145553133Y-80872473D01*
X145421185Y-80872473D01*
X145421185Y-80338859D01*
X145421140Y-80263358D01*
X145421009Y-80191096D01*
X145420798Y-80122817D01*
X145420514Y-80059261D01*
X145420163Y-80001170D01*
X145419750Y-79949287D01*
X145419283Y-79904353D01*
X145418768Y-79867111D01*
X145418211Y-79838302D01*
X145417617Y-79818668D01*
X145416994Y-79808952D01*
X145416704Y-79808014D01*
X145414349Y-79813495D01*
X145408708Y-79828695D01*
X145400021Y-79852919D01*
X145388529Y-79885471D01*
X145374474Y-79925658D01*
X145358096Y-79972782D01*
X145339637Y-80026150D01*
X145319339Y-80085065D01*
X145297441Y-80148834D01*
X145274186Y-80216760D01*
X145249814Y-80288148D01*
X145231562Y-80341737D01*
X145050901Y-80872690D01*
X144937833Y-80871207D01*
X144824765Y-80869724D01*
X144643289Y-80339374D01*
X144461813Y-79809024D01*
X144460411Y-80340749D01*
X144459009Y-80872473D01*
X144327088Y-80872473D01*
X144195168Y-80872473D01*
X144195168Y-80160429D01*
X144195168Y-79448385D01*
X144377756Y-79449834D01*
G37*
G36*
X145853538Y-80326689D02*
G01*
X146111534Y-80326689D01*
X146111535Y-80344681D01*
X146112004Y-80375768D01*
X146113309Y-80399088D01*
X146115887Y-80417863D01*
X146120172Y-80435314D01*
X146126265Y-80453728D01*
X146146960Y-80502225D01*
X146172667Y-80543623D01*
X146205679Y-80581477D01*
X146213700Y-80589257D01*
X146259359Y-80625295D01*
X146309402Y-80651675D01*
X146362711Y-80668088D01*
X146418169Y-80674228D01*
X146474660Y-80669787D01*
X146492751Y-80666086D01*
X146543994Y-80648477D01*
X146590919Y-80621185D01*
X146632796Y-80584922D01*
X146668894Y-80540397D01*
X146698486Y-80488321D01*
X146713923Y-80450653D01*
X146721645Y-80420453D01*
X146726649Y-80383372D01*
X146728776Y-80343222D01*
X146727865Y-80303816D01*
X146723756Y-80268967D01*
X146721918Y-80260148D01*
X146704346Y-80207012D01*
X146678093Y-80157205D01*
X146644453Y-80112115D01*
X146604723Y-80073129D01*
X146560199Y-80041632D01*
X146512176Y-80019013D01*
X146490286Y-80012233D01*
X146438358Y-80004155D01*
X146386488Y-80006330D01*
X146335801Y-80018070D01*
X146287420Y-80038683D01*
X146242469Y-80067480D01*
X146202072Y-80103772D01*
X146167354Y-80146868D01*
X146139438Y-80196077D01*
X146123357Y-80237473D01*
X146117807Y-80257176D01*
X146114225Y-80276452D01*
X146112253Y-80298543D01*
X146111534Y-80326689D01*
X145853538Y-80326689D01*
X145856743Y-80269427D01*
X145870480Y-80196566D01*
X145893779Y-80125732D01*
X145926604Y-80057903D01*
X145968917Y-79994053D01*
X146005789Y-79950500D01*
X146062780Y-79897066D01*
X146124256Y-79853098D01*
X146189334Y-79818470D01*
X146257131Y-79793054D01*
X146326765Y-79776724D01*
X146397350Y-79769351D01*
X146468004Y-79770809D01*
X146537844Y-79780969D01*
X146605987Y-79799706D01*
X146671548Y-79826891D01*
X146733646Y-79862398D01*
X146791395Y-79906099D01*
X146843914Y-79957866D01*
X146890318Y-80017573D01*
X146928945Y-80083534D01*
X146956954Y-80151049D01*
X146976046Y-80223366D01*
X146986032Y-80298597D01*
X146986719Y-80374853D01*
X146977919Y-80450246D01*
X146969733Y-80487688D01*
X146945536Y-80561218D01*
X146912351Y-80629169D01*
X146870950Y-80691019D01*
X146822109Y-80746247D01*
X146766601Y-80794332D01*
X146705201Y-80834752D01*
X146638682Y-80866986D01*
X146567819Y-80890513D01*
X146493386Y-80904812D01*
X146416157Y-80909360D01*
X146349625Y-80905258D01*
X146278285Y-80891552D01*
X146208295Y-80867717D01*
X146141182Y-80834616D01*
X146078474Y-80793114D01*
X146021699Y-80744074D01*
X145977233Y-80694583D01*
X145932808Y-80630031D01*
X145898170Y-80561655D01*
X145873282Y-80490431D01*
X145858107Y-80417335D01*
X145852606Y-80343342D01*
X145853538Y-80326689D01*
G37*
G36*
X148162629Y-80326689D02*
G01*
X148420625Y-80326689D01*
X148420626Y-80344681D01*
X148421095Y-80375768D01*
X148422400Y-80399088D01*
X148424978Y-80417863D01*
X148429262Y-80435314D01*
X148435356Y-80453728D01*
X148456051Y-80502225D01*
X148481758Y-80543623D01*
X148514770Y-80581477D01*
X148522790Y-80589257D01*
X148568450Y-80625295D01*
X148618493Y-80651675D01*
X148671801Y-80668088D01*
X148727260Y-80674228D01*
X148783751Y-80669787D01*
X148801842Y-80666086D01*
X148853085Y-80648477D01*
X148900010Y-80621185D01*
X148941886Y-80584922D01*
X148977985Y-80540397D01*
X149007577Y-80488321D01*
X149023014Y-80450653D01*
X149030736Y-80420453D01*
X149035740Y-80383372D01*
X149037867Y-80343222D01*
X149036956Y-80303816D01*
X149032847Y-80268967D01*
X149031009Y-80260148D01*
X149013437Y-80207012D01*
X148987184Y-80157205D01*
X148953544Y-80112115D01*
X148913814Y-80073129D01*
X148869290Y-80041632D01*
X148821267Y-80019013D01*
X148799376Y-80012233D01*
X148747449Y-80004155D01*
X148695579Y-80006330D01*
X148644892Y-80018070D01*
X148596511Y-80038683D01*
X148551560Y-80067480D01*
X148511163Y-80103772D01*
X148476445Y-80146868D01*
X148448529Y-80196077D01*
X148432448Y-80237473D01*
X148426898Y-80257176D01*
X148423316Y-80276452D01*
X148421344Y-80298543D01*
X148420625Y-80326689D01*
X148162629Y-80326689D01*
X148165834Y-80269427D01*
X148179571Y-80196566D01*
X148202870Y-80125732D01*
X148235695Y-80057903D01*
X148278008Y-79994053D01*
X148314880Y-79950500D01*
X148371871Y-79897066D01*
X148433347Y-79853098D01*
X148498425Y-79818470D01*
X148566222Y-79793054D01*
X148635855Y-79776724D01*
X148706441Y-79769351D01*
X148777095Y-79770809D01*
X148846935Y-79780969D01*
X148915078Y-79799706D01*
X148980639Y-79826891D01*
X149042737Y-79862398D01*
X149100486Y-79906099D01*
X149153005Y-79957866D01*
X149199409Y-80017573D01*
X149238036Y-80083534D01*
X149266045Y-80151049D01*
X149285137Y-80223366D01*
X149295123Y-80298597D01*
X149295810Y-80374853D01*
X149287010Y-80450246D01*
X149278824Y-80487688D01*
X149254627Y-80561218D01*
X149221442Y-80629169D01*
X149180041Y-80691019D01*
X149131200Y-80746247D01*
X149075692Y-80794332D01*
X149014292Y-80834752D01*
X148947773Y-80866986D01*
X148876910Y-80890513D01*
X148802477Y-80904812D01*
X148725248Y-80909360D01*
X148658716Y-80905258D01*
X148587376Y-80891552D01*
X148517386Y-80867717D01*
X148450273Y-80834616D01*
X148387565Y-80793114D01*
X148330790Y-80744074D01*
X148286324Y-80694583D01*
X148241899Y-80630031D01*
X148207261Y-80561655D01*
X148182373Y-80490431D01*
X148167197Y-80417335D01*
X148161697Y-80343342D01*
X148162629Y-80326689D01*
G37*
G36*
X141111733Y-80187109D02*
G01*
X141135895Y-80114906D01*
X141169601Y-80045608D01*
X141201614Y-79995568D01*
X141221845Y-79970124D01*
X141247649Y-79941893D01*
X141276321Y-79913497D01*
X141305157Y-79887560D01*
X141331452Y-79866705D01*
X141341791Y-79859640D01*
X141408530Y-79822385D01*
X141476491Y-79795307D01*
X141547818Y-79777624D01*
X141580410Y-79772670D01*
X141659833Y-79767908D01*
X141736618Y-79773549D01*
X141810091Y-79789176D01*
X141879579Y-79814372D01*
X141944407Y-79848722D01*
X142003903Y-79891810D01*
X142057392Y-79943218D01*
X142104201Y-80002530D01*
X142143656Y-80069331D01*
X142173711Y-80139339D01*
X142190189Y-80196799D01*
X142200691Y-80258920D01*
X142204901Y-80322078D01*
X142202505Y-80382646D01*
X142197780Y-80416153D01*
X142191122Y-80451889D01*
X141777452Y-80453298D01*
X141698509Y-80453594D01*
X141629891Y-80453917D01*
X141570926Y-80454281D01*
X141520943Y-80454702D01*
X141479270Y-80455193D01*
X141445237Y-80455768D01*
X141418171Y-80456443D01*
X141397403Y-80457231D01*
X141382259Y-80458147D01*
X141372071Y-80459205D01*
X141366165Y-80460420D01*
X141363870Y-80461807D01*
X141363782Y-80462180D01*
X141367120Y-80476082D01*
X141376132Y-80495860D01*
X141389322Y-80519058D01*
X141405192Y-80543219D01*
X141422243Y-80565886D01*
X141437574Y-80583196D01*
X141469507Y-80610607D01*
X141507307Y-80635104D01*
X141547347Y-80654697D01*
X141586002Y-80667397D01*
X141594067Y-80669087D01*
X141646732Y-80674328D01*
X141700036Y-80671379D01*
X141750889Y-80660631D01*
X141793639Y-80643793D01*
X141817701Y-80628916D01*
X141842779Y-80609004D01*
X141865750Y-80586917D01*
X141883488Y-80565511D01*
X141889187Y-80556391D01*
X141899573Y-80537105D01*
X142035525Y-80537105D01*
X142171476Y-80537105D01*
X142163603Y-80559420D01*
X142137786Y-80617227D01*
X142102350Y-80673257D01*
X142058666Y-80726178D01*
X142008103Y-80774659D01*
X141952029Y-80817370D01*
X141891813Y-80852980D01*
X141836596Y-80877343D01*
X141786907Y-80892173D01*
X141731189Y-80902666D01*
X141673498Y-80908378D01*
X141617892Y-80908864D01*
X141579677Y-80905488D01*
X141503224Y-80889487D01*
X141430249Y-80863856D01*
X141361996Y-80829206D01*
X141299707Y-80786152D01*
X141253390Y-80744437D01*
X141203790Y-80686459D01*
X141163158Y-80623060D01*
X141131566Y-80555281D01*
X141109087Y-80484162D01*
X141095792Y-80410744D01*
X141091753Y-80336069D01*
X141097043Y-80261177D01*
X141100109Y-80245720D01*
X141353673Y-80245720D01*
X141647364Y-80245720D01*
X141712842Y-80245683D01*
X141768132Y-80245560D01*
X141814045Y-80245329D01*
X141851387Y-80244968D01*
X141880967Y-80244458D01*
X141903595Y-80243776D01*
X141920078Y-80242901D01*
X141931226Y-80241813D01*
X141937845Y-80240490D01*
X141940746Y-80238912D01*
X141941055Y-80238052D01*
X141938552Y-80222307D01*
X141931892Y-80200293D01*
X141922349Y-80175302D01*
X141911196Y-80150629D01*
X141899706Y-80129565D01*
X141898132Y-80127074D01*
X141864620Y-80084889D01*
X141824355Y-80051207D01*
X141777879Y-80026309D01*
X141725734Y-80010471D01*
X141668464Y-80003972D01*
X141657641Y-80003815D01*
X141610542Y-80007240D01*
X141563385Y-80016864D01*
X141520146Y-80031714D01*
X141496923Y-80043190D01*
X141457435Y-80071495D01*
X141421637Y-80108186D01*
X141391387Y-80150807D01*
X141368546Y-80196900D01*
X141359198Y-80225103D01*
X141353673Y-80245720D01*
X141100109Y-80245720D01*
X141111733Y-80187109D01*
G37*
G36*
X142751986Y-79423942D02*
G01*
X142785561Y-79424097D01*
X142810719Y-79424664D01*
X142830038Y-79425969D01*
X142846097Y-79428338D01*
X142861474Y-79432095D01*
X142878748Y-79437568D01*
X142889701Y-79441325D01*
X142943504Y-79463197D01*
X142990085Y-79489572D01*
X143032950Y-79522543D01*
X143046640Y-79535004D01*
X143092329Y-79585062D01*
X143128107Y-79639804D01*
X143154176Y-79699605D01*
X143170219Y-79761910D01*
X143173894Y-79783663D01*
X143176619Y-79802544D01*
X143177855Y-79814785D01*
X143177876Y-79815514D01*
X143178068Y-79827884D01*
X143044012Y-79827884D01*
X142909957Y-79827884D01*
X142906642Y-79815514D01*
X142903855Y-79800133D01*
X142903251Y-79791652D01*
X142899857Y-79776219D01*
X142891122Y-79755949D01*
X142878983Y-79734245D01*
X142865379Y-79714511D01*
X142852247Y-79700151D01*
X142850221Y-79698504D01*
X142819288Y-79681236D01*
X142783031Y-79671094D01*
X142744787Y-79668427D01*
X142707888Y-79673582D01*
X142686012Y-79681383D01*
X142658528Y-79698549D01*
X142634386Y-79721659D01*
X142616612Y-79747535D01*
X142611296Y-79759817D01*
X142605721Y-79786772D01*
X142604561Y-79818619D01*
X142607702Y-79850232D01*
X142613847Y-79873566D01*
X142628036Y-79898418D01*
X142650498Y-79923049D01*
X142678736Y-79945014D01*
X142698194Y-79956292D01*
X142713030Y-79962962D01*
X142735655Y-79972096D01*
X142763427Y-79982672D01*
X142793707Y-79993670D01*
X142806370Y-79998111D01*
X142862268Y-80018193D01*
X142912356Y-80037593D01*
X142955323Y-80055766D01*
X142989860Y-80072165D01*
X143008373Y-80082329D01*
X143062481Y-80120651D01*
X143109848Y-80166514D01*
X143149397Y-80218576D01*
X143180049Y-80275494D01*
X143194688Y-80314443D01*
X143201723Y-80344576D01*
X143206839Y-80382223D01*
X143209870Y-80424043D01*
X143210650Y-80466695D01*
X143209013Y-80506837D01*
X143205700Y-80535855D01*
X143189645Y-80602870D01*
X143164149Y-80664717D01*
X143129768Y-80720801D01*
X143087059Y-80770529D01*
X143036580Y-80813305D01*
X142978887Y-80848536D01*
X142914538Y-80875628D01*
X142876642Y-80886811D01*
X142831823Y-80895786D01*
X142783803Y-80901294D01*
X142736643Y-80903067D01*
X142694406Y-80900838D01*
X142684186Y-80899487D01*
X142614258Y-80883692D01*
X142549160Y-80858967D01*
X142489609Y-80826035D01*
X142436326Y-80785617D01*
X142390029Y-80738439D01*
X142351436Y-80685222D01*
X142321268Y-80626689D01*
X142300241Y-80563565D01*
X142289650Y-80502648D01*
X142285881Y-80465441D01*
X142424991Y-80466912D01*
X142564100Y-80468382D01*
X142570951Y-80501981D01*
X142585054Y-80547648D01*
X142606904Y-80585719D01*
X142635982Y-80615769D01*
X142671770Y-80637369D01*
X142713751Y-80650092D01*
X142754766Y-80653608D01*
X142801364Y-80648828D01*
X142843196Y-80635258D01*
X142879296Y-80613802D01*
X142908697Y-80585361D01*
X142930432Y-80550837D01*
X142943533Y-80511131D01*
X142947159Y-80474187D01*
X142942605Y-80427714D01*
X142928884Y-80387277D01*
X142905909Y-80352709D01*
X142873593Y-80323842D01*
X142865910Y-80318680D01*
X142852202Y-80311169D01*
X142829986Y-80300521D01*
X142801029Y-80287515D01*
X142767099Y-80272927D01*
X142729963Y-80257537D01*
X142697008Y-80244331D01*
X142658036Y-80228679D01*
X142620306Y-80212994D01*
X142585691Y-80198094D01*
X142556065Y-80184800D01*
X142533304Y-80173931D01*
X142521077Y-80167403D01*
X142476014Y-80135361D01*
X142435105Y-80095739D01*
X142399959Y-80050661D01*
X142372184Y-80002249D01*
X142353391Y-79952630D01*
X142350843Y-79942712D01*
X142339618Y-79873191D01*
X142338725Y-79805571D01*
X142347736Y-79740654D01*
X142366222Y-79679242D01*
X142393754Y-79622135D01*
X142429906Y-79570135D01*
X142474247Y-79524043D01*
X142526351Y-79484659D01*
X142585787Y-79452786D01*
X142620038Y-79439240D01*
X142637450Y-79433374D01*
X142652474Y-79429220D01*
X142667605Y-79426488D01*
X142685338Y-79424889D01*
X142708171Y-79424135D01*
X142738597Y-79423934D01*
X142751986Y-79423942D01*
G37*
%TO.C,D5*%
X128293750Y-32250000D02*
X128293750Y-31250000D01*
X128193750Y-31750000D02*
X127293750Y-32250000D01*
X127293750Y-32250000D02*
X127293750Y-31250000D01*
X127293750Y-31250000D02*
X128193750Y-31750000D01*
D12*
%TO.C,U2*%
X140706250Y-50241988D02*
X137106250Y-50241988D01*
X138906250Y-54691988D02*
G75*
G03*
X140744728Y-50253510I0J2600000D01*
G01*
X137067772Y-50253510D02*
G75*
G03*
X138906250Y-54691988I1838478J-1838478D01*
G01*
%TO.C,C11*%
X137836250Y-62166757D02*
X137851250Y-62166757D01*
X137836250Y-62166757D02*
X137836250Y-57626757D01*
X139961250Y-62166757D02*
X139976250Y-62166757D01*
X139976250Y-62166757D02*
X139976250Y-57626757D01*
X137836250Y-57626757D02*
X137851250Y-57626757D01*
X139961250Y-57626757D02*
X139976250Y-57626757D01*
D10*
%TO.C,D23*%
X128293750Y-70350000D02*
X128293750Y-69350000D01*
X128193750Y-69850000D02*
X127293750Y-70350000D01*
X127293750Y-70350000D02*
X127293750Y-69350000D01*
X127293750Y-69350000D02*
X128193750Y-69850000D01*
%TO.C,D27*%
X164600000Y-66175000D02*
X164600000Y-67175000D01*
X164700000Y-66675000D02*
X165600000Y-66175000D01*
X165600000Y-66175000D02*
X165600000Y-67175000D01*
X165600000Y-67175000D02*
X164700000Y-66675000D01*
%TO.C,D2*%
X125912500Y-41775000D02*
X125912500Y-40775000D01*
X125812500Y-41275000D02*
X124912500Y-41775000D01*
X124912500Y-41775000D02*
X124912500Y-40775000D01*
X124912500Y-40775000D02*
X125812500Y-41275000D01*
D12*
%TO.C,C10*%
X152498053Y-75668522D02*
X152498053Y-75683522D01*
X152498053Y-75668522D02*
X157038053Y-75668522D01*
X152498053Y-77793522D02*
X152498053Y-77808522D01*
X152498053Y-77808522D02*
X157038053Y-77808522D01*
X157038053Y-75668522D02*
X157038053Y-75683522D01*
X157038053Y-77793522D02*
X157038053Y-77808522D01*
%TO.C,G\u002A\u002A\u002A*%
G36*
X143392537Y-58400679D02*
G01*
X143959637Y-58400679D01*
X143960091Y-58423979D01*
X143961890Y-58441130D01*
X143965694Y-58455725D01*
X143972163Y-58471357D01*
X143972929Y-58473001D01*
X143978747Y-58484746D01*
X143985063Y-58495559D01*
X143992557Y-58505925D01*
X144001907Y-58516328D01*
X144013793Y-58527252D01*
X144028892Y-58539180D01*
X144047884Y-58552597D01*
X144071447Y-58567987D01*
X144100262Y-58585833D01*
X144135005Y-58606620D01*
X144176357Y-58630831D01*
X144224996Y-58658951D01*
X144270169Y-58684907D01*
X144314028Y-58710033D01*
X144355613Y-58733792D01*
X144394105Y-58755719D01*
X144428682Y-58775349D01*
X144458523Y-58792218D01*
X144482808Y-58805861D01*
X144500715Y-58815814D01*
X144511423Y-58821612D01*
X144513931Y-58822854D01*
X144529767Y-58826042D01*
X144550310Y-58825791D01*
X144571301Y-58822538D01*
X144588481Y-58816718D01*
X144591698Y-58814902D01*
X144600902Y-58808468D01*
X144615721Y-58797501D01*
X144634115Y-58783533D01*
X144654043Y-58768098D01*
X144654154Y-58768011D01*
X144718426Y-58721221D01*
X144783372Y-58681359D01*
X144852142Y-58646640D01*
X144914314Y-58620474D01*
X144945536Y-58607478D01*
X144968191Y-58596022D01*
X144983263Y-58585592D01*
X144986501Y-58582535D01*
X144992848Y-58575959D01*
X144998246Y-58569842D01*
X145002771Y-58563375D01*
X145006501Y-58555748D01*
X145009512Y-58546153D01*
X145011882Y-58533780D01*
X145013686Y-58517819D01*
X145015002Y-58497463D01*
X145015907Y-58471901D01*
X145016478Y-58440324D01*
X145016791Y-58401924D01*
X145016923Y-58355891D01*
X145016951Y-58301416D01*
X145016950Y-58261891D01*
X145016919Y-58200333D01*
X145501120Y-58200333D01*
X145501381Y-58270683D01*
X145501410Y-58276145D01*
X145501735Y-58333861D01*
X145502043Y-58382624D01*
X145502371Y-58423247D01*
X145502753Y-58456543D01*
X145503224Y-58483328D01*
X145503819Y-58504414D01*
X145504572Y-58520614D01*
X145505519Y-58532744D01*
X145506695Y-58541616D01*
X145508134Y-58548044D01*
X145509871Y-58552841D01*
X145511941Y-58556823D01*
X145513559Y-58559481D01*
X145522279Y-58572253D01*
X145531801Y-58582763D01*
X145543769Y-58592076D01*
X145559828Y-58601257D01*
X145581622Y-58611371D01*
X145610798Y-58623484D01*
X145615017Y-58625180D01*
X145685409Y-58655858D01*
X145749218Y-58689173D01*
X145809594Y-58726967D01*
X145869689Y-58771082D01*
X145883867Y-58782369D01*
X145912148Y-58803876D01*
X145935895Y-58818337D01*
X145956961Y-58826096D01*
X145977195Y-58827499D01*
X145998449Y-58822893D01*
X146022573Y-58812622D01*
X146028829Y-58809440D01*
X146049929Y-58798168D01*
X146076731Y-58783390D01*
X146108254Y-58765680D01*
X146143521Y-58745614D01*
X146181552Y-58723767D01*
X146221368Y-58700715D01*
X146261991Y-58677033D01*
X146302442Y-58653297D01*
X146341741Y-58630081D01*
X146378911Y-58607961D01*
X146412971Y-58587513D01*
X146442943Y-58569311D01*
X146467849Y-58553932D01*
X146486709Y-58541949D01*
X146498545Y-58533940D01*
X146501502Y-58531623D01*
X146516218Y-58515989D01*
X146531184Y-58496232D01*
X146541034Y-58480344D01*
X146548744Y-58465523D01*
X146553630Y-58453462D01*
X146556331Y-58441104D01*
X146557490Y-58425391D01*
X146557748Y-58403266D01*
X146557749Y-58400679D01*
X146557428Y-58376745D01*
X146556154Y-58359758D01*
X146553467Y-58346906D01*
X146548905Y-58335379D01*
X146546111Y-58329865D01*
X146536425Y-58312954D01*
X146525546Y-58297238D01*
X146512106Y-58281180D01*
X146494741Y-58263241D01*
X146472083Y-58241884D01*
X146451552Y-58223370D01*
X146347747Y-58137098D01*
X146239845Y-58059681D01*
X146127739Y-57991058D01*
X146011322Y-57931167D01*
X145890487Y-57879948D01*
X145778803Y-57841504D01*
X145751629Y-57833286D01*
X145731154Y-57827711D01*
X145714804Y-57824345D01*
X145700008Y-57822754D01*
X145684194Y-57822506D01*
X145668920Y-57822989D01*
X145645554Y-57824439D01*
X145628510Y-57827009D01*
X145614351Y-57831485D01*
X145599637Y-57838650D01*
X145599140Y-57838920D01*
X145565686Y-57862596D01*
X145538786Y-57893254D01*
X145518852Y-57930284D01*
X145506294Y-57973075D01*
X145505358Y-57978241D01*
X145503954Y-57991883D01*
X145502831Y-58014757D01*
X145501988Y-58046952D01*
X145501422Y-58088555D01*
X145501133Y-58139653D01*
X145501120Y-58200333D01*
X145016919Y-58200333D01*
X145016919Y-58200151D01*
X145016792Y-58147337D01*
X145016511Y-58102608D01*
X145016022Y-58065123D01*
X145015268Y-58034042D01*
X145014194Y-58008523D01*
X145012745Y-57987725D01*
X145010863Y-57970808D01*
X145008495Y-57956929D01*
X145005584Y-57945249D01*
X145002074Y-57934926D01*
X144997910Y-57925120D01*
X144994126Y-57917195D01*
X144972106Y-57882095D01*
X144944659Y-57855028D01*
X144912051Y-57836092D01*
X144874549Y-57825385D01*
X144832421Y-57823005D01*
X144785933Y-57829049D01*
X144766384Y-57833791D01*
X144692259Y-57856559D01*
X144614001Y-57885322D01*
X144534174Y-57918965D01*
X144455341Y-57956372D01*
X144380065Y-57996427D01*
X144342688Y-58018227D01*
X144296193Y-58047437D01*
X144249402Y-58079004D01*
X144203253Y-58112142D01*
X144158683Y-58146063D01*
X144116630Y-58179982D01*
X144078032Y-58213110D01*
X144043826Y-58244663D01*
X144014951Y-58273852D01*
X143992343Y-58299892D01*
X143976941Y-58321995D01*
X143973929Y-58327610D01*
X143966791Y-58343357D01*
X143962497Y-58357152D01*
X143960353Y-58372545D01*
X143959664Y-58393088D01*
X143959637Y-58400679D01*
X143392537Y-58400679D01*
X143401520Y-58385447D01*
X143412703Y-58363649D01*
X143418989Y-58345232D01*
X143420066Y-58328645D01*
X143415617Y-58312338D01*
X143405327Y-58294761D01*
X143388882Y-58274364D01*
X143365966Y-58249596D01*
X143349192Y-58232210D01*
X143323167Y-58204971D01*
X143303578Y-58183169D01*
X143289727Y-58165568D01*
X143280915Y-58150933D01*
X143276443Y-58138029D01*
X143275615Y-58125620D01*
X143277731Y-58112472D01*
X143278915Y-58107907D01*
X143286132Y-58091163D01*
X143298603Y-58070869D01*
X143314177Y-58049844D01*
X143330707Y-58030911D01*
X143346043Y-58016890D01*
X143350718Y-58013672D01*
X143363063Y-58007058D01*
X143374932Y-58003338D01*
X143387719Y-58002846D01*
X143402816Y-58005914D01*
X143421619Y-58012876D01*
X143445520Y-58024064D01*
X143475913Y-58039811D01*
X143488622Y-58046612D01*
X143521471Y-58063955D01*
X143547310Y-58076644D01*
X143567498Y-58085066D01*
X143583394Y-58089604D01*
X143596357Y-58090642D01*
X143607745Y-58088567D01*
X143618917Y-58083762D01*
X143619240Y-58083592D01*
X143629672Y-58076207D01*
X143644180Y-58063530D01*
X143660996Y-58047394D01*
X143678349Y-58029632D01*
X143694473Y-58012079D01*
X143707597Y-57996567D01*
X143715953Y-57984931D01*
X143717637Y-57981586D01*
X143722816Y-57955585D01*
X143718566Y-57929722D01*
X143707435Y-57907163D01*
X143682217Y-57867005D01*
X143662197Y-57834043D01*
X143646953Y-57807483D01*
X143636064Y-57786534D01*
X143629107Y-57770401D01*
X143625661Y-57758293D01*
X143625102Y-57752464D01*
X143628576Y-57728602D01*
X143639599Y-57706586D01*
X143659071Y-57684788D01*
X143665855Y-57678761D01*
X143693190Y-57657276D01*
X143716531Y-57643408D01*
X143737305Y-57636650D01*
X143756939Y-57636495D01*
X143772780Y-57640783D01*
X143780225Y-57645358D01*
X143793503Y-57655234D01*
X143811130Y-57669242D01*
X143831624Y-57686211D01*
X143847574Y-57699821D01*
X143877743Y-57725537D01*
X143902189Y-57744936D01*
X143922387Y-57758304D01*
X143939810Y-57765929D01*
X143955931Y-57768099D01*
X143972226Y-57765099D01*
X143990166Y-57757218D01*
X144011227Y-57744742D01*
X144026669Y-57734712D01*
X144053512Y-57716703D01*
X144073872Y-57701475D01*
X144088163Y-57687468D01*
X144096804Y-57673120D01*
X144100212Y-57656871D01*
X144098804Y-57637160D01*
X144092995Y-57612425D01*
X144083205Y-57581106D01*
X144074555Y-57555457D01*
X144065165Y-57527104D01*
X144057011Y-57501011D01*
X144050608Y-57478940D01*
X144046468Y-57462655D01*
X144045098Y-57454197D01*
X144047588Y-57441071D01*
X144053874Y-57425092D01*
X144057371Y-57418511D01*
X144064693Y-57407746D01*
X144073822Y-57398729D01*
X144086927Y-57389805D01*
X144106182Y-57379321D01*
X144114029Y-57375350D01*
X144138847Y-57363617D01*
X144159485Y-57356151D01*
X144177259Y-57353481D01*
X144193487Y-57356133D01*
X144209487Y-57364635D01*
X144226577Y-57379516D01*
X144246074Y-57401303D01*
X144269296Y-57430523D01*
X144277065Y-57440660D01*
X144295161Y-57463990D01*
X144312117Y-57485126D01*
X144326714Y-57502603D01*
X144337736Y-57514961D01*
X144343403Y-57520361D01*
X144358325Y-57527897D01*
X144376471Y-57530234D01*
X144399133Y-57527247D01*
X144427606Y-57518812D01*
X144450420Y-57510115D01*
X144478251Y-57498472D01*
X144499710Y-57487945D01*
X144515453Y-57477123D01*
X144526134Y-57464598D01*
X144532411Y-57448963D01*
X144534937Y-57428807D01*
X144534369Y-57402723D01*
X144531362Y-57369301D01*
X144528368Y-57342612D01*
X144524408Y-57307072D01*
X144521931Y-57279724D01*
X144521132Y-57259078D01*
X144522207Y-57243644D01*
X144525352Y-57231932D01*
X144530763Y-57222452D01*
X144538635Y-57213714D01*
X144546208Y-57206807D01*
X144564497Y-57194836D01*
X144588303Y-57184978D01*
X144614933Y-57177769D01*
X144641695Y-57173745D01*
X144665898Y-57173441D01*
X144684849Y-57177392D01*
X144687625Y-57178664D01*
X144696267Y-57183637D01*
X144703705Y-57189590D01*
X144710768Y-57197844D01*
X144718289Y-57209720D01*
X144727098Y-57226542D01*
X144738026Y-57249629D01*
X144751905Y-57280305D01*
X144752805Y-57282317D01*
X144768579Y-57316495D01*
X144781934Y-57342596D01*
X144793726Y-57361746D01*
X144804806Y-57375073D01*
X144816030Y-57383702D01*
X144828251Y-57388760D01*
X144834599Y-57390228D01*
X144847150Y-57390688D01*
X144866359Y-57389207D01*
X144889725Y-57386215D01*
X144914750Y-57382140D01*
X144938933Y-57377412D01*
X144959774Y-57372460D01*
X144974774Y-57367713D01*
X144979659Y-57365325D01*
X144989479Y-57356957D01*
X144997461Y-57345257D01*
X145003979Y-57328977D01*
X145009406Y-57306870D01*
X145014117Y-57277687D01*
X145018486Y-57240180D01*
X145019163Y-57233480D01*
X145023241Y-57196337D01*
X145027223Y-57168285D01*
X145031224Y-57148653D01*
X145035360Y-57136767D01*
X145035875Y-57135823D01*
X145049785Y-57118315D01*
X145068834Y-57106283D01*
X145094586Y-57098925D01*
X145112606Y-57096540D01*
X145146450Y-57094717D01*
X145172828Y-57096730D01*
X145193458Y-57103082D01*
X145210054Y-57114273D01*
X145222874Y-57128783D01*
X145226818Y-57137480D01*
X145232174Y-57154044D01*
X145238461Y-57176756D01*
X145245196Y-57203902D01*
X145250436Y-57226980D01*
X145257008Y-57255682D01*
X145263577Y-57281853D01*
X145269640Y-57303664D01*
X145274693Y-57319286D01*
X145277817Y-57326331D01*
X145289320Y-57338549D01*
X145306419Y-57347718D01*
X145330254Y-57354206D01*
X145361964Y-57358377D01*
X145381989Y-57359755D01*
X145411064Y-57360887D01*
X145434150Y-57360169D01*
X145452405Y-57356596D01*
X145466987Y-57349158D01*
X145479053Y-57336849D01*
X145489759Y-57318662D01*
X145500264Y-57293588D01*
X145511723Y-57260621D01*
X145518021Y-57241331D01*
X145530295Y-57204771D01*
X145541023Y-57176556D01*
X145550954Y-57155538D01*
X145560836Y-57140568D01*
X145571419Y-57130497D01*
X145583451Y-57124176D01*
X145596745Y-57120631D01*
X145612002Y-57119830D01*
X145632800Y-57121392D01*
X145656208Y-57124790D01*
X145679298Y-57129493D01*
X145699142Y-57134971D01*
X145712811Y-57140696D01*
X145714728Y-57141958D01*
X145724963Y-57149941D01*
X145732789Y-57157581D01*
X145738568Y-57166308D01*
X145742662Y-57177550D01*
X145745433Y-57192737D01*
X145747244Y-57213297D01*
X145748455Y-57240660D01*
X145749429Y-57276255D01*
X145749501Y-57279236D01*
X145750505Y-57318255D01*
X145751952Y-57348811D01*
X145754653Y-57372200D01*
X145759422Y-57389719D01*
X145767071Y-57402665D01*
X145778412Y-57412335D01*
X145794257Y-57420027D01*
X145815419Y-57427036D01*
X145842711Y-57434659D01*
X145847722Y-57436028D01*
X145878556Y-57443690D01*
X145902286Y-57447474D01*
X145920800Y-57447317D01*
X145935988Y-57443153D01*
X145949737Y-57434920D01*
X145952874Y-57432460D01*
X145958641Y-57425645D01*
X145968305Y-57411881D01*
X145980878Y-57392677D01*
X145995372Y-57369541D01*
X146010051Y-57345238D01*
X146028768Y-57314230D01*
X146043942Y-57290781D01*
X146056661Y-57273854D01*
X146068013Y-57262407D01*
X146079085Y-57255401D01*
X146090966Y-57251797D01*
X146104742Y-57250555D01*
X146109189Y-57250489D01*
X146130518Y-57253255D01*
X146155870Y-57260748D01*
X146181704Y-57271518D01*
X146204477Y-57284116D01*
X146219084Y-57295475D01*
X146228342Y-57305409D01*
X146234887Y-57315159D01*
X146238764Y-57326181D01*
X146240015Y-57339932D01*
X146238683Y-57357869D01*
X146234813Y-57381447D01*
X146228448Y-57412124D01*
X146223248Y-57435429D01*
X146215053Y-57473380D01*
X146209399Y-57503421D01*
X146206363Y-57525092D01*
X146206019Y-57537934D01*
X146206225Y-57539164D01*
X146211964Y-57554252D01*
X146222992Y-57568602D01*
X146240435Y-57583231D01*
X146265419Y-57599159D01*
X146283940Y-57609463D01*
X146307102Y-57621547D01*
X146324272Y-57629447D01*
X146337835Y-57634002D01*
X146350174Y-57636054D01*
X146360474Y-57636458D01*
X146386821Y-57636532D01*
X146457634Y-57563555D01*
X146485789Y-57535101D01*
X146508910Y-57512927D01*
X146526628Y-57497367D01*
X146538573Y-57488754D01*
X146542168Y-57487181D01*
X146565044Y-57484769D01*
X146588718Y-57489263D01*
X146614896Y-57501146D01*
X146634254Y-57513188D01*
X146657926Y-57530366D01*
X146674078Y-57545443D01*
X146684138Y-57560236D01*
X146689533Y-57576560D01*
X146690850Y-57585157D01*
X146691179Y-57593368D01*
X146689974Y-57602534D01*
X146686722Y-57614102D01*
X146680912Y-57629521D01*
X146672032Y-57650240D01*
X146659569Y-57677706D01*
X146653521Y-57690789D01*
X146641114Y-57718165D01*
X146630298Y-57743229D01*
X146621724Y-57764370D01*
X146616045Y-57779977D01*
X146613914Y-57788440D01*
X146613912Y-57788580D01*
X146615260Y-57803344D01*
X146620026Y-57816988D01*
X146629295Y-57831060D01*
X146644151Y-57847103D01*
X146665679Y-57866664D01*
X146673259Y-57873160D01*
X146698059Y-57893407D01*
X146717843Y-57907332D01*
X146734297Y-57915716D01*
X146749109Y-57919340D01*
X146763965Y-57918986D01*
X146769991Y-57917967D01*
X146778395Y-57914385D01*
X146793259Y-57906127D01*
X146813046Y-57894123D01*
X146836217Y-57879307D01*
X146861031Y-57862751D01*
X146888051Y-57844446D01*
X146908470Y-57830985D01*
X146923704Y-57821636D01*
X146935168Y-57815666D01*
X146944281Y-57812343D01*
X146952458Y-57810934D01*
X146961116Y-57810706D01*
X146961648Y-57810714D01*
X146983518Y-57814022D01*
X147004354Y-57823881D01*
X147025681Y-57841230D01*
X147044719Y-57861838D01*
X147060141Y-57880793D01*
X147069946Y-57895299D01*
X147075348Y-57907890D01*
X147077560Y-57921103D01*
X147077861Y-57931102D01*
X147077082Y-57940204D01*
X147074318Y-57950058D01*
X147068924Y-57961674D01*
X147060258Y-57976059D01*
X147047677Y-57994224D01*
X147030538Y-58017175D01*
X147008197Y-58045923D01*
X146989915Y-58069032D01*
X146972821Y-58092216D01*
X146961910Y-58112209D01*
X146957325Y-58130702D01*
X146959206Y-58149388D01*
X146967696Y-58169957D01*
X146982936Y-58194101D01*
X147002583Y-58220340D01*
X147020402Y-58242703D01*
X147035495Y-58259506D01*
X147049395Y-58270978D01*
X147063636Y-58277351D01*
X147079752Y-58278854D01*
X147099278Y-58275718D01*
X147123747Y-58268173D01*
X147154693Y-58256451D01*
X147178742Y-58246808D01*
X147210444Y-58234167D01*
X147234647Y-58224982D01*
X147252807Y-58218807D01*
X147266382Y-58215197D01*
X147276826Y-58213705D01*
X147285597Y-58213887D01*
X147286138Y-58213945D01*
X147305898Y-58218763D01*
X147323291Y-58229216D01*
X147339797Y-58246552D01*
X147356894Y-58272019D01*
X147358785Y-58275218D01*
X147372754Y-58300679D01*
X147381614Y-58322039D01*
X147384932Y-58340699D01*
X147382278Y-58358065D01*
X147373217Y-58375540D01*
X147357320Y-58394528D01*
X147334152Y-58416434D01*
X147308606Y-58438243D01*
X147281132Y-58461202D01*
X147260253Y-58479049D01*
X147245026Y-58492882D01*
X147234509Y-58503803D01*
X147227761Y-58512914D01*
X147223841Y-58521313D01*
X147221806Y-58530104D01*
X147220715Y-58540385D01*
X147220661Y-58541047D01*
X147220178Y-58552715D01*
X147221237Y-58563514D01*
X147224488Y-58575624D01*
X147230582Y-58591224D01*
X147240169Y-58612496D01*
X147245100Y-58623024D01*
X147257579Y-58648711D01*
X147268810Y-58668501D01*
X147280189Y-58682909D01*
X147293112Y-58692450D01*
X147308977Y-58697640D01*
X147329180Y-58698995D01*
X147355116Y-58697028D01*
X147388182Y-58692257D01*
X147418718Y-58687111D01*
X147455414Y-58681114D01*
X147483305Y-58677343D01*
X147503080Y-58675725D01*
X147515426Y-58676187D01*
X147517593Y-58676664D01*
X147536539Y-58684521D01*
X147552114Y-58696936D01*
X147565220Y-58715189D01*
X147576759Y-58740558D01*
X147587633Y-58774322D01*
X147588389Y-58777018D01*
X147593182Y-58807283D01*
X147589431Y-58832841D01*
X147577136Y-58853676D01*
X147573289Y-58857620D01*
X147564948Y-58863710D01*
X147549578Y-58873261D01*
X147528850Y-58885299D01*
X147504436Y-58898849D01*
X147481666Y-58911023D01*
X147453594Y-58925845D01*
X147432844Y-58937155D01*
X147418059Y-58945925D01*
X147407885Y-58953127D01*
X147400964Y-58959734D01*
X147395942Y-58966718D01*
X147391463Y-58975052D01*
X147390940Y-58976104D01*
X147379254Y-58999673D01*
X147392410Y-59059102D01*
X147400560Y-59093315D01*
X147408706Y-59119122D01*
X147418193Y-59137791D01*
X147430361Y-59150589D01*
X147446554Y-59158786D01*
X147468112Y-59163648D01*
X147496379Y-59166444D01*
X147506711Y-59167090D01*
X147546860Y-59169404D01*
X147578456Y-59171300D01*
X147602694Y-59172974D01*
X147620769Y-59174622D01*
X147633874Y-59176439D01*
X147643206Y-59178622D01*
X147649960Y-59181364D01*
X147655329Y-59184864D01*
X147660509Y-59189315D01*
X147664469Y-59192927D01*
X147675628Y-59204602D01*
X147683615Y-59217593D01*
X147689226Y-59234115D01*
X147693259Y-59256381D01*
X147695937Y-59280373D01*
X147696862Y-59310226D01*
X147692863Y-59333387D01*
X147683402Y-59351888D01*
X147674343Y-59362117D01*
X147667209Y-59367566D01*
X147656620Y-59373025D01*
X147641250Y-59378978D01*
X147619772Y-59385908D01*
X147590861Y-59394299D01*
X147570678Y-59399884D01*
X147532781Y-59410526D01*
X147503314Y-59419967D01*
X147481218Y-59429327D01*
X147465433Y-59439725D01*
X147454903Y-59452280D01*
X147448568Y-59468112D01*
X147445371Y-59488340D01*
X147444251Y-59514084D01*
X147444137Y-59533692D01*
X147444489Y-59563495D01*
X147446251Y-59587077D01*
X147450481Y-59605555D01*
X147458238Y-59620050D01*
X147470581Y-59631681D01*
X147488567Y-59641566D01*
X147513256Y-59650826D01*
X147545705Y-59660579D01*
X147570678Y-59667499D01*
X147604390Y-59676932D01*
X147629917Y-59684630D01*
X147648584Y-59691077D01*
X147661719Y-59696757D01*
X147670648Y-59702152D01*
X147674343Y-59705266D01*
X147687540Y-59721868D01*
X147694935Y-59741842D01*
X147697066Y-59767221D01*
X147695937Y-59787010D01*
X147692602Y-59815611D01*
X147688340Y-59836659D01*
X147682353Y-59852369D01*
X147673845Y-59864953D01*
X147664469Y-59874456D01*
X147658747Y-59879654D01*
X147653636Y-59883770D01*
X147647942Y-59886998D01*
X147640470Y-59889534D01*
X147630024Y-59891574D01*
X147615411Y-59893314D01*
X147595434Y-59894949D01*
X147568900Y-59896675D01*
X147534613Y-59898687D01*
X147506711Y-59900293D01*
X147476093Y-59902707D01*
X147452598Y-59906793D01*
X147434887Y-59913821D01*
X147421615Y-59925057D01*
X147411440Y-59941771D01*
X147403022Y-59965230D01*
X147395017Y-59996703D01*
X147392410Y-60008281D01*
X147379254Y-60067710D01*
X147390940Y-60091279D01*
X147395442Y-60099824D01*
X147400337Y-60106910D01*
X147406980Y-60113511D01*
X147416726Y-60120599D01*
X147430932Y-60129146D01*
X147450952Y-60140126D01*
X147478143Y-60154510D01*
X147481666Y-60156360D01*
X147507916Y-60170432D01*
X147531926Y-60183834D01*
X147552023Y-60195590D01*
X147566535Y-60204728D01*
X147573289Y-60209763D01*
X147587461Y-60229558D01*
X147593090Y-60254079D01*
X147590175Y-60283311D01*
X147588389Y-60290365D01*
X147577490Y-60324843D01*
X147565972Y-60350819D01*
X147552949Y-60369555D01*
X147537533Y-60382314D01*
X147518838Y-60390358D01*
X147517986Y-60390606D01*
X147506793Y-60391510D01*
X147487114Y-60390150D01*
X147458622Y-60386492D01*
X147420995Y-60380501D01*
X147419111Y-60380181D01*
X147379663Y-60373708D01*
X147348410Y-60369615D01*
X147323959Y-60368416D01*
X147304916Y-60370625D01*
X147289890Y-60376754D01*
X147277488Y-60387319D01*
X147266316Y-60402832D01*
X147254982Y-60423807D01*
X147245100Y-60444359D01*
X147233943Y-60468495D01*
X147226537Y-60486091D01*
X147222232Y-60499329D01*
X147220378Y-60510388D01*
X147220326Y-60521449D01*
X147220661Y-60526336D01*
X147221727Y-60536737D01*
X147223681Y-60545583D01*
X147227467Y-60553976D01*
X147234026Y-60563015D01*
X147244300Y-60573802D01*
X147259229Y-60587437D01*
X147279757Y-60605022D01*
X147306824Y-60627656D01*
X147308606Y-60629140D01*
X147338249Y-60654603D01*
X147360258Y-60675963D01*
X147375064Y-60694624D01*
X147383100Y-60711990D01*
X147384798Y-60729465D01*
X147380589Y-60748453D01*
X147370906Y-60770358D01*
X147358785Y-60792165D01*
X147341539Y-60818559D01*
X147325042Y-60836691D01*
X147307811Y-60847808D01*
X147288369Y-60853160D01*
X147286138Y-60853438D01*
X147277425Y-60853712D01*
X147267131Y-60852341D01*
X147253801Y-60848880D01*
X147235979Y-60842883D01*
X147212208Y-60833905D01*
X147181032Y-60821500D01*
X147178742Y-60820575D01*
X147142818Y-60806287D01*
X147114357Y-60796028D01*
X147091827Y-60790029D01*
X147073693Y-60788521D01*
X147058422Y-60791734D01*
X147044478Y-60799899D01*
X147030329Y-60813246D01*
X147014440Y-60832005D01*
X147002583Y-60847043D01*
X146981135Y-60875861D01*
X146966565Y-60899579D01*
X146958730Y-60919888D01*
X146957491Y-60938480D01*
X146962705Y-60957046D01*
X146974230Y-60977278D01*
X146989915Y-60998351D01*
X147016118Y-61031566D01*
X147036686Y-61058306D01*
X147052264Y-61079580D01*
X147063493Y-61096397D01*
X147071018Y-61109765D01*
X147075480Y-61120694D01*
X147077524Y-61130191D01*
X147077861Y-61136281D01*
X147077060Y-61151231D01*
X147073848Y-61163931D01*
X147067012Y-61176915D01*
X147055339Y-61192720D01*
X147044719Y-61205545D01*
X147021846Y-61229772D01*
X147000722Y-61245738D01*
X146979820Y-61254383D01*
X146961632Y-61256670D01*
X146952892Y-61256489D01*
X146944729Y-61255170D01*
X146935724Y-61251977D01*
X146924459Y-61246175D01*
X146909512Y-61237028D01*
X146889467Y-61223801D01*
X146862902Y-61205757D01*
X146861355Y-61204700D01*
X146836385Y-61187998D01*
X146813242Y-61173185D01*
X146793472Y-61161200D01*
X146778622Y-61152981D01*
X146770331Y-61149484D01*
X146754922Y-61147776D01*
X146740277Y-61149717D01*
X146724700Y-61156090D01*
X146706491Y-61167678D01*
X146683953Y-61185262D01*
X146673259Y-61194223D01*
X146649612Y-61215082D01*
X146632948Y-61231979D01*
X146622183Y-61246459D01*
X146616233Y-61260068D01*
X146614013Y-61274351D01*
X146613912Y-61278803D01*
X146615914Y-61287000D01*
X146621485Y-61302395D01*
X146629972Y-61323377D01*
X146640724Y-61348336D01*
X146653088Y-61375661D01*
X146653521Y-61376594D01*
X146667546Y-61407138D01*
X146677786Y-61430360D01*
X146684753Y-61447707D01*
X146688958Y-61460629D01*
X146690913Y-61470574D01*
X146691131Y-61478991D01*
X146690850Y-61482227D01*
X146687133Y-61499878D01*
X146679414Y-61515155D01*
X146666265Y-61529875D01*
X146646257Y-61545852D01*
X146634254Y-61554195D01*
X146605506Y-61571187D01*
X146580382Y-61580474D01*
X146557175Y-61582540D01*
X146542168Y-61580202D01*
X146533149Y-61575070D01*
X146518178Y-61562829D01*
X146497624Y-61543812D01*
X146471857Y-61518354D01*
X146457634Y-61503828D01*
X146386821Y-61430851D01*
X146360474Y-61430925D01*
X146347436Y-61431609D01*
X146335033Y-61434141D01*
X146320879Y-61439361D01*
X146302592Y-61448111D01*
X146283940Y-61457920D01*
X146254033Y-61475076D01*
X146232324Y-61490340D01*
X146217687Y-61504729D01*
X146208997Y-61519262D01*
X146206225Y-61528219D01*
X146206120Y-61539571D01*
X146208721Y-61559827D01*
X146213951Y-61588528D01*
X146221735Y-61625215D01*
X146223248Y-61631954D01*
X146231144Y-61667781D01*
X146236572Y-61695604D01*
X146239487Y-61716879D01*
X146239848Y-61733062D01*
X146237609Y-61745610D01*
X146232729Y-61755980D01*
X146225164Y-61765629D01*
X146219084Y-61771909D01*
X146201881Y-61784916D01*
X146178524Y-61797362D01*
X146152555Y-61807797D01*
X146127517Y-61814771D01*
X146109189Y-61816894D01*
X146094926Y-61816180D01*
X146082804Y-61813497D01*
X146071773Y-61807826D01*
X146060777Y-61798147D01*
X146048764Y-61783442D01*
X146034681Y-61762689D01*
X146017475Y-61734871D01*
X146007839Y-61718778D01*
X145990613Y-61690060D01*
X145977294Y-61668569D01*
X145966936Y-61653052D01*
X145958591Y-61642260D01*
X145951315Y-61634940D01*
X145944161Y-61629843D01*
X145938177Y-61626664D01*
X145927345Y-61621609D01*
X145918289Y-61618534D01*
X145908955Y-61617550D01*
X145897285Y-61618771D01*
X145881225Y-61622311D01*
X145858718Y-61628283D01*
X145846106Y-61631749D01*
X145818220Y-61639520D01*
X145796495Y-61646499D01*
X145780128Y-61653982D01*
X145768321Y-61663265D01*
X145760272Y-61675645D01*
X145755181Y-61692416D01*
X145752247Y-61714877D01*
X145750669Y-61744322D01*
X145749647Y-61782047D01*
X145749501Y-61788147D01*
X145748530Y-61824404D01*
X145747349Y-61852324D01*
X145745595Y-61873335D01*
X145742907Y-61888868D01*
X145738922Y-61900352D01*
X145733279Y-61909215D01*
X145725616Y-61916886D01*
X145715571Y-61924795D01*
X145714728Y-61925425D01*
X145702843Y-61931133D01*
X145684127Y-61936712D01*
X145661509Y-61941635D01*
X145637917Y-61945371D01*
X145616281Y-61947390D01*
X145599529Y-61947164D01*
X145596745Y-61946752D01*
X145582664Y-61942906D01*
X145570742Y-61936383D01*
X145560229Y-61926034D01*
X145550375Y-61910708D01*
X145540433Y-61889256D01*
X145529653Y-61860530D01*
X145518191Y-61826194D01*
X145505861Y-61788965D01*
X145495031Y-61760128D01*
X145484545Y-61738675D01*
X145473245Y-61723598D01*
X145459976Y-61713892D01*
X145443579Y-61708548D01*
X145422897Y-61706560D01*
X145396774Y-61706919D01*
X145381989Y-61707629D01*
X145345724Y-61710737D01*
X145317927Y-61715972D01*
X145297460Y-61723699D01*
X145283183Y-61734283D01*
X145277817Y-61741052D01*
X145274019Y-61749977D01*
X145268781Y-61766645D01*
X145262610Y-61789227D01*
X145256008Y-61815895D01*
X145250436Y-61840403D01*
X145243685Y-61869810D01*
X145237008Y-61896118D01*
X145230887Y-61917612D01*
X145225803Y-61932576D01*
X145222874Y-61938600D01*
X145209139Y-61954357D01*
X145194120Y-61964261D01*
X145175053Y-61969554D01*
X145149700Y-61971466D01*
X145128068Y-61971407D01*
X145107187Y-61970427D01*
X145091521Y-61968738D01*
X145091326Y-61968704D01*
X145065083Y-61959672D01*
X145044311Y-61943131D01*
X145035670Y-61931066D01*
X145031416Y-61918941D01*
X145026990Y-61897052D01*
X145022394Y-61865398D01*
X145018087Y-61828336D01*
X145013649Y-61789274D01*
X145009001Y-61758725D01*
X145003157Y-61735465D01*
X144995131Y-61718268D01*
X144983939Y-61705910D01*
X144968594Y-61697169D01*
X144948111Y-61690818D01*
X144921504Y-61685634D01*
X144900541Y-61682323D01*
X144868399Y-61678234D01*
X144843892Y-61677246D01*
X144825321Y-61679583D01*
X144810986Y-61685471D01*
X144799188Y-61695135D01*
X144798508Y-61695857D01*
X144793149Y-61703874D01*
X144784774Y-61719129D01*
X144774258Y-61739903D01*
X144762479Y-61764475D01*
X144753026Y-61785066D01*
X144738872Y-61816203D01*
X144727739Y-61839682D01*
X144718793Y-61856825D01*
X144711203Y-61868948D01*
X144704135Y-61877373D01*
X144696759Y-61883416D01*
X144688242Y-61888398D01*
X144687625Y-61888719D01*
X144669971Y-61893537D01*
X144646556Y-61893998D01*
X144620072Y-61890637D01*
X144593211Y-61883989D01*
X144568664Y-61874592D01*
X144549123Y-61862980D01*
X144546208Y-61860576D01*
X144536377Y-61851423D01*
X144529152Y-61842636D01*
X144524340Y-61832727D01*
X144521743Y-61820205D01*
X144521165Y-61803580D01*
X144522412Y-61781362D01*
X144525288Y-61752060D01*
X144528368Y-61724771D01*
X144532623Y-61685756D01*
X144534871Y-61655004D01*
X144534457Y-61631107D01*
X144530726Y-61612655D01*
X144523020Y-61598239D01*
X144510686Y-61586450D01*
X144493066Y-61575877D01*
X144469506Y-61565112D01*
X144450420Y-61557232D01*
X144417788Y-61545149D01*
X144391873Y-61538426D01*
X144371316Y-61536927D01*
X144354759Y-61540517D01*
X144343945Y-61546617D01*
X144336761Y-61553579D01*
X144324978Y-61566903D01*
X144309826Y-61585115D01*
X144292535Y-61606742D01*
X144277065Y-61626723D01*
X144252490Y-61658242D01*
X144232030Y-61682171D01*
X144214366Y-61699038D01*
X144198181Y-61709370D01*
X144182157Y-61713696D01*
X144164977Y-61712544D01*
X144145323Y-61706440D01*
X144121877Y-61695914D01*
X144114029Y-61692033D01*
X144092338Y-61680696D01*
X144077493Y-61671451D01*
X144067325Y-61662645D01*
X144059659Y-61652622D01*
X144057371Y-61648872D01*
X144049982Y-61633272D01*
X144045609Y-61618259D01*
X144045098Y-61613187D01*
X144046642Y-61603952D01*
X144050931Y-61587274D01*
X144057453Y-61564914D01*
X144065694Y-61538637D01*
X144074555Y-61511926D01*
X144086798Y-61475281D01*
X144095340Y-61446273D01*
X144099764Y-61423342D01*
X144099653Y-61404927D01*
X144094590Y-61389467D01*
X144084158Y-61375401D01*
X144067941Y-61361168D01*
X144045520Y-61345208D01*
X144026669Y-61332671D01*
X144002995Y-61317511D01*
X143983352Y-61306733D01*
X143966270Y-61300623D01*
X143950279Y-61299468D01*
X143933908Y-61303555D01*
X143915687Y-61313170D01*
X143894145Y-61328600D01*
X143867813Y-61350131D01*
X143847309Y-61367639D01*
X143825613Y-61385992D01*
X143805731Y-61402249D01*
X143789140Y-61415244D01*
X143777317Y-61423813D01*
X143772515Y-61426616D01*
X143749818Y-61430816D01*
X143725659Y-61427900D01*
X143708124Y-61420546D01*
X143687921Y-61406655D01*
X143667859Y-61390180D01*
X143650230Y-61373252D01*
X143637328Y-61357998D01*
X143632890Y-61350704D01*
X143627086Y-61336161D01*
X143624649Y-61322408D01*
X143626007Y-61307831D01*
X143631590Y-61290815D01*
X143641828Y-61269747D01*
X143657148Y-61243011D01*
X143664966Y-61230090D01*
X143683756Y-61199206D01*
X143697995Y-61175370D01*
X143708304Y-61157345D01*
X143715308Y-61143895D01*
X143719628Y-61133784D01*
X143721888Y-61125774D01*
X143722709Y-61118631D01*
X143722775Y-61115288D01*
X143721559Y-61100492D01*
X143717200Y-61086701D01*
X143708632Y-61072138D01*
X143694792Y-61055028D01*
X143674612Y-61033595D01*
X143672463Y-61031407D01*
X143650955Y-61009954D01*
X143633077Y-60993956D01*
X143617251Y-60983321D01*
X143601898Y-60977959D01*
X143585440Y-60977777D01*
X143566298Y-60982685D01*
X143542894Y-60992592D01*
X143513649Y-61007405D01*
X143488622Y-61020771D01*
X143455570Y-61038229D01*
X143429508Y-61051009D01*
X143409042Y-61059444D01*
X143392780Y-61063866D01*
X143379327Y-61064609D01*
X143367290Y-61062005D01*
X143355275Y-61056388D01*
X143350718Y-61053711D01*
X143336259Y-61042035D01*
X143319893Y-61024475D01*
X143303754Y-61003839D01*
X143289975Y-60982936D01*
X143280690Y-60964574D01*
X143278842Y-60959072D01*
X143276027Y-60945469D01*
X143275901Y-60933004D01*
X143279168Y-60920440D01*
X143286530Y-60906540D01*
X143298690Y-60890068D01*
X143316350Y-60869788D01*
X143340211Y-60844462D01*
X143349255Y-60835108D01*
X143376146Y-60807026D01*
X143396378Y-60784231D01*
X143410268Y-60765174D01*
X143418128Y-60748301D01*
X143420275Y-60732063D01*
X143417022Y-60714907D01*
X143408685Y-60695282D01*
X143395579Y-60671637D01*
X143392630Y-60666704D01*
X143959637Y-60666704D01*
X143961359Y-60697735D01*
X143967226Y-60724383D01*
X143978281Y-60748851D01*
X143995569Y-60773343D01*
X144020132Y-60800060D01*
X144025208Y-60805081D01*
X144114829Y-60886274D01*
X144211803Y-60961928D01*
X144315027Y-61031398D01*
X144423400Y-61094039D01*
X144535823Y-61149207D01*
X144651193Y-61196256D01*
X144748347Y-61228664D01*
X144774310Y-61236156D01*
X144794246Y-61240934D01*
X144811357Y-61243486D01*
X144828843Y-61244301D01*
X144848463Y-61243917D01*
X144872618Y-61242484D01*
X144890413Y-61239775D01*
X144905239Y-61235081D01*
X144916834Y-61229633D01*
X144949160Y-61207502D01*
X144976366Y-61178037D01*
X144997285Y-61142836D01*
X145010751Y-61103496D01*
X145011541Y-61099890D01*
X145012943Y-61087815D01*
X145014139Y-61066053D01*
X145015125Y-61034684D01*
X145015900Y-60993787D01*
X145016463Y-60943440D01*
X145016579Y-60923667D01*
X145501123Y-60923667D01*
X145501392Y-60975454D01*
X145501938Y-61017740D01*
X145502761Y-61050612D01*
X145503864Y-61074158D01*
X145505247Y-61088464D01*
X145505358Y-61089142D01*
X145516440Y-61131024D01*
X145534196Y-61167688D01*
X145551623Y-61190958D01*
X145577088Y-61214928D01*
X145604429Y-61231882D01*
X145634687Y-61241980D01*
X145668898Y-61245378D01*
X145708101Y-61242235D01*
X145753336Y-61232709D01*
X145778729Y-61225545D01*
X145888930Y-61187800D01*
X145998983Y-61141388D01*
X146107059Y-61087265D01*
X146211327Y-61026385D01*
X146309960Y-60959706D01*
X146358898Y-60922675D01*
X146381570Y-60904333D01*
X146406526Y-60883321D01*
X146432298Y-60860961D01*
X146457419Y-60838572D01*
X146480422Y-60817476D01*
X146499837Y-60798993D01*
X146514198Y-60784445D01*
X146520494Y-60777262D01*
X146537285Y-60754175D01*
X146548270Y-60733700D01*
X146554576Y-60712495D01*
X146557330Y-60687215D01*
X146557749Y-60666704D01*
X146557544Y-60643798D01*
X146556500Y-60627600D01*
X146553975Y-60615051D01*
X146549329Y-60603095D01*
X146541919Y-60588674D01*
X146541034Y-60587039D01*
X146528623Y-60567486D01*
X146513428Y-60548119D01*
X146501502Y-60535760D01*
X146493506Y-60529930D01*
X146478000Y-60519842D01*
X146455964Y-60506072D01*
X146428377Y-60489195D01*
X146396218Y-60469787D01*
X146360465Y-60448423D01*
X146322097Y-60425677D01*
X146282094Y-60402127D01*
X146241434Y-60378346D01*
X146201096Y-60354910D01*
X146162059Y-60332395D01*
X146125302Y-60311376D01*
X146091803Y-60292428D01*
X146062542Y-60276127D01*
X146038498Y-60263048D01*
X146028829Y-60257943D01*
X146002389Y-60246019D01*
X145979268Y-60240367D01*
X145957559Y-60241311D01*
X145935352Y-60249175D01*
X145910738Y-60264282D01*
X145888010Y-60281816D01*
X145821447Y-60332317D01*
X145753165Y-60375765D01*
X145680435Y-60413765D01*
X145615017Y-60442203D01*
X145584810Y-60454638D01*
X145562189Y-60464943D01*
X145545507Y-60474182D01*
X145533121Y-60483421D01*
X145523385Y-60493724D01*
X145514654Y-60506157D01*
X145513559Y-60507902D01*
X145511242Y-60511793D01*
X145509281Y-60515946D01*
X145507643Y-60521177D01*
X145506292Y-60528297D01*
X145505193Y-60538121D01*
X145504312Y-60551462D01*
X145503613Y-60569135D01*
X145503062Y-60591952D01*
X145502623Y-60620728D01*
X145502262Y-60656276D01*
X145501944Y-60699411D01*
X145501635Y-60750945D01*
X145501410Y-60791238D01*
X145501129Y-60862290D01*
X145501123Y-60923667D01*
X145016579Y-60923667D01*
X145016813Y-60883724D01*
X145016948Y-60814717D01*
X145016950Y-60805492D01*
X145016948Y-60745210D01*
X145016891Y-60693886D01*
X145016702Y-60650711D01*
X145016305Y-60614876D01*
X145015622Y-60585571D01*
X145014577Y-60561988D01*
X145013093Y-60543317D01*
X145011093Y-60528750D01*
X145008500Y-60517476D01*
X145005237Y-60508687D01*
X145001228Y-60501574D01*
X144996395Y-60495327D01*
X144990663Y-60489138D01*
X144986501Y-60484848D01*
X144973547Y-60474627D01*
X144953309Y-60463539D01*
X144924804Y-60451067D01*
X144914314Y-60446909D01*
X144823591Y-60406794D01*
X144738606Y-60359114D01*
X144658153Y-60303169D01*
X144636023Y-60285726D01*
X144606323Y-60263437D01*
X144580966Y-60248586D01*
X144558569Y-60240702D01*
X144537746Y-60239310D01*
X144517114Y-60243938D01*
X144515470Y-60244539D01*
X144508719Y-60247896D01*
X144494334Y-60255664D01*
X144473140Y-60267377D01*
X144445967Y-60282571D01*
X144413641Y-60300778D01*
X144376990Y-60321535D01*
X144336842Y-60344376D01*
X144294025Y-60368835D01*
X144270169Y-60382503D01*
X144215134Y-60414134D01*
X144167936Y-60441467D01*
X144127896Y-60464984D01*
X144094334Y-60485169D01*
X144066573Y-60502506D01*
X144043934Y-60517480D01*
X144025736Y-60530574D01*
X144011302Y-60542272D01*
X143999953Y-60553058D01*
X143991009Y-60563417D01*
X143983792Y-60573831D01*
X143977622Y-60584785D01*
X143972929Y-60594382D01*
X143966176Y-60610295D01*
X143962151Y-60624834D01*
X143960192Y-60641593D01*
X143959640Y-60664166D01*
X143959637Y-60666704D01*
X143392630Y-60666704D01*
X143385757Y-60655207D01*
X143370015Y-60629819D01*
X143356335Y-60610570D01*
X143343207Y-60597033D01*
X143329121Y-60588781D01*
X143312568Y-60585387D01*
X143292035Y-60586424D01*
X143266015Y-60591466D01*
X143232995Y-60600084D01*
X143211838Y-60606043D01*
X143175106Y-60616155D01*
X143146686Y-60623182D01*
X143125686Y-60627314D01*
X143111215Y-60628738D01*
X143106028Y-60628479D01*
X143086336Y-60622987D01*
X143069263Y-60611318D01*
X143053639Y-60592339D01*
X143038295Y-60564916D01*
X143036421Y-60561012D01*
X143023189Y-60528145D01*
X143017408Y-60500781D01*
X143019015Y-60478189D01*
X143027496Y-60460246D01*
X143034632Y-60453225D01*
X143048407Y-60442017D01*
X143067285Y-60427782D01*
X143089734Y-60411682D01*
X143110159Y-60397616D01*
X143141702Y-60375796D01*
X143165695Y-60357855D01*
X143183064Y-60342824D01*
X143194739Y-60329735D01*
X143201647Y-60317618D01*
X143204717Y-60305505D01*
X143205106Y-60298495D01*
X143203371Y-60285245D01*
X143198731Y-60265793D01*
X143192033Y-60242706D01*
X143184122Y-60218553D01*
X143175845Y-60195902D01*
X143168049Y-60177322D01*
X143161580Y-60165381D01*
X143160966Y-60164557D01*
X143150090Y-60154375D01*
X143135953Y-60145295D01*
X143134413Y-60144536D01*
X143127532Y-60141694D01*
X143119822Y-60139776D01*
X143109723Y-60138748D01*
X143095676Y-60138577D01*
X143076120Y-60139229D01*
X143049496Y-60140668D01*
X143025352Y-60142156D01*
X142992913Y-60144137D01*
X142968635Y-60145372D01*
X142950939Y-60145818D01*
X142938244Y-60145432D01*
X142928970Y-60144172D01*
X142921537Y-60141996D01*
X142915045Y-60139186D01*
X142897330Y-60126995D01*
X142883372Y-60108463D01*
X142872485Y-60082426D01*
X142865528Y-60055428D01*
X142860755Y-60028634D01*
X142859437Y-60006654D01*
X142862404Y-59988446D01*
X142870486Y-59972968D01*
X142884513Y-59959178D01*
X142905315Y-59946033D01*
X142933721Y-59932492D01*
X142970561Y-59917512D01*
X142977475Y-59914843D01*
X143004548Y-59904207D01*
X143028848Y-59894218D01*
X143048729Y-59885588D01*
X143062545Y-59879029D01*
X143068367Y-59875545D01*
X143075744Y-59866248D01*
X143083580Y-59852650D01*
X143085348Y-59848928D01*
X143088827Y-59840417D01*
X143090881Y-59832120D01*
X143091539Y-59821946D01*
X143090830Y-59807802D01*
X143088782Y-59787598D01*
X143086455Y-59767792D01*
X143082351Y-59737013D01*
X143077520Y-59713135D01*
X143070711Y-59695036D01*
X143060673Y-59681597D01*
X143046156Y-59671697D01*
X143025911Y-59664214D01*
X142998686Y-59658029D01*
X142963231Y-59652020D01*
X142956038Y-59650895D01*
X142920860Y-59645311D01*
X142893923Y-59640629D01*
X142873796Y-59636403D01*
X142859048Y-59632190D01*
X142848245Y-59627546D01*
X142839955Y-59622024D01*
X142832747Y-59615182D01*
X142829548Y-59611637D01*
X142820066Y-59598736D01*
X142813894Y-59584300D01*
X142810575Y-59566158D01*
X142809655Y-59542140D01*
X142809874Y-59533692D01*
X142809935Y-59531351D01*
X143486798Y-59531351D01*
X143486798Y-59533692D01*
X143486917Y-59579110D01*
X143487336Y-59616613D01*
X143488142Y-59648049D01*
X143489426Y-59675270D01*
X143491276Y-59700124D01*
X143493782Y-59724460D01*
X143497033Y-59750129D01*
X143497352Y-59752470D01*
X143505328Y-59805996D01*
X143514331Y-59858093D01*
X143523964Y-59906769D01*
X143533826Y-59950032D01*
X143543520Y-59985892D01*
X143545179Y-59991290D01*
X143561438Y-60028094D01*
X143584950Y-60060068D01*
X143614376Y-60085844D01*
X143648374Y-60104051D01*
X143659288Y-60107840D01*
X143676369Y-60110820D01*
X143699401Y-60111954D01*
X143724764Y-60111345D01*
X143748839Y-60109099D01*
X143768004Y-60105321D01*
X143770221Y-60104632D01*
X143778772Y-60100774D01*
X143794918Y-60092489D01*
X143817802Y-60080249D01*
X143846571Y-60064528D01*
X143880368Y-60045798D01*
X143918339Y-60024532D01*
X143959628Y-60001203D01*
X144003381Y-59976284D01*
X144031698Y-59960054D01*
X144088516Y-59927301D01*
X144137160Y-59899017D01*
X144178017Y-59874965D01*
X144211472Y-59854912D01*
X144237912Y-59838619D01*
X144257722Y-59825853D01*
X144271290Y-59816378D01*
X144279001Y-59809957D01*
X144280534Y-59808188D01*
X144290529Y-59791477D01*
X144296554Y-59773829D01*
X144298825Y-59753182D01*
X144297561Y-59727479D01*
X144292979Y-59694660D01*
X144292705Y-59693027D01*
X144287738Y-59654217D01*
X144284432Y-59608540D01*
X144282788Y-59558754D01*
X144282796Y-59533692D01*
X144611604Y-59533692D01*
X144616296Y-59611812D01*
X144630035Y-59687319D01*
X144652316Y-59759638D01*
X144682633Y-59828193D01*
X144720481Y-59892409D01*
X144765356Y-59951713D01*
X144816751Y-60005528D01*
X144874163Y-60053281D01*
X144937084Y-60094395D01*
X145005011Y-60128297D01*
X145077437Y-60154412D01*
X145153859Y-60172164D01*
X145175669Y-60175525D01*
X145202066Y-60177820D01*
X145235119Y-60178705D01*
X145271834Y-60178279D01*
X145309218Y-60176640D01*
X145344277Y-60173889D01*
X145374017Y-60170122D01*
X145381892Y-60168725D01*
X145458766Y-60149069D01*
X145531023Y-60120856D01*
X145598880Y-60083968D01*
X145662553Y-60038290D01*
X145715597Y-59990431D01*
X145769775Y-59930052D01*
X145814937Y-59865925D01*
X145851065Y-59798093D01*
X145867438Y-59754860D01*
X146219244Y-59754860D01*
X146219568Y-59763464D01*
X146220759Y-59772940D01*
X146222475Y-59781427D01*
X146225349Y-59789393D01*
X146230018Y-59797305D01*
X146237117Y-59805632D01*
X146247281Y-59814840D01*
X146261145Y-59825399D01*
X146279345Y-59837775D01*
X146302517Y-59852437D01*
X146331295Y-59869853D01*
X146366315Y-59890490D01*
X146408212Y-59914816D01*
X146457622Y-59943299D01*
X146485818Y-59959519D01*
X146530616Y-59985200D01*
X146573444Y-60009592D01*
X146613453Y-60032222D01*
X146649793Y-60052617D01*
X146681616Y-60070303D01*
X146708071Y-60084808D01*
X146728310Y-60095658D01*
X146741482Y-60102381D01*
X146745771Y-60104285D01*
X146768302Y-60109465D01*
X146795948Y-60111556D01*
X146825365Y-60110712D01*
X146853208Y-60107087D01*
X146876132Y-60100835D01*
X146882514Y-60097983D01*
X146905417Y-60084967D01*
X146924486Y-60071100D01*
X146940381Y-60055175D01*
X146953761Y-60035985D01*
X146965286Y-60012324D01*
X146975616Y-59982984D01*
X146985410Y-59946760D01*
X146995328Y-59902443D01*
X146998896Y-59885064D01*
X147008374Y-59836111D01*
X147015887Y-59792043D01*
X147021641Y-59750629D01*
X147025842Y-59709637D01*
X147028696Y-59666837D01*
X147030407Y-59619996D01*
X147031182Y-59566884D01*
X147031284Y-59533692D01*
X147030942Y-59476110D01*
X147029779Y-59426045D01*
X147027588Y-59381265D01*
X147024164Y-59339539D01*
X147019302Y-59298636D01*
X147012796Y-59256324D01*
X147004440Y-59210372D01*
X146998896Y-59182319D01*
X146988772Y-59134893D01*
X146978994Y-59095979D01*
X146968905Y-59064372D01*
X146957846Y-59038870D01*
X146945159Y-59018269D01*
X146930186Y-59001364D01*
X146912269Y-58986952D01*
X146890749Y-58973829D01*
X146882514Y-58969457D01*
X146859303Y-58961204D01*
X146830388Y-58956386D01*
X146799275Y-58955189D01*
X146769471Y-58957799D01*
X146749973Y-58962405D01*
X146740882Y-58966422D01*
X146724215Y-58974870D01*
X146700838Y-58987273D01*
X146671619Y-59003152D01*
X146637425Y-59022029D01*
X146599124Y-59043429D01*
X146557583Y-59066871D01*
X146513669Y-59091881D01*
X146485818Y-59107856D01*
X146432347Y-59138633D01*
X146386711Y-59165015D01*
X146348275Y-59187469D01*
X146316404Y-59206465D01*
X146290462Y-59222469D01*
X146269814Y-59235949D01*
X146253826Y-59247374D01*
X146241860Y-59257211D01*
X146233283Y-59265927D01*
X146227458Y-59273992D01*
X146223751Y-59281872D01*
X146221526Y-59290035D01*
X146220147Y-59298950D01*
X146219568Y-59303919D01*
X146219380Y-59318050D01*
X146220851Y-59338584D01*
X146223700Y-59362352D01*
X146226238Y-59378506D01*
X146229838Y-59402315D01*
X146232429Y-59427422D01*
X146234135Y-59455917D01*
X146235079Y-59489886D01*
X146235383Y-59531419D01*
X146235383Y-59533692D01*
X146235108Y-59575650D01*
X146234198Y-59609942D01*
X146232533Y-59638657D01*
X146229988Y-59663882D01*
X146226440Y-59687706D01*
X146226238Y-59688877D01*
X146222625Y-59713039D01*
X146220200Y-59736090D01*
X146219244Y-59754860D01*
X145867438Y-59754860D01*
X145878142Y-59726596D01*
X145896152Y-59651476D01*
X145905076Y-59572774D01*
X145906127Y-59533692D01*
X145901575Y-59453282D01*
X145887929Y-59376436D01*
X145865207Y-59303193D01*
X145833426Y-59233594D01*
X145792604Y-59167682D01*
X145742756Y-59105497D01*
X145715597Y-59076952D01*
X145656032Y-59023797D01*
X145592729Y-58979535D01*
X145525096Y-58943852D01*
X145452541Y-58916432D01*
X145379232Y-58897892D01*
X145348029Y-58893323D01*
X145310559Y-58890405D01*
X145269685Y-58889137D01*
X145228265Y-58889520D01*
X145189160Y-58891550D01*
X145155231Y-58895228D01*
X145139653Y-58897987D01*
X145058731Y-58919734D01*
X144983538Y-58949318D01*
X144914170Y-58986678D01*
X144850727Y-59031753D01*
X144793304Y-59084482D01*
X144742162Y-59144593D01*
X144697810Y-59211368D01*
X144662499Y-59281711D01*
X144636348Y-59355267D01*
X144619474Y-59431684D01*
X144611998Y-59510606D01*
X144611604Y-59533692D01*
X144282796Y-59533692D01*
X144282804Y-59507616D01*
X144284482Y-59457885D01*
X144287821Y-59412318D01*
X144292705Y-59374356D01*
X144297428Y-59341178D01*
X144298842Y-59315206D01*
X144296730Y-59294381D01*
X144290875Y-59276644D01*
X144281058Y-59259936D01*
X144280534Y-59259195D01*
X144274247Y-59253861D01*
X144260357Y-59244322D01*
X144239797Y-59231122D01*
X144213502Y-59214800D01*
X144182405Y-59195898D01*
X144147440Y-59174957D01*
X144109542Y-59152518D01*
X144069643Y-59129124D01*
X144028678Y-59105314D01*
X143987582Y-59081630D01*
X143947287Y-59058613D01*
X143908728Y-59036805D01*
X143872839Y-59016747D01*
X143840553Y-58998979D01*
X143812805Y-58984044D01*
X143790529Y-58972482D01*
X143774658Y-58964834D01*
X143767855Y-58962099D01*
X143748456Y-58957375D01*
X143726495Y-58955452D01*
X143699484Y-58955960D01*
X143664194Y-58960126D01*
X143635026Y-58969515D01*
X143609141Y-58985459D01*
X143583700Y-59009289D01*
X143582056Y-59011075D01*
X143570060Y-59025600D01*
X143559882Y-59041512D01*
X143550974Y-59060285D01*
X143542785Y-59083393D01*
X143534767Y-59112310D01*
X143526369Y-59148508D01*
X143520632Y-59175728D01*
X143510332Y-59228544D01*
X143502229Y-59276721D01*
X143496098Y-59322640D01*
X143491714Y-59368682D01*
X143488853Y-59417227D01*
X143487290Y-59470656D01*
X143486798Y-59531351D01*
X142809935Y-59531351D01*
X142810240Y-59519580D01*
X142811773Y-59496621D01*
X142814447Y-59480850D01*
X142818813Y-59469709D01*
X142822039Y-59464755D01*
X142830476Y-59454293D01*
X142839205Y-59446087D01*
X142849747Y-59439572D01*
X142863622Y-59434177D01*
X142882351Y-59429336D01*
X142907453Y-59424481D01*
X142940450Y-59419044D01*
X142947301Y-59417967D01*
X142985749Y-59411689D01*
X143015708Y-59405674D01*
X143038375Y-59398906D01*
X143054943Y-59390368D01*
X143066607Y-59379043D01*
X143074563Y-59363916D01*
X143080005Y-59343969D01*
X143084129Y-59318186D01*
X143086455Y-59299591D01*
X143089463Y-59273633D01*
X143091154Y-59255265D01*
X143091498Y-59242396D01*
X143090466Y-59232932D01*
X143088032Y-59224784D01*
X143085348Y-59218455D01*
X143077906Y-59204523D01*
X143070108Y-59193616D01*
X143068367Y-59191838D01*
X143061219Y-59187678D01*
X143046562Y-59180824D01*
X143026045Y-59171987D01*
X143001312Y-59161880D01*
X142977475Y-59152540D01*
X142939170Y-59137225D01*
X142909436Y-59123519D01*
X142887443Y-59110381D01*
X142872360Y-59096768D01*
X142863358Y-59081639D01*
X142859608Y-59063951D01*
X142860279Y-59042662D01*
X142864541Y-59016730D01*
X142865528Y-59011956D01*
X142874453Y-58979083D01*
X142885900Y-58954644D01*
X142900556Y-58937474D01*
X142915045Y-58928197D01*
X142922177Y-58925151D01*
X142929712Y-58923059D01*
X142939232Y-58921881D01*
X142952315Y-58921572D01*
X142970543Y-58922091D01*
X142995496Y-58923395D01*
X143025352Y-58925227D01*
X143064586Y-58927458D01*
X143095447Y-58928127D01*
X143119294Y-58926510D01*
X143137486Y-58921882D01*
X143151382Y-58913520D01*
X143162340Y-58900699D01*
X143171719Y-58882696D01*
X143180878Y-58858788D01*
X143187693Y-58838727D01*
X143197242Y-58808051D01*
X143202765Y-58784459D01*
X143204371Y-58766185D01*
X143202171Y-58751464D01*
X143196274Y-58738532D01*
X143194117Y-58735198D01*
X143186279Y-58726945D01*
X143171684Y-58714586D01*
X143151808Y-58699273D01*
X143128129Y-58682155D01*
X143110159Y-58669767D01*
X143085900Y-58653001D01*
X143063928Y-58637126D01*
X143045776Y-58623305D01*
X143032977Y-58612699D01*
X143027496Y-58607137D01*
X143018829Y-58588452D01*
X143017488Y-58565701D01*
X143023537Y-58538151D01*
X143036421Y-58506371D01*
X143051810Y-58477861D01*
X143067338Y-58457931D01*
X143084176Y-58445446D01*
X143103493Y-58439274D01*
X143106028Y-58438904D01*
X143117491Y-58439011D01*
X143135025Y-58441728D01*
X143159521Y-58447244D01*
X143191871Y-58455747D01*
X143211838Y-58461340D01*
X143249241Y-58471704D01*
X143278834Y-58478721D01*
X143302127Y-58481962D01*
X143320631Y-58481002D01*
X143335855Y-58475413D01*
X143349309Y-58464768D01*
X143362505Y-58448641D01*
X143376951Y-58426605D01*
X143385757Y-58412176D01*
X143392537Y-58400679D01*
G37*
D10*
%TO.C,D39*%
X162218750Y-82050000D02*
X162218750Y-83050000D01*
X162318750Y-82550000D02*
X163218750Y-82050000D01*
X163218750Y-82050000D02*
X163218750Y-83050000D01*
X163218750Y-83050000D02*
X162318750Y-82550000D01*
%TO.C,D17*%
X162043750Y-56650000D02*
X162043750Y-57650000D01*
X162143750Y-57150000D02*
X163043750Y-56650000D01*
X163043750Y-56650000D02*
X163043750Y-57650000D01*
X163043750Y-57650000D02*
X162143750Y-57150000D01*
%TO.C,D40*%
X164600000Y-78875000D02*
X164600000Y-79875000D01*
X164700000Y-79375000D02*
X165600000Y-78875000D01*
X165600000Y-78875000D02*
X165600000Y-79875000D01*
X165600000Y-79875000D02*
X164700000Y-79375000D01*
%TO.C,D1*%
X128293750Y-44950000D02*
X128293750Y-43950000D01*
X128193750Y-44450000D02*
X127293750Y-44950000D01*
X127293750Y-44950000D02*
X127293750Y-43950000D01*
X127293750Y-43950000D02*
X128193750Y-44450000D01*
D12*
%TO.C,R3*%
X136418264Y-86899166D02*
X137368264Y-86899166D01*
X137368264Y-85979166D02*
X137368264Y-87819166D01*
X137368264Y-87819166D02*
X141208264Y-87819166D01*
X141208264Y-85979166D02*
X137368264Y-85979166D01*
X141208264Y-87819166D02*
X141208264Y-85979166D01*
X142158264Y-86899166D02*
X141208264Y-86899166D01*
D10*
%TO.C,D30*%
X162218750Y-75700000D02*
X162218750Y-76700000D01*
X162318750Y-76200000D02*
X163218750Y-75700000D01*
X163218750Y-75700000D02*
X163218750Y-76700000D01*
X163218750Y-76700000D02*
X162318750Y-76200000D01*
D12*
%TO.C,C8*%
X137994728Y-78006821D02*
X137994728Y-77991821D01*
X137994728Y-78006821D02*
X133454728Y-78006821D01*
X137994728Y-75881821D02*
X137994728Y-75866821D01*
X137994728Y-75866821D02*
X133454728Y-75866821D01*
X133454728Y-78006821D02*
X133454728Y-77991821D01*
X133454728Y-75881821D02*
X133454728Y-75866821D01*
%TO.C,U3*%
X143641250Y-38980000D02*
X143641250Y-37220000D01*
X140571250Y-37220000D02*
X140571250Y-39650000D01*
D10*
%TO.C,D31*%
X125912500Y-79875000D02*
X125912500Y-78875000D01*
X125812500Y-79375000D02*
X124912500Y-79875000D01*
X124912500Y-79875000D02*
X124912500Y-78875000D01*
X124912500Y-78875000D02*
X125812500Y-79375000D01*
%TO.C,D28*%
X162218750Y-69350000D02*
X162218750Y-70350000D01*
X162318750Y-69850000D02*
X163218750Y-69350000D01*
X163218750Y-69350000D02*
X163218750Y-70350000D01*
X163218750Y-70350000D02*
X162318750Y-69850000D01*
%TO.C,D11*%
X125912500Y-48125000D02*
X125912500Y-47125000D01*
X125812500Y-47625000D02*
X124912500Y-48125000D01*
X124912500Y-48125000D02*
X124912500Y-47125000D01*
X124912500Y-47125000D02*
X125812500Y-47625000D01*
D12*
%TO.C,C4*%
X148942500Y-84655000D02*
X148942500Y-84670000D01*
X148942500Y-84655000D02*
X153482500Y-84655000D01*
X148942500Y-86780000D02*
X148942500Y-86795000D01*
X148942500Y-86795000D02*
X153482500Y-86795000D01*
X153482500Y-84655000D02*
X153482500Y-84670000D01*
X153482500Y-86780000D02*
X153482500Y-86795000D01*
D10*
%TO.C,D37*%
X162218750Y-88400000D02*
X162218750Y-89400000D01*
X162318750Y-88900000D02*
X163218750Y-88400000D01*
X163218750Y-88400000D02*
X163218750Y-89400000D01*
X163218750Y-89400000D02*
X162318750Y-88900000D01*
%TO.C,D21*%
X128293750Y-76700000D02*
X128293750Y-75700000D01*
X128193750Y-76200000D02*
X127293750Y-76700000D01*
X127293750Y-76700000D02*
X127293750Y-75700000D01*
X127293750Y-75700000D02*
X128193750Y-76200000D01*
D12*
%TO.C,C5*%
X152498053Y-78099772D02*
X152498053Y-78114772D01*
X152498053Y-78099772D02*
X157038053Y-78099772D01*
X152498053Y-80224772D02*
X152498053Y-80239772D01*
X152498053Y-80239772D02*
X157038053Y-80239772D01*
X157038053Y-78099772D02*
X157038053Y-78114772D01*
X157038053Y-80224772D02*
X157038053Y-80239772D01*
%TO.C,U1*%
X140146250Y-74778597D02*
X141096250Y-74778597D01*
X141096250Y-74778597D02*
X141096250Y-76118597D01*
X150366250Y-74778597D02*
X149416250Y-74778597D01*
X140146250Y-73828597D02*
X140146250Y-74778597D01*
X150366250Y-73828597D02*
X150366250Y-74778597D01*
X140146250Y-65508597D02*
X140146250Y-64558597D01*
X150366250Y-65508597D02*
X150366250Y-64558597D01*
X140146250Y-64558597D02*
X141096250Y-64558597D01*
X150366250Y-64558597D02*
X149416250Y-64558597D01*
D10*
%TO.C,D25*%
X128293750Y-64200000D02*
X128293750Y-63200000D01*
X128193750Y-63700000D02*
X127293750Y-64200000D01*
X127293750Y-64200000D02*
X127293750Y-63200000D01*
X127293750Y-63200000D02*
X128193750Y-63700000D01*
%TO.C,D22*%
X125912500Y-73525000D02*
X125912500Y-72525000D01*
X125812500Y-73025000D02*
X124912500Y-73525000D01*
X124912500Y-73525000D02*
X124912500Y-72525000D01*
X124912500Y-72525000D02*
X125812500Y-73025000D01*
D12*
%TO.C,C3*%
X147120000Y-35830000D02*
X147105000Y-35830000D01*
X147120000Y-35830000D02*
X147120000Y-40370000D01*
X144995000Y-35830000D02*
X144980000Y-35830000D01*
X144980000Y-35830000D02*
X144980000Y-40370000D01*
X147120000Y-40370000D02*
X147105000Y-40370000D01*
X144995000Y-40370000D02*
X144980000Y-40370000D01*
D10*
%TO.C,D32*%
X128293750Y-83050000D02*
X128293750Y-82050000D01*
X128193750Y-82550000D02*
X127293750Y-83050000D01*
X127293750Y-83050000D02*
X127293750Y-82050000D01*
X127293750Y-82050000D02*
X128193750Y-82550000D01*
D12*
%TO.C,C2*%
X144320429Y-49830098D02*
X144305429Y-49830098D01*
X144320429Y-49830098D02*
X144320429Y-54370098D01*
X142195429Y-49830098D02*
X142180429Y-49830098D01*
X142180429Y-49830098D02*
X142180429Y-54370098D01*
X144320429Y-54370098D02*
X144305429Y-54370098D01*
X142195429Y-54370098D02*
X142180429Y-54370098D01*
D10*
%TO.C,D14*%
X128293750Y-57650000D02*
X128293750Y-56650000D01*
X128193750Y-57150000D02*
X127293750Y-57650000D01*
X127293750Y-57650000D02*
X127293750Y-56650000D01*
X127293750Y-56650000D02*
X128193750Y-57150000D01*
D12*
%TO.C,SW1*%
X142800000Y-92825000D02*
X142800000Y-91325000D01*
X141550000Y-88825000D02*
X137050000Y-88825000D01*
X137050000Y-95325000D02*
X141550000Y-95325000D01*
X135800000Y-91325000D02*
X135800000Y-92825000D01*
D10*
%TO.C,D35*%
X125912500Y-92575000D02*
X125912500Y-91575000D01*
X125812500Y-92075000D02*
X124912500Y-92575000D01*
X124912500Y-92575000D02*
X124912500Y-91575000D01*
X124912500Y-91575000D02*
X125812500Y-92075000D01*
D12*
%TO.C,D44*%
X155170000Y-50350000D02*
X154520000Y-50350000D01*
X154520000Y-51470000D02*
X154520000Y-49230000D01*
X154520000Y-49230000D02*
X150280000Y-49230000D01*
X153920000Y-51470000D02*
X153920000Y-49230000D01*
X153800000Y-51470000D02*
X153800000Y-49230000D01*
X153680000Y-51470000D02*
X153680000Y-49230000D01*
X150280000Y-51470000D02*
X154520000Y-51470000D01*
X150280000Y-49230000D02*
X150280000Y-51470000D01*
X149630000Y-50350000D02*
X150280000Y-50350000D01*
D10*
%TO.C,D26*%
X162218750Y-63200000D02*
X162218750Y-64200000D01*
X162318750Y-63700000D02*
X163218750Y-63200000D01*
X163218750Y-63200000D02*
X163218750Y-64200000D01*
X163218750Y-64200000D02*
X162318750Y-63700000D01*
D12*
%TO.C,D41*%
X142190000Y-29368750D02*
G75*
G03*
X142190000Y-29368750I-2490000J0D01*
G01*
%TO.C,D42*%
X154096250Y-29368750D02*
G75*
G03*
X154096250Y-29368750I-2490000J0D01*
G01*
%TD*%
%LPC*%
D13*
%TO.C,*%
X55137500Y-42862500D03*
%TD*%
D14*
%TO.C,D6*%
X159543749Y-31749999D03*
D15*
X160768749Y-31749999D03*
X164318749Y-31749999D03*
D16*
X165543749Y-31749999D03*
%TD*%
D17*
%TO.C,SW2*%
X147962500Y-89825000D03*
X154462500Y-89825000D03*
X147962500Y-94325000D03*
X154462500Y-94325000D03*
%TD*%
D18*
%TO.C,R4*%
X135478264Y-84517916D03*
D19*
X143098263Y-84517915D03*
%TD*%
D20*
%TO.C,F1*%
X155743750Y-34934000D03*
X150643750Y-34934000D03*
%TD*%
D21*
%TO.C,C9*%
X152400000Y-62396757D03*
X152400000Y-57396757D03*
%TD*%
D22*
%TO.C,MX24*%
X85407500Y-71437500D03*
D23*
X90487500Y-71437500D03*
D22*
X95567500Y-71437500D03*
%TD*%
%TO.C,MX10*%
X252095000Y-33337500D03*
D23*
X257175000Y-33337500D03*
D22*
X262255000Y-33337500D03*
%TD*%
D18*
%TO.C,R1*%
X136725000Y-34290000D03*
D19*
X136724999Y-41909999D03*
%TD*%
D22*
%TO.C,MX19*%
X233045000Y-52387500D03*
D23*
X238125000Y-52387500D03*
D22*
X243205000Y-52387500D03*
%TD*%
%TO.C,MX5*%
X104457500Y-33337500D03*
D23*
X109537500Y-33337500D03*
D22*
X114617500Y-33337500D03*
%TD*%
%TO.C,MX6*%
X175895000Y-33337500D03*
D23*
X180975000Y-33337500D03*
D22*
X186055000Y-33337500D03*
%TD*%
D14*
%TO.C,D4*%
X128412499Y-34924999D03*
D15*
X127187499Y-34924999D03*
X123637499Y-34924999D03*
D16*
X122412499Y-34924999D03*
%TD*%
D22*
%TO.C,MX21*%
X28257500Y-71437500D03*
D23*
X33337500Y-71437500D03*
D22*
X38417500Y-71437500D03*
%TD*%
D13*
%TO.C,H6*%
X234387500Y-40736500D03*
%TD*%
D23*
%TO.C,S1*%
X202406250Y-82232500D03*
X178593750Y-82232500D03*
%TD*%
D21*
%TO.C,C6*%
X136475000Y-62396757D03*
X136475000Y-57396757D03*
%TD*%
D22*
%TO.C,MX4*%
X85407500Y-33337500D03*
D23*
X90487500Y-33337500D03*
D22*
X95567500Y-33337500D03*
%TD*%
D21*
%TO.C,C7*%
X138224728Y-79368071D03*
X133224728Y-79368071D03*
%TD*%
D22*
%TO.C,MX37*%
X175895000Y-90487500D03*
D23*
X180975000Y-90487500D03*
D22*
X186055000Y-90487500D03*
%TD*%
%TO.C,MX20*%
X252095000Y-52387500D03*
D23*
X257175000Y-52387500D03*
D22*
X262255000Y-52387500D03*
%TD*%
D23*
%TO.C,S2*%
X219075000Y-82232500D03*
X180975000Y-82232500D03*
%TD*%
D14*
%TO.C,D12*%
X130793749Y-50799999D03*
D15*
X129568749Y-50799999D03*
X126018749Y-50799999D03*
D16*
X124793749Y-50799999D03*
%TD*%
D22*
%TO.C,MX27*%
X194945000Y-71437500D03*
D23*
X200025000Y-71437500D03*
D22*
X205105000Y-71437500D03*
%TD*%
%TO.C,MX1*%
X28257500Y-33337500D03*
D23*
X33337500Y-33337500D03*
D22*
X38417500Y-33337500D03*
%TD*%
%TO.C,MX38*%
X185420000Y-90487500D03*
D23*
X190500000Y-90487500D03*
D22*
X195580000Y-90487500D03*
%TD*%
D24*
%TO.C,D45*%
X156209999Y-53899999D03*
D25*
X148589999Y-53899999D03*
%TD*%
D22*
%TO.C,MX12*%
X47307500Y-52387500D03*
D23*
X52387500Y-52387500D03*
D22*
X57467500Y-52387500D03*
%TD*%
D14*
%TO.C,D3*%
X130793749Y-38099999D03*
D15*
X129568749Y-38099999D03*
X126018749Y-38099999D03*
D16*
X124793749Y-38099999D03*
%TD*%
D14*
%TO.C,D8*%
X159543749Y-38099999D03*
D15*
X160768749Y-38099999D03*
X164318749Y-38099999D03*
D16*
X165543749Y-38099999D03*
%TD*%
D14*
%TO.C,D16*%
X162099999Y-60124999D03*
D15*
X163324999Y-60124999D03*
X166874999Y-60124999D03*
D16*
X168099999Y-60124999D03*
%TD*%
D22*
%TO.C,MX34*%
X85407500Y-90487500D03*
D23*
X90487500Y-90487500D03*
D22*
X95567500Y-90487500D03*
%TD*%
D21*
%TO.C,C1*%
X134625429Y-49502571D03*
X134625429Y-54502571D03*
%TD*%
D14*
%TO.C,D9*%
X162099999Y-41274999D03*
D15*
X163324999Y-41274999D03*
X166874999Y-41274999D03*
D16*
X168099999Y-41274999D03*
%TD*%
D14*
%TO.C,D24*%
X128412499Y-66674999D03*
D15*
X127187499Y-66674999D03*
X123637499Y-66674999D03*
D16*
X122412499Y-66674999D03*
%TD*%
D22*
%TO.C,MX41*%
X233045000Y-90487500D03*
D23*
X238125000Y-90487500D03*
D22*
X243205000Y-90487500D03*
%TD*%
D14*
%TO.C,D38*%
X162099999Y-85724999D03*
D15*
X163324999Y-85724999D03*
X166874999Y-85724999D03*
D16*
X168099999Y-85724999D03*
%TD*%
D14*
%TO.C,D29*%
X162099999Y-73024999D03*
D15*
X163324999Y-73024999D03*
X166874999Y-73024999D03*
D16*
X168099999Y-73024999D03*
%TD*%
D18*
%TO.C,R2*%
X134343750Y-34290000D03*
D19*
X134343749Y-41909999D03*
%TD*%
D22*
%TO.C,MX28*%
X213995000Y-71437500D03*
D23*
X219075000Y-71437500D03*
D22*
X224155000Y-71437500D03*
%TD*%
%TO.C,MX8*%
X213995000Y-33337500D03*
D23*
X219075000Y-33337500D03*
D22*
X224155000Y-33337500D03*
%TD*%
D14*
%TO.C,D18*%
X162099999Y-53974999D03*
D15*
X163324999Y-53974999D03*
X166874999Y-53974999D03*
D16*
X168099999Y-53974999D03*
%TD*%
D22*
%TO.C,MX18*%
X213995000Y-52387500D03*
D23*
X219075000Y-52387500D03*
D22*
X224155000Y-52387500D03*
%TD*%
D14*
%TO.C,D7*%
X162099999Y-34924999D03*
D15*
X163324999Y-34924999D03*
X166874999Y-34924999D03*
D16*
X168099999Y-34924999D03*
%TD*%
D14*
%TO.C,D34*%
X130793749Y-88899999D03*
D15*
X129568749Y-88899999D03*
X126018749Y-88899999D03*
D16*
X124793749Y-88899999D03*
%TD*%
D14*
%TO.C,D20*%
X162099999Y-47624999D03*
D15*
X163324999Y-47624999D03*
X166874999Y-47624999D03*
D16*
X168099999Y-47624999D03*
%TD*%
D22*
%TO.C,MX33*%
X66357500Y-90487500D03*
D23*
X71437500Y-90487500D03*
D22*
X76517500Y-90487500D03*
%TD*%
D14*
%TO.C,D13*%
X128412499Y-53974999D03*
D15*
X127187499Y-53974999D03*
X123637499Y-53974999D03*
D16*
X122412499Y-53974999D03*
%TD*%
D26*
%TO.C,D43*%
X139987677Y-45367783D03*
D27*
X150147677Y-45367783D03*
%TD*%
D14*
%TO.C,D15*%
X128412499Y-60124999D03*
D15*
X127187499Y-60124999D03*
X123637499Y-60124999D03*
D16*
X122412499Y-60124999D03*
%TD*%
D22*
%TO.C,MX23*%
X66357500Y-71437500D03*
D23*
X71437500Y-71437500D03*
D22*
X76517500Y-71437500D03*
%TD*%
D14*
%TO.C,D33*%
X128412499Y-85724999D03*
D15*
X127187499Y-85724999D03*
X123637499Y-85724999D03*
D16*
X122412499Y-85724999D03*
%TD*%
D14*
%TO.C,D10*%
X159718749Y-44449999D03*
D15*
X160943749Y-44449999D03*
X164493749Y-44449999D03*
D16*
X165718749Y-44449999D03*
%TD*%
D14*
%TO.C,D36*%
X162099999Y-92074999D03*
D15*
X163324999Y-92074999D03*
X166874999Y-92074999D03*
D16*
X168099999Y-92074999D03*
%TD*%
D22*
%TO.C,MX14*%
X85407500Y-52387500D03*
D23*
X90487500Y-52387500D03*
D22*
X95567500Y-52387500D03*
%TD*%
D14*
%TO.C,D19*%
X159718749Y-50799999D03*
D15*
X160943749Y-50799999D03*
X164493749Y-50799999D03*
D16*
X165718749Y-50799999D03*
%TD*%
D14*
%TO.C,D5*%
X130793749Y-31749999D03*
D15*
X129568749Y-31749999D03*
X126018749Y-31749999D03*
D16*
X124793749Y-31749999D03*
%TD*%
D28*
%TO.C,U2*%
X140176249Y-52091987D03*
D29*
X138906249Y-52091987D03*
X137636249Y-52091987D03*
%TD*%
D21*
%TO.C,C11*%
X138906250Y-62396757D03*
X138906250Y-57396757D03*
%TD*%
D23*
%TO.C,S3*%
X109537500Y-82232500D03*
X71437500Y-82232500D03*
%TD*%
D14*
%TO.C,D23*%
X130793749Y-69849999D03*
D15*
X129568749Y-69849999D03*
X126018749Y-69849999D03*
D16*
X124793749Y-69849999D03*
%TD*%
D22*
%TO.C,MX17*%
X194945000Y-52387500D03*
D23*
X200025000Y-52387500D03*
D22*
X205105000Y-52387500D03*
%TD*%
D14*
%TO.C,D27*%
X162099999Y-66674999D03*
D15*
X163324999Y-66674999D03*
X166874999Y-66674999D03*
D16*
X168099999Y-66674999D03*
%TD*%
D14*
%TO.C,D2*%
X128412499Y-41274999D03*
D15*
X127187499Y-41274999D03*
X123637499Y-41274999D03*
D16*
X122412499Y-41274999D03*
%TD*%
D21*
%TO.C,C10*%
X152268053Y-76738522D03*
X157268053Y-76738522D03*
%TD*%
D22*
%TO.C,MX16*%
X175895000Y-52387500D03*
D23*
X180975000Y-52387500D03*
D22*
X186055000Y-52387500D03*
%TD*%
D14*
%TO.C,D39*%
X159718749Y-82549999D03*
D15*
X160943749Y-82549999D03*
X164493749Y-82549999D03*
D16*
X165718749Y-82549999D03*
%TD*%
D14*
%TO.C,D17*%
X159543749Y-57149999D03*
D15*
X160768749Y-57149999D03*
X164318749Y-57149999D03*
D16*
X165543749Y-57149999D03*
%TD*%
D22*
%TO.C,MX31*%
X28257500Y-90487500D03*
D23*
X33337500Y-90487500D03*
D22*
X38417500Y-90487500D03*
%TD*%
D23*
%TO.C,S4*%
X111918750Y-82232500D03*
X88106250Y-82232500D03*
%TD*%
D14*
%TO.C,D40*%
X162099999Y-79374999D03*
D15*
X163324999Y-79374999D03*
X166874999Y-79374999D03*
D16*
X168099999Y-79374999D03*
%TD*%
D22*
%TO.C,MX26*%
X175895000Y-71437500D03*
D23*
X180975000Y-71437500D03*
D22*
X186055000Y-71437500D03*
%TD*%
D14*
%TO.C,D1*%
X130793749Y-44449999D03*
D15*
X129568749Y-44449999D03*
X126018749Y-44449999D03*
D16*
X124793749Y-44449999D03*
%TD*%
D18*
%TO.C,R3*%
X135478264Y-86899166D03*
D19*
X143098263Y-86899165D03*
%TD*%
D14*
%TO.C,D30*%
X159718749Y-76199999D03*
D15*
X160943749Y-76199999D03*
X164493749Y-76199999D03*
D16*
X165718749Y-76199999D03*
%TD*%
D21*
%TO.C,C8*%
X138224728Y-76936821D03*
X133224728Y-76936821D03*
%TD*%
D22*
%TO.C,MX32*%
X47307500Y-90487500D03*
D23*
X52387500Y-90487500D03*
D22*
X57467500Y-90487500D03*
%TD*%
D30*
%TO.C,U3*%
X141131249Y-39809999D03*
X142081249Y-39809999D03*
X143031249Y-39809999D03*
X143031249Y-36389999D03*
X141131249Y-36389999D03*
%TD*%
D14*
%TO.C,D31*%
X128412499Y-79374999D03*
D15*
X127187499Y-79374999D03*
X123637499Y-79374999D03*
D16*
X122412499Y-79374999D03*
%TD*%
D22*
%TO.C,MX3*%
X66357500Y-33337500D03*
D23*
X71437500Y-33337500D03*
D22*
X76517500Y-33337500D03*
%TD*%
D14*
%TO.C,D28*%
X159718749Y-69849999D03*
D15*
X160943749Y-69849999D03*
X164493749Y-69849999D03*
D16*
X165718749Y-69849999D03*
%TD*%
D22*
%TO.C,MX29*%
X233045000Y-71437500D03*
D23*
X238125000Y-71437500D03*
D22*
X243205000Y-71437500D03*
%TD*%
%TO.C,MX39*%
X200025000Y-95567500D03*
D23*
X200025000Y-90487500D03*
D22*
X200025000Y-85407500D03*
%TD*%
D14*
%TO.C,D11*%
X128412499Y-47624999D03*
D15*
X127187499Y-47624999D03*
X123637499Y-47624999D03*
D16*
X122412499Y-47624999D03*
%TD*%
D22*
%TO.C,MX7*%
X194945000Y-33337500D03*
D23*
X200025000Y-33337500D03*
D22*
X205105000Y-33337500D03*
%TD*%
%TO.C,MX22*%
X47307500Y-71437500D03*
D23*
X52387500Y-71437500D03*
D22*
X57467500Y-71437500D03*
%TD*%
%TO.C,MX9*%
X243205000Y-33337500D03*
D23*
X238125000Y-33337500D03*
D22*
X233045000Y-33337500D03*
%TD*%
D21*
%TO.C,C4*%
X148712500Y-85725000D03*
X153712500Y-85725000D03*
%TD*%
D14*
%TO.C,D37*%
X159718749Y-88899999D03*
D15*
X160943749Y-88899999D03*
X164493749Y-88899999D03*
D16*
X165718749Y-88899999D03*
%TD*%
D14*
%TO.C,D21*%
X130793749Y-76199999D03*
D15*
X129568749Y-76199999D03*
X126018749Y-76199999D03*
D16*
X124793749Y-76199999D03*
%TD*%
D21*
%TO.C,C5*%
X152268053Y-79169772D03*
X157268053Y-79169772D03*
%TD*%
D22*
%TO.C,MX15*%
X104457500Y-52387500D03*
D23*
X109537500Y-52387500D03*
D22*
X114617500Y-52387500D03*
%TD*%
D13*
%TO.C,*%
X206137500Y-89371500D03*
%TD*%
%TO.C,*%
X53537500Y-77636500D03*
%TD*%
D22*
%TO.C,MX25*%
X104457500Y-71437500D03*
D23*
X109537500Y-71437500D03*
D22*
X114617500Y-71437500D03*
%TD*%
%TO.C,MX36*%
X94932500Y-90487500D03*
D23*
X100012500Y-90487500D03*
D22*
X105092500Y-90487500D03*
%TD*%
%TO.C,MX13*%
X66357500Y-52387500D03*
D23*
X71437500Y-52387500D03*
D22*
X76517500Y-52387500D03*
%TD*%
D31*
%TO.C,U1*%
X141506250Y-75343597D03*
X142006250Y-75343597D03*
X142506250Y-75343597D03*
X143006250Y-75343597D03*
X143506250Y-75343597D03*
X144006250Y-75343597D03*
X144506250Y-75343597D03*
X145006250Y-75343597D03*
X145506250Y-75343597D03*
X146006250Y-75343597D03*
X146506250Y-75343597D03*
X147006250Y-75343597D03*
X147506250Y-75343597D03*
X148006250Y-75343597D03*
X148506250Y-75343597D03*
X149006250Y-75343597D03*
D32*
X150931250Y-73418597D03*
X150931250Y-72918597D03*
X150931250Y-72418597D03*
X150931250Y-71918597D03*
X150931250Y-71418597D03*
X150931250Y-70918597D03*
X150931250Y-70418597D03*
X150931250Y-69918597D03*
X150931250Y-69418597D03*
X150931250Y-68918597D03*
X150931250Y-68418597D03*
X150931250Y-67918597D03*
X150931250Y-67418597D03*
X150931250Y-66918597D03*
X150931250Y-66418597D03*
X150931250Y-65918597D03*
D31*
X149006250Y-63993597D03*
X148506250Y-63993597D03*
X148006250Y-63993597D03*
X147506250Y-63993597D03*
X147006250Y-63993597D03*
X146506250Y-63993597D03*
X146006250Y-63993597D03*
X145506250Y-63993597D03*
X145006250Y-63993597D03*
X144506250Y-63993597D03*
X144006250Y-63993597D03*
X143506250Y-63993597D03*
X143006250Y-63993597D03*
X142506250Y-63993597D03*
X142006250Y-63993597D03*
X141506250Y-63993597D03*
D32*
X139581250Y-65918597D03*
X139581250Y-66418597D03*
X139581250Y-66918597D03*
X139581250Y-67418597D03*
X139581250Y-67918597D03*
X139581250Y-68418597D03*
X139581250Y-68918597D03*
X139581250Y-69418597D03*
X139581250Y-69918597D03*
X139581250Y-70418597D03*
X139581250Y-70918597D03*
X139581250Y-71418597D03*
X139581250Y-71918597D03*
X139581250Y-72418597D03*
X139581250Y-72918597D03*
X139581250Y-73418597D03*
%TD*%
D22*
%TO.C,MX40*%
X213995000Y-90487500D03*
D23*
X219075000Y-90487500D03*
D22*
X224155000Y-90487500D03*
%TD*%
D14*
%TO.C,D25*%
X130793749Y-63699999D03*
D15*
X129568749Y-63699999D03*
X126018749Y-63699999D03*
D16*
X124793749Y-63699999D03*
%TD*%
D14*
%TO.C,D22*%
X128412499Y-73024999D03*
D15*
X127187499Y-73024999D03*
X123637499Y-73024999D03*
D16*
X122412499Y-73024999D03*
%TD*%
D21*
%TO.C,C3*%
X146050000Y-35600000D03*
X146050000Y-40600000D03*
%TD*%
D22*
%TO.C,MX2*%
X47307500Y-33337500D03*
D23*
X52387500Y-33337500D03*
D22*
X57467500Y-33337500D03*
%TD*%
D14*
%TO.C,D32*%
X130793749Y-82549999D03*
D15*
X129568749Y-82549999D03*
X126018749Y-82549999D03*
D16*
X124793749Y-82549999D03*
%TD*%
D22*
%TO.C,MX11*%
X28257500Y-52387500D03*
D23*
X33337500Y-52387500D03*
D22*
X38417500Y-52387500D03*
%TD*%
%TO.C,MX42*%
X252095000Y-90487500D03*
D23*
X257175000Y-90487500D03*
D22*
X262255000Y-90487500D03*
%TD*%
%TO.C,MX30*%
X252095000Y-71437500D03*
D23*
X257175000Y-71437500D03*
D22*
X262255000Y-71437500D03*
%TD*%
%TO.C,MX35*%
X104457500Y-90487500D03*
D23*
X109537500Y-90487500D03*
D22*
X114617500Y-90487500D03*
%TD*%
D21*
%TO.C,C2*%
X143250429Y-49600098D03*
X143250429Y-54600098D03*
%TD*%
D14*
%TO.C,D14*%
X130793749Y-57149999D03*
D15*
X129568749Y-57149999D03*
X126018749Y-57149999D03*
D16*
X124793749Y-57149999D03*
%TD*%
D17*
%TO.C,SW1*%
X142550000Y-94325000D03*
X136050000Y-94325000D03*
X142550000Y-89825000D03*
X136050000Y-89825000D03*
%TD*%
D14*
%TO.C,D35*%
X128412499Y-92074999D03*
D15*
X127187499Y-92074999D03*
X123637499Y-92074999D03*
D16*
X122412499Y-92074999D03*
%TD*%
D24*
%TO.C,D44*%
X156209999Y-50349999D03*
D25*
X148589999Y-50349999D03*
%TD*%
D14*
%TO.C,D26*%
X159718749Y-63699999D03*
D15*
X160943749Y-63699999D03*
X164493749Y-63699999D03*
D16*
X165718749Y-63699999D03*
%TD*%
D33*
%TO.C,D41*%
X139074999Y-29368749D03*
X141549999Y-29368749D03*
X140324999Y-29368749D03*
X137849999Y-29368749D03*
%TD*%
%TO.C,D42*%
X150981249Y-29368749D03*
X153456249Y-29368749D03*
X152231249Y-29368749D03*
X149756249Y-29368749D03*
%TD*%
D34*
%TO.C,J1*%
X233938179Y-29918750D03*
X234788179Y-29918750D03*
X235638179Y-29918750D03*
X236488179Y-29918750D03*
X237338179Y-29918750D03*
X238188179Y-29918750D03*
X239038179Y-29918750D03*
X239888179Y-29918750D03*
X239888179Y-28568750D03*
X239038179Y-28568750D03*
X238188179Y-28568750D03*
X237338179Y-28568750D03*
X236488179Y-28568750D03*
X235638179Y-28568750D03*
X234788179Y-28568750D03*
X233938179Y-28568750D03*
D35*
X232588178Y-25558749D03*
D36*
X232588178Y-28938749D03*
D35*
X241238178Y-25558749D03*
D36*
X241238178Y-28938749D03*
%TD*%
M02*
